<svg id="Grupo_20737" data-name="Grupo 20737" xmlns="http://www.w3.org/2000/svg" width="344.137" height="328.422" viewBox="0 0 344.137 328.422">
  <g id="Grupo_20686" data-name="Grupo 20686" transform="translate(46.582 48.216)" opacity="0.7">
    <circle id="Elipse_1225" data-name="Elipse 1225" cx="1.036" cy="1.036" r="1.036" transform="translate(239.629 132.495)" fill="#fff"/>
    <circle id="Elipse_1226" data-name="Elipse 1226" cx="1.036" cy="1.036" r="1.036" transform="translate(240.009 127.656)" fill="#fff"/>
    <circle id="Elipse_1227" data-name="Elipse 1227" cx="1.036" cy="1.036" r="1.036" transform="translate(240.216 122.77)" fill="#fff"/>
    <path id="Trazado_47269" data-name="Trazado 47269" d="M363.2,206.266a1.036,1.036,0,1,0,1.036,1.036A1.036,1.036,0,0,0,363.2,206.266Z" transform="translate(-121.911 -88.337)" fill="#fff"/>
    <path id="Trazado_47270" data-name="Trazado 47270" d="M361.932,201.73a1.036,1.036,0,1,0,1.036-1.036A1.036,1.036,0,0,0,361.932,201.73Z" transform="translate(-121.881 -87.603)" fill="#fff"/>
    <circle id="Elipse_1228" data-name="Elipse 1228" cx="1.036" cy="1.036" r="1.036" transform="translate(239.667 108.2)" fill="#fff"/>
    <circle id="Elipse_1229" data-name="Elipse 1229" cx="1.036" cy="1.036" r="1.036" transform="translate(239.091 103.398)" fill="#fff"/>
    <path id="Trazado_47271" data-name="Trazado 47271" d="M359.963,185.036A1.036,1.036,0,1,0,361,184,1.036,1.036,0,0,0,359.963,185.036Z" transform="translate(-121.622 -85.403)" fill="#fff"/>
    <circle id="Elipse_1230" data-name="Elipse 1230" cx="1.036" cy="1.036" r="1.036" transform="translate(237.358 93.811)" fill="#fff"/>
    <path id="Trazado_47272" data-name="Trazado 47272" d="M357.5,174.117a1.036,1.036,0,1,0,1.036-1.036A1.036,1.036,0,0,0,357.5,174.117Z" transform="translate(-121.297 -83.965)" fill="#fff"/>
    <path id="Trazado_47273" data-name="Trazado 47273" d="M355.955,168.731a1.036,1.036,0,1,0,1.036-1.036A1.036,1.036,0,0,0,355.955,168.731Z" transform="translate(-121.093 -83.255)" fill="#fff"/>
    <path id="Trazado_47274" data-name="Trazado 47274" d="M354.188,163.4a1.036,1.036,0,1,0,1.036-1.036A1.036,1.036,0,0,0,354.188,163.4Z" transform="translate(-120.861 -82.553)" fill="#fff"/>
    <circle id="Elipse_1231" data-name="Elipse 1231" cx="1.036" cy="1.036" r="1.036" transform="translate(231.614 75.287)" fill="#fff"/>
    <path id="Trazado_47275" data-name="Trazado 47275" d="M351.042,154.086a1.036,1.036,0,1,0-1.036-1.036A1.036,1.036,0,0,0,351.042,154.086Z" transform="translate(-120.31 -81.189)" fill="#fff"/>
    <path id="Trazado_47276" data-name="Trazado 47276" d="M348.646,149.017a1.036,1.036,0,1,0-1.036-1.036A1.036,1.036,0,0,0,348.646,149.017Z" transform="translate(-119.994 -80.521)" fill="#fff"/>
    <path id="Trazado_47277" data-name="Trazado 47277" d="M346.045,144.082a1.036,1.036,0,1,0-1.036-1.036A1.036,1.036,0,0,0,346.045,144.082Z" transform="translate(-119.651 -79.871)" fill="#fff"/>
    <path id="Trazado_47278" data-name="Trazado 47278" d="M343.268,137.184a1.036,1.036,0,1,0,1.036,1.036A1.036,1.036,0,0,0,343.268,137.184Z" transform="translate(-119.285 -79.235)" fill="#fff"/>
    <path id="Trazado_47279" data-name="Trazado 47279" d="M340.269,132.466A1.036,1.036,0,1,0,341.3,133.5,1.036,1.036,0,0,0,340.269,132.466Z" transform="translate(-118.89 -78.613)" fill="#fff"/>
    <path id="Trazado_47280" data-name="Trazado 47280" d="M337.082,127.872a1.036,1.036,0,1,0,1.036,1.036A1.036,1.036,0,0,0,337.082,127.872Z" transform="translate(-118.47 -78.008)" fill="#fff"/>
    <path id="Trazado_47281" data-name="Trazado 47281" d="M333.681,123.387a1.036,1.036,0,1,0,1.036,1.037A1.036,1.036,0,0,0,333.681,123.387Z" transform="translate(-118.022 -77.417)" fill="#fff"/>
    <path id="Trazado_47282" data-name="Trazado 47282" d="M330.181,119.074a1.036,1.036,0,1,0,1.036,1.036A1.036,1.036,0,0,0,330.181,119.074Z" transform="translate(-117.561 -76.849)" fill="#fff"/>
    <path id="Trazado_47283" data-name="Trazado 47283" d="M326.467,114.892a1.036,1.036,0,1,0,1.036,1.036A1.036,1.036,0,0,0,326.467,114.892Z" transform="translate(-117.072 -76.298)" fill="#fff"/>
    <circle id="Elipse_1232" data-name="Elipse 1232" cx="1.036" cy="1.036" r="1.036" transform="translate(204.976 35.081)" fill="#fff"/>
    <circle id="Elipse_1233" data-name="Elipse 1233" cx="1.036" cy="1.036" r="1.036" transform="translate(201.484 31.724)" fill="#fff"/>
    <path id="Trazado_47284" data-name="Trazado 47284" d="M314.345,103.266a1.036,1.036,0,1,0,1.036,1.036A1.036,1.036,0,0,0,314.345,103.266Z" transform="translate(-115.474 -74.766)" fill="#fff"/>
    <circle id="Elipse_1234" data-name="Elipse 1234" cx="1.036" cy="1.036" r="1.036" transform="translate(194.035 25.42)" fill="#fff"/>
    <circle id="Elipse_1235" data-name="Elipse 1235" cx="1.036" cy="1.036" r="1.036" transform="translate(190.175 22.507)" fill="#fff"/>
    <path id="Trazado_47285" data-name="Trazado 47285" d="M300.912,93.2a1.036,1.036,0,1,0,1.036,1.036A1.036,1.036,0,0,0,300.912,93.2Z" transform="translate(-113.705 -73.439)" fill="#fff"/>
    <path id="Trazado_47286" data-name="Trazado 47286" d="M296.142,90.189a1.036,1.036,0,1,0,1.036,1.036A1.036,1.036,0,0,0,296.142,90.189Z" transform="translate(-113.076 -73.043)" fill="#fff"/>
    <circle id="Elipse_1236" data-name="Elipse 1236" cx="1.036" cy="1.036" r="1.036" transform="translate(177.802 14.723)" fill="#fff"/>
    <path id="Trazado_47287" data-name="Trazado 47287" d="M286.327,84.8a1.036,1.036,0,1,0,1.036,1.036A1.036,1.036,0,0,0,286.327,84.8Z" transform="translate(-111.783 -72.332)" fill="#fff"/>
    <circle id="Elipse_1237" data-name="Elipse 1237" cx="1.036" cy="1.036" r="1.036" transform="translate(169.084 10.393)" fill="#fff"/>
    <path id="Trazado_47288" data-name="Trazado 47288" d="M276.083,80.23a1.036,1.036,0,1,0,1.037,1.036A1.036,1.036,0,0,0,276.083,80.23Z" transform="translate(-110.433 -71.731)" fill="#fff"/>
    <path id="Trazado_47289" data-name="Trazado 47289" d="M270.8,78.257a1.036,1.036,0,1,0,1.036,1.036A1.036,1.036,0,0,0,270.8,78.257Z" transform="translate(-109.737 -71.471)" fill="#fff"/>
    <path id="Trazado_47290" data-name="Trazado 47290" d="M265.493,76.5a1.036,1.036,0,1,0,1.036,1.037A1.036,1.036,0,0,0,265.493,76.5Z" transform="translate(-109.038 -71.24)" fill="#fff"/>
    <path id="Trazado_47291" data-name="Trazado 47291" d="M260.107,74.959a1.036,1.036,0,1,0,1.036,1.036A1.036,1.036,0,0,0,260.107,74.959Z" transform="translate(-108.328 -71.036)" fill="#fff"/>
    <path id="Trazado_47292" data-name="Trazado 47292" d="M254.663,73.656a1.036,1.036,0,1,0,1.036,1.037A1.036,1.036,0,0,0,254.663,73.656Z" transform="translate(-107.611 -70.864)" fill="#fff"/>
    <path id="Trazado_47293" data-name="Trazado 47293" d="M249.186,72.563a1.036,1.036,0,1,0,1.037,1.036A1.036,1.036,0,0,0,249.186,72.563Z" transform="translate(-106.889 -70.72)" fill="#fff"/>
    <path id="Trazado_47294" data-name="Trazado 47294" d="M243.62,71.7a1.036,1.036,0,1,0,1.036,1.036A1.036,1.036,0,0,0,243.62,71.7Z" transform="translate(-106.156 -70.607)" fill="#fff"/>
    <circle id="Elipse_1238" data-name="Elipse 1238" cx="1.036" cy="1.036" r="1.036" transform="translate(131.63 0.526)" fill="#fff"/>
    <path id="Trazado_47295" data-name="Trazado 47295" d="M232.48,70.641a1.036,1.036,0,1,0,1.036,1.036A1.036,1.036,0,0,0,232.48,70.641Z" transform="translate(-104.688 -70.467)" fill="#fff"/>
    <circle id="Elipse_1239" data-name="Elipse 1239" cx="1.036" cy="1.036" r="1.036" transform="translate(121.923)" fill="#fff"/>
    <path id="Trazado_47296" data-name="Trazado 47296" d="M221.327,70.476a1.036,1.036,0,1,0,1.036,1.036A1.036,1.036,0,0,0,221.327,70.476Z" transform="translate(-103.218 -70.445)" fill="#fff"/>
    <path id="Trazado_47297" data-name="Trazado 47297" d="M215.694,70.741a1.036,1.036,0,1,0,1.036,1.037A1.036,1.036,0,0,0,215.694,70.741Z" transform="translate(-102.476 -70.48)" fill="#fff"/>
    <circle id="Elipse_1240" data-name="Elipse 1240" cx="1.036" cy="1.036" r="1.036" transform="translate(107.349 0.654)" fill="#fff"/>
    <path id="Trazado_47298" data-name="Trazado 47298" d="M204.582,71.9a1.036,1.036,0,1,0,1.036,1.037A1.037,1.037,0,0,0,204.582,71.9Z" transform="translate(-101.012 -70.633)" fill="#fff"/>
    <circle id="Elipse_1241" data-name="Elipse 1241" cx="1.036" cy="1.036" r="1.036" transform="translate(97.744 2.062)" fill="#fff"/>
    <circle id="Elipse_1242" data-name="Elipse 1242" cx="1.036" cy="1.036" r="1.036" transform="translate(92.966 3.068)" fill="#fff"/>
    <path id="Trazado_47299" data-name="Trazado 47299" d="M188.151,75.355a1.036,1.036,0,1,0,1.036,1.036A1.036,1.036,0,0,0,188.151,75.355Z" transform="translate(-98.847 -71.088)" fill="#fff"/>
    <circle id="Elipse_1243" data-name="Elipse 1243" cx="1.036" cy="1.036" r="1.036" transform="translate(83.622 5.634)" fill="#fff"/>
    <circle id="Elipse_1244" data-name="Elipse 1244" cx="1.036" cy="1.036" r="1.036" transform="translate(78.999 7.216)" fill="#fff"/>
    <path id="Trazado_47300" data-name="Trazado 47300" d="M172.249,80.769a1.036,1.036,0,1,0,1.036,1.036A1.036,1.036,0,0,0,172.249,80.769Z" transform="translate(-96.752 -71.802)" fill="#fff"/>
    <circle id="Elipse_1245" data-name="Elipse 1245" cx="1.036" cy="1.036" r="1.036" transform="translate(70.023 10.913)" fill="#fff"/>
    <path id="Trazado_47301" data-name="Trazado 47301" d="M162.126,85.416a1.036,1.036,0,1,0,1.037,1.036A1.036,1.036,0,0,0,162.126,85.416Z" transform="translate(-95.418 -72.414)" fill="#fff"/>
    <circle id="Elipse_1246" data-name="Elipse 1246" cx="1.036" cy="1.036" r="1.036" transform="translate(61.379 15.317)" fill="#fff"/>
    <circle id="Elipse_1247" data-name="Elipse 1247" cx="1.036" cy="1.036" r="1.036" transform="translate(57.225 17.743)" fill="#fff"/>
    <path id="Trazado_47302" data-name="Trazado 47302" d="M147.69,93.918a1.036,1.036,0,1,0,1.036,1.036A1.036,1.036,0,0,0,147.69,93.918Z" transform="translate(-93.516 -73.534)" fill="#fff"/>
    <path id="Trazado_47303" data-name="Trazado 47303" d="M143.11,97.129a1.036,1.036,0,1,0,1.036,1.037A1.036,1.036,0,0,0,143.11,97.129Z" transform="translate(-92.913 -73.957)" fill="#fff"/>
    <path id="Trazado_47304" data-name="Trazado 47304" d="M138.648,100.556a1.036,1.036,0,1,0,1.037,1.036A1.036,1.036,0,0,0,138.648,100.556Z" transform="translate(-92.325 -74.409)" fill="#fff"/>
    <circle id="Elipse_1248" data-name="Elipse 1248" cx="1.036" cy="1.036" r="1.036" transform="translate(41.57 29.234)" fill="#fff"/>
    <path id="Trazado_47305" data-name="Trazado 47305" d="M130.2,107.861a1.036,1.036,0,1,0,1.037,1.036A1.036,1.036,0,0,0,130.2,107.861Z" transform="translate(-91.212 -75.371)" fill="#fff"/>
    <path id="Trazado_47306" data-name="Trazado 47306" d="M126.2,111.774a1.036,1.036,0,1,0,1.036,1.036A1.036,1.036,0,0,0,126.2,111.774Z" transform="translate(-90.685 -75.887)" fill="#fff"/>
    <path id="Trazado_47307" data-name="Trazado 47307" d="M122.358,115.836a1.036,1.036,0,1,0,1.036,1.036A1.036,1.036,0,0,0,122.358,115.836Z" transform="translate(-90.178 -76.422)" fill="#fff"/>
    <path id="Trazado_47308" data-name="Trazado 47308" d="M118.661,120.072a1.036,1.036,0,1,0,1.036,1.036A1.036,1.036,0,0,0,118.661,120.072Z" transform="translate(-89.691 -76.98)" fill="#fff"/>
    <path id="Trazado_47309" data-name="Trazado 47309" d="M115.162,124.449a1.036,1.036,0,1,0,1.036,1.037A1.036,1.036,0,0,0,115.162,124.449Z" transform="translate(-89.23 -77.557)" fill="#fff"/>
    <path id="Trazado_47310" data-name="Trazado 47310" d="M112.877,130a1.036,1.036,0,1,0-1.036,1.036A1.036,1.036,0,0,0,112.877,130Z" transform="translate(-88.793 -78.152)" fill="#fff"/>
    <path id="Trazado_47311" data-name="Trazado 47311" d="M109.74,134.627a1.036,1.036,0,1,0-1.036,1.036A1.036,1.036,0,0,0,109.74,134.627Z" transform="translate(-88.379 -78.761)" fill="#fff"/>
    <path id="Trazado_47312" data-name="Trazado 47312" d="M105.738,140.406a1.036,1.036,0,1,0-1.036-1.036A1.036,1.036,0,0,0,105.738,140.406Z" transform="translate(-87.988 -79.386)" fill="#fff"/>
    <path id="Trazado_47313" data-name="Trazado 47313" d="M102.994,145.273a1.036,1.036,0,1,0-1.036-1.037A1.036,1.036,0,0,0,102.994,145.273Z" transform="translate(-87.627 -80.028)" fill="#fff"/>
    <path id="Trazado_47314" data-name="Trazado 47314" d="M100.42,150.279a1.036,1.036,0,1,0-1.036-1.036A1.036,1.036,0,0,0,100.42,150.279Z" transform="translate(-87.288 -80.687)" fill="#fff"/>
    <path id="Trazado_47315" data-name="Trazado 47315" d="M98.044,155.4a1.036,1.036,0,1,0-1.036-1.037A1.036,1.036,0,0,0,98.044,155.4Z" transform="translate(-86.975 -81.362)" fill="#fff"/>
    <circle id="Elipse_1249" data-name="Elipse 1249" cx="1.036" cy="1.036" r="1.036" transform="translate(8.182 76.452)" fill="#fff"/>
    <circle id="Elipse_1250" data-name="Elipse 1250" cx="1.036" cy="1.036" r="1.036" transform="translate(6.527 81.037)" fill="#fff"/>
    <circle id="Elipse_1251" data-name="Elipse 1251" cx="1.036" cy="1.036" r="1.036" transform="translate(5.048 85.664)" fill="#fff"/>
    <path id="Trazado_47316" data-name="Trazado 47316" d="M90.766,176.546a1.036,1.036,0,1,0-1.036-1.036A1.036,1.036,0,0,0,90.766,176.546Z" transform="translate(-86.016 -84.148)" fill="#fff"/>
    <circle id="Elipse_1252" data-name="Elipse 1252" cx="1.036" cy="1.036" r="1.036" transform="translate(2.617 95.058)" fill="#fff"/>
    <path id="Trazado_47317" data-name="Trazado 47317" d="M88.47,187.525a1.036,1.036,0,1,0-1.036-1.036A1.036,1.036,0,0,0,88.47,187.525Z" transform="translate(-85.713 -85.595)" fill="#fff"/>
    <path id="Trazado_47318" data-name="Trazado 47318" d="M87.611,193.039A1.036,1.036,0,1,0,86.575,192,1.036,1.036,0,0,0,87.611,193.039Z" transform="translate(-85.6 -86.321)" fill="#fff"/>
    <path id="Trazado_47319" data-name="Trazado 47319" d="M87.02,198.6a1.036,1.036,0,1,0-1.036-1.036A1.036,1.036,0,0,0,87.02,198.6Z" transform="translate(-85.522 -87.055)" fill="#fff"/>
    <path id="Trazado_47320" data-name="Trazado 47320" d="M86.661,204.209a1.036,1.036,0,1,0-1.036-1.036A1.036,1.036,0,0,0,86.661,204.209Z" transform="translate(-85.475 -87.793)" fill="#fff"/>
    <circle id="Elipse_1253" data-name="Elipse 1253" cx="1.036" cy="1.036" r="1.036" transform="translate(0 119.183)" fill="#fff"/>
    <path id="Trazado_47321" data-name="Trazado 47321" d="M86.568,215.388a1.036,1.036,0,1,0-1.036-1.036A1.036,1.036,0,0,0,86.568,215.388Z" transform="translate(-85.463 -89.266)" fill="#fff"/>
    <path id="Trazado_47322" data-name="Trazado 47322" d="M87.907,219.961A1.036,1.036,0,1,0,86.871,221,1.036,1.036,0,0,0,87.907,219.961Z" transform="translate(-85.503 -90.005)" fill="#fff"/>
    <circle id="Elipse_1254" data-name="Elipse 1254" cx="1.036" cy="1.036" r="1.036" transform="translate(0.776 133.757)" fill="#fff"/>
    <path id="Trazado_47323" data-name="Trazado 47323" d="M89.16,231.084a1.036,1.036,0,1,0-1.036,1.036A1.036,1.036,0,0,0,89.16,231.084Z" transform="translate(-85.668 -91.471)" fill="#fff"/>
    <circle id="Elipse_1255" data-name="Elipse 1255" cx="1.036" cy="1.036" r="1.036" transform="translate(2.245 143.335)" fill="#fff"/>
    <circle id="Elipse_1256" data-name="Elipse 1256" cx="1.036" cy="1.036" r="1.036" transform="translate(3.281 148.094)" fill="#fff"/>
    <path id="Trazado_47324" data-name="Trazado 47324" d="M92.725,247.486a1.036,1.036,0,1,0-1.036,1.036A1.036,1.036,0,0,0,92.725,247.486Z" transform="translate(-86.137 -93.632)" fill="#fff"/>
    <path id="Trazado_47325" data-name="Trazado 47325" d="M94.338,252.818a1.036,1.036,0,1,0-1.036,1.036A1.036,1.036,0,0,0,94.338,252.818Z" transform="translate(-86.35 -94.334)" fill="#fff"/>
    <path id="Trazado_47326" data-name="Trazado 47326" d="M96.219,258.117a1.036,1.036,0,1,0-1.036,1.037A1.036,1.036,0,0,0,96.219,258.117Z" transform="translate(-86.598 -95.032)" fill="#fff"/>
    <path id="Trazado_47327" data-name="Trazado 47327" d="M97.208,262.266a1.036,1.036,0,1,0,1.036,1.036A1.036,1.036,0,0,0,97.208,262.266Z" transform="translate(-86.865 -95.716)" fill="#fff"/>
    <circle id="Elipse_1257" data-name="Elipse 1257" cx="1.036" cy="1.036" r="1.036" transform="translate(11.269 170.996)" fill="#fff"/>
    <path id="Trazado_47328" data-name="Trazado 47328" d="M101.946,272.386a1.036,1.036,0,1,0,1.036,1.036A1.036,1.036,0,0,0,101.946,272.386Z" transform="translate(-87.489 -97.049)" fill="#fff"/>
    <path id="Trazado_47329" data-name="Trazado 47329" d="M104.613,277.29a1.036,1.036,0,1,0,1.037,1.036A1.037,1.037,0,0,0,104.613,277.29Z" transform="translate(-87.84 -97.695)" fill="#fff"/>
    <circle id="Elipse_1258" data-name="Elipse 1258" cx="1.036" cy="1.036" r="1.036" transform="translate(18.225 183.756)" fill="#fff"/>
    <circle id="Elipse_1259" data-name="Elipse 1259" cx="1.036" cy="1.036" r="1.036" transform="translate(20.912 187.826)" fill="#fff"/>
    <path id="Trazado_47330" data-name="Trazado 47330" d="M113.812,291.324a1.036,1.036,0,1,0,1.036,1.036A1.036,1.036,0,0,0,113.812,291.324Z" transform="translate(-89.052 -99.544)" fill="#fff"/>
    <circle id="Elipse_1260" data-name="Elipse 1260" cx="1.036" cy="1.036" r="1.036" transform="translate(26.697 195.611)" fill="#fff"/>
    <circle id="Elipse_1261" data-name="Elipse 1261" cx="1.036" cy="1.036" r="1.036" transform="translate(29.843 199.334)" fill="#fff"/>
    <circle id="Elipse_1262" data-name="Elipse 1262" cx="1.036" cy="1.036" r="1.036" transform="translate(33.08 202.902)" fill="#fff"/>
    <path id="Trazado_47331" data-name="Trazado 47331" d="M128.559,308.132a1.036,1.036,0,1,0,1.036,1.036A1.036,1.036,0,0,0,128.559,308.132Z" transform="translate(-90.995 -101.759)" fill="#fff"/>
    <circle id="Elipse_1263" data-name="Elipse 1263" cx="1.036" cy="1.036" r="1.036" transform="translate(40.079 209.684)" fill="#fff"/>
    <circle id="Elipse_1264" data-name="Elipse 1264" cx="1.036" cy="1.036" r="1.036" transform="translate(43.776 212.846)" fill="#fff"/>
    <path id="Trazado_47332" data-name="Trazado 47332" d="M141.319,319.053a1.036,1.036,0,1,0,1.036,1.036A1.036,1.036,0,0,0,141.319,319.053Z" transform="translate(-92.677 -103.198)" fill="#fff"/>
    <path id="Trazado_47333" data-name="Trazado 47333" d="M145.84,322.343a1.036,1.036,0,1,0,1.037,1.037A1.036,1.036,0,0,0,145.84,322.343Z" transform="translate(-93.272 -103.631)" fill="#fff"/>
    <path id="Trazado_47334" data-name="Trazado 47334" d="M150.458,325.465a1.036,1.036,0,1,0,1.036,1.036A1.036,1.036,0,0,0,150.458,325.465Z" transform="translate(-93.881 -104.043)" fill="#fff"/>
    <path id="Trazado_47335" data-name="Trazado 47335" d="M155.25,328.4a1.036,1.036,0,1,0,1.037,1.036A1.036,1.036,0,0,0,155.25,328.4Z" transform="translate(-94.512 -104.429)" fill="#fff"/>
    <path id="Trazado_47336" data-name="Trazado 47336" d="M160.167,331.117a1.036,1.036,0,1,0,1.036,1.036A1.036,1.036,0,0,0,160.167,331.117Z" transform="translate(-95.16 -104.787)" fill="#fff"/>
    <path id="Trazado_47337" data-name="Trazado 47337" d="M165.187,333.653a1.036,1.036,0,1,0,1.036,1.036A1.037,1.037,0,0,0,165.187,333.653Z" transform="translate(-95.821 -105.121)" fill="#fff"/>
    <circle id="Elipse_1265" data-name="Elipse 1265" cx="1.036" cy="1.036" r="1.036" transform="translate(72.762 230.526)" fill="#fff"/>
    <circle id="Elipse_1266" data-name="Elipse 1266" cx="1.036" cy="1.036" r="1.036" transform="translate(77.268 232.373)" fill="#fff"/>
    <path id="Trazado_47338" data-name="Trazado 47338" d="M180.764,339.966A1.036,1.036,0,1,0,181.8,341,1.036,1.036,0,0,0,180.764,339.966Z" transform="translate(-97.874 -105.953)" fill="#fff"/>
    <path id="Trazado_47339" data-name="Trazado 47339" d="M186.126,341.643a1.036,1.036,0,1,0,1.036,1.036A1.036,1.036,0,0,0,186.126,341.643Z" transform="translate(-98.58 -106.174)" fill="#fff"/>
    <path id="Trazado_47340" data-name="Trazado 47340" d="M191.493,343.1a1.036,1.036,0,1,0,1.037,1.036A1.036,1.036,0,0,0,191.493,343.1Z" transform="translate(-99.288 -106.366)" fill="#fff"/>
    <circle id="Elipse_1267" data-name="Elipse 1267" cx="1.036" cy="1.036" r="1.036" transform="translate(95.941 237.794)" fill="#fff"/>
    <path id="Trazado_47341" data-name="Trazado 47341" d="M202.468,345.341a1.036,1.036,0,1,0,1.036,1.036A1.036,1.036,0,0,0,202.468,345.341Z" transform="translate(-100.734 -106.661)" fill="#fff"/>
    <circle id="Elipse_1268" data-name="Elipse 1268" cx="1.036" cy="1.036" r="1.036" transform="translate(105.536 239.353)" fill="#fff"/>
    <path id="Trazado_47342" data-name="Trazado 47342" d="M213.622,346.68a1.036,1.036,0,1,0,1.036,1.036A1.037,1.037,0,0,0,213.622,346.68Z" transform="translate(-102.203 -106.838)" fill="#fff"/>
    <path id="Trazado_47343" data-name="Trazado 47343" d="M219.169,347.023a1.036,1.036,0,1,0,1.036,1.036A1.036,1.036,0,0,0,219.169,347.023Z" transform="translate(-102.934 -106.883)" fill="#fff"/>
    <path id="Trazado_47344" data-name="Trazado 47344" d="M225.387,347.189a1.036,1.036,0,1,0,1.036,1.036A1.036,1.036,0,0,0,225.387,347.189Z" transform="translate(-103.753 -106.905)" fill="#fff"/>
    <path id="Trazado_47345" data-name="Trazado 47345" d="M231.528,347.023a1.036,1.036,0,1,0,1.036,1.036A1.036,1.036,0,0,0,231.528,347.023Z" transform="translate(-104.563 -106.883)" fill="#fff"/>
    <circle id="Elipse_1269" data-name="Elipse 1269" cx="1.036" cy="1.036" r="1.036" transform="translate(131.14 239.736)" fill="#fff"/>
    <path id="Trazado_47346" data-name="Trazado 47346" d="M243.106,345.941a1.036,1.036,0,1,0,1.036,1.036A1.036,1.036,0,0,0,243.106,345.941Z" transform="translate(-106.088 -106.741)" fill="#fff"/>
    <circle id="Elipse_1270" data-name="Elipse 1270" cx="1.036" cy="1.036" r="1.036" transform="translate(140.803 238.464)" fill="#fff"/>
    <circle id="Elipse_1271" data-name="Elipse 1271" cx="1.036" cy="1.036" r="1.036" transform="translate(145.57 237.542)" fill="#fff"/>
    <circle id="Elipse_1272" data-name="Elipse 1272" cx="1.036" cy="1.036" r="1.036" transform="translate(150.263 236.427)" fill="#fff"/>
    <path id="Trazado_47347" data-name="Trazado 47347" d="M264.984,341.223a1.036,1.036,0,1,0,1.036,1.036A1.036,1.036,0,0,0,264.984,341.223Z" transform="translate(-108.971 -106.119)" fill="#fff"/>
    <path id="Trazado_47348" data-name="Trazado 47348" d="M270.31,339.5a1.036,1.036,0,1,0,1.037,1.037A1.036,1.036,0,0,0,270.31,339.5Z" transform="translate(-109.672 -105.892)" fill="#fff"/>
    <circle id="Elipse_1273" data-name="Elipse 1273" cx="1.036" cy="1.036" r="1.036" transform="translate(164.139 231.926)" fill="#fff"/>
    <circle id="Elipse_1274" data-name="Elipse 1274" cx="1.036" cy="1.036" r="1.036" transform="translate(168.602 230.049)" fill="#fff"/>
    <path id="Trazado_47349" data-name="Trazado 47349" d="M285.759,333.018a1.036,1.036,0,1,0,1.036,1.036A1.036,1.036,0,0,0,285.759,333.018Z" transform="translate(-111.708 -105.038)" fill="#fff"/>
    <path id="Trazado_47350" data-name="Trazado 47350" d="M290.744,330.47a1.036,1.036,0,1,0,1.036,1.036A1.036,1.036,0,0,0,290.744,330.47Z" transform="translate(-112.365 -104.702)" fill="#fff"/>
    <circle id="Elipse_1275" data-name="Elipse 1275" cx="1.036" cy="1.036" r="1.036" transform="translate(181.555 223.366)" fill="#fff"/>
    <circle id="Elipse_1276" data-name="Elipse 1276" cx="1.036" cy="1.036" r="1.036" transform="translate(185.644 220.812)" fill="#fff"/>
    <circle id="Elipse_1277" data-name="Elipse 1277" cx="1.036" cy="1.036" r="1.036" transform="translate(189.66 218.08)" fill="#fff"/>
    <path id="Trazado_47351" data-name="Trazado 47351" d="M309.435,318.251a1.036,1.036,0,1,0,1.036,1.036A1.036,1.036,0,0,0,309.435,318.251Z" transform="translate(-114.828 -103.092)" fill="#fff"/>
    <circle id="Elipse_1278" data-name="Elipse 1278" cx="1.036" cy="1.036" r="1.036" transform="translate(197.342 212.132)" fill="#fff"/>
    <path id="Trazado_47352" data-name="Trazado 47352" d="M318,311.08a1.036,1.036,0,1,0,1.036,1.036A1.036,1.036,0,0,0,318,311.08Z" transform="translate(-115.956 -102.147)" fill="#fff"/>
    <circle id="Elipse_1279" data-name="Elipse 1279" cx="1.036" cy="1.036" r="1.036" transform="translate(204.519 205.592)" fill="#fff"/>
    <path id="Trazado_47353" data-name="Trazado 47353" d="M325.97,303.2a1.036,1.036,0,1,0,1.036,1.037A1.036,1.036,0,0,0,325.97,303.2Z" transform="translate(-117.006 -101.109)" fill="#fff"/>
    <path id="Trazado_47354" data-name="Trazado 47354" d="M329.7,299.043a1.036,1.036,0,1,0,1.036,1.036A1.036,1.036,0,0,0,329.7,299.043Z" transform="translate(-117.497 -100.561)" fill="#fff"/>
    <path id="Trazado_47355" data-name="Trazado 47355" d="M333.281,294.712a1.036,1.036,0,1,0,1.036,1.036A1.036,1.036,0,0,0,333.281,294.712Z" transform="translate(-117.969 -99.991)" fill="#fff"/>
    <circle id="Elipse_1280" data-name="Elipse 1280" cx="1.036" cy="1.036" r="1.036" transform="translate(217.216 190.861)" fill="#fff"/>
    <path id="Trazado_47356" data-name="Trazado 47356" d="M339.893,285.667a1.036,1.036,0,1,0,1.036,1.036A1.036,1.036,0,0,0,339.893,285.667Z" transform="translate(-118.84 -98.799)" fill="#fff"/>
    <circle id="Elipse_1281" data-name="Elipse 1281" cx="1.036" cy="1.036" r="1.036" transform="translate(222.646 182.779)" fill="#fff"/>
    <circle id="Elipse_1282" data-name="Elipse 1282" cx="1.036" cy="1.036" r="1.036" transform="translate(225.081 178.557)" fill="#fff"/>
    <path id="Trazado_47357" data-name="Trazado 47357" d="M348.382,271.158a1.036,1.036,0,1,0,1.036,1.036A1.036,1.036,0,0,0,348.382,271.158Z" transform="translate(-119.959 -96.887)" fill="#fff"/>
    <path id="Trazado_47358" data-name="Trazado 47358" d="M350.818,266.1a1.036,1.036,0,1,0,1.036,1.036A1.036,1.036,0,0,0,350.818,266.1Z" transform="translate(-120.28 -96.221)" fill="#fff"/>
    <circle id="Elipse_1283" data-name="Elipse 1283" cx="1.036" cy="1.036" r="1.036" transform="translate(231.408 165.419)" fill="#fff"/>
    <path id="Trazado_47359" data-name="Trazado 47359" d="M355.022,255.71a1.036,1.036,0,1,0,1.036,1.036A1.036,1.036,0,0,0,355.022,255.71Z" transform="translate(-120.834 -94.852)" fill="#fff"/>
    <path id="Trazado_47360" data-name="Trazado 47360" d="M356.834,250.4a1.036,1.036,0,1,0,1.037,1.036A1.036,1.036,0,0,0,356.834,250.4Z" transform="translate(-121.073 -94.152)" fill="#fff"/>
    <circle id="Elipse_1284" data-name="Elipse 1284" cx="1.036" cy="1.036" r="1.036" transform="translate(236.092 151.573)" fill="#fff"/>
    <path id="Trazado_47361" data-name="Trazado 47361" d="M359.758,239.582a1.036,1.036,0,1,0,1.036,1.036A1.036,1.036,0,0,0,359.758,239.582Z" transform="translate(-121.458 -92.727)" fill="#fff"/>
    <path id="Trazado_47362" data-name="Trazado 47362" d="M360.894,234.109a1.036,1.036,0,1,0,1.037,1.036A1.036,1.036,0,0,0,360.894,234.109Z" transform="translate(-121.608 -92.006)" fill="#fff"/>
    <path id="Trazado_47363" data-name="Trazado 47363" d="M361.8,228.582a1.036,1.036,0,1,0,1.036,1.036A1.036,1.036,0,0,0,361.8,228.582Z" transform="translate(-121.727 -91.277)" fill="#fff"/>
  </g>
  <g id="Grupo_20687" data-name="Grupo 20687" transform="translate(20.847 4.609)">
    <path id="Trazado_47364" data-name="Trazado 47364" d="M309.974,185.244a22.157,22.157,0,0,0-13-10.851l.008,0c-20.914-6.593-26.846-17.986-20.253-38.9l-.009,0a22.235,22.235,0,0,0-36.944-22.388c-15.723,15.693-44.163,15.689-59.879-.01a22.233,22.233,0,0,0-37.013,22.145l-.007,0c6.413,21.217.281,32.662-20.936,39.075l.006,0a22.229,22.229,0,0,0-.17,42.508l-.005,0c21.231,6.6,27.759,19.022,21.157,40.253l.006,0a22.236,22.236,0,0,0,36.972,22.3c15.722-15.693,44.162-15.689,59.879.01a22.231,22.231,0,0,0,36.879-22.564l.01,0c-6.85-21.152-.682-33.233,20.471-40.083l-.01,0a22.213,22.213,0,0,0,12.832-31.5Z" transform="translate(-62.443 -31.594)" fill="gray" opacity="0.41" style="mix-blend-mode: color-burn;isolation: isolate"/>
    <circle id="Elipse_1285" data-name="Elipse 1285" cx="34.54" cy="34.54" r="34.54" transform="translate(101.42 63.306) rotate(-66.408)" fill="gray" opacity="0.41" style="mix-blend-mode: color-burn;isolation: isolate"/>
    <circle id="Elipse_1286" data-name="Elipse 1286" cx="34.54" cy="34.54" r="34.54" transform="translate(107.163 255.667) rotate(-9.433)" fill="gray" opacity="0.41" style="mix-blend-mode: color-burn;isolation: isolate"/>
    <circle id="Elipse_1287" data-name="Elipse 1287" cx="34.54" cy="34.54" r="34.54" transform="translate(224.713 189.008)" fill="gray" opacity="0.41" style="mix-blend-mode: color-burn;isolation: isolate"/>
    <circle id="Elipse_1288" data-name="Elipse 1288" cx="34.54" cy="34.54" r="34.54" transform="translate(0 189.008)" fill="gray" opacity="0.41" style="mix-blend-mode: color-burn;isolation: isolate"/>
    <circle id="Elipse_1289" data-name="Elipse 1289" cx="34.54" cy="34.54" r="34.54" transform="translate(224.713 71.468)" fill="gray" opacity="0.41" style="mix-blend-mode: color-burn;isolation: isolate"/>
    <circle id="Elipse_1290" data-name="Elipse 1290" cx="34.54" cy="34.54" r="34.54" transform="translate(0 71.468)" fill="gray" opacity="0.41" style="mix-blend-mode: color-burn;isolation: isolate"/>
  </g>
  <g id="Grupo_20730" data-name="Grupo 20730" transform="translate(16.197 0)">
    <g id="Grupo_20689" data-name="Grupo 20689" transform="translate(78.331 94.299)">
      <path id="Trazado_47365" data-name="Trazado 47365" d="M292,241.881l-.04-.024c-.134-.082-.267-.164-.405-.238V199.886h-1.306a10.448,10.448,0,0,1-9.875-7.054h7.259a4.18,4.18,0,0,0,4.181-4.18V164.1a4.181,4.181,0,0,0-4.181-4.18h-8a10.447,10.447,0,0,0-10.281-8.622H178.951V128.565h-2.174v-3.048h-7.928v3.048h-2.174v22.729H152.827a10.45,10.45,0,0,0-10.45,10.45v47.025a8.361,8.361,0,0,0,8.361,8.359h3.656v6.792h10.19l2.092,16.721,2.086-16.721h5.748v-6.792h4.442a17.243,17.243,0,0,1,17.242-17.242h32.135a8.361,8.361,0,0,1,8.361,8.359v32.4H150.735l-.034,0q-.4,0-.782.039c-.12.012-.237.034-.356.05-.144.021-.288.038-.43.066s-.3.069-.454.108c-.1.025-.2.048-.3.076-.18.052-.354.115-.529.179-.059.022-.118.041-.176.064-.2.081-.4.17-.6.267l-.055.026A8.352,8.352,0,0,0,142.374,249v21.947H295.993V249A8.345,8.345,0,0,0,292,241.881Z" transform="translate(-140.898 -123.781)" fill="gray" opacity="0.5" style="mix-blend-mode: multiply;isolation: isolate"/>
      <g id="Grupo_20688" data-name="Grupo 20688">
        <path id="Trazado_47366" data-name="Trazado 47366" d="M310.646,191.873a4.18,4.18,0,0,1-4.181,4.18h-9.927V163.136h9.927a4.18,4.18,0,0,1,4.181,4.179Z" transform="translate(-161.211 -128.737)" fill="#108d99"/>
        <path id="Trazado_47367" data-name="Trazado 47367" d="M288.545,201.8a10.451,10.451,0,0,1-10.451-10.45V163.656a10.45,10.45,0,0,0-10.45-10.45H151.127a10.45,10.45,0,0,0-10.45,10.45v47.025a8.36,8.36,0,0,0,8.361,8.359h28.213A17.243,17.243,0,0,1,194.493,201.8h32.135a8.361,8.361,0,0,1,8.361,8.359v34.485h54.862V201.8Z" transform="translate(-140.674 -127.429)" fill="#45c2da"/>
        <rect id="Rectángulo_4675" data-name="Rectángulo 4675" width="94.395" height="29.521" transform="translate(34.403 34.398)" fill="#108d99"/>
        <path id="Trazado_47368" data-name="Trazado 47368" d="M294.293,286.418H140.674V264.471a8.361,8.361,0,0,1,8.361-8.359h136.9a8.361,8.361,0,0,1,8.361,8.359Z" transform="translate(-140.674 -140.988)" fill="#cbcbcb"/>
        <path id="Trazado_47369" data-name="Trazado 47369" d="M227.868,178.3a9.144,9.144,0,1,1-9.141-9.144A9.145,9.145,0,0,1,227.868,178.3Z" transform="translate(-149.753 -129.53)" fill="#ffc100"/>
        <path id="Trazado_47370" data-name="Trazado 47370" d="M271.587,178.3a9.144,9.144,0,1,1-9.142-9.144A9.146,9.146,0,0,1,271.587,178.3Z" transform="translate(-155.513 -129.53)" fill="#ffc100"/>
        <rect id="Rectángulo_4676" data-name="Rectángulo 4676" width="12.276" height="22.729" transform="translate(24.301 3.048)" fill="#ffc100"/>
        <rect id="Rectángulo_4677" data-name="Rectángulo 4677" width="30.491" height="6.271" transform="translate(106.932 85.341)" fill="#ffc100"/>
        <rect id="Rectángulo_4678" data-name="Rectángulo 4678" width="30.491" height="6.27" transform="translate(106.932 102.846)" fill="#ffc100"/>
        <rect id="Rectángulo_4679" data-name="Rectángulo 4679" width="20.115" height="6.792" transform="translate(12.02 91.612)" fill="#108d99"/>
        <path id="Trazado_47371" data-name="Trazado 47371" d="M170.432,236.855l-2.087,16.72-2.092-16.72Z" transform="translate(-144.044 -138.45)" fill="#cbcbcb"/>
        <rect id="Rectángulo_4680" data-name="Rectángulo 4680" width="7.927" height="3.048" transform="translate(26.475)" fill="#8d8d8d"/>
        <path id="Trazado_47372" data-name="Trazado 47372" d="M140.8,263.426H294.2a8.327,8.327,0,0,0-8.248-7.314h-136.9A8.341,8.341,0,0,0,140.8,263.426Z" transform="translate(-140.69 -140.988)" fill="#fff"/>
        <path id="Trazado_47373" data-name="Trazado 47373" d="M211.287,183.492a9.032,9.032,0,0,0,2.706,2.706l12.622-12.652a9.229,9.229,0,0,0-1.2-1.5,9.335,9.335,0,0,0-1.508-1.207Z" transform="translate(-149.978 -129.752)" fill="#ffd800"/>
        <path id="Trazado_47374" data-name="Trazado 47374" d="M255.429,173a9.132,9.132,0,0,0-1.064,1.607,8.917,8.917,0,0,0-.7,1.8l15.881,8.2A8.97,8.97,0,0,0,270.613,183a9.264,9.264,0,0,0,.692-1.8Z" transform="translate(-155.562 -130.037)" fill="#ffd800"/>
        <rect id="Rectángulo_4681" data-name="Rectángulo 4681" width="10.453" height="56.866" transform="translate(16.854 25.777)" fill="#54d8e4"/>
        <rect id="Rectángulo_4682" data-name="Rectángulo 4682" width="6.135" height="22.729" transform="translate(30.442 3.048)" fill="#ffd800"/>
      </g>
    </g>
    <g id="Grupo_20729" data-name="Grupo 20729">
      <g id="Grupo_20691" data-name="Grupo 20691" transform="translate(12.742 69.091)">
        <path id="Trazado_47375" data-name="Trazado 47375" d="M120.092,122.284c-1.736,2.118-3.8,4.717-6.153,7.713s-5.04,6.349-8.029,9.955-6.282,7.468-9.892,11.43a131.625,131.625,0,0,1-11.954,11.8c-.89.728-1.809,1.463-2.757,2.147a6.7,6.7,0,0,0-.064-2.657,5.263,5.263,0,0,0-1.317-2.435l-.507-.473-.59-.427-.512-.292a6.7,6.7,0,0,0-.648-.3,5.361,5.361,0,0,0-5.243.751,6.215,6.215,0,0,0-2.442,4.613,5.315,5.315,0,0,0,.584,2.65,5.722,5.722,0,0,0,1.756,2c.185.125.384.266.561.371l.5.276a3.737,3.737,0,0,0,1.434.394,5.768,5.768,0,0,0,1.917-.212,6.12,6.12,0,0,1-.643.445,3.963,3.963,0,0,1-3.671.3,5.881,5.881,0,0,1-2.953-2.644,8.781,8.781,0,0,1-.793-4.066,32.559,32.559,0,0,1,1.669-8.7c.884-2.839,1.941-5.6,3.066-8.288,2.263-5.372,4.761-10.434,7.2-15.217,2.427-4.775,4.823-9.246,7.186-13.267q1.167-1.987,2.323-3.819l19.089,9.506a34.163,34.163,0,0,0,1.923-3.359c4.948-9.937,4.222-20.353-1.623-23.264s-14.593,2.787-19.542,12.723a33.974,33.974,0,0,0-1.4,3.237q-1.222,1.916-2.449,3.986c-2.411,4.062-4.84,8.545-7.305,13.347-2.438,4.8-4.934,9.929-7.2,15.38-1.129,2.73-2.194,5.546-3.092,8.476a34.217,34.217,0,0,0-1.71,9.237,10.566,10.566,0,0,0,1.019,4.932A7.732,7.732,0,0,0,71.688,172a5.438,5.438,0,0,0,2.73.442,6.309,6.309,0,0,0,2.57-.847,9.129,9.129,0,0,0,3.447-3.72q.555-.345,1.091-.706c1.261-.865,2.441-1.8,3.577-2.753a133.326,133.326,0,0,0,12.057-12c3.615-4,6.9-7.9,9.888-11.53s5.66-7.009,8.006-10.02,4.32-5.69,5.888-7.941,2.745-4.056,3.528-5.3,1.179-1.925,1.179-1.925S123.548,118.043,120.092,122.284ZM74.949,168.141a2.141,2.141,0,0,1-.755-.194l-.5-.278c-.15-.091-.256-.178-.39-.265a3.73,3.73,0,0,1-1.63-3.219,4.522,4.522,0,0,1,1.784-3.314,3.613,3.613,0,0,1,3.578-.5c.133.064.332.138.412.189l.5.29.352.266.347.326a3.516,3.516,0,0,1,.878,1.644,5.819,5.819,0,0,1-.563,3.748,15.075,15.075,0,0,1-2.129,1A4.792,4.792,0,0,1,74.949,168.141Z" transform="translate(-65.353 -94.744)" fill="gray" opacity="0.5" style="mix-blend-mode: multiply;isolation: isolate"/>
        <g id="Grupo_20690" data-name="Grupo 20690">
          <path id="Trazado_47376" data-name="Trazado 47376" d="M123.966,113.888s-.386.688-1.179,1.926-1.947,3.062-3.528,5.3-3.54,4.931-5.888,7.941-5.022,6.388-8.006,10.02-6.273,7.525-9.888,11.53a133.209,133.209,0,0,1-12.057,12c-1.137.957-2.316,1.889-3.577,2.753a18.356,18.356,0,0,1-4.146,2.224,6.432,6.432,0,0,1-2.561.408A3.753,3.753,0,0,1,71.7,167.6l-.5-.276c-.177-.105-.376-.246-.561-.371a5.721,5.721,0,0,1-1.756-2,5.315,5.315,0,0,1-.584-2.65,6.215,6.215,0,0,1,2.442-4.613,5.361,5.361,0,0,1,5.243-.751,6.7,6.7,0,0,1,.648.3l.512.292.59.427.507.473a5.263,5.263,0,0,1,1.317,2.435,7.623,7.623,0,0,1-.773,5.15,9.158,9.158,0,0,1-3.482,3.778,6.309,6.309,0,0,1-2.57.847,5.447,5.447,0,0,1-2.73-.442,7.732,7.732,0,0,1-3.855-3.462,10.566,10.566,0,0,1-1.019-4.932,34.217,34.217,0,0,1,1.71-9.237c.9-2.929,1.963-5.746,3.092-8.476,2.27-5.451,4.766-10.582,7.2-15.38,2.465-4.8,4.894-9.286,7.305-13.347a103.821,103.821,0,0,1,7.171-10.75A30.994,30.994,0,0,1,98.852,97.5a11.02,11.02,0,0,1,3.638-1.566,7.882,7.882,0,0,1,3.031-.071,8.662,8.662,0,0,1,1.8.535l.579.26-.807,1.621-.47-.208a6.846,6.846,0,0,0-1.407-.413,7.406,7.406,0,0,0-5.364,1.4,29.26,29.26,0,0,0-6.742,6.711,102.132,102.132,0,0,0-6.987,10.578c-2.363,4.021-4.76,8.491-7.186,13.267-2.444,4.783-4.942,9.845-7.2,15.217-1.125,2.685-2.182,5.45-3.066,8.288a32.559,32.559,0,0,0-1.669,8.7,8.787,8.787,0,0,0,.793,4.067,5.879,5.879,0,0,0,2.953,2.643,3.963,3.963,0,0,0,3.671-.3A7.4,7.4,0,0,0,77.2,165.2a5.909,5.909,0,0,0,.649-3.929,3.516,3.516,0,0,0-.878-1.644l-.347-.326-.352-.266-.5-.29c-.081-.051-.28-.125-.412-.189a3.611,3.611,0,0,0-3.578.5,4.522,4.522,0,0,0-1.784,3.314,3.73,3.73,0,0,0,1.63,3.219c.134.087.24.174.39.265l.5.278a2.141,2.141,0,0,0,.754.194,4.808,4.808,0,0,0,1.891-.311,26.54,26.54,0,0,0,7.223-4.649,131.735,131.735,0,0,0,11.954-11.8c3.61-3.964,6.9-7.825,9.892-11.431s5.674-6.962,8.029-9.955,4.417-5.595,6.153-7.713C121.865,116.23,123.966,113.888,123.966,113.888Z" transform="translate(-65.131 -94.65)" fill="#fff"/>
          <path id="Trazado_47377" data-name="Trazado 47377" d="M110.813,121.866a34.063,34.063,0,0,0,1.923-3.359c4.948-9.937,4.222-20.353-1.623-23.264S96.52,98.031,91.571,107.967a34.031,34.031,0,0,0-1.523,3.559Z" transform="translate(-68.414 -94.483)" fill="#5ddaf2"/>
          <path id="Trazado_47378" data-name="Trazado 47378" d="M90.048,112.274c6.67,3.321,10.3,2.7,11.741-.19,1.9-3.809-1.322-6.231.084-9.057a5.135,5.135,0,0,1,9.193,4.578c-1.407,2.825-5.28,1.716-7.176,5.525-1.44,2.89.252,6.163,6.922,9.485Z" transform="translate(-68.414 -95.232)" fill="#03808c"/>
        </g>
      </g>
      <g id="Grupo_20694" data-name="Grupo 20694" transform="translate(129.917)">
        <path id="Trazado_47379" data-name="Trazado 47379" d="M257.556,73.246a14.349,14.349,0,0,1-1.321-5.392c5.841-2.1,11.021-5.371,13.882-9.939,1.084-1.734,1.843-4.347,1.091-6.277a3.636,3.636,0,0,0-2.553-2.2c-3.08-.862-5.988,1.846-7.9,3.949a21.214,21.214,0,0,0-4.59,6.89,20.9,20.9,0,0,0-1.2,6.72,49.81,49.81,0,0,1-11.5,2.328l.424-1.8h0l.251-1.064,8.84-37.5-6.81-1.605,1.354-5.741-19.961-4.706-1.354,5.741-6.81-1.605-.126.532h0l-.024.1-1.173,4.976h0l-.035.148-1.166,4.946h0l-.3,1.257h0l-.9,3.823h0l-.3,1.258h0l-3.443,14.606-.156.662h0l-2.1,8.916h0l-.179.76-1.018,4.32h0l-.183.777-1.017,4.316h0l-.3,1.258h0l-.9,3.834h0l-.3,1.259h0l-.9,3.834h0l-.3,1.258h0l-2.1,8.9h0l-.3,1.259h0l-.4,1.705,8.319,1.96.546.128L208.6,97.36l-1.354,5.745,19.961,4.706,1.354-5.746-1.472-.347,1.641.387h0l4.657,1.1h0l1.983.468.405-1.717.014-.061h0l.9-3.834h0l.3-1.259h0l.9-3.834h0l.034-.144,1.164-4.938h0l.037-.159,4.038-17.13a51.266,51.266,0,0,0,11.846-2.322,15.568,15.568,0,0,0,1.417,5.5c2.492,5.329,7.661,6.935,12.66,8.486.6.186,1.193.371,1.783.562l.383-1.183c-.6-.193-1.2-.379-1.8-.566C264.5,79.533,259.814,78.079,257.556,73.246ZM214.394,98.726h0l4.185.986h0ZM257.341,60.68a20.145,20.145,0,0,1,4.337-6.461c1.663-1.832,4.135-4.181,6.533-3.616.038.01.076.019.115.03a2.375,2.375,0,0,1,1.724,1.456c.565,1.452-.069,3.7-.987,5.166-2.646,4.225-7.416,7.292-12.842,9.3A19.88,19.88,0,0,1,257.341,60.68Z" transform="translate(-200.312 -15.171)" fill="gray" opacity="0.5" style="mix-blend-mode: multiply;isolation: isolate"/>
        <g id="Grupo_20693" data-name="Grupo 20693" transform="translate(0)">
          <path id="Trazado_47380" data-name="Trazado 47380" d="M272.349,85.732c-.59-.191-1.187-.376-1.783-.562-5-1.552-10.168-3.157-12.66-8.486a15.549,15.549,0,0,1-1.417-5.5,51.135,51.135,0,0,1-15.575,2.462,33.987,33.987,0,0,1-16.721-4.237l.616-1.081A32.74,32.74,0,0,0,240.916,72.4a49.991,49.991,0,0,0,15.529-2.5,20.9,20.9,0,0,1,1.2-6.72,21.215,21.215,0,0,1,4.59-6.89c1.909-2.1,4.818-4.811,7.9-3.949a3.636,3.636,0,0,1,2.553,2.2c.752,1.93-.007,4.543-1.091,6.277-2.862,4.568-8.042,7.843-13.882,9.939a14.349,14.349,0,0,0,1.321,5.392c2.258,4.833,6.942,6.287,11.9,7.826.6.187,1.2.373,1.8.566Zm-2.662-32.218c-2.4-.564-4.87,1.784-6.533,3.616a20.146,20.146,0,0,0-4.337,6.461,19.908,19.908,0,0,0-1.122,5.874c5.427-2.006,10.2-5.073,12.843-9.3.919-1.467,1.552-3.714.987-5.166a2.375,2.375,0,0,0-1.724-1.456C269.763,53.534,269.725,53.524,269.687,53.515Z" transform="translate(-203.265 -19.819)" fill="#ff5e17"/>
          <rect id="Rectángulo_4683" data-name="Rectángulo 4683" width="76.759" height="34.501" transform="translate(0 78.847) rotate(-76.736)" fill="#ff4e10"/>
          <rect id="Rectángulo_4684" data-name="Rectángulo 4684" width="5.904" height="20.508" transform="translate(24.42 5.746) rotate(-76.736)" fill="#e4e4e4"/>
          <rect id="Rectángulo_4685" data-name="Rectángulo 4685" width="76.759" height="17.251" transform="translate(16.79 82.805) rotate(-76.736)" fill="#ff6110"/>
          <g id="Grupo_20692" data-name="Grupo 20692" transform="translate(0.402 4.603)">
            <path id="Trazado_47381" data-name="Trazado 47381" d="M226.95,21.307l-7.06.212.294-1.245,2.109-.065Z" transform="translate(-203.1 -20.209)" fill="#ff8d00"/>
            <path id="Trazado_47382" data-name="Trazado 47382" d="M245.772,26.466l-27.265.825.3-1.258,22.3-.668Z" transform="translate(-202.917 -20.888)" fill="#ff8d00"/>
            <path id="Trazado_47383" data-name="Trazado 47383" d="M253.124,30.751l-.3,1.259-35.7,1.084.3-1.258Z" transform="translate(-202.735 -21.598)" fill="#ff8d00"/>
            <path id="Trazado_47384" data-name="Trazado 47384" d="M251.742,36.617l-.3,1.258-35.7,1.072.3-1.259Z" transform="translate(-202.553 -22.371)" fill="#ff8d00"/>
            <path id="Trazado_47385" data-name="Trazado 47385" d="M250.365,42.455l-.3,1.259-35.7,1.084.3-1.258Z" transform="translate(-202.372 -23.14)" fill="#ff8d00"/>
            <path id="Trazado_47386" data-name="Trazado 47386" d="M248.982,48.322l-.3,1.258-35.7,1.084.3-1.259Z" transform="translate(-202.189 -23.913)" fill="#ff8d00"/>
            <path id="Trazado_47387" data-name="Trazado 47387" d="M247.6,54.187l-.3,1.259-35.7,1.084.3-1.259Z" transform="translate(-202.007 -24.686)" fill="#ff8d00"/>
            <path id="Trazado_47388" data-name="Trazado 47388" d="M246.217,60.053l-.3,1.259-35.7,1.084.3-1.258Z" transform="translate(-201.825 -25.459)" fill="#ff8d00"/>
            <path id="Trazado_47389" data-name="Trazado 47389" d="M244.837,65.9l-.3,1.258-35.7,1.084.3-1.257Z" transform="translate(-201.643 -26.23)" fill="#ff8d00"/>
            <path id="Trazado_47390" data-name="Trazado 47390" d="M243.458,71.756l-.3,1.259-35.7,1.084.3-1.258Z" transform="translate(-201.462 -27.001)" fill="#ff8d00"/>
            <path id="Trazado_47391" data-name="Trazado 47391" d="M242.075,77.622l-.3,1.259-35.7,1.084.3-1.259Z" transform="translate(-201.279 -27.774)" fill="#ff8d00"/>
            <path id="Trazado_47392" data-name="Trazado 47392" d="M240.692,83.487l-.3,1.258-35.7,1.084.3-1.258Z" transform="translate(-201.097 -28.547)" fill="#ff8d00"/>
            <path id="Trazado_47393" data-name="Trazado 47393" d="M239.31,89.354l-.3,1.258-35.7,1.084.3-1.258Z" transform="translate(-200.915 -29.319)" fill="#ff8d00"/>
            <path id="Trazado_47394" data-name="Trazado 47394" d="M237.93,95.206l-.3,1.257-35.7,1.084.3-1.258Z" transform="translate(-200.733 -30.091)" fill="#ff8d00"/>
            <path id="Trazado_47395" data-name="Trazado 47395" d="M236.551,101.058l-.3,1.258-35.7,1.084.3-1.259Z" transform="translate(-200.551 -30.862)" fill="#ff8d00"/>
            <path id="Trazado_47396" data-name="Trazado 47396" d="M236.493,106.923l-.3,1.259-22.3.668-4.669-1.1Z" transform="translate(-201.695 -31.634)" fill="#ff8d00"/>
            <path id="Trazado_47397" data-name="Trazado 47397" d="M238.177,112.789l-.294,1.246-2.109.065-4.657-1.1Z" transform="translate(-204.579 -32.407)" fill="#ff8d00"/>
          </g>
          <rect id="Rectángulo_4686" data-name="Rectángulo 4686" width="5.904" height="10.254" transform="translate(34.401 8.099) rotate(-76.736)" fill="#fff"/>
          <rect id="Rectángulo_4687" data-name="Rectángulo 4687" width="5.903" height="20.508" transform="matrix(0.229, -0.973, 0.973, 0.229, 5.456, 86.198)" fill="#e4e4e4"/>
          <rect id="Rectángulo_4688" data-name="Rectángulo 4688" width="5.903" height="10.254" transform="translate(15.436 88.551) rotate(-76.736)" fill="#fff"/>
        </g>
      </g>
      <g id="Grupo_20696" data-name="Grupo 20696" transform="translate(236.163 64.362)">
        <path id="Trazado_47398" data-name="Trazado 47398" d="M382.609,149.288c-15.042-13.461-18.158,2.336-18.158,2.336l-3.219-4.149c-.444-8.4-.174-18.03-3.79-31.123-3.548-12.846-16.228-25.314-16.228-25.314l14,48.68L324.158,99.7s2.589,17.595,10.87,28.036c8.44,10.643,16.377,16.106,22.9,21.418l1.451,5.047s-14.592-6.8-12.6,13.285c1.338,13.453,17.222,15.918,17.737,5.2.267-5.583-1.6-13.783-2.633-19.836,4.281,4.4,9.8,10.749,14.465,13.826C385.306,172.585,392.683,158.3,382.609,149.288Zm-25.13,26.047c-3.065.524-6.287-3.383-7.2-8.726s.83-10.1,3.894-10.623,6.288,3.384,7.2,8.727S360.541,174.813,357.478,175.335Zm25.159-12.78c-2.228,2.165-7.1.768-10.875-3.12s-5.027-8.8-2.8-10.963,7.1-.768,10.876,3.12S384.868,160.389,382.637,162.556Z" transform="translate(-322.682 -89.301)" fill="gray" opacity="0.5" style="mix-blend-mode: multiply;isolation: isolate"/>
        <g id="Grupo_20695" data-name="Grupo 20695">
          <path id="Trazado_47399" data-name="Trazado 47399" d="M380.909,148.6c-15.042-13.461-18.158,2.336-18.158,2.336L322.458,99.015s2.589,17.595,10.87,28.036c8.653,10.912,16.781,16.379,23.393,21.821C361.071,152.456,368.586,162,374.65,166,383.606,171.9,390.983,157.618,380.909,148.6Zm.029,13.268c-2.228,2.165-7.1.768-10.875-3.12s-5.027-8.8-2.8-10.963,7.1-.768,10.876,3.12S383.168,159.7,380.937,161.87Z" transform="translate(-322.458 -90.352)" fill="#4ae0fd"/>
          <path id="Trazado_47400" data-name="Trazado 47400" d="M342.1,89.037,360.265,152.2s-14.592-6.8-12.6,13.285c1.338,13.453,17.222,15.918,17.737,5.2.346-7.256-2.925-18.951-3.253-24.578-.495-8.548-.116-18.336-3.823-31.761C354.783,101.506,342.1,89.037,342.1,89.037Zm20.16,73.676c.91,5.343-.833,10.1-3.895,10.622s-6.287-3.383-7.2-8.726.83-10.1,3.894-10.623S361.347,157.371,362.262,162.713Z" transform="translate(-325.046 -89.037)" fill="#00b0c1"/>
          <path id="Trazado_47401" data-name="Trazado 47401" d="M363.679,153.786a1.045,1.045,0,1,1-1.4-.458A1.044,1.044,0,0,1,363.679,153.786Z" transform="translate(-327.629 -97.493)" fill="#ffeb1c"/>
        </g>
      </g>
      <g id="Grupo_20704" data-name="Grupo 20704" transform="translate(0 185.182)">
        <g id="Grupo_20698" data-name="Grupo 20698">
          <path id="Trazado_47402" data-name="Trazado 47402" d="M100.521,244.692a1.708,1.708,0,0,0-.027,2.413c-.469.391-.99.8-1.475,1.129-2.023,1.46-3.372,1.412-4.119.911a1.882,1.882,0,0,1-.7-1.528c.181-5.391,13.633-15.385,15.64-17.425,0,0-2.157,1.155-5.224,3.154-6.362,4.11-17.63,11.772-13.683,17.108L77.358,265.023l.659.614,0,0-.55-.512a1.8,1.8,0,0,0-2.543.09L52.639,289.144a1.8,1.8,0,0,0,.09,2.543l.549.511h0l.549.51c.014.013.03.022.044.034a1.739,1.739,0,0,0,.241.182,1.718,1.718,0,0,0,.23.113c.029.012.055.03.083.04a1.8,1.8,0,0,0,1.945-.459l22.288-23.928a1.8,1.8,0,0,0-.086-2.539l.1.1,13.639-14.645a4.381,4.381,0,0,0,2.021.622c3.054.19,5.42-2.574,6.678-4.762a1.706,1.706,0,1,0-.492-2.772Z" transform="translate(-50.68 -228.456)" fill="gray" opacity="0.5" style="mix-blend-mode: multiply;isolation: isolate"/>
          <g id="Grupo_20697" data-name="Grupo 20697">
            <path id="Trazado_47403" data-name="Trazado 47403" d="M54.67,295.847a1.8,1.8,0,0,1-2.544.09l-1.1-1.022a1.8,1.8,0,0,1-.09-2.543L73.22,268.447a1.8,1.8,0,0,1,2.543-.09l1.1,1.023a1.8,1.8,0,0,1,.09,2.544Z" transform="translate(-50.456 -233.42)" fill="#45c2da"/>
            <rect id="Rectángulo_4689" data-name="Rectángulo 4689" width="20.773" height="1.799" transform="translate(25.203 34.832) rotate(-47.036)" fill="#e4e4e4"/>
            <path id="Trazado_47404" data-name="Trazado 47404" d="M113.895,228.192c-2.006,2.04-15.458,12.034-15.64,17.425a1.882,1.882,0,0,0,.7,1.528c.747.5,2.1.549,4.119-.911a20.589,20.589,0,0,0,2.739-2.278c-.832,2.086-3.587,6.51-7.423,6.271a5.083,5.083,0,0,1-2.778-1.071c.122.112-.178-.161-.152-.139-5.24-5.346,6.615-13.413,13.205-17.67C111.738,229.347,113.895,228.192,113.895,228.192Z" transform="translate(-56.215 -228.192)" fill="#e4e4e4"/>
            <path id="Trazado_47405" data-name="Trazado 47405" d="M108.474,247.259a1.708,1.708,0,1,1,.025-2.415A1.708,1.708,0,0,1,108.474,247.259Z" transform="translate(-57.718 -230.318)" fill="#ff4e10"/>
            <path id="Trazado_47406" data-name="Trazado 47406" d="M52.3,296.088A1.8,1.8,0,0,0,54.84,296L77.128,272.07a1.8,1.8,0,0,0-.09-2.544l-.549-.511L51.748,295.578Z" transform="translate(-50.626 -233.571)" fill="#54d8e4"/>
          </g>
        </g>
        <g id="Grupo_20703" data-name="Grupo 20703" transform="translate(25.221 17.651)">
          <path id="Trazado_47407" data-name="Trazado 47407" d="M122.487,252.12l-.047-.333a1.416,1.416,0,0,0-2.128-1.071l-.3.161a16.827,16.827,0,0,0-8.663,13.1l-.609,6.078-.1.093a25.545,25.545,0,0,0-6.125,7.895l-1.954,3.9c-.035.021-.068.037-.1.059-2.547,1.593-7.149,6.494-10.083,7.135A14.258,14.258,0,0,0,89.059,315.8c.27.136.544.267.824.387a14.225,14.225,0,0,0,18.429-19.155c-1.247-2.669.009-9.265-.233-12.2,0-.041-.01-.077-.014-.117l1.957-3.909a25.573,25.573,0,0,0,2.652-9.615l.017-.164,4.5-4.118A16.854,16.854,0,0,0,122.487,252.12ZM108.2,279.9l-1.081,2.158a2.422,2.422,0,0,0-1.868-.942l1.083-2.163a23.534,23.534,0,0,1,4.049-5.754A23.579,23.579,0,0,1,108.2,279.9Zm7.609-14.485L113,267.993l.381-3.816a14.8,14.8,0,0,1,7.16-11.256A14.823,14.823,0,0,1,115.814,265.411Z" transform="translate(-79.728 -248.786)" fill="gray" opacity="0.5" style="mix-blend-mode: multiply;isolation: isolate"/>
          <g id="Grupo_20702" data-name="Grupo 20702">
            <g id="Grupo_20700" data-name="Grupo 20700" transform="translate(20.449)">
              <g id="Grupo_20699" data-name="Grupo 20699">
                <path id="Trazado_47408" data-name="Trazado 47408" d="M108.56,284.533l-1.819-.911,2.867-5.726a23.578,23.578,0,0,0,2.184-6.7,23.534,23.534,0,0,0-4.049,5.754l-2.866,5.725-1.819-.91,2.867-5.725a25.545,25.545,0,0,1,6.125-7.895l.1-.093.609-6.078a16.827,16.827,0,0,1,8.663-13.1l.3-.161a1.416,1.416,0,0,1,2.128,1.071l.047.333a16.854,16.854,0,0,1-5.3,14.79l-4.5,4.118-.016.164a25.573,25.573,0,0,1-2.652,9.615Zm13.38-33.612a14.8,14.8,0,0,0-7.16,11.256l-.381,3.816,2.818-2.581A14.823,14.823,0,0,0,121.94,250.921Z" transform="translate(-103.057 -248.522)" fill="#fff"/>
              </g>
            </g>
            <g id="Grupo_20701" data-name="Grupo 20701" transform="translate(0 30.578)">
              <path id="Trazado_47409" data-name="Trazado 47409" d="M106.612,299.674c-1.247-2.669.009-9.265-.233-12.2-.137-1.677-.728-2.93-1.783-3.462s-2.41-.26-3.832.63c-2.547,1.593-7.149,6.494-10.083,7.135a14.257,14.257,0,0,0-3.323,26.665c.27.136.544.267.824.387a14.225,14.225,0,0,0,18.429-19.155ZM101.5,310.142a8.986,8.986,0,0,1-11.239,3.806c-.18-.078-.349-.169-.522-.256a8.855,8.855,0,0,1-4.477-5.176h0a8.936,8.936,0,0,1,6.56-11.55c3.171-.694,6.154-3.213,9.038-5.651l.109-.09,0,.043,0,.036c-.233,3.347-.473,6.809.454,9.608a9.3,9.3,0,0,0,.4,1.008,9.356,9.356,0,0,1,.392.986A8.877,8.877,0,0,1,101.5,310.142Z" transform="translate(-79.504 -283.74)" fill="#ffd800"/>
              <path id="Trazado_47410" data-name="Trazado 47410" d="M103.011,304.041a9.356,9.356,0,0,0-.392-.986,9.3,9.3,0,0,1-.4-1.008c-.927-2.8-.687-6.261-.454-9.608l0-.036,0-.043-.109.09c-2.883,2.437-5.867,4.957-9.037,5.65a8.936,8.936,0,0,0-6.56,11.55h0a8.855,8.855,0,0,0,4.477,5.176c.173.087.342.178.522.256a8.986,8.986,0,0,0,11.238-3.806A8.877,8.877,0,0,0,103.011,304.041Z" transform="translate(-80.308 -284.876)" fill="#ff6110"/>
            </g>
          </g>
        </g>
      </g>
      <g id="Grupo_20713" data-name="Grupo 20713" transform="translate(131.79 261.742)">
        <path id="Trazado_47411" data-name="Trazado 47411" d="M219.113,353.687c-1.846-1.523-3.755-3.1-5.644-4.907-2.729-2.615-4.036-5.384-3.888-8.228a11.606,11.606,0,0,1,3.034-6.784l7.082,6.25,40.022,34.57-36.84-38.012-6.41-6.276c5.626-3.626,11.964.179,14.923,3.131a15.085,15.085,0,0,0,11.547,4.227,9.87,9.87,0,0,0,7.439-4.6c3.911-6.018-.267-12.023-3.023-14.358a1.381,1.381,0,0,0-1.782,2.111c.251.213,6.048,5.27,2.494,10.737a7.1,7.1,0,0,1-5.419,3.363,12.359,12.359,0,0,1-9.312-3.436c-4.886-4.873-12.549-7.648-18.872-3.133l-4.524-4.43a2.66,2.66,0,0,0-3.766.143l-.194.21a2.677,2.677,0,0,0,.142,3.776l4.418,3.9a14.343,14.343,0,0,0-3.715,8.469c-.193,3.686,1.4,7.175,4.735,10.372,1.964,1.882,3.914,3.489,5.8,5.044,5.516,4.548,9.5,7.834,9,13.764-.584,6.911-8.7,6.825-10.03,6.764-5.357-1.893-10.452-3.9-10.5-3.923A1.382,1.382,0,0,0,204.818,375c.054.021,5.311,2.1,10.783,4.023l.171.061.181.014a14.964,14.964,0,0,0,1.58.033c4.437-.135,10.97-2.14,11.575-9.311C229.733,362.445,224.811,358.386,219.113,353.687Zm.908-16.568a.824.824,0,0,1-.087.114.933.933,0,0,1-1.321.04l-4.933-4.655c.478-.475.948-.9,1.387-1.264l4.827,4.556A.937.937,0,0,1,220.021,337.12Zm-11.754-9.611a.938.938,0,0,1-.04-1.324,1,1,0,0,1,.108-.095.929.929,0,0,1,1.213.055l3.5,3.3c-.484.415-.946.839-1.377,1.272Z" transform="translate(-202.469 -316.634)" fill="gray" opacity="0.5" style="mix-blend-mode: multiply;isolation: isolate"/>
        <g id="Grupo_20712" data-name="Grupo 20712">
          <g id="Grupo_20707" data-name="Grupo 20707" transform="translate(2.231 4.826)">
            <g id="Grupo_20706" data-name="Grupo 20706">
              <g id="Grupo_20705" data-name="Grupo 20705">
                <path id="Trazado_47412" data-name="Trazado 47412" d="M218.533,334.642l-10.347-9.765a.929.929,0,0,0-1.213-.055l-2.158-2.038a2.66,2.66,0,0,1,3.766-.143l12.938,12.668,36.84,38.012-39.7-37.468A.936.936,0,0,0,218.533,334.642Z" transform="translate(-204.815 -321.929)" fill="#fff"/>
              </g>
            </g>
          </g>
          <g id="Grupo_20709" data-name="Grupo 20709">
            <g id="Grupo_20708" data-name="Grupo 20708">
              <path id="Trazado_47413" data-name="Trazado 47413" d="M215.834,377.132c4.437-.135,10.97-2.14,11.575-9.31.624-7.377-4.3-11.436-10-16.135-1.846-1.522-3.755-3.1-5.645-4.907-2.728-2.615-4.036-5.384-3.887-8.228.235-4.505,3.948-8.028,6.14-9.727,5.8-4.5,12.58-.478,15.672,2.606a15.084,15.084,0,0,0,11.546,4.227,9.87,9.87,0,0,0,7.44-4.6c3.911-6.018-.267-12.023-3.023-14.358a1.381,1.381,0,0,0-1.782,2.111c.251.213,6.048,5.27,2.494,10.737a7.1,7.1,0,0,1-5.419,3.363,12.359,12.359,0,0,1-9.312-3.436c-5-4.985-12.9-7.794-19.3-2.834-4.43,3.434-6.989,7.613-7.206,11.77-.193,3.686,1.4,7.175,4.735,10.372,1.964,1.882,3.914,3.489,5.8,5.044,5.516,4.548,9.5,7.834,9,13.764-.584,6.911-8.7,6.825-10.03,6.764-5.357-1.893-10.452-3.9-10.5-3.923A1.382,1.382,0,0,0,203.118,373c.053.021,5.311,2.1,10.783,4.023l.171.061.181.014A14.964,14.964,0,0,0,215.834,377.132Z" transform="translate(-202.245 -316.37)" fill="#ff6110"/>
            </g>
          </g>
          <g id="Grupo_20711" data-name="Grupo 20711" transform="translate(1.327 5.681)">
            <g id="Grupo_20710" data-name="Grupo 20710">
              <path id="Trazado_47414" data-name="Trazado 47414" d="M204.484,323.124l.194-.21,2.158,2.038a1,1,0,0,0-.108.095.938.938,0,0,0,.04,1.324l10.347,9.765a.933.933,0,0,0,1.321-.04.823.823,0,0,0,.087-.114l39.7,37.468L218.2,338.88,204.626,326.9A2.676,2.676,0,0,1,204.484,323.124Z" transform="translate(-203.773 -322.914)" fill="#fff"/>
            </g>
          </g>
        </g>
      </g>
      <g id="Grupo_20728" data-name="Grupo 20728" transform="translate(234.95 194.478)">
        <path id="Trazado_47415" data-name="Trazado 47415" d="M384.1,251.912c-2.435-4.587-6.587-.511-7.3-.658-1.546-.309-2.366-2.372-3.052-4.674-.625-2.019-1.123-4.188-2.486-4.34a4.361,4.361,0,0,0-3.459,2.747c-.163,1.363,1.828,2.349,3.642,3.422,2.075,1.2,3.89,2.472,3.837,4.05a3.214,3.214,0,0,1-1.211,2.173,3.179,3.179,0,0,1-2.235,1.074c-1.573-.047-2.729-1.94-3.8-4.09-.956-1.882-1.815-3.934-3.18-3.856a4.343,4.343,0,0,0-2.94,3.279c.071,1.371,2.2,2.008,4.164,2.761,2.246.832,4.247,1.783,4.461,3.345a3.2,3.2,0,0,1-.827,2.344,3.436,3.436,0,0,1-1.763,1.367,2.893,2.893,0,0,0-1.832-.665h-.5a13.72,13.72,0,0,1-2.352-2.656c-1.257-1.695-2.448-3.575-3.782-3.266a4.372,4.372,0,0,0-2.355,3.742c.3,1.345,2.5,1.609,4.569,2.016q.419.078.826.164H352.421a3.531,3.531,0,0,0-.734-1.9,3.086,3.086,0,0,0-1.714-1.479c-1.335-.261-2.478,1.642-3.69,3.368l-.005.006h-4.964a2.9,2.9,0,0,0-2.136.945,2.313,2.313,0,0,1-.162-1.125c.181-1.563,2.158-2.561,4.378-3.455,1.945-.8,4.048-1.5,4.092-2.865a4.257,4.257,0,0,0-2.972-3.169c-1.357-.038-2.182,2.021-3.1,3.918-1.026,2.167-2.138,4.083-3.707,4.169a4.036,4.036,0,0,1-3.482-3.16c-.071-1.572,1.72-2.875,3.766-4.115,1.79-1.109,3.753-2.138,3.578-3.489a4.246,4.246,0,0,0-3.439-2.648c-1.347.179-1.831,2.346-2.435,4.367-.666,2.3-1.458,4.375-2.992,4.712a4.048,4.048,0,0,1-3.954-2.564c-.328-1.544,1.233-3.116,3.059-4.669,1.591-1.38,3.365-2.712,2.975-4.018a4.291,4.291,0,0,0-3.845-2.072c-1.307.392-1.43,2.612-1.7,4.707-.28,2.383-.726,4.558-2.192,5.135-.675.271-3.8,1.831-4.283,2.964a36.548,36.548,0,0,1,15.633,12.7v13.527a2.928,2.928,0,0,0,2.922,2.927h3.773v.05c0,1.487-.851,2.692-1.9,2.692h-.037c-1.05,0-1.9,1.207-1.9,2.693v13.3c0,1.486.849,2.692,1.9,2.692H344.7v8.135h3.67c0-.023,0-.044,0-.069a2.455,2.455,0,0,1,.821-2.069c1.184-.91,3.31-.332,5.56.278,1.989.541,4.047,1.1,4.96.4a2.369,2.369,0,0,0,0-3.039c-.913-.7-2.971-.145-4.96.4-2.25.611-4.375,1.188-5.56.278a3.016,3.016,0,0,1,0-4.137,2,2,0,0,1,.3-.171h3.509c.564.13,1.15.287,1.747.45,1.989.54,4.047,1.1,4.96.4a1.4,1.4,0,0,0,.477-.846h.711a2.133,2.133,0,0,1-.768,1.4c-1.185.909-3.311.332-5.561-.279-1.99-.54-4.046-1.1-4.961-.4a2.372,2.372,0,0,0,0,3.039c.915.7,2.972.144,4.961-.4,2.25-.611,4.376-1.188,5.561-.279a3.015,3.015,0,0,1,0,4.137c-1.185.91-3.311.333-5.561-.278-1.99-.539-4.046-1.1-4.961-.4a1.8,1.8,0,0,0-.55,1.519c0,.024,0,.045,0,.069h15.559V304.3a2.6,2.6,0,0,0,1.569-2.645v-13.3c0-1.486-.851-2.693-1.9-2.693h-.038c-1.049,0-1.9-1.205-1.9-2.692v-.05h3.772a2.929,2.929,0,0,0,2.923-2.927V267.625A34.992,34.992,0,0,1,384.1,251.912Zm-30.38,39.1h.6c-2.086.561-4.017,1.012-5.126.161a1.863,1.863,0,0,1-.159-.161Zm0,7.769h-4.615c.031-.029.055-.065.089-.091,1.06-.815,2.877-.435,4.862.091Zm6.463-.231a2.965,2.965,0,0,0,.082-.7,1.792,1.792,0,0,0-.551-1.519c-.913-.7-2.971-.145-4.96.4-2.25.611-4.375,1.188-5.56.279a3.016,3.016,0,0,1,0-4.137c1.184-.91,3.31-.333,5.56.278,1.989.539,4.047,1.1,4.96.4a1.792,1.792,0,0,0,.551-1.519,2.912,2.912,0,0,0-.1-.782,3.145,3.145,0,0,1,.762.42c.01.12.029.233.029.362a2.46,2.46,0,0,1-.821,2.07c-1.185.909-3.311.333-5.561-.279-1.989-.54-4.046-1.1-4.961-.4a2.375,2.375,0,0,0,0,3.041c.915.7,2.972.143,4.961-.4,2.25-.611,4.376-1.188,5.561-.279a2.46,2.46,0,0,1,.821,2.07c0,.1-.017.191-.023.287A3.1,3.1,0,0,1,360.183,298.55Z" transform="translate(-321.284 -239.162)" fill="gray" opacity="0.5" style="mix-blend-mode: multiply;isolation: isolate"/>
        <g id="Grupo_20727" data-name="Grupo 20727">
          <g id="Grupo_20718" data-name="Grupo 20718">
            <g id="Grupo_20714" data-name="Grupo 20714">
              <path id="Trazado_47416" data-name="Trazado 47416" d="M341.841,265.756a3.217,3.217,0,0,1-.506-2.445c.425-1.52,2.54-2.181,4.877-2.7,2.053-.476,4.243-.818,4.5-2.163a3.121,3.121,0,0,0-.726-2.152,3.086,3.086,0,0,0-1.714-1.479c-1.334-.261-2.478,1.642-3.69,3.368-1.358,1.975-2.762,3.692-4.327,3.517a4.07,4.07,0,0,1-2.94-3.692c.181-1.563,2.158-2.561,4.378-3.455,1.945-.8,4.048-1.5,4.092-2.865a4.254,4.254,0,0,0-2.972-3.168c-1.357-.039-2.182,2.02-3.1,3.918-1.026,2.167-2.138,4.083-3.707,4.169a4.036,4.036,0,0,1-3.482-3.16c-.071-1.572,1.72-2.875,3.766-4.115,1.79-1.109,3.753-2.138,3.578-3.489a4.246,4.246,0,0,0-3.439-2.648c-1.347.179-1.831,2.346-2.435,4.367-.666,2.3-1.458,4.375-2.992,4.712a4.052,4.052,0,0,1-3.954-2.564c-.328-1.544,1.233-3.116,3.059-4.669,1.591-1.38,3.365-2.712,2.975-4.018a4.291,4.291,0,0,0-3.845-2.072c-1.307.392-1.43,2.612-1.7,4.707-.28,2.383-.726,4.558-2.192,5.135-.676.271-3.8,1.831-4.283,2.964a36.572,36.572,0,0,1,17.617,15.856q1.6-.9,3.2-1.795C341.867,265.8,341.854,265.78,341.841,265.756Z" transform="translate(-321.06 -238.898)" fill="#fff"/>
            </g>
            <g id="Grupo_20715" data-name="Grupo 20715" transform="translate(31.058 1.334)">
              <path id="Trazado_47417" data-name="Trazado 47417" d="M379.813,249.456c-1.546-.309-2.366-2.372-3.052-4.674-.625-2.019-1.123-4.188-2.486-4.34a4.362,4.362,0,0,0-3.459,2.747c-.163,1.363,1.828,2.349,3.642,3.422,2.075,1.2,3.89,2.472,3.837,4.05a3.214,3.214,0,0,1-1.211,2.173,3.179,3.179,0,0,1-2.235,1.074c-1.573-.047-2.729-1.941-3.8-4.09-.956-1.881-1.815-3.934-3.18-3.856a4.343,4.343,0,0,0-2.94,3.279c.071,1.371,2.2,2.008,4.164,2.761,2.246.832,4.247,1.783,4.461,3.345a4.111,4.111,0,0,1-2.853,3.784c-1.559.221-3.015-1.453-4.424-3.393-1.257-1.695-2.448-3.575-3.782-3.266a4.373,4.373,0,0,0-2.355,3.742c.3,1.345,2.5,1.609,4.569,2.016,2.356.438,4.488,1.035,4.96,2.544a4.173,4.173,0,0,1-2.191,4.241c-1.5.494-3.219-.915-4.933-2.6-1.522-1.464-3.008-3.12-4.274-2.583a3.3,3.3,0,0,0-1.445,1.925v0q7.193,2.972,14.386,5.94a35.013,35.013,0,0,1,15.895-17.591C384.678,245.527,380.525,249.6,379.813,249.456Z" transform="translate(-356.831 -240.435)" fill="#cbcbcb"/>
            </g>
            <g id="Grupo_20716" data-name="Grupo 20716" transform="translate(21.945 47.845)">
              <path id="Trazado_47418" data-name="Trazado 47418" d="M350,317.674a2.455,2.455,0,0,1,.821-2.069c1.184-.91,3.31-.332,5.56.278,1.989.541,4.047,1.1,4.96.4a2.369,2.369,0,0,0,0-3.039c-.913-.7-2.971-.145-4.96.4-2.25.611-4.375,1.188-5.56.278a3.015,3.015,0,0,1,0-4.137c1.184-.91,3.31-.333,5.56.279,1.989.54,4.047,1.1,4.96.4a2.369,2.369,0,0,0,0-3.039c-.913-.7-2.971-.143-4.96.4-2.25.609-4.375,1.188-5.56.278a3.017,3.017,0,0,1,0-4.138c1.184-.91,3.31-.332,5.56.278,1.989.541,4.047,1.1,4.96.4a2.369,2.369,0,0,0,0-3.039c-.913-.7-2.971-.145-4.96.4-2.25.611-4.375,1.188-5.56.279a3.015,3.015,0,0,1,0-4.137c1.184-.91,3.31-.333,5.56.278,1.989.539,4.047,1.1,4.96.4a2.369,2.369,0,0,0,0-3.039c-.913-.7-2.971-.143-4.96.4-2.25.609-4.375,1.188-5.56.278a2.455,2.455,0,0,1-.821-2.069c0-.126.005-.245.015-.361h-3.682v23.739h3.67C350,317.719,350,317.7,350,317.674Z" transform="translate(-346.335 -294.004)" fill="#fff"/>
            </g>
            <g id="Grupo_20717" data-name="Grupo 20717" transform="translate(26.302 47.845)">
              <path id="Trazado_47419" data-name="Trazado 47419" d="M351.371,294c-.01.114-.018.233-.018.361a1.8,1.8,0,0,0,.55,1.519c.915.7,2.972.143,4.961-.4,2.25-.611,4.376-1.188,5.561-.278a3.018,3.018,0,0,1,0,4.137c-1.185.909-3.311.333-5.561-.279-1.989-.54-4.046-1.1-4.961-.4a2.375,2.375,0,0,0,0,3.041c.915.7,2.972.143,4.961-.4,2.25-.611,4.376-1.188,5.561-.279a3.018,3.018,0,0,1,0,4.137c-1.185.91-3.311.333-5.561-.278-1.99-.539-4.046-1.1-4.961-.4a2.372,2.372,0,0,0,0,3.039c.915.7,2.971.143,4.961-.4,2.25-.611,4.376-1.188,5.561-.28a3.02,3.02,0,0,1,0,4.139c-1.185.909-3.311.332-5.561-.279-1.99-.54-4.046-1.1-4.961-.4a2.372,2.372,0,0,0,0,3.039c.915.7,2.972.144,4.961-.4,2.25-.611,4.376-1.188,5.561-.279a3.018,3.018,0,0,1,0,4.137c-1.185.91-3.311.333-5.561-.278-1.99-.539-4.046-1.1-4.961-.4a1.8,1.8,0,0,0-.55,1.519c0,.024,0,.045,0,.069h15.559V294Z" transform="translate(-351.353 -294.004)" fill="#cbcbcb"/>
            </g>
          </g>
          <g id="Grupo_20720" data-name="Grupo 20720" transform="translate(15.633 19.294)">
            <g id="Grupo_20719" data-name="Grupo 20719">
              <path id="Trazado_47420" data-name="Trazado 47420" d="M340.643,281.125a1.553,1.553,0,0,0,1.552,1.557h24.812a1.555,1.555,0,0,0,1.553-1.557V264.254a1.554,1.554,0,0,0-1.553-1.556H342.195a1.552,1.552,0,0,0-1.552,1.556Z" transform="translate(-339.273 -261.328)" fill="#108d99"/>
              <path id="Trazado_47421" data-name="Trazado 47421" d="M366.8,283.844H341.987a2.928,2.928,0,0,1-2.922-2.927V264.046a2.927,2.927,0,0,1,2.922-2.926H366.8a2.928,2.928,0,0,1,2.923,2.926v16.871A2.929,2.929,0,0,1,366.8,283.844Zm-24.812-19.984a.184.184,0,0,0-.182.187v16.871a.185.185,0,0,0,.182.188H366.8a.185.185,0,0,0,.183-.188V264.046a.185.185,0,0,0-.183-.187Z" transform="translate(-339.065 -261.12)" fill="#fff"/>
            </g>
          </g>
          <g id="Grupo_20723" data-name="Grupo 20723" transform="translate(18.49 28.16)">
            <g id="Grupo_20721" data-name="Grupo 20721">
              <path id="Trazado_47422" data-name="Trazado 47422" d="M349.577,301.054a3.614,3.614,0,0,1-3.325-3.846v-.077a3.614,3.614,0,0,1,3.325-3.845h5.249V271.331h-6.733c-1.05,0-1.9,1.205-1.9,2.693v11.215c0,1.487-.851,2.692-1.9,2.692h-.037c-1.05,0-1.9,1.207-1.9,2.693v13.3c0,1.486.849,2.692,1.9,2.692h10.571v-5.565Z" transform="translate(-342.356 -271.331)" fill="#ffc100"/>
            </g>
            <g id="Grupo_20722" data-name="Grupo 20722" transform="translate(12.47)">
              <path id="Trazado_47423" data-name="Trazado 47423" d="M367.291,287.932h-.038c-1.049,0-1.9-1.205-1.9-2.692V274.024c0-1.488-.851-2.693-1.9-2.693h-6.735v21.954h5.369a3.613,3.613,0,0,1,3.325,3.845v.077a3.614,3.614,0,0,1-3.325,3.846h-5.369v5.565h10.573c1.049,0,1.9-1.207,1.9-2.692v-13.3C369.19,289.139,368.339,287.932,367.291,287.932Z" transform="translate(-356.718 -271.331)" fill="#e9a300"/>
            </g>
          </g>
          <g id="Grupo_20726" data-name="Grupo 20726" transform="translate(27.937 23.455)">
            <g id="Grupo_20724" data-name="Grupo 20724">
              <path id="Trazado_47424" data-name="Trazado 47424" d="M356.291,265.912h-.06c-1.654,0-2.994,1.653-2.994,3.693v8.549c0,2.039,1.34,3.693,2.994,3.693h.06c.023,0,.044,0,.067-.005V265.915C356.335,265.915,356.313,265.912,356.291,265.912Z" transform="translate(-353.237 -265.912)" fill="#fff"/>
            </g>
            <g id="Grupo_20725" data-name="Grupo 20725" transform="translate(3.12 0.003)">
              <path id="Trazado_47425" data-name="Trazado 47425" d="M356.831,265.916v15.925c1.623-.043,2.927-1.676,2.927-3.687v-8.549C359.758,267.593,358.454,265.962,356.831,265.916Z" transform="translate(-356.831 -265.916)" fill="#cbcbcb"/>
            </g>
          </g>
        </g>
      </g>
    </g>
  </g>
  <g id="Grupo_20736" data-name="Grupo 20736" transform="translate(0 5.854)">
    <g id="Grupo_20731" data-name="Grupo 20731" transform="translate(0 148.266)" opacity="0.53" style="mix-blend-mode: color-burn;isolation: isolate">
      <path id="Trazado_47426" data-name="Trazado 47426" d="M56.4,192.416H42.617a3.615,3.615,0,0,0-3.773,2.686L35.217,219.03H63.8L60.175,195.1A3.615,3.615,0,0,0,56.4,192.416ZM53.075,197.3a.432.432,0,0,1,.307.127l1.387-1.391a.434.434,0,0,1,.306-.742,2.439,2.439,0,1,1-2.435,2.44A.434.434,0,0,1,53.075,197.3Zm-5.565,0a.433.433,0,0,1,.306.126l1.387-1.389a.435.435,0,0,1,.306-.742,2.439,2.439,0,1,1-2.434,2.44A.433.433,0,0,1,47.51,197.3Zm-5.565,0a.433.433,0,0,1,.306.126l1.387-1.39a.434.434,0,0,1,.306-.742,2.439,2.439,0,1,1-2.434,2.44A.433.433,0,0,1,41.944,197.3ZM38.538,216.74A2.439,2.439,0,0,1,36.1,214.3a.434.434,0,0,1,.434-.434c.016,0,.031.008.047.009a2,2,0,0,1,1.528-1.532.423.423,0,0,1-.01-.048.434.434,0,0,1,.434-.434,2.439,2.439,0,0,1,0,4.879Zm.16-10.72a.433.433,0,0,1,.434-.434c.016,0,.03.007.048.009a2,2,0,0,1,1.527-1.532.422.422,0,0,1-.01-.048.434.434,0,0,1,.434-.434,2.439,2.439,0,1,1-2.434,2.44Zm5.326,10.72A2.439,2.439,0,0,1,41.59,214.3a.434.434,0,0,1,.434-.434c.017,0,.031.008.047.009a2,2,0,0,1,1.528-1.532.423.423,0,0,1-.01-.048.434.434,0,0,1,.434-.434,2.439,2.439,0,0,1,0,4.879Zm.259-10.72a.434.434,0,0,1,.434-.434.421.421,0,0,1,.048.009,2,2,0,0,1,1.528-1.532.421.421,0,0,1-.01-.048.434.434,0,0,1,.434-.434,2.439,2.439,0,1,1-2.435,2.44Zm5.227,10.72a2.439,2.439,0,0,1-2.434-2.439.433.433,0,0,1,.434-.434c.016,0,.03.008.047.009a2,2,0,0,1,1.528-1.532.423.423,0,0,1-.01-.048.434.434,0,0,1,.434-.434,2.439,2.439,0,0,1,0,4.879Zm.359-10.72a.434.434,0,0,1,.434-.434.374.374,0,0,1,.047.009,2,2,0,0,1,1.529-1.532.292.292,0,0,1-.01-.048.434.434,0,0,1,.434-.434,2.439,2.439,0,1,1-2.434,2.44Zm5.019,10.72a2.439,2.439,0,0,1-2.434-2.439.433.433,0,0,1,.434-.434.423.423,0,0,1,.148.03,2,2,0,0,1,1.433-1.522.471.471,0,0,1-.016-.079.434.434,0,0,1,.434-.434,2.439,2.439,0,0,1,0,4.879ZM62.81,214.3a2.434,2.434,0,1,1-4.868,0,.434.434,0,0,1,.434-.434.408.408,0,0,1,.146.03,2,2,0,0,1,1.436-1.523.389.389,0,0,1-.016-.078.434.434,0,0,1,.434-.434A2.44,2.44,0,0,1,62.81,214.3Zm-4.923-5.842a2.439,2.439,0,0,1-2.434-2.439.433.433,0,0,1,.434-.434.444.444,0,0,1,.047.009,2,2,0,0,1,1.528-1.532.421.421,0,0,1-.01-.048.434.434,0,0,1,.434-.434,2.439,2.439,0,0,1,0,4.879Z" transform="translate(-32.251 -192.416)" fill="gray"/>
      <path id="Trazado_47427" data-name="Trazado 47427" d="M65.418,224.069H32.7a.9.9,0,0,0-.9.9v2.507a.9.9,0,0,0,.9.9H65.418a.9.9,0,0,0,.9-.9v-2.507A.9.9,0,0,0,65.418,224.069Z" transform="translate(-31.801 -196.587)" fill="gray"/>
      <path id="Trazado_47428" data-name="Trazado 47428" d="M41.426,206.089a.434.434,0,0,1-.118-.26,2,2,0,0,0-1.527,1.532.434.434,0,0,1,.259.118Z" transform="translate(-32.852 -194.183)" fill="gray"/>
      <path id="Trazado_47429" data-name="Trazado 47429" d="M47.859,206.089a.434.434,0,0,1-.118-.26,2,2,0,0,0-1.528,1.532.436.436,0,0,1,.26.118Z" transform="translate(-33.7 -194.183)" fill="gray"/>
      <path id="Trazado_47430" data-name="Trazado 47430" d="M54.291,206.089a.433.433,0,0,1-.117-.26,2,2,0,0,0-1.529,1.532.427.427,0,0,1,.26.118Z" transform="translate(-34.547 -194.183)" fill="gray"/>
      <path id="Trazado_47431" data-name="Trazado 47431" d="M60.724,206.089a.429.429,0,0,1-.118-.26,2,2,0,0,0-1.528,1.532.436.436,0,0,1,.26.118Z" transform="translate(-35.395 -194.183)" fill="gray"/>
      <path id="Trazado_47432" data-name="Trazado 47432" d="M38.439,215.627a.434.434,0,0,1-.118-.26,2,2,0,0,0-1.528,1.532.435.435,0,0,1,.26.117Z" transform="translate(-32.459 -195.44)" fill="gray"/>
      <path id="Trazado_47433" data-name="Trazado 47433" d="M44.757,215.627a.434.434,0,0,1-.118-.26,2,2,0,0,0-1.528,1.532.436.436,0,0,1,.26.118Z" transform="translate(-33.291 -195.44)" fill="gray"/>
      <path id="Trazado_47434" data-name="Trazado 47434" d="M51.075,215.627a.434.434,0,0,1-.118-.26,2,2,0,0,0-1.528,1.532.436.436,0,0,1,.26.118Z" transform="translate(-34.124 -195.44)" fill="gray"/>
      <path id="Trazado_47435" data-name="Trazado 47435" d="M57.285,215.631a.427.427,0,0,1-.112-.228,2,2,0,0,0-1.433,1.522.441.441,0,0,1,.158.1Z" transform="translate(-34.955 -195.445)" fill="gray"/>
      <path id="Trazado_47436" data-name="Trazado 47436" d="M63.606,215.631a.43.43,0,0,1-.112-.229,2,2,0,0,0-1.436,1.523.416.416,0,0,1,.161.1Z" transform="translate(-35.788 -195.445)" fill="gray"/>
      <path id="Trazado_47437" data-name="Trazado 47437" d="M43.446,198.288a1.565,1.565,0,1,0,1.565-1.572.432.432,0,0,1-.306-.127l-1.387,1.39A.437.437,0,0,1,43.446,198.288Z" transform="translate(-33.318 -192.966)" fill="gray"/>
      <path id="Trazado_47438" data-name="Trazado 47438" d="M49.856,198.288a1.565,1.565,0,1,0,1.565-1.572.437.437,0,0,1-.306-.126l-1.387,1.389A.434.434,0,0,1,49.856,198.288Z" transform="translate(-34.163 -192.966)" fill="gray"/>
      <path id="Trazado_47439" data-name="Trazado 47439" d="M56.266,198.288a1.566,1.566,0,1,0,1.566-1.572.432.432,0,0,1-.306-.127l-1.387,1.391A.433.433,0,0,1,56.266,198.288Z" transform="translate(-35.008 -192.966)" fill="gray"/>
      <path id="Trazado_47440" data-name="Trazado 47440" d="M49.856,217.364a1.565,1.565,0,1,0,1.565-1.572.432.432,0,0,1-.306-.126l-1.387,1.39A.43.43,0,0,1,49.856,217.364Z" transform="translate(-34.163 -195.48)" fill="gray"/>
      <path id="Trazado_47441" data-name="Trazado 47441" d="M56.05,217.364a1.565,1.565,0,1,0,1.565-1.572.429.429,0,0,1-.306-.127l-1.387,1.39A.437.437,0,0,1,56.05,217.364Z" transform="translate(-34.979 -195.479)" fill="gray"/>
      <path id="Trazado_47442" data-name="Trazado 47442" d="M62.371,217.364a1.566,1.566,0,1,0,1.566-1.572.429.429,0,0,1-.306-.127l-1.387,1.391A.43.43,0,0,1,62.371,217.364Z" transform="translate(-35.812 -195.479)" fill="gray"/>
      <path id="Trazado_47443" data-name="Trazado 47443" d="M43.538,217.364a1.565,1.565,0,1,0,1.565-1.572.429.429,0,0,1-.306-.127l-1.387,1.391A.43.43,0,0,1,43.538,217.364Z" transform="translate(-33.331 -195.479)" fill="gray"/>
      <path id="Trazado_47444" data-name="Trazado 47444" d="M37.22,217.364a1.566,1.566,0,1,0,1.565-1.572.432.432,0,0,1-.306-.127l-1.387,1.39A.434.434,0,0,1,37.22,217.364Z" transform="translate(-32.498 -195.479)" fill="gray"/>
      <path id="Trazado_47445" data-name="Trazado 47445" d="M40.207,207.826a1.565,1.565,0,1,0,1.565-1.572.435.435,0,0,1-.306-.126l-1.387,1.39A.43.43,0,0,1,40.207,207.826Z" transform="translate(-32.892 -194.223)" fill="gray"/>
      <path id="Trazado_47446" data-name="Trazado 47446" d="M46.639,207.826a1.566,1.566,0,1,0,1.566-1.572.435.435,0,0,1-.306-.126l-1.387,1.39A.433.433,0,0,1,46.639,207.826Z" transform="translate(-33.739 -194.223)" fill="gray"/>
      <path id="Trazado_47447" data-name="Trazado 47447" d="M53.072,207.826a1.566,1.566,0,1,0,1.565-1.572.438.438,0,0,1-.306-.126l-1.387,1.39A.43.43,0,0,1,53.072,207.826Z" transform="translate(-34.587 -194.223)" fill="gray"/>
      <path id="Trazado_47448" data-name="Trazado 47448" d="M59.5,207.826a1.565,1.565,0,1,0,1.565-1.572.432.432,0,0,1-.306-.127l-1.387,1.391A.43.43,0,0,1,59.5,207.826Z" transform="translate(-35.434 -194.223)" fill="gray"/>
    </g>
    <g id="Grupo_20732" data-name="Grupo 20732" transform="translate(77.371 274.937)" opacity="0.53" style="mix-blend-mode: color-burn;isolation: isolate">
      <path id="Trazado_47449" data-name="Trazado 47449" d="M124.509,373.532l-3.595,3.758H148l-3-3.758Z" transform="translate(-120.914 -342.95)" fill="gray"/>
      <path id="Trazado_47450" data-name="Trazado 47450" d="M145.005,342.066l3-3.758H120.914l3.595,3.758Z" transform="translate(-120.914 -338.309)" fill="gray"/>
      <path id="Trazado_47451" data-name="Trazado 47451" d="M143.584,346.981c.619,0,1.051-.339,1.051-.643v-.911c0-.3-.432-.643-1.051-.643H126.357c-.619,0-1.051.339-1.051.643v.911c0,.3.432.643,1.051.643Z" transform="translate(-121.493 -339.162)" fill="gray"/>
      <path id="Trazado_47452" data-name="Trazado 47452" d="M126.357,354.194c-.619,0-1.051.338-1.051.642v.911c0,.3.432.642,1.051.642h17.227c.619,0,1.051-.338,1.051-.642v-.911c0-.3-.432-.642-1.051-.642Z" transform="translate(-121.493 -340.402)" fill="gray"/>
      <path id="Trazado_47453" data-name="Trazado 47453" d="M143.584,358.9H126.357c-.619,0-1.051.339-1.051.643v.91c0,.3.432.642,1.051.642h17.227c.619,0,1.051-.338,1.051-.642v-.91C144.635,359.236,144.2,358.9,143.584,358.9Z" transform="translate(-121.493 -341.022)" fill="gray"/>
      <path id="Trazado_47454" data-name="Trazado 47454" d="M143.584,363.6H126.357c-.619,0-1.051.339-1.051.642v.91c0,.3.432.643,1.051.643h17.227c.619,0,1.051-.339,1.051-.643v-.91C144.635,363.94,144.2,363.6,143.584,363.6Z" transform="translate(-121.493 -341.641)" fill="gray"/>
      <path id="Trazado_47455" data-name="Trazado 47455" d="M143.584,368.3H126.357c-.619,0-1.051.338-1.051.643v.911c0,.3.432.642,1.051.642h17.227c.619,0,1.051-.338,1.051-.642v-.911C144.635,368.643,144.2,368.3,143.584,368.3Z" transform="translate(-121.493 -342.261)" fill="gray"/>
      <path id="Trazado_47456" data-name="Trazado 47456" d="M161.012,365.512l-3.893-1.2a3.665,3.665,0,0,1-2.045-1.887c-.349-1.056.3-2.361.861-3.512a10.87,10.87,0,0,0,.65-1.493,5.224,5.224,0,0,0-.8-4.622,8.178,8.178,0,0,0-6.433-3.31H126.4c-.62,0-1.051.339-1.051.642v.911c0,.3.432.643,1.051.643H149.35a6.22,6.22,0,0,1,4.765,2.422,2.952,2.952,0,0,1,.5,2.631,9.418,9.418,0,0,1-.513,1.152c-.691,1.4-1.63,3.307-.989,5.256a5.7,5.7,0,0,0,3.167,3.181l4.154,1.293a1.053,1.053,0,0,0,1.282-.737A1.107,1.107,0,0,0,161.012,365.512Z" transform="translate(-121.499 -339.782)" fill="gray"/>
    </g>
    <g id="Grupo_20733" data-name="Grupo 20733" transform="translate(64.759)" opacity="0.53" style="mix-blend-mode: color-burn;isolation: isolate">
      <rect id="Rectángulo_4690" data-name="Rectángulo 4690" width="0.698" height="7.808" transform="translate(12.442)" fill="gray"/>
      <rect id="Rectángulo_4691" data-name="Rectángulo 4691" width="0.698" height="7.808" transform="translate(15.558)" fill="gray"/>
      <path id="Trazado_47457" data-name="Trazado 47457" d="M156.123,59.808h-.436V57.742h-.928V54.709h1.364Z" transform="translate(-112.761 -26.005)" fill="gray"/>
      <rect id="Rectángulo_4692" data-name="Rectángulo 4692" width="0.478" height="4.822" transform="translate(42.441 33.803)" fill="gray"/>
      <path id="Trazado_47458" data-name="Trazado 47458" d="M155.391,60.269h-2.877V58.2h2.877Z" transform="translate(-112.466 -26.466)" fill="gray"/>
      <path id="Trazado_47459" data-name="Trazado 47459" d="M108.987,38.677h1.482v1.27H108.16a.585.585,0,0,0-.581.59v.012a.586.586,0,0,0,.581.59h2.309v1.007h-2.754a.585.585,0,0,0-.581.59v.012a.586.586,0,0,0,.581.59h2.754v1.007h-2.754a.585.585,0,0,0-.581.59v.012a.586.586,0,0,0,.581.59h2.754v1.007H108.16a.585.585,0,0,0-.581.59v.011a.585.585,0,0,0,.581.59h2.309v1.27h-1.482a2.619,2.619,0,0,1-2.6-2.64V41.317A2.619,2.619,0,0,1,108.987,38.677Z" transform="translate(-106.388 -23.893)" fill="gray"/>
      <rect id="Rectángulo_4693" data-name="Rectángulo 4693" width="9.804" height="1.837" transform="translate(41.7 48.453)" fill="gray"/>
      <rect id="Rectángulo_4694" data-name="Rectángulo 4694" width="9.804" height="1.837" transform="translate(4.081 48.453)" fill="gray"/>
      <path id="Trazado_47460" data-name="Trazado 47460" d="M134.355,37.761a3.782,3.782,0,0,0-1.336-2.878v-4.24h16.345v20.33a4.1,4.1,0,0,1-1.988-3.523v-.066a2.483,2.483,0,0,0-2.462-2.5H133.019V40.638A3.779,3.779,0,0,0,134.355,37.761Z" transform="translate(-109.897 -22.834)" fill="gray"/>
      <path id="Trazado_47461" data-name="Trazado 47461" d="M156.613,30.642A4.44,4.44,0,0,1,161,35.1V47.449a4.057,4.057,0,0,1-4.025,4.089h-2.37v-20.9Z" transform="translate(-112.742 -22.834)" fill="gray"/>
      <path id="Trazado_47462" data-name="Trazado 47462" d="M111.088,46.681V62.1h19.041V40.638a3.648,3.648,0,0,1-2.386.9,3.783,3.783,0,0,1,0-7.564,3.651,3.651,0,0,1,2.386.9v-4.24H116.851a5.81,5.81,0,0,0-5.763,5.855V46.681Zm11.826,7.384h3.939v6.889h-3.939Zm-7.878-16.3a3.722,3.722,0,1,1,3.722,3.782A3.757,3.757,0,0,1,115.036,37.761Z" transform="translate(-107.007 -22.834)" fill="gray"/>
      <path id="Trazado_47463" data-name="Trazado 47463" d="M157.5,72.471H152.46a2.109,2.109,0,0,1-2.084-2.129V67.7h9.206v2.644A2.109,2.109,0,0,1,157.5,72.471Z" transform="translate(-112.184 -27.717)" fill="gray"/>
      <path id="Trazado_47464" data-name="Trazado 47464" d="M144.486,66.876v3.357a2.821,2.821,0,0,0,2.8,2.843h5.038a2.821,2.821,0,0,0,2.8-2.843V66.876h.467a2.95,2.95,0,0,1,2.926,2.974v6.212H111.088V66.876h33.4Z" transform="translate(-107.007 -27.608)" fill="gray"/>
      <rect id="Rectángulo_4695" data-name="Rectángulo 4695" width="2.666" height="2.251" transform="translate(34.813 5.556)" fill="gray"/>
      <path id="Trazado_47465" data-name="Trazado 47465" d="M144.662,27.913v-.894h5.649v.894h-5.649Z" transform="translate(-111.431 -22.357)" fill="gray"/>
      <path id="Trazado_47466" data-name="Trazado 47466" d="M152.645,30.642V52.687h-.8V30.642Z" transform="translate(-112.377 -22.834)" fill="gray"/>
      <path id="Trazado_47467" data-name="Trazado 47467" d="M154.366,30.642V52.687h-1.6V30.642Z" transform="translate(-112.499 -22.834)" fill="gray"/>
      <path id="Trazado_47468" data-name="Trazado 47468" d="M123.2,38.336a3.3,3.3,0,0,1-3.276,3.33V35.006A3.3,3.3,0,0,1,123.2,38.336Z" transform="translate(-108.171 -23.409)" fill="gray"/>
      <path id="Trazado_47469" data-name="Trazado 47469" d="M119.425,35.006v6.659a3.33,3.33,0,0,1,0-6.659Z" transform="translate(-107.674 -23.409)" fill="gray"/>
      <path id="Trazado_47470" data-name="Trazado 47470" d="M130.271,41.665V35.006a3.33,3.33,0,0,1,0,6.659Z" transform="translate(-109.535 -23.409)" fill="gray"/>
      <path id="Trazado_47471" data-name="Trazado 47471" d="M126.5,38.336a3.3,3.3,0,0,1,3.277-3.33v6.659A3.3,3.3,0,0,1,126.5,38.336Z" transform="translate(-109.038 -23.409)" fill="gray"/>
      <rect id="Rectángulo_4696" data-name="Rectángulo 4696" width="3.241" height="2.834" transform="translate(16.256 31.841)" fill="gray"/>
      <rect id="Rectángulo_4697" data-name="Rectángulo 4697" width="3.241" height="2.834" transform="translate(16.256 34.675)" fill="gray"/>
    </g>
    <g id="Grupo_20734" data-name="Grupo 20734" transform="translate(227.102 7.613)" opacity="0.53" style="mix-blend-mode: color-burn;isolation: isolate">
      <path id="Trazado_47472" data-name="Trazado 47472" d="M331.2,37.665a4.1,4.1,0,0,0-.952-3.226c-1.73-2.146-5.679-3.667-10.305-3.969-5.966-.386-11.169,1.388-12.328,4.064l-.194.448-.02-.01L295.086,62.191l.089-.056q.327-.216.693-.416a17.658,17.658,0,0,1,6.592-1.829c.145-.017.306-.03.468-.043l.725-.047c.431-.025.9-.037,1.368-.037l.078,0c.548,0,1.111.018,1.674.055q.586.036,1.156.1c.122.013.241.031.361.045.254.03.509.061.757.1.148.023.291.05.437.075.217.036.435.071.647.112.151.03.3.064.443.1.2.043.4.084.6.132.152.036.3.077.445.117.184.049.37.1.549.148.149.044.291.092.436.137.172.056.345.109.511.167.142.049.279.1.417.155.161.061.322.12.477.183.135.056.263.114.394.171.149.066.3.131.444.2.127.061.247.124.369.186.138.071.276.142.408.214s.229.134.342.2.252.15.372.228.208.141.31.213.228.16.336.242.187.149.277.224.2.168.3.254.165.156.244.236.174.175.254.263.141.164.208.247.146.181.212.273.116.17.171.256.115.186.166.28.09.176.131.265c.023.051.055.1.076.153,1.895-4.219,7.648-17.247,10.089-22.781l.01-.022Z" transform="translate(-293.593 -30.418)" fill="gray"/>
      <path id="Trazado_47473" data-name="Trazado 47473" d="M296.968,74.386a5.466,5.466,0,0,1-1.712-2.284,3.629,3.629,0,0,1,1.785-4.26,11.658,11.658,0,0,1,4.4-1.677,20.487,20.487,0,0,1,4.919-.281,19.346,19.346,0,0,1,5.1,1,12.708,12.708,0,0,1,2.5,1.176,6.8,6.8,0,0,1,2.136,1.965,3.606,3.606,0,0,1,.563,1.348,4.244,4.244,0,0,1,.044.719,3.983,3.983,0,0,1-.111.587,3.8,3.8,0,0,1-1.443,1.908,7.751,7.751,0,0,1-2.092,1.088,12.77,12.77,0,0,1-2.341.6,18.806,18.806,0,0,1-5.009.14,15.88,15.88,0,0,1-5.142-1.351,8.371,8.371,0,0,1-2.348-1.6,3.452,3.452,0,0,1-1.11-2.62,3.009,3.009,0,0,1,.133-.59,2.265,2.265,0,0,1,.276-.579,3.66,3.66,0,0,1,.789-.9,6.974,6.974,0,0,1,2.055-1.146,13.92,13.92,0,0,1,4.784-.792,16.308,16.308,0,0,1,2.527.175,14.533,14.533,0,0,1,2.568.59,10.525,10.525,0,0,1,2.5,1.177,4.7,4.7,0,0,1,1.9,2.179,2.709,2.709,0,0,1,.129.694,1.8,1.8,0,0,1,0,.354l-.045.288a2.716,2.716,0,0,1-.577,1.091,5.222,5.222,0,0,1-1.936,1.3,12.556,12.556,0,0,1-4.787.835,14.33,14.33,0,0,1-5.11-.918,7.391,7.391,0,0,1-2.382-1.425,2.667,2.667,0,0,1-.985-2.472,2.947,2.947,0,0,1,1.478-1.783,7.627,7.627,0,0,1,2.2-.834,13.3,13.3,0,0,1,4.922-.12,11.724,11.724,0,0,1,2.527.68,6.369,6.369,0,0,1,2.3,1.471,2.477,2.477,0,0,1,.65,1.186,1.778,1.778,0,0,1-.164,1.183,3.471,3.471,0,0,1-1.749,1.394,10.633,10.633,0,0,1-4.748.656,10.5,10.5,0,0,0,4.7-.732,3.386,3.386,0,0,0,1.684-1.393,1.681,1.681,0,0,0,.134-1.106,2.294,2.294,0,0,0-.619-1.091,6.13,6.13,0,0,0-2.226-1.379,11.466,11.466,0,0,0-2.47-.623,12.882,12.882,0,0,0-4.8.2,7.406,7.406,0,0,0-2.093.834,2.685,2.685,0,0,0-1.322,1.593,2.2,2.2,0,0,0,.851,2.066,6.877,6.877,0,0,0,2.214,1.295,13.754,13.754,0,0,0,4.92.836,12.036,12.036,0,0,0,4.585-.843,4.814,4.814,0,0,0,1.765-1.212,2.406,2.406,0,0,0,.47-.879l.042-.29a1.43,1.43,0,0,0-.005-.247,2.073,2.073,0,0,0-.1-.529,3.954,3.954,0,0,0-1.616-1.785,10.006,10.006,0,0,0-2.316-1.07,13.7,13.7,0,0,0-2.439-.554,15.616,15.616,0,0,0-2.441-.161,13.312,13.312,0,0,0-4.579.77,6.448,6.448,0,0,0-1.9,1.064,3.172,3.172,0,0,0-.683.778,1.811,1.811,0,0,0-.214.439,2.453,2.453,0,0,0-.121.543,2.741,2.741,0,0,0,.893,1.98,7.519,7.519,0,0,0,2.1,1.41,15.068,15.068,0,0,0,4.866,1.261,17.991,17.991,0,0,0,4.821-.148,12.054,12.054,0,0,0,2.226-.581,7.192,7.192,0,0,0,1.94-1.015,2.784,2.784,0,0,0,1.343-2.135c-.019-.115,0-.333-.038-.495a2.746,2.746,0,0,0-.432-1.034,5.875,5.875,0,0,0-1.832-1.677,11.842,11.842,0,0,0-2.316-1.1,18.586,18.586,0,0,0-4.892-.972,19.946,19.946,0,0,0-4.763.258,11.134,11.134,0,0,0-4.2,1.576,4.247,4.247,0,0,0-1.455,1.519c-.082.149-.123.306-.194.456-.052.168-.074.378-.112.564l.014.514c.048.181.074.365.132.544a4.668,4.668,0,0,0,1.458,1.933,10.245,10.245,0,0,0,2.2,1.348,17.974,17.974,0,0,0,4.9,1.411,23.938,23.938,0,0,0,4.932.227,18.608,18.608,0,0,0,4.634-.859,7.816,7.816,0,0,0,3.687-2.323,3.143,3.143,0,0,0,.658-1.593l-.25.009.031-.522c.18-2.986-5.148-5.855-11.633-6.264a25.153,25.153,0,0,0-3.034-.018l-.649.043c-.178.014-.326.024-.467.042a16.719,16.719,0,0,0-6.231,1.716c-.228.124-.446.254-.65.39-.089.054-.154.1-.218.148a4.438,4.438,0,0,0-.5.391l-.078.071c-.043.038-.087.077-.125.116a4.155,4.155,0,0,0-.673.8c-.044.069-.082.135-.119.2l-.005.01-.2.408a2.52,2.52,0,0,0-.1.348c-.015.056-.022.1-.029.138-.021.13-.027.169-.03.212a3.743,3.743,0,0,0,1.114,2.787c1.8,2.024,5.314,3.5,9.316,4.015a17.962,17.962,0,0,1-4.459-1.342A11.018,11.018,0,0,1,296.968,74.386Z" transform="translate(-293.367 -35.016)" fill="gray"/>
      <path id="Trazado_47474" data-name="Trazado 47474" d="M320.62,71.422a8.122,8.122,0,0,1-3.843,2.5,18.725,18.725,0,0,1-4.26.88c1.039.008,2.175.012,3.427.012,2.606,0,5.353-.016,7.992-.034,2.439-.015,4.786-.03,6.841-.03,1.95,0,3.4.013,4.509.041l12.458-29.413c-2.195-.051-4.119-.022-6.213.01-1.416.022-2.91.044-4.617.044-1.588,0-3.153-.02-4.777-.06-7.659,17.364-9.805,22.23-10.542,23.6,0,.03,0,.061,0,.091l-.043,0a2.114,2.114,0,0,1-.216.333A3.448,3.448,0,0,1,320.62,71.422Z" transform="translate(-295.89 -32.386)" fill="gray"/>
    </g>
    <path id="Trazado_47475" data-name="Trazado 47475" d="M422.991,240.012l-10.98-8.636V213.442h8.745s.068-3.831.068-9.333-2.995-9.82-2.995-14.068c0-5.223,4.875-7.243,4.875-7.243v-2.857c0-3.482-8.636-2.925-8.636-8.775H408.29c0,5.85-8.636,5.294-8.636,8.775V182.8s4.876,2.02,4.876,7.243c0,4.248-3,8.566-3,14.068s.069,9.333.069,9.333h8.737v17.934l-10.979,8.635h-1.217v1.826h4.341v-1.826h-.422l8.281-6.511v6.514h-1.334v1.82h4.336v-1.82h-1.332V233.5l8.282,6.509h-.422v1.826h4.333v-1.826Z" transform="translate(-80.07 -41.35)" fill="gray" opacity="0.53" style="mix-blend-mode: color-burn;isolation: isolate"/>
    <g id="Grupo_20735" data-name="Grupo 20735" transform="translate(227.689 269.703)" opacity="0.53" style="mix-blend-mode: color-burn;isolation: isolate">
      <path id="Trazado_47476" data-name="Trazado 47476" d="M338.633,369.01H294.758l-.716,4.529h45.305Z" transform="translate(-294.042 -337.121)" fill="gray"/>
      <path id="Trazado_47477" data-name="Trazado 47477" d="M297.122,354.531a1.414,1.414,0,0,0,.694-.187l1.525,1.561a14.222,14.222,0,0,0-2.218,7.57H336.7a14.762,14.762,0,0,0-4.314-10.25l2.561-4.911a1.423,1.423,0,1,0-.673-.359c.011.011.026.018.038.029l-2.457,4.713a19.146,19.146,0,0,0-3.712-2.764l4.565-9.291a1.425,1.425,0,1,0-.644-.313l-4.55,9.26a21.755,21.755,0,0,0-4.662-1.809l1.06-2.206a1.4,1.4,0,0,0,.75-.058,1.43,1.43,0,1,0-1.835-.853,1.408,1.408,0,0,0,.414.588l-1.13,2.351a23.55,23.55,0,0,0-4.326-.561l3.355-13.742a.122.122,0,0,0,.007-.032.822.822,0,1,0-1.611-.325L316.7,347.027a23.561,23.561,0,0,0-5.441.679l-.219-11.238a1.426,1.426,0,1,0-.716.016l.222,11.411a22.382,22.382,0,0,0-2.213.748l-3.124-12.1c0-.01-.005-.024-.009-.034a.823.823,0,0,0-1.574.478l3.684,12.1a20.239,20.239,0,0,0-3.425,2.006l-1.973-6.667a1.425,1.425,0,1,0-.736.208.446.446,0,0,0,.049-.005l2.051,6.928a17.372,17.372,0,0,0-3.514,3.712l-1.41-1.445a1.411,1.411,0,0,0,.2-.724,1.43,1.43,0,1,0-1.43,1.431ZM319.7,334.693c.02-.21.017-.425.049-.619a1.86,1.86,0,0,1,.2-.5,1.773,1.773,0,0,1,.359-.458.047.047,0,0,1,.063.005l.007.01a1.791,1.791,0,0,1,.13.566,1.867,1.867,0,0,1-.033.543c-.053.188-.147.384-.218.582-.273.8-.609,1.58-.609,1.58a.037.037,0,0,1-.048.02.039.039,0,0,1-.022-.035S319.606,335.53,319.7,334.693Zm-14.376,5.328a.036.036,0,0,1-.036-.018s-.379-.765-.7-1.545c-.081-.194-.186-.383-.249-.57a1.888,1.888,0,0,1-.062-.54,1.779,1.779,0,0,1,.1-.572.046.046,0,0,1,.058-.024.047.047,0,0,1,.011.006,1.753,1.753,0,0,1,.382.436,1.859,1.859,0,0,1,.228.493c.044.192.052.407.085.616.135.831.211,1.68.212,1.68A.036.036,0,0,1,305.322,340.021Z" transform="translate(-294.26 -332.281)" fill="gray"/>
    </g>
  </g>
</svg>
