<svg xmlns="http://www.w3.org/2000/svg" width="254.731" height="563.705" viewBox="0 0 254.731 563.705">
  <g id="Grupo_21278" data-name="Grupo 21278" transform="translate(-1193.267 -137.845)">
    <rect id="Rectángulo_4924" data-name="Rectángulo 4924" width="126.127" height="37.664" transform="translate(1193.267 138.177)" fill="#d0e6ff"/>
    <rect id="Rectángulo_4925" data-name="Rectángulo 4925" width="126.127" height="37.664" transform="translate(1321.871 137.845)" fill="#d0e6ff"/>
    <rect id="Rectángulo_4926" data-name="Rectángulo 4926" width="126.127" height="25.191" transform="translate(1193.267 178.318)" fill="#dbecff"/>
    <rect id="Rectángulo_4927" data-name="Rectángulo 4927" width="126.127" height="25.191" transform="translate(1321.871 178.318)" fill="#dbecff"/>
    <rect id="Rectángulo_4928" data-name="Rectángulo 4928" width="126.127" height="25.191" transform="translate(1193.267 205.987)" fill="#dbecff"/>
    <rect id="Rectángulo_4929" data-name="Rectángulo 4929" width="126.127" height="25.191" transform="translate(1321.871 205.987)" fill="#dbecff"/>
    <rect id="Rectángulo_4930" data-name="Rectángulo 4930" width="126.127" height="25.191" transform="translate(1193.267 233.656)" fill="#dbecff"/>
    <rect id="Rectángulo_4931" data-name="Rectángulo 4931" width="126.127" height="25.191" transform="translate(1321.871 233.656)" fill="#dbecff"/>
    <rect id="Rectángulo_4932" data-name="Rectángulo 4932" width="126.127" height="25.191" transform="translate(1193.267 261.325)" fill="#dbecff"/>
    <rect id="Rectángulo_4933" data-name="Rectángulo 4933" width="126.127" height="25.191" transform="translate(1321.871 261.325)" fill="#dbecff"/>
    <rect id="Rectángulo_4934" data-name="Rectángulo 4934" width="126.127" height="25.191" transform="translate(1193.267 288.994)" fill="#dbecff"/>
    <rect id="Rectángulo_4935" data-name="Rectángulo 4935" width="126.127" height="25.191" transform="translate(1321.871 288.994)" fill="#dbecff"/>
    <rect id="Rectángulo_4936" data-name="Rectángulo 4936" width="126.127" height="25.191" transform="translate(1193.267 316.663)" fill="#dbecff"/>
    <rect id="Rectángulo_4937" data-name="Rectángulo 4937" width="126.127" height="25.191" transform="translate(1321.871 316.663)" fill="#dbecff"/>
    <rect id="Rectángulo_4938" data-name="Rectángulo 4938" width="126.127" height="25.191" transform="translate(1193.267 344.332)" fill="#dbecff"/>
    <rect id="Rectángulo_4939" data-name="Rectángulo 4939" width="126.127" height="25.191" transform="translate(1321.871 344.332)" fill="#dbecff"/>
    <rect id="Rectángulo_4940" data-name="Rectángulo 4940" width="126.127" height="25.191" transform="translate(1193.267 372.001)" fill="#dbecff"/>
    <rect id="Rectángulo_4941" data-name="Rectángulo 4941" width="126.127" height="25.191" transform="translate(1321.871 372.001)" fill="#dbecff"/>
    <rect id="Rectángulo_4942" data-name="Rectángulo 4942" width="126.127" height="25.191" transform="translate(1193.267 399.669)" fill="#dbecff"/>
    <rect id="Rectángulo_4943" data-name="Rectángulo 4943" width="126.127" height="25.191" transform="translate(1321.871 399.669)" fill="#dbecff"/>
    <rect id="Rectángulo_4944" data-name="Rectángulo 4944" width="126.127" height="25.191" transform="translate(1193.267 427.338)" fill="#dbecff"/>
    <rect id="Rectángulo_4945" data-name="Rectángulo 4945" width="126.127" height="25.191" transform="translate(1321.871 427.338)" fill="#dbecff"/>
    <rect id="Rectángulo_4946" data-name="Rectángulo 4946" width="126.127" height="25.191" transform="translate(1193.267 455.007)" fill="#dbecff"/>
    <rect id="Rectángulo_4947" data-name="Rectángulo 4947" width="126.127" height="25.191" transform="translate(1321.871 455.007)" fill="#dbecff"/>
    <rect id="Rectángulo_4948" data-name="Rectángulo 4948" width="126.127" height="25.191" transform="translate(1193.267 482.676)" fill="#dbecff"/>
    <rect id="Rectángulo_4949" data-name="Rectángulo 4949" width="126.127" height="25.191" transform="translate(1321.871 482.676)" fill="#dbecff"/>
    <rect id="Rectángulo_4950" data-name="Rectángulo 4950" width="126.127" height="25.191" transform="translate(1193.267 510.345)" fill="#dbecff"/>
    <rect id="Rectángulo_4951" data-name="Rectángulo 4951" width="126.127" height="25.191" transform="translate(1321.871 510.345)" fill="#dbecff"/>
    <rect id="Rectángulo_4952" data-name="Rectángulo 4952" width="126.127" height="25.191" transform="translate(1193.267 538.014)" fill="#dbecff"/>
    <rect id="Rectángulo_4953" data-name="Rectángulo 4953" width="126.127" height="25.191" transform="translate(1321.871 538.014)" fill="#dbecff"/>
    <rect id="Rectángulo_4954" data-name="Rectángulo 4954" width="126.127" height="25.191" transform="translate(1193.267 565.683)" fill="#dbecff"/>
    <rect id="Rectángulo_4955" data-name="Rectángulo 4955" width="126.127" height="25.191" transform="translate(1321.871 565.683)" fill="#dbecff"/>
    <rect id="Rectángulo_4956" data-name="Rectángulo 4956" width="126.127" height="25.191" transform="translate(1193.267 593.352)" fill="#dbecff"/>
    <rect id="Rectángulo_4957" data-name="Rectángulo 4957" width="126.127" height="25.191" transform="translate(1321.871 593.352)" fill="#dbecff"/>
    <rect id="Rectángulo_4958" data-name="Rectángulo 4958" width="126.127" height="25.191" transform="translate(1193.267 621.02)" fill="#dbecff"/>
    <rect id="Rectángulo_4959" data-name="Rectángulo 4959" width="126.127" height="25.191" transform="translate(1321.871 621.02)" fill="#dbecff"/>
    <rect id="Rectángulo_4960" data-name="Rectángulo 4960" width="126.127" height="25.191" transform="translate(1193.267 648.689)" fill="#dbecff"/>
    <rect id="Rectángulo_4961" data-name="Rectángulo 4961" width="126.127" height="25.191" transform="translate(1321.871 648.689)" fill="#dbecff"/>
    <rect id="Rectángulo_4962" data-name="Rectángulo 4962" width="126.127" height="25.191" transform="translate(1193.267 676.358)" fill="#dbecff"/>
    <rect id="Rectángulo_4963" data-name="Rectángulo 4963" width="126.127" height="25.191" transform="translate(1321.871 676.358)" fill="#dbecff"/>
    <g id="Grupo_21273" data-name="Grupo 21273" transform="translate(1248.413 184.324)">
      <path id="Trazado_48367" data-name="Trazado 48367" d="M1232.211,164.436h1.522v13.218h-1.6V166.21l-3.174,2.749v-1.736Z" transform="translate(-1221.72 -164.436)"/>
      <path id="Trazado_48368" data-name="Trazado 48368" d="M1229.116,180.286h1.522V193.5h-1.606V182.06l-3.174,2.751v-1.737Z" transform="translate(-1224.036 -152.581)"/>
      <path id="Trazado_48369" data-name="Trazado 48369" d="M1233.638,192.1h6.579v1.493H1231.3V192.36l5.294-5.475a6.272,6.272,0,0,0,1.192-1.568,3.11,3.11,0,0,0,.329-1.362,2.283,2.283,0,0,0-.668-1.751,2.723,2.723,0,0,0-3.533.058,2.926,2.926,0,0,0-.673,2.125v.977l-1.624-.15V184.4a4.175,4.175,0,0,1,1.119-3.141,4.625,4.625,0,0,1,5.854-.079,3.494,3.494,0,0,1,1.121,2.741,4.159,4.159,0,0,1-.446,1.911,8.181,8.181,0,0,1-1.432,1.9Z" transform="translate(-1219.966 -152.666)"/>
      <path id="Trazado_48370" data-name="Trazado 48370" d="M1229.116,196.136h1.522v13.218h-1.606V197.91l-3.174,2.751v-1.737Z" transform="translate(-1224.036 -140.727)"/>
      <path id="Trazado_48371" data-name="Trazado 48371" d="M1241,205.2V206.7h-2.036v2.657h-1.626V206.7h-6.328v-1.5l5.5-9.059h2.453V205.2Zm-8.308,0h4.646v-7.876Z" transform="translate(-1220.183 -140.727)"/>
      <path id="Trazado_48372" data-name="Trazado 48372" d="M1229.116,211.985h1.522V225.2h-1.606V213.759l-3.174,2.751v-1.736Z" transform="translate(-1224.036 -128.873)"/>
      <path id="Trazado_48373" data-name="Trazado 48373" d="M1240.393,220.8a4.468,4.468,0,0,1-.6,2.375,4.248,4.248,0,0,1-1.661,1.615,4.757,4.757,0,0,1-2.292.563,4.62,4.62,0,0,1-3.286-1.245,4.2,4.2,0,0,1-1.325-3.206,5.2,5.2,0,0,1,1.148-3.174l4.421-5.745h1.915l-3.67,4.628a4.1,4.1,0,0,1,1.143-.159,4.21,4.21,0,0,1,2.029.507,4.045,4.045,0,0,1,1.549,1.515A4.526,4.526,0,0,1,1240.393,220.8Zm-4.59,3.041a2.87,2.87,0,0,0,3-3.069,2.9,2.9,0,0,0-3.033-3.052,2.839,2.839,0,0,0-2.157.905,3.042,3.042,0,0,0-.837,2.211,2.931,2.931,0,0,0,.851,2.208A3.024,3.024,0,0,0,1235.8,223.843Z" transform="translate(-1220.019 -128.873)"/>
      <path id="Trazado_48374" data-name="Trazado 48374" d="M1229.116,227.835h1.522v13.22h-1.606V229.611l-3.174,2.749v-1.736Z" transform="translate(-1224.036 -117.018)"/>
      <path id="Trazado_48375" data-name="Trazado 48375" d="M1238.987,240.22a5.248,5.248,0,0,1-6.406,0,3.6,3.6,0,0,1-1.281-2.879,3.555,3.555,0,0,1,.666-2.159,3.832,3.832,0,0,1,1.813-1.334,3.261,3.261,0,0,1-1.3-1.131,2.872,2.872,0,0,1-.484-1.629,3.056,3.056,0,0,1,1.08-2.409,3.983,3.983,0,0,1,2.713-.944,3.9,3.9,0,0,1,2.68.949,3.062,3.062,0,0,1,1.077,2.4,2.943,2.943,0,0,1-.47,1.629,3.19,3.19,0,0,1-1.276,1.131,3.9,3.9,0,0,1,1.8,1.339,3.534,3.534,0,0,1,.666,2.153A3.6,3.6,0,0,1,1238.987,240.22Zm-3.2-.413a2.94,2.94,0,0,0,2.033-.724,2.44,2.44,0,0,0,.813-1.916,2.388,2.388,0,0,0-.812-1.886,2.966,2.966,0,0,0-2.033-.713,3,3,0,0,0-2.047.713,2.384,2.384,0,0,0-.816,1.886,2.436,2.436,0,0,0,.816,1.916A2.975,2.975,0,0,0,1235.787,239.808Zm0-6.5a2.232,2.232,0,0,0,1.6-.62,2.012,2.012,0,0,0,.652-1.521,1.95,1.95,0,0,0-.652-1.487,2.443,2.443,0,0,0-3.216-.005,1.953,1.953,0,0,0-.647,1.493,2.012,2.012,0,0,0,.652,1.521A2.244,2.244,0,0,0,1235.787,233.311Z" transform="translate(-1219.966 -117.094)"/>
      <path id="Trazado_48376" data-name="Trazado 48376" d="M1227.445,255.5h6.581v1.493h-8.92v-1.231l5.3-5.473a6.255,6.255,0,0,0,1.19-1.568,3.114,3.114,0,0,0,.33-1.362,2.283,2.283,0,0,0-.667-1.751,2.717,2.717,0,0,0-3.533.058,2.926,2.926,0,0,0-.673,2.125v.977l-1.624-.15V247.8a4.174,4.174,0,0,1,1.119-3.141,4.626,4.626,0,0,1,5.852-.08,3.5,3.5,0,0,1,1.122,2.743,4.158,4.158,0,0,1-.446,1.91,8.181,8.181,0,0,1-1.432,1.9Z" transform="translate(-1224.599 -105.247)"/>
      <path id="Trazado_48377" data-name="Trazado 48377" d="M1235.746,257.159a3.682,3.682,0,0,1-3.258-1.727,11.844,11.844,0,0,1-.014-10.131,3.958,3.958,0,0,1,6.53.005,11.772,11.772,0,0,1-.014,10.12A3.675,3.675,0,0,1,1235.746,257.159Zm0-1.5a2.236,2.236,0,0,0,2.056-1.325,8.6,8.6,0,0,0,.713-3.971,8.375,8.375,0,0,0-.727-3.966,2.26,2.26,0,0,0-4.09-.005,8.456,8.456,0,0,0-.722,3.971,8.659,8.659,0,0,0,.71,3.977A2.235,2.235,0,0,0,1235.746,255.658Z" transform="translate(-1219.934 -105.24)"/>
      <path id="Trazado_48378" data-name="Trazado 48378" d="M1227.445,271.345h6.581v1.493h-8.92v-1.229l5.3-5.474a6.252,6.252,0,0,0,1.19-1.568,3.114,3.114,0,0,0,.33-1.362,2.283,2.283,0,0,0-.667-1.751,2.723,2.723,0,0,0-3.533.058,2.926,2.926,0,0,0-.673,2.125v.977l-1.624-.15v-.816a4.176,4.176,0,0,1,1.119-3.141,4.623,4.623,0,0,1,5.852-.079,3.49,3.49,0,0,1,1.122,2.741,4.158,4.158,0,0,1-.446,1.91,8.225,8.225,0,0,1-1.432,1.9Z" transform="translate(-1224.599 -93.393)"/>
      <path id="Trazado_48379" data-name="Trazado 48379" d="M1233.638,271.345h6.579v1.493H1231.3v-1.229l5.294-5.474a6.271,6.271,0,0,0,1.192-1.568,3.11,3.11,0,0,0,.329-1.362,2.283,2.283,0,0,0-.668-1.751,2.723,2.723,0,0,0-3.533.058,2.926,2.926,0,0,0-.673,2.125v.977l-1.624-.15v-.816a4.175,4.175,0,0,1,1.119-3.141,4.625,4.625,0,0,1,5.854-.079,3.494,3.494,0,0,1,1.121,2.741,4.16,4.16,0,0,1-.446,1.91,8.183,8.183,0,0,1-1.432,1.9Z" transform="translate(-1219.966 -93.393)"/>
      <path id="Trazado_48380" data-name="Trazado 48380" d="M1227.445,287.2h6.581v1.493h-8.92v-1.229l5.3-5.474a6.223,6.223,0,0,0,1.19-1.568,3.113,3.113,0,0,0,.33-1.36,2.278,2.278,0,0,0-.667-1.751,2.72,2.72,0,0,0-3.533.056,2.93,2.93,0,0,0-.673,2.127v.975l-1.624-.15V279.5a4.169,4.169,0,0,1,1.119-3.139,4.62,4.62,0,0,1,5.852-.08,3.49,3.49,0,0,1,1.122,2.741,4.158,4.158,0,0,1-.446,1.911,8.186,8.186,0,0,1-1.432,1.9Z" transform="translate(-1224.599 -81.538)"/>
      <path id="Trazado_48381" data-name="Trazado 48381" d="M1241,284.454v1.493h-2.036V288.6h-1.626v-2.657h-6.328v-1.5l5.5-9.06h2.453v9.068Zm-8.308,0h4.646v-7.876Z" transform="translate(-1220.183 -81.454)"/>
      <path id="Trazado_48382" data-name="Trazado 48382" d="M1227.445,303.046h6.581v1.493h-8.92v-1.231l5.3-5.473a6.284,6.284,0,0,0,1.19-1.568,3.114,3.114,0,0,0,.33-1.362,2.278,2.278,0,0,0-.667-1.751,2.72,2.72,0,0,0-3.533.056,2.933,2.933,0,0,0-.673,2.127v.977l-1.624-.15v-.816a4.171,4.171,0,0,1,1.119-3.141,4.626,4.626,0,0,1,5.852-.08,3.5,3.5,0,0,1,1.122,2.742,4.146,4.146,0,0,1-.446,1.909,8.188,8.188,0,0,1-1.432,1.9Z" transform="translate(-1224.599 -69.683)"/>
      <path id="Trazado_48383" data-name="Trazado 48383" d="M1238.987,303.62a5.245,5.245,0,0,1-6.406-.005,3.6,3.6,0,0,1-1.281-2.877,3.555,3.555,0,0,1,.666-2.159,3.821,3.821,0,0,1,1.813-1.334,3.251,3.251,0,0,1-1.3-1.133,2.863,2.863,0,0,1-.484-1.627,3.056,3.056,0,0,1,1.08-2.409,3.974,3.974,0,0,1,2.713-.944,3.9,3.9,0,0,1,2.68.949,3.062,3.062,0,0,1,1.077,2.4,2.933,2.933,0,0,1-.47,1.627,3.18,3.18,0,0,1-1.276,1.133,3.883,3.883,0,0,1,1.8,1.339,3.534,3.534,0,0,1,.666,2.153A3.6,3.6,0,0,1,1238.987,303.62Zm-3.2-.413a2.94,2.94,0,0,0,2.033-.724,2.44,2.44,0,0,0,.813-1.916,2.385,2.385,0,0,0-.812-1.886,2.967,2.967,0,0,0-2.033-.715,3,3,0,0,0-2.047.715,2.382,2.382,0,0,0-.816,1.886,2.436,2.436,0,0,0,.816,1.916A2.976,2.976,0,0,0,1235.787,303.208Zm0-6.5a2.232,2.232,0,0,0,1.6-.621,2.012,2.012,0,0,0,.652-1.521,1.95,1.95,0,0,0-.652-1.487,2.443,2.443,0,0,0-3.216-.005,1.953,1.953,0,0,0-.647,1.493,2.012,2.012,0,0,0,.652,1.521A2.244,2.244,0,0,0,1235.787,296.711Z" transform="translate(-1219.966 -69.676)"/>
      <path id="Trazado_48384" data-name="Trazado 48384" d="M1229.5,320.559q-4.4,0-4.4-4.7l1.652-.084a4.118,4.118,0,0,0,.62,2.487,2.5,2.5,0,0,0,2.129.827,2.927,2.927,0,0,0,2.052-.713,2.641,2.641,0,0,0,.03-3.728,2.717,2.717,0,0,0-1.893-.685h-.656V312.58h.638a1.948,1.948,0,0,0,1.444-.612,2.05,2.05,0,0,0,.6-1.5,1.844,1.844,0,0,0-.638-1.454,2.336,2.336,0,0,0-1.6-.565,2.566,2.566,0,0,0-1.057.2,1.5,1.5,0,0,0-.671.577,2.757,2.757,0,0,0-.337.841,4.979,4.979,0,0,0-.1,1.07l-1.652-.056a4.287,4.287,0,0,1,.99-3.033,3.678,3.678,0,0,1,2.821-1.061,3.92,3.92,0,0,1,2.709.968,3.085,3.085,0,0,1,1.084,2.4,2.893,2.893,0,0,1-.526,1.718,3.009,3.009,0,0,1-1.323,1.07,3.645,3.645,0,0,1,1.86,1.211,3.4,3.4,0,0,1,.724,2.225,3.641,3.641,0,0,1-1.264,2.882A4.736,4.736,0,0,1,1229.5,320.559Z" transform="translate(-1224.606 -57.821)"/>
      <path id="Trazado_48385" data-name="Trazado 48385" d="M1233.638,318.9h6.579v1.493H1231.3v-1.231l5.294-5.473a6.271,6.271,0,0,0,1.192-1.568,3.11,3.11,0,0,0,.329-1.362,2.283,2.283,0,0,0-.668-1.751,2.72,2.72,0,0,0-3.533.056,2.933,2.933,0,0,0-.673,2.127v.977l-1.624-.15V311.2a4.17,4.17,0,0,1,1.119-3.141,4.1,4.1,0,0,1,2.984-1.084,4.143,4.143,0,0,1,2.87,1,3.5,3.5,0,0,1,1.121,2.742,4.147,4.147,0,0,1-.446,1.909,8.145,8.145,0,0,1-1.432,1.9Z" transform="translate(-1219.966 -57.829)"/>
      <path id="Trazado_48386" data-name="Trazado 48386" d="M1229.5,336.409q-4.4,0-4.4-4.7l1.652-.084a4.118,4.118,0,0,0,.62,2.487,2.5,2.5,0,0,0,2.129.827,2.927,2.927,0,0,0,2.052-.713,2.642,2.642,0,0,0,.03-3.728,2.717,2.717,0,0,0-1.893-.685h-.656V328.43h.638a1.953,1.953,0,0,0,1.444-.61,2.054,2.054,0,0,0,.6-1.5,1.844,1.844,0,0,0-.638-1.454,2.336,2.336,0,0,0-1.6-.565,2.567,2.567,0,0,0-1.057.2,1.5,1.5,0,0,0-.671.577,2.756,2.756,0,0,0-.337.841,5,5,0,0,0-.1,1.071l-1.652-.058a4.287,4.287,0,0,1,.99-3.033,3.678,3.678,0,0,1,2.821-1.061,3.92,3.92,0,0,1,2.709.968,3.084,3.084,0,0,1,1.084,2.4,2.894,2.894,0,0,1-.526,1.718,3.01,3.01,0,0,1-1.323,1.07,3.645,3.645,0,0,1,1.86,1.211,3.4,3.4,0,0,1,.724,2.225,3.641,3.641,0,0,1-1.264,2.882A4.736,4.736,0,0,1,1229.5,336.409Z" transform="translate(-1224.606 -45.967)"/>
      <path id="Trazado_48387" data-name="Trazado 48387" d="M1240.393,331.751a4.469,4.469,0,0,1-.6,2.375,4.248,4.248,0,0,1-1.661,1.615,4.738,4.738,0,0,1-2.292.563,4.612,4.612,0,0,1-3.286-1.245,4.2,4.2,0,0,1-1.325-3.206,5.194,5.194,0,0,1,1.148-3.173l4.421-5.745h1.915l-3.67,4.627a4.1,4.1,0,0,1,1.143-.159,4.209,4.209,0,0,1,2.029.507,4.07,4.07,0,0,1,1.549,1.515A4.536,4.536,0,0,1,1240.393,331.751Zm-4.59,3.041a2.87,2.87,0,0,0,3-3.069,2.906,2.906,0,0,0-3.033-3.052,2.839,2.839,0,0,0-2.157.905,3.042,3.042,0,0,0-.837,2.211,2.929,2.929,0,0,0,.851,2.208A3.024,3.024,0,0,0,1235.8,334.792Z" transform="translate(-1220.019 -45.89)"/>
      <path id="Trazado_48388" data-name="Trazado 48388" d="M1234.805,347.854v1.493h-2.037V352h-1.624v-2.657h-6.329v-1.5l5.5-9.059h2.45v9.068Zm-8.308,0h4.648v-7.876Z" transform="translate(-1224.816 -34.035)"/>
      <path id="Trazado_48389" data-name="Trazado 48389" d="M1235.746,352.258a3.682,3.682,0,0,1-3.258-1.727,11.84,11.84,0,0,1-.014-10.129,3.959,3.959,0,0,1,6.53,0,11.772,11.772,0,0,1-.014,10.121A3.676,3.676,0,0,1,1235.746,352.258Zm0-1.5a2.236,2.236,0,0,0,2.056-1.325,8.6,8.6,0,0,0,.713-3.97,8.379,8.379,0,0,0-.727-3.968,2.26,2.26,0,0,0-4.09,0,8.447,8.447,0,0,0-.722,3.971,8.655,8.655,0,0,0,.71,3.975A2.235,2.235,0,0,0,1235.746,350.757Z" transform="translate(-1219.934 -34.111)"/>
      <path id="Trazado_48390" data-name="Trazado 48390" d="M1234.805,363.7V365.2h-2.037v2.657h-1.624V365.2h-6.329v-1.5l5.5-9.06h2.45V363.7Zm-8.308,0h4.648v-7.876Z" transform="translate(-1224.816 -22.18)"/>
      <path id="Trazado_48391" data-name="Trazado 48391" d="M1241,363.7V365.2h-2.036v2.657h-1.626V365.2h-6.328v-1.5l5.5-9.06h2.453V363.7Zm-8.308,0h4.646v-7.876Z" transform="translate(-1220.183 -22.18)"/>
      <path id="Trazado_48392" data-name="Trazado 48392" d="M1234.805,379.555v1.493h-2.037V383.7h-1.624v-2.657h-6.329v-1.5l5.5-9.06h2.45v9.07Zm-8.308,0h4.648v-7.878Z" transform="translate(-1224.816 -10.326)"/>
      <path id="Trazado_48393" data-name="Trazado 48393" d="M1238.987,382.87a5.245,5.245,0,0,1-6.406-.005,3.6,3.6,0,0,1-1.281-2.877,3.555,3.555,0,0,1,.666-2.159,3.82,3.82,0,0,1,1.813-1.334,3.252,3.252,0,0,1-1.3-1.133,2.862,2.862,0,0,1-.484-1.627,3.055,3.055,0,0,1,1.08-2.409,3.974,3.974,0,0,1,2.713-.944,3.9,3.9,0,0,1,2.68.949,3.063,3.063,0,0,1,1.077,2.4,2.932,2.932,0,0,1-.47,1.627,3.181,3.181,0,0,1-1.276,1.133,3.883,3.883,0,0,1,1.8,1.339,3.534,3.534,0,0,1,.666,2.154A3.6,3.6,0,0,1,1238.987,382.87Zm-3.2-.413a2.94,2.94,0,0,0,2.033-.724,2.44,2.44,0,0,0,.813-1.916,2.385,2.385,0,0,0-.812-1.886,2.967,2.967,0,0,0-2.033-.715,3,3,0,0,0-2.047.715,2.382,2.382,0,0,0-.816,1.886,2.436,2.436,0,0,0,.816,1.916A2.976,2.976,0,0,0,1235.787,382.458Zm0-6.5a2.232,2.232,0,0,0,1.6-.621,2.012,2.012,0,0,0,.652-1.521,1.95,1.95,0,0,0-.652-1.488,2.443,2.443,0,0,0-3.216-.005,1.953,1.953,0,0,0-.647,1.493,2.012,2.012,0,0,0,.652,1.521A2.244,2.244,0,0,0,1235.787,375.961Z" transform="translate(-1219.966 -10.403)"/>
      <path id="Trazado_48394" data-name="Trazado 48394" d="M1229.214,391.041a5.128,5.128,0,0,1,3.606,1.112,4.031,4.031,0,0,1,1.19,3.1,4.389,4.389,0,0,1-1.224,3.216,4.307,4.307,0,0,1-3.208,1.245,5.047,5.047,0,0,1-1.655-.269,4.435,4.435,0,0,1-1.4-.769,3.526,3.526,0,0,1-.975-1.3,4.265,4.265,0,0,1-.362-1.783,6.025,6.025,0,0,1,.047-.676l1.662-.142a6.454,6.454,0,0,0-.075.743,2.958,2.958,0,0,0,.24,1.229,2.107,2.107,0,0,0,.641.841,2.941,2.941,0,0,0,.869.456,3.191,3.191,0,0,0,.982.15,2.708,2.708,0,0,0,2.05-.808,2.883,2.883,0,0,0,.776-2.075,2.738,2.738,0,0,0-.8-2.085,3.6,3.6,0,0,0-2.538-.76H1225.7l.814-6.121h6.929v1.512h-5.557l-.433,3.183Z" transform="translate(-1224.538 1.536)"/>
      <path id="Trazado_48395" data-name="Trazado 48395" d="M1241,395.4V396.9h-2.036v2.657h-1.626V396.9h-6.328v-1.5l5.5-9.061h2.453v9.07Zm-8.308,0h4.646v-7.876Z" transform="translate(-1220.183 1.528)"/>
      <path id="Trazado_48396" data-name="Trazado 48396" d="M1234.2,411a4.452,4.452,0,0,1-.6,2.375,4.253,4.253,0,0,1-1.662,1.615,4.731,4.731,0,0,1-2.29.563,4.613,4.613,0,0,1-3.286-1.244,4.2,4.2,0,0,1-1.325-3.206,5.2,5.2,0,0,1,1.147-3.172l4.422-5.745h1.914l-3.669,4.627a4.091,4.091,0,0,1,1.143-.159,4.2,4.2,0,0,1,2.028.507,4.062,4.062,0,0,1,1.55,1.515A4.55,4.55,0,0,1,1234.2,411Zm-4.59,3.041a2.871,2.871,0,0,0,3-3.069,2.906,2.906,0,0,0-3.033-3.052,2.845,2.845,0,0,0-2.159.905,3.04,3.04,0,0,0-.836,2.211,2.934,2.934,0,0,0,.85,2.208A3.027,3.027,0,0,0,1229.608,414.042Z" transform="translate(-1224.651 13.384)"/>
      <path id="Trazado_48397" data-name="Trazado 48397" d="M1235.746,415.659a3.682,3.682,0,0,1-3.258-1.727,11.844,11.844,0,0,1-.014-10.131,3.958,3.958,0,0,1,6.53.005,11.772,11.772,0,0,1-.014,10.121A3.676,3.676,0,0,1,1235.746,415.659Zm0-1.5a2.236,2.236,0,0,0,2.056-1.325,8.6,8.6,0,0,0,.713-3.971,8.375,8.375,0,0,0-.727-3.966,2.26,2.26,0,0,0-4.09-.005,8.456,8.456,0,0,0-.722,3.971,8.659,8.659,0,0,0,.71,3.977A2.235,2.235,0,0,0,1235.746,414.158Z" transform="translate(-1219.934 13.307)"/>
      <path id="Trazado_48398" data-name="Trazado 48398" d="M1225.1,418.036h9.042v1.36l-6.46,11.858h-1.86l6.516-11.716H1225.1Z" transform="translate(-1224.606 25.238)"/>
      <path id="Trazado_48399" data-name="Trazado 48399" d="M1235.746,431.508a3.682,3.682,0,0,1-3.258-1.727,11.84,11.84,0,0,1-.014-10.129,3.959,3.959,0,0,1,6.53,0,11.772,11.772,0,0,1-.014,10.121A3.676,3.676,0,0,1,1235.746,431.508Zm0-1.5a2.236,2.236,0,0,0,2.056-1.325,8.6,8.6,0,0,0,.713-3.97,8.379,8.379,0,0,0-.727-3.968,2.26,2.26,0,0,0-4.09,0,8.447,8.447,0,0,0-.722,3.971,8.655,8.655,0,0,0,.71,3.975A2.235,2.235,0,0,0,1235.746,430.007Z" transform="translate(-1219.934 25.162)"/>
      <path id="Trazado_48400" data-name="Trazado 48400" d="M1232.795,446.269a5.249,5.249,0,0,1-6.406,0,3.6,3.6,0,0,1-1.283-2.879,3.556,3.556,0,0,1,.666-2.159,3.838,3.838,0,0,1,1.812-1.334,3.27,3.27,0,0,1-1.3-1.131,2.883,2.883,0,0,1-.482-1.629,3.061,3.061,0,0,1,1.08-2.409,3.977,3.977,0,0,1,2.713-.942,3.9,3.9,0,0,1,2.68.947,3.067,3.067,0,0,1,1.075,2.4,2.956,2.956,0,0,1-.469,1.629,3.172,3.172,0,0,1-1.278,1.131,3.878,3.878,0,0,1,1.8,1.339,3.534,3.534,0,0,1,.666,2.153A3.6,3.6,0,0,1,1232.795,446.269Zm-3.2-.413a2.942,2.942,0,0,0,2.033-.724,2.444,2.444,0,0,0,.813-1.914,2.394,2.394,0,0,0-.813-1.888,3.274,3.274,0,0,0-4.08,0,2.38,2.38,0,0,0-.816,1.888,2.43,2.43,0,0,0,.816,1.914A2.971,2.971,0,0,0,1229.594,445.857Zm0-6.5a2.242,2.242,0,0,0,1.6-.619,2.018,2.018,0,0,0,.652-1.521,1.951,1.951,0,0,0-.652-1.489,2.446,2.446,0,0,0-3.216,0,1.95,1.95,0,0,0-.647,1.493,2.017,2.017,0,0,0,.652,1.521A2.25,2.25,0,0,0,1229.594,439.36Z" transform="translate(-1224.599 37.017)"/>
      <path id="Trazado_48401" data-name="Trazado 48401" d="M1235.746,447.358a3.682,3.682,0,0,1-3.258-1.727,11.84,11.84,0,0,1-.014-10.129,3.958,3.958,0,0,1,6.53.005,11.772,11.772,0,0,1-.014,10.121A3.678,3.678,0,0,1,1235.746,447.358Zm0-1.5a2.237,2.237,0,0,0,2.056-1.323,8.615,8.615,0,0,0,.713-3.971,8.37,8.37,0,0,0-.727-3.966,2.259,2.259,0,0,0-4.09-.005,8.446,8.446,0,0,0-.722,3.971,8.669,8.669,0,0,0,.71,3.977A2.237,2.237,0,0,0,1235.746,445.857Z" transform="translate(-1219.934 37.017)"/>
      <path id="Trazado_48402" data-name="Trazado 48402" d="M1229.6,449.65a4.614,4.614,0,0,1,3.281,1.245,4.19,4.19,0,0,1,1.33,3.206,5.21,5.21,0,0,1-1.155,3.172l-4.422,5.746h-1.943l3.653-4.6a4.33,4.33,0,0,1-1.11.14,4.056,4.056,0,0,1-3.557-2.033,4.525,4.525,0,0,1-.627-2.314,4.738,4.738,0,0,1,.341-1.863,4.114,4.114,0,0,1,.974-1.445,4.525,4.525,0,0,1,1.459-.921A4.774,4.774,0,0,1,1229.6,449.65Zm-2.1,6.806a3,3,0,0,0,2.164.827,2.83,2.83,0,0,0,2.155-.905,3.043,3.043,0,0,0,.828-2.213,2.938,2.938,0,0,0-.853-2.2,3.274,3.274,0,0,0-4.331.04,2.917,2.917,0,0,0-.841,2.23A2.989,2.989,0,0,0,1227.5,456.456Z" transform="translate(-1224.642 48.883)"/>
      <path id="Trazado_48403" data-name="Trazado 48403" d="M1235.746,463.208a3.682,3.682,0,0,1-3.258-1.727,11.84,11.84,0,0,1-.014-10.129,3.958,3.958,0,0,1,6.53.005,11.772,11.772,0,0,1-.014,10.121A3.678,3.678,0,0,1,1235.746,463.208Zm0-1.5a2.234,2.234,0,0,0,2.056-1.323,8.614,8.614,0,0,0,.713-3.971,8.37,8.37,0,0,0-.727-3.966,2.26,2.26,0,0,0-4.09-.005,8.447,8.447,0,0,0-.722,3.971,8.669,8.669,0,0,0,.71,3.977A2.234,2.234,0,0,0,1235.746,461.707Z" transform="translate(-1219.934 48.871)"/>
    </g>
    <g id="Grupo_21275" data-name="Grupo 21275" transform="translate(1337.793 184.127)">
      <g id="Grupo_21274" data-name="Grupo 21274">
        <path id="Trazado_48404" data-name="Trazado 48404" d="M1280.355,177.909a3.682,3.682,0,0,1-3.26-1.727,11.838,11.838,0,0,1-.012-10.131,3.956,3.956,0,0,1,6.528.005,11.771,11.771,0,0,1-.014,10.12A3.671,3.671,0,0,1,1280.355,177.909Zm0-1.5a2.235,2.235,0,0,0,2.054-1.325,8.6,8.6,0,0,0,.715-3.971,8.4,8.4,0,0,0-.727-3.966,2.26,2.26,0,0,0-4.09-.005,8.432,8.432,0,0,0-.722,3.971,8.684,8.684,0,0,0,.708,3.977A2.237,2.237,0,0,0,1280.355,176.408Z" transform="translate(-1275.951 -164.315)"/>
        <path id="Trazado_48405" data-name="Trazado 48405" d="M1283.739,176.428h-1.18l1.143-5.821h1.7Z" transform="translate(-1271.009 -159.623)"/>
        <path id="Trazado_48406" data-name="Trazado 48406" d="M1294.68,173.251a4.454,4.454,0,0,1-.6,2.375,4.246,4.246,0,0,1-1.661,1.615,4.738,4.738,0,0,1-2.291.563,4.612,4.612,0,0,1-3.286-1.245,4.2,4.2,0,0,1-1.323-3.206,5.192,5.192,0,0,1,1.147-3.172l4.421-5.745H1293l-3.671,4.627a4.108,4.108,0,0,1,1.145-.159,4.2,4.2,0,0,1,2.027.507,4.068,4.068,0,0,1,1.549,1.515A4.536,4.536,0,0,1,1294.68,173.251Zm-4.59,3.041a2.873,2.873,0,0,0,3-3.069,2.906,2.906,0,0,0-3.035-3.052,2.839,2.839,0,0,0-2.157.905,3.041,3.041,0,0,0-.837,2.211,2.928,2.928,0,0,0,.851,2.208A3.025,3.025,0,0,0,1290.089,176.292Z" transform="translate(-1268.796 -164.238)"/>
        <path id="Trazado_48407" data-name="Trazado 48407" d="M1296.17,177.909q-4.4,0-4.4-4.7l1.652-.084a4.13,4.13,0,0,0,.619,2.487,2.5,2.5,0,0,0,2.131.827,2.931,2.931,0,0,0,2.052-.713,2.642,2.642,0,0,0,.03-3.728,2.72,2.72,0,0,0-1.893-.685h-.655V169.93h.638a1.956,1.956,0,0,0,1.444-.61,2.061,2.061,0,0,0,.6-1.5,1.84,1.84,0,0,0-.64-1.454,2.33,2.33,0,0,0-1.6-.565,2.564,2.564,0,0,0-1.056.2,1.5,1.5,0,0,0-.671.577,2.715,2.715,0,0,0-.338.841,5,5,0,0,0-.1,1.071l-1.652-.058a4.279,4.279,0,0,1,.989-3.033,3.676,3.676,0,0,1,2.821-1.061,3.913,3.913,0,0,1,2.707.968,3.086,3.086,0,0,1,1.086,2.4,2.891,2.891,0,0,1-.526,1.718,3.008,3.008,0,0,1-1.323,1.07,3.634,3.634,0,0,1,1.858,1.211,3.391,3.391,0,0,1,.724,2.225,3.64,3.64,0,0,1-1.262,2.882A4.739,4.739,0,0,1,1296.17,177.909Z" transform="translate(-1264.12 -164.315)"/>
        <path id="Trazado_48408" data-name="Trazado 48408" d="M1300.312,176.246h6.579v1.493h-8.918v-1.231l5.295-5.473a6.27,6.27,0,0,0,1.192-1.568,3.108,3.108,0,0,0,.328-1.362,2.283,2.283,0,0,0-.667-1.751,2.717,2.717,0,0,0-3.533.058,2.925,2.925,0,0,0-.673,2.125v.977l-1.624-.15v-.816a4.173,4.173,0,0,1,1.119-3.141,4.1,4.1,0,0,1,2.984-1.084,4.144,4.144,0,0,1,2.87,1,3.5,3.5,0,0,1,1.12,2.742,4.16,4.16,0,0,1-.446,1.91,8.19,8.19,0,0,1-1.431,1.9Z" transform="translate(-1259.48 -164.323)"/>
        <path id="Trazado_48409" data-name="Trazado 48409" d="M1308.275,169.141a5.116,5.116,0,0,1,3.6,1.113,4.026,4.026,0,0,1,1.192,3.1,4.388,4.388,0,0,1-1.224,3.216,4.307,4.307,0,0,1-3.207,1.245,5.041,5.041,0,0,1-1.656-.269,4.422,4.422,0,0,1-1.4-.769,3.5,3.5,0,0,1-.977-1.3,4.265,4.265,0,0,1-.362-1.783,6.491,6.491,0,0,1,.047-.676l1.664-.14a6.051,6.051,0,0,0-.075.741,2.987,2.987,0,0,0,.238,1.229,2.084,2.084,0,0,0,.643.841,2.9,2.9,0,0,0,.869.456,3.177,3.177,0,0,0,.98.15,2.713,2.713,0,0,0,2.052-.808,2.877,2.877,0,0,0,.775-2.075,2.731,2.731,0,0,0-.8-2.085,3.591,3.591,0,0,0-2.538-.76h-3.342l.817-6.121h6.929v1.512h-5.558l-.432,3.183Z" transform="translate(-1254.788 -164.231)"/>
        <path id="Trazado_48410" data-name="Trazado 48410" d="M1323.059,166.616a2.984,2.984,0,0,1,2.15.783,2.918,2.918,0,0,1,.818,2.2v6.422H1324.4v-6a2.088,2.088,0,0,0-.507-1.521,1.722,1.722,0,0,0-1.285-.517,1.828,1.828,0,0,0-1.411.582,2.518,2.518,0,0,0-.535,1.746v5.709h-1.652v-5.932a2.181,2.181,0,0,0-.512-1.573,1.733,1.733,0,0,0-1.309-.531,1.809,1.809,0,0,0-1.4.6,2.594,2.594,0,0,0-.538,1.79v5.651h-1.625v-9.229h1.625v1.192a2.8,2.8,0,0,1,1.054-1.014,3.02,3.02,0,0,1,1.47-.357,3.125,3.125,0,0,1,1.577.39,2.426,2.426,0,0,1,1.022,1.122,2.892,2.892,0,0,1,1.11-1.122A3.161,3.161,0,0,1,1323.059,166.616Z" transform="translate(-1247.774 -162.608)"/>
        <path id="Trazado_48411" data-name="Trazado 48411" d="M1331.954,166.616a2.977,2.977,0,0,1,2.148.783,2.911,2.911,0,0,1,.818,2.2v6.422H1333.3v-6a2.088,2.088,0,0,0-.507-1.521,1.729,1.729,0,0,0-1.286-.517,1.824,1.824,0,0,0-1.409.582,2.51,2.51,0,0,0-.535,1.746v5.709h-1.652v-5.932a2.182,2.182,0,0,0-.512-1.573,1.738,1.738,0,0,0-1.309-.531,1.806,1.806,0,0,0-1.4.6,2.594,2.594,0,0,0-.54,1.79v5.651h-1.624v-9.229h1.624v1.192a2.822,2.822,0,0,1,1.056-1.014,3.015,3.015,0,0,1,1.47-.357,3.134,3.134,0,0,1,1.577.39,2.426,2.426,0,0,1,1.023,1.122,2.879,2.879,0,0,1,1.11-1.122A3.152,3.152,0,0,1,1331.954,166.616Z" transform="translate(-1241.121 -162.608)"/>
        <path id="Trazado_48412" data-name="Trazado 48412" d="M1297.726,192.669a5.248,5.248,0,0,1-6.406,0,3.6,3.6,0,0,1-1.283-2.879,3.555,3.555,0,0,1,.666-2.159,3.84,3.84,0,0,1,1.813-1.334,3.27,3.27,0,0,1-1.3-1.131,2.87,2.87,0,0,1-.483-1.629,3.054,3.054,0,0,1,1.08-2.409,3.972,3.972,0,0,1,2.711-.942,3.9,3.9,0,0,1,2.681.947,3.066,3.066,0,0,1,1.075,2.4,2.944,2.944,0,0,1-.47,1.629,3.153,3.153,0,0,1-1.276,1.131,3.887,3.887,0,0,1,1.8,1.339,3.534,3.534,0,0,1,.666,2.153A3.6,3.6,0,0,1,1297.726,192.669Zm-3.2-.412a2.947,2.947,0,0,0,2.034-.724,2.442,2.442,0,0,0,.811-1.914,2.392,2.392,0,0,0-.811-1.888,3.274,3.274,0,0,0-4.08,0,2.38,2.38,0,0,0-.816,1.888,2.429,2.429,0,0,0,.816,1.914A2.971,2.971,0,0,0,1294.524,192.257Zm0-6.5a2.246,2.246,0,0,0,1.6-.619,2.019,2.019,0,0,0,.652-1.522,1.95,1.95,0,0,0-.652-1.488,2.448,2.448,0,0,0-3.216-.005,1.952,1.952,0,0,0-.647,1.493,2.019,2.019,0,0,0,.652,1.522A2.247,2.247,0,0,0,1294.524,185.76Z" transform="translate(-1265.416 -152.46)"/>
        <path id="Trazado_48413" data-name="Trazado 48413" d="M1308.933,182.466a2.974,2.974,0,0,1,2.148.785,2.9,2.9,0,0,1,.818,2.2v6.422h-1.626v-6a2.088,2.088,0,0,0-.507-1.521,1.722,1.722,0,0,0-1.285-.517,1.827,1.827,0,0,0-1.411.582,2.52,2.52,0,0,0-.535,1.748v5.707h-1.652v-5.932a2.183,2.183,0,0,0-.512-1.573,1.74,1.74,0,0,0-1.309-.531,1.808,1.808,0,0,0-1.4.6,2.593,2.593,0,0,0-.538,1.79v5.651H1299.5v-9.229h1.626v1.192a2.8,2.8,0,0,1,1.054-1.014,3.018,3.018,0,0,1,1.47-.357,3.143,3.143,0,0,1,1.577.39,2.417,2.417,0,0,1,1.023,1.122,2.9,2.9,0,0,1,1.11-1.122A3.183,3.183,0,0,1,1308.933,182.466Z" transform="translate(-1258.341 -150.753)"/>
        <path id="Trazado_48414" data-name="Trazado 48414" d="M1317.826,182.466a2.978,2.978,0,0,1,2.15.785,2.911,2.911,0,0,1,.816,2.2v6.422h-1.624v-6a2.087,2.087,0,0,0-.507-1.521,1.729,1.729,0,0,0-1.286-.517,1.824,1.824,0,0,0-1.409.582,2.511,2.511,0,0,0-.535,1.748v5.707h-1.652v-5.932a2.182,2.182,0,0,0-.512-1.573,1.746,1.746,0,0,0-1.309-.531,1.809,1.809,0,0,0-1.4.6,2.594,2.594,0,0,0-.54,1.79v5.651h-1.624v-9.229h1.624v1.192a2.825,2.825,0,0,1,1.056-1.014,3.014,3.014,0,0,1,1.47-.357,3.152,3.152,0,0,1,1.577.39,2.424,2.424,0,0,1,1.022,1.122,2.881,2.881,0,0,1,1.11-1.122A3.172,3.172,0,0,1,1317.826,182.466Z" transform="translate(-1251.688 -150.753)"/>
        <path id="Trazado_48415" data-name="Trazado 48415" d="M1294.531,196.05a4.614,4.614,0,0,1,3.281,1.245,4.19,4.19,0,0,1,1.33,3.206,5.21,5.21,0,0,1-1.155,3.172l-4.424,5.745h-1.942l3.653-4.6a4.257,4.257,0,0,1-1.11.142,4.065,4.065,0,0,1-3.557-2.033,4.487,4.487,0,0,1-.627-2.314,4.746,4.746,0,0,1,.341-1.863,4.142,4.142,0,0,1,.972-1.446,4.57,4.57,0,0,1,1.46-.921A4.791,4.791,0,0,1,1294.531,196.05Zm-2.1,6.806a2.994,2.994,0,0,0,2.164.827,2.83,2.83,0,0,0,2.155-.907,3.035,3.035,0,0,0,.828-2.211,2.958,2.958,0,0,0-.853-2.2,3.278,3.278,0,0,0-4.333.042,2.912,2.912,0,0,0-.839,2.23A2.987,2.987,0,0,0,1292.433,202.856Z" transform="translate(-1265.459 -140.593)"/>
        <path id="Trazado_48416" data-name="Trazado 48416" d="M1308.933,198.316a2.974,2.974,0,0,1,2.148.785,2.9,2.9,0,0,1,.818,2.2v6.422h-1.626v-6a2.088,2.088,0,0,0-.507-1.521,1.721,1.721,0,0,0-1.285-.516,1.821,1.821,0,0,0-1.411.582,2.512,2.512,0,0,0-.535,1.746v5.707h-1.652v-5.932a2.183,2.183,0,0,0-.512-1.573,1.739,1.739,0,0,0-1.309-.53,1.807,1.807,0,0,0-1.4.594,2.593,2.593,0,0,0-.538,1.79v5.651H1299.5v-9.229h1.626v1.194a2.778,2.778,0,0,1,1.054-1.014,3,3,0,0,1,1.47-.358,3.144,3.144,0,0,1,1.577.39,2.417,2.417,0,0,1,1.023,1.122,2.9,2.9,0,0,1,1.11-1.122A3.183,3.183,0,0,1,1308.933,198.316Z" transform="translate(-1258.341 -138.899)"/>
        <path id="Trazado_48417" data-name="Trazado 48417" d="M1317.826,198.316a2.978,2.978,0,0,1,2.15.785,2.911,2.911,0,0,1,.816,2.2v6.422h-1.624v-6a2.087,2.087,0,0,0-.507-1.521,1.728,1.728,0,0,0-1.286-.516,1.817,1.817,0,0,0-1.409.582,2.5,2.5,0,0,0-.535,1.746v5.707h-1.652v-5.932a2.182,2.182,0,0,0-.512-1.573,1.744,1.744,0,0,0-1.309-.53,1.808,1.808,0,0,0-1.4.594,2.594,2.594,0,0,0-.54,1.79v5.651h-1.624v-9.229h1.624v1.194a2.8,2.8,0,0,1,1.056-1.014,3,3,0,0,1,1.47-.358,3.152,3.152,0,0,1,1.577.39,2.425,2.425,0,0,1,1.022,1.122,2.881,2.881,0,0,1,1.11-1.122A3.172,3.172,0,0,1,1317.826,198.316Z" transform="translate(-1251.688 -138.899)"/>
        <path id="Trazado_48418" data-name="Trazado 48418" d="M1290.951,211.985h1.522V225.2h-1.606V213.759l-3.174,2.751v-1.736Z" transform="translate(-1267.169 -128.675)"/>
        <path id="Trazado_48419" data-name="Trazado 48419" d="M1297.581,225.459a3.686,3.686,0,0,1-3.258-1.727,11.845,11.845,0,0,1-.014-10.131,3.958,3.958,0,0,1,6.53.005,11.771,11.771,0,0,1-.014,10.12A3.679,3.679,0,0,1,1297.581,225.459Zm0-1.5a2.236,2.236,0,0,0,2.056-1.325,8.613,8.613,0,0,0,.713-3.971,8.376,8.376,0,0,0-.727-3.966,2.26,2.26,0,0,0-4.09-.005,8.447,8.447,0,0,0-.722,3.971,8.66,8.66,0,0,0,.71,3.977A2.235,2.235,0,0,0,1297.581,223.958Z" transform="translate(-1263.067 -128.752)"/>
        <path id="Trazado_48420" data-name="Trazado 48420" d="M1312.028,214.166a2.977,2.977,0,0,1,2.15.783,2.914,2.914,0,0,1,.816,2.2v6.422h-1.624v-6a2.083,2.083,0,0,0-.507-1.521,1.729,1.729,0,0,0-1.286-.517,1.824,1.824,0,0,0-1.409.582,2.512,2.512,0,0,0-.535,1.746v5.709h-1.652v-5.934a2.181,2.181,0,0,0-.512-1.571,1.737,1.737,0,0,0-1.309-.531,1.808,1.808,0,0,0-1.4.6,2.591,2.591,0,0,0-.54,1.788v5.653h-1.624v-9.229h1.624v1.192a2.809,2.809,0,0,1,1.056-1.014,3.015,3.015,0,0,1,1.47-.357,3.13,3.13,0,0,1,1.577.39,2.419,2.419,0,0,1,1.023,1.122,2.868,2.868,0,0,1,1.11-1.122A3.157,3.157,0,0,1,1312.028,214.166Z" transform="translate(-1256.025 -127.044)"/>
        <path id="Trazado_48421" data-name="Trazado 48421" d="M1320.924,214.166a2.97,2.97,0,0,1,2.148.783,2.909,2.909,0,0,1,.818,2.2v6.422h-1.626v-6a2.075,2.075,0,0,0-.507-1.521,1.723,1.723,0,0,0-1.285-.517,1.827,1.827,0,0,0-1.411.582,2.512,2.512,0,0,0-.533,1.746v5.709h-1.654v-5.934a2.172,2.172,0,0,0-.512-1.571,1.733,1.733,0,0,0-1.309-.531,1.806,1.806,0,0,0-1.4.6,2.593,2.593,0,0,0-.54,1.788v5.653h-1.625v-9.229h1.625v1.192a2.784,2.784,0,0,1,1.056-1.014,3.013,3.013,0,0,1,1.468-.357,3.137,3.137,0,0,1,1.578.39,2.425,2.425,0,0,1,1.022,1.122,2.875,2.875,0,0,1,1.108-1.122A3.163,3.163,0,0,1,1320.924,214.166Z" transform="translate(-1249.373 -127.044)"/>
        <path id="Trazado_48422" data-name="Trazado 48422" d="M1290.951,227.835h1.522v13.22h-1.606V229.611l-3.174,2.749v-1.736Z" transform="translate(-1267.169 -116.821)"/>
        <path id="Trazado_48423" data-name="Trazado 48423" d="M1297.143,227.835h1.522v13.22h-1.606V229.611l-3.173,2.749v-1.736Z" transform="translate(-1262.536 -116.821)"/>
        <path id="Trazado_48424" data-name="Trazado 48424" d="M1312.028,230.016a2.984,2.984,0,0,1,2.15.783,2.917,2.917,0,0,1,.816,2.2v6.422h-1.624v-6a2.086,2.086,0,0,0-.507-1.521,1.73,1.73,0,0,0-1.286-.517,1.824,1.824,0,0,0-1.409.582,2.513,2.513,0,0,0-.535,1.746v5.709h-1.652v-5.934a2.181,2.181,0,0,0-.512-1.571,1.737,1.737,0,0,0-1.309-.531,1.809,1.809,0,0,0-1.4.6,2.593,2.593,0,0,0-.54,1.79v5.651h-1.624v-9.229h1.624v1.192a2.809,2.809,0,0,1,1.056-1.014,3.015,3.015,0,0,1,1.47-.357,3.13,3.13,0,0,1,1.577.39,2.427,2.427,0,0,1,1.023,1.122,2.879,2.879,0,0,1,1.11-1.122A3.157,3.157,0,0,1,1312.028,230.016Z" transform="translate(-1256.025 -115.189)"/>
        <path id="Trazado_48425" data-name="Trazado 48425" d="M1320.924,230.016a2.977,2.977,0,0,1,2.148.783,2.911,2.911,0,0,1,.818,2.2v6.422h-1.626v-6a2.078,2.078,0,0,0-.507-1.521,1.723,1.723,0,0,0-1.285-.517,1.827,1.827,0,0,0-1.411.582,2.512,2.512,0,0,0-.533,1.746v5.709h-1.654v-5.934a2.172,2.172,0,0,0-.512-1.571,1.733,1.733,0,0,0-1.309-.531,1.806,1.806,0,0,0-1.4.6,2.6,2.6,0,0,0-.54,1.79v5.651h-1.625v-9.229h1.625v1.192a2.784,2.784,0,0,1,1.056-1.014,3.014,3.014,0,0,1,1.468-.357,3.137,3.137,0,0,1,1.578.39,2.434,2.434,0,0,1,1.022,1.122,2.887,2.887,0,0,1,1.108-1.122A3.163,3.163,0,0,1,1320.924,230.016Z" transform="translate(-1249.373 -115.189)"/>
        <path id="Trazado_48426" data-name="Trazado 48426" d="M1290.951,243.686h1.522V256.9h-1.606V245.46l-3.174,2.749v-1.736Z" transform="translate(-1267.169 -104.965)"/>
        <path id="Trazado_48427" data-name="Trazado 48427" d="M1297.526,257.159q-4.4,0-4.4-4.7l1.652-.084a4.129,4.129,0,0,0,.62,2.487,2.5,2.5,0,0,0,2.131.827,2.923,2.923,0,0,0,2.051-.713,2.638,2.638,0,0,0,.03-3.728,2.714,2.714,0,0,0-1.893-.685h-.656V249.18h.638a1.952,1.952,0,0,0,1.444-.61,2.054,2.054,0,0,0,.6-1.5,1.845,1.845,0,0,0-.638-1.454,2.334,2.334,0,0,0-1.6-.565,2.573,2.573,0,0,0-1.057.2,1.494,1.494,0,0,0-.669.577,2.709,2.709,0,0,0-.339.841,4.979,4.979,0,0,0-.1,1.071l-1.653-.058a4.279,4.279,0,0,1,.991-3.033,3.673,3.673,0,0,1,2.819-1.061,3.918,3.918,0,0,1,2.709.968,3.085,3.085,0,0,1,1.084,2.4,2.891,2.891,0,0,1-.526,1.718,3.007,3.007,0,0,1-1.323,1.07,3.647,3.647,0,0,1,1.86,1.211,3.4,3.4,0,0,1,.724,2.225,3.636,3.636,0,0,1-1.264,2.882A4.732,4.732,0,0,1,1297.526,257.159Z" transform="translate(-1263.106 -105.042)"/>
        <path id="Trazado_48428" data-name="Trazado 48428" d="M1312.028,245.866a2.984,2.984,0,0,1,2.15.783,2.917,2.917,0,0,1,.816,2.2v6.422h-1.624v-6a2.088,2.088,0,0,0-.507-1.521,1.729,1.729,0,0,0-1.286-.517,1.824,1.824,0,0,0-1.409.582,2.518,2.518,0,0,0-.535,1.746v5.709h-1.652v-5.932a2.183,2.183,0,0,0-.512-1.573,1.737,1.737,0,0,0-1.309-.531,1.809,1.809,0,0,0-1.4.6,2.593,2.593,0,0,0-.54,1.79v5.651h-1.624v-9.229h1.624v1.192a2.823,2.823,0,0,1,1.056-1.014,3.015,3.015,0,0,1,1.47-.357,3.129,3.129,0,0,1,1.577.39,2.427,2.427,0,0,1,1.023,1.122,2.879,2.879,0,0,1,1.11-1.122A3.156,3.156,0,0,1,1312.028,245.866Z" transform="translate(-1256.025 -103.335)"/>
        <path id="Trazado_48429" data-name="Trazado 48429" d="M1320.924,245.866a2.977,2.977,0,0,1,2.148.783,2.911,2.911,0,0,1,.818,2.2v6.422h-1.626v-6a2.081,2.081,0,0,0-.507-1.521,1.723,1.723,0,0,0-1.285-.517,1.827,1.827,0,0,0-1.411.582,2.518,2.518,0,0,0-.533,1.746v5.709h-1.654v-5.932a2.174,2.174,0,0,0-.512-1.573,1.734,1.734,0,0,0-1.309-.531,1.806,1.806,0,0,0-1.4.6,2.6,2.6,0,0,0-.54,1.79v5.651h-1.625v-9.229h1.625v1.192a2.8,2.8,0,0,1,1.056-1.014,3.014,3.014,0,0,1,1.468-.357,3.137,3.137,0,0,1,1.578.39,2.433,2.433,0,0,1,1.022,1.122,2.886,2.886,0,0,1,1.108-1.122A3.163,3.163,0,0,1,1320.924,245.866Z" transform="translate(-1249.373 -103.335)"/>
        <path id="Trazado_48430" data-name="Trazado 48430" d="M1290.951,259.536h1.522v13.218h-1.606V261.31l-3.174,2.751v-1.737Z" transform="translate(-1267.169 -93.111)"/>
        <path id="Trazado_48431" data-name="Trazado 48431" d="M1302.834,268.6V270.1H1300.8v2.657h-1.626V270.1h-6.327v-1.5l5.5-9.059h2.452V268.6Zm-8.308,0h4.646v-7.876Z" transform="translate(-1263.316 -93.111)"/>
        <path id="Trazado_48432" data-name="Trazado 48432" d="M1312.028,261.716a2.977,2.977,0,0,1,2.15.785,2.91,2.91,0,0,1,.816,2.2v6.422h-1.624v-6a2.089,2.089,0,0,0-.507-1.521,1.729,1.729,0,0,0-1.286-.517,1.824,1.824,0,0,0-1.409.582,2.52,2.52,0,0,0-.535,1.748v5.707h-1.652v-5.932a2.183,2.183,0,0,0-.512-1.573,1.743,1.743,0,0,0-1.309-.531,1.809,1.809,0,0,0-1.4.6,2.593,2.593,0,0,0-.54,1.79v5.651h-1.624v-9.229h1.624v1.192a2.822,2.822,0,0,1,1.056-1.014,3.015,3.015,0,0,1,1.47-.357,3.148,3.148,0,0,1,1.577.39,2.427,2.427,0,0,1,1.023,1.122,2.879,2.879,0,0,1,1.11-1.122A3.175,3.175,0,0,1,1312.028,261.716Z" transform="translate(-1256.025 -91.48)"/>
        <path id="Trazado_48433" data-name="Trazado 48433" d="M1320.924,261.716a2.971,2.971,0,0,1,2.148.785,2.9,2.9,0,0,1,.818,2.2v6.422h-1.626v-6a2.081,2.081,0,0,0-.507-1.521,1.723,1.723,0,0,0-1.285-.517,1.827,1.827,0,0,0-1.411.582,2.52,2.52,0,0,0-.533,1.748v5.707h-1.654v-5.932a2.174,2.174,0,0,0-.512-1.573,1.74,1.74,0,0,0-1.309-.531,1.806,1.806,0,0,0-1.4.6,2.6,2.6,0,0,0-.54,1.79v5.651h-1.625v-9.229h1.625v1.192a2.8,2.8,0,0,1,1.056-1.014,3.014,3.014,0,0,1,1.468-.357,3.155,3.155,0,0,1,1.578.39,2.433,2.433,0,0,1,1.022,1.122,2.886,2.886,0,0,1,1.108-1.122A3.181,3.181,0,0,1,1320.924,261.716Z" transform="translate(-1249.373 -91.48)"/>
        <path id="Trazado_48434" data-name="Trazado 48434" d="M1290.951,275.386h1.522V288.6h-1.606V277.16l-3.174,2.751v-1.737Z" transform="translate(-1267.169 -81.256)"/>
        <path id="Trazado_48435" data-name="Trazado 48435" d="M1297.244,280.091a5.119,5.119,0,0,1,3.6,1.113,4.03,4.03,0,0,1,1.192,3.1,4.386,4.386,0,0,1-1.225,3.214,4.3,4.3,0,0,1-3.206,1.245,5.1,5.1,0,0,1-1.657-.267,4.474,4.474,0,0,1-1.4-.771,3.523,3.523,0,0,1-.975-1.3,4.281,4.281,0,0,1-.362-1.785,6.455,6.455,0,0,1,.047-.676l1.662-.14a6.408,6.408,0,0,0-.075.741,2.966,2.966,0,0,0,.239,1.231,2.1,2.1,0,0,0,.642.839,2.937,2.937,0,0,0,.869.456,3.2,3.2,0,0,0,.982.15,2.715,2.715,0,0,0,2.052-.808,2.878,2.878,0,0,0,.774-2.075,2.734,2.734,0,0,0-.8-2.085,3.6,3.6,0,0,0-2.538-.76h-3.342l.816-6.121h6.929v1.512h-5.559l-.432,3.183Z" transform="translate(-1263.039 -81.249)"/>
        <path id="Trazado_48436" data-name="Trazado 48436" d="M1312.028,277.566a2.978,2.978,0,0,1,2.15.785,2.91,2.91,0,0,1,.816,2.2v6.422h-1.624v-6a2.088,2.088,0,0,0-.507-1.521,1.728,1.728,0,0,0-1.286-.516,1.818,1.818,0,0,0-1.409.582,2.513,2.513,0,0,0-.535,1.746v5.707h-1.652v-5.932a2.183,2.183,0,0,0-.512-1.573,1.742,1.742,0,0,0-1.309-.53,1.807,1.807,0,0,0-1.4.594,2.593,2.593,0,0,0-.54,1.79v5.651h-1.624v-9.229h1.624v1.194a2.8,2.8,0,0,1,1.056-1.014,3,3,0,0,1,1.47-.358,3.148,3.148,0,0,1,1.577.39,2.427,2.427,0,0,1,1.023,1.122,2.879,2.879,0,0,1,1.11-1.122A3.175,3.175,0,0,1,1312.028,277.566Z" transform="translate(-1256.025 -79.625)"/>
        <path id="Trazado_48437" data-name="Trazado 48437" d="M1320.924,277.566a2.971,2.971,0,0,1,2.148.785,2.9,2.9,0,0,1,.818,2.2v6.422h-1.626v-6a2.08,2.08,0,0,0-.507-1.521,1.722,1.722,0,0,0-1.285-.516,1.821,1.821,0,0,0-1.411.582,2.512,2.512,0,0,0-.533,1.746v5.707h-1.654v-5.932a2.174,2.174,0,0,0-.512-1.573,1.738,1.738,0,0,0-1.309-.53,1.8,1.8,0,0,0-1.4.594,2.6,2.6,0,0,0-.54,1.79v5.651h-1.625v-9.229h1.625v1.194a2.772,2.772,0,0,1,1.056-1.014,3,3,0,0,1,1.468-.358,3.155,3.155,0,0,1,1.578.39,2.433,2.433,0,0,1,1.022,1.122,2.886,2.886,0,0,1,1.108-1.122A3.182,3.182,0,0,1,1320.924,277.566Z" transform="translate(-1249.373 -79.625)"/>
        <path id="Trazado_48438" data-name="Trazado 48438" d="M1290.951,291.235h1.522v13.22h-1.606V293.009l-3.174,2.751v-1.736Z" transform="translate(-1267.169 -69.402)"/>
        <path id="Trazado_48439" data-name="Trazado 48439" d="M1300.822,303.62a5.245,5.245,0,0,1-6.406-.005,3.6,3.6,0,0,1-1.281-2.877,3.555,3.555,0,0,1,.666-2.159,3.819,3.819,0,0,1,1.813-1.334,3.252,3.252,0,0,1-1.3-1.133,2.864,2.864,0,0,1-.484-1.627,3.056,3.056,0,0,1,1.08-2.409,3.972,3.972,0,0,1,2.713-.944,3.9,3.9,0,0,1,2.679.949,3.061,3.061,0,0,1,1.077,2.4,2.935,2.935,0,0,1-.47,1.627,3.183,3.183,0,0,1-1.276,1.133,3.884,3.884,0,0,1,1.8,1.339,3.533,3.533,0,0,1,.666,2.153A3.6,3.6,0,0,1,1300.822,303.62Zm-3.2-.413a2.94,2.94,0,0,0,2.033-.724,2.44,2.44,0,0,0,.813-1.916,2.385,2.385,0,0,0-.813-1.886,2.967,2.967,0,0,0-2.033-.715,3,3,0,0,0-2.047.715,2.382,2.382,0,0,0-.816,1.886,2.436,2.436,0,0,0,.816,1.916A2.975,2.975,0,0,0,1297.622,303.208Zm0-6.5a2.236,2.236,0,0,0,1.6-.621,2.014,2.014,0,0,0,.652-1.521,1.951,1.951,0,0,0-.652-1.487,2.443,2.443,0,0,0-3.216-.005,1.953,1.953,0,0,0-.647,1.493,2.013,2.013,0,0,0,.652,1.521A2.246,2.246,0,0,0,1297.622,296.711Z" transform="translate(-1263.099 -69.478)"/>
        <path id="Trazado_48440" data-name="Trazado 48440" d="M1312.028,293.416a2.977,2.977,0,0,1,2.15.783,2.914,2.914,0,0,1,.816,2.2v6.422h-1.624v-6a2.083,2.083,0,0,0-.507-1.521,1.73,1.73,0,0,0-1.286-.517,1.824,1.824,0,0,0-1.409.582,2.513,2.513,0,0,0-.535,1.746v5.709h-1.652v-5.934a2.181,2.181,0,0,0-.512-1.571,1.737,1.737,0,0,0-1.309-.531,1.809,1.809,0,0,0-1.4.6,2.591,2.591,0,0,0-.54,1.788v5.653h-1.624v-9.229h1.624v1.192a2.81,2.81,0,0,1,1.056-1.014,3.015,3.015,0,0,1,1.47-.357,3.129,3.129,0,0,1,1.577.39,2.419,2.419,0,0,1,1.023,1.122,2.868,2.868,0,0,1,1.11-1.122A3.156,3.156,0,0,1,1312.028,293.416Z" transform="translate(-1256.025 -67.771)"/>
        <path id="Trazado_48441" data-name="Trazado 48441" d="M1320.924,293.416a2.97,2.97,0,0,1,2.148.783,2.909,2.909,0,0,1,.818,2.2v6.422h-1.626v-6a2.075,2.075,0,0,0-.507-1.521,1.723,1.723,0,0,0-1.285-.517,1.827,1.827,0,0,0-1.411.582,2.512,2.512,0,0,0-.533,1.746v5.709h-1.654v-5.934a2.172,2.172,0,0,0-.512-1.571,1.733,1.733,0,0,0-1.309-.531,1.806,1.806,0,0,0-1.4.6,2.593,2.593,0,0,0-.54,1.788v5.653h-1.625v-9.229h1.625v1.192a2.785,2.785,0,0,1,1.056-1.014,3.014,3.014,0,0,1,1.468-.357,3.136,3.136,0,0,1,1.578.39,2.425,2.425,0,0,1,1.022,1.122,2.875,2.875,0,0,1,1.108-1.122A3.162,3.162,0,0,1,1320.924,293.416Z" transform="translate(-1249.373 -67.771)"/>
        <path id="Trazado_48442" data-name="Trazado 48442" d="M1289.28,318.9h6.581v1.493h-8.92v-1.231l5.3-5.473a6.251,6.251,0,0,0,1.191-1.568,3.116,3.116,0,0,0,.33-1.362,2.283,2.283,0,0,0-.668-1.751,2.72,2.72,0,0,0-3.532.056,2.933,2.933,0,0,0-.673,2.127v.977l-1.624-.15V311.2a4.171,4.171,0,0,1,1.119-3.141,4.094,4.094,0,0,1,2.984-1.084,4.136,4.136,0,0,1,2.869,1,3.5,3.5,0,0,1,1.122,2.742,4.149,4.149,0,0,1-.446,1.909,8.2,8.2,0,0,1-1.432,1.9Z" transform="translate(-1267.731 -57.631)"/>
        <path id="Trazado_48443" data-name="Trazado 48443" d="M1297.581,320.559a3.685,3.685,0,0,1-3.258-1.727,11.845,11.845,0,0,1-.014-10.131,3.958,3.958,0,0,1,6.53.005,11.771,11.771,0,0,1-.014,10.121A3.679,3.679,0,0,1,1297.581,320.559Zm0-1.5a2.236,2.236,0,0,0,2.056-1.325,8.613,8.613,0,0,0,.713-3.971,8.375,8.375,0,0,0-.727-3.966,2.26,2.26,0,0,0-4.09-.005,8.447,8.447,0,0,0-.722,3.971,8.655,8.655,0,0,0,.71,3.977A2.235,2.235,0,0,0,1297.581,319.058Z" transform="translate(-1263.067 -57.624)"/>
        <path id="Trazado_48444" data-name="Trazado 48444" d="M1312.028,309.266a2.984,2.984,0,0,1,2.15.783,2.917,2.917,0,0,1,.816,2.2v6.422h-1.624v-6a2.086,2.086,0,0,0-.507-1.521,1.729,1.729,0,0,0-1.286-.517,1.824,1.824,0,0,0-1.409.582,2.512,2.512,0,0,0-.535,1.746v5.709h-1.652v-5.934a2.181,2.181,0,0,0-.512-1.571,1.737,1.737,0,0,0-1.309-.531,1.809,1.809,0,0,0-1.4.6,2.593,2.593,0,0,0-.54,1.79v5.651h-1.624v-9.229h1.624v1.192a2.81,2.81,0,0,1,1.056-1.014,3.015,3.015,0,0,1,1.47-.357,3.129,3.129,0,0,1,1.577.39,2.427,2.427,0,0,1,1.023,1.122,2.879,2.879,0,0,1,1.11-1.122A3.156,3.156,0,0,1,1312.028,309.266Z" transform="translate(-1256.025 -55.916)"/>
        <path id="Trazado_48445" data-name="Trazado 48445" d="M1320.924,309.266a2.977,2.977,0,0,1,2.148.783,2.911,2.911,0,0,1,.818,2.2v6.422h-1.626v-6a2.078,2.078,0,0,0-.507-1.521,1.723,1.723,0,0,0-1.285-.517,1.827,1.827,0,0,0-1.411.582,2.512,2.512,0,0,0-.533,1.746v5.709h-1.654v-5.934a2.172,2.172,0,0,0-.512-1.571,1.734,1.734,0,0,0-1.309-.531,1.806,1.806,0,0,0-1.4.6,2.6,2.6,0,0,0-.54,1.79v5.651h-1.625v-9.229h1.625v1.192a2.784,2.784,0,0,1,1.056-1.014,3.014,3.014,0,0,1,1.468-.357,3.137,3.137,0,0,1,1.578.39,2.433,2.433,0,0,1,1.022,1.122,2.886,2.886,0,0,1,1.108-1.122A3.163,3.163,0,0,1,1320.924,309.266Z" transform="translate(-1249.373 -55.916)"/>
        <path id="Trazado_48446" data-name="Trazado 48446" d="M1289.28,334.746h6.581v1.493h-8.92v-1.23l5.3-5.473a6.252,6.252,0,0,0,1.191-1.568,3.116,3.116,0,0,0,.33-1.362,2.283,2.283,0,0,0-.668-1.751,2.717,2.717,0,0,0-3.532.058,2.925,2.925,0,0,0-.673,2.125v.977l-1.624-.15v-.816a4.174,4.174,0,0,1,1.119-3.141,4.094,4.094,0,0,1,2.984-1.084,4.136,4.136,0,0,1,2.869,1,3.5,3.5,0,0,1,1.122,2.742,4.161,4.161,0,0,1-.446,1.91,8.193,8.193,0,0,1-1.432,1.9Z" transform="translate(-1267.731 -45.777)"/>
        <path id="Trazado_48447" data-name="Trazado 48447" d="M1297.526,336.409q-4.4,0-4.4-4.7l1.652-.084a4.13,4.13,0,0,0,.62,2.487,2.5,2.5,0,0,0,2.131.827,2.924,2.924,0,0,0,2.051-.713,2.638,2.638,0,0,0,.03-3.728,2.713,2.713,0,0,0-1.893-.685h-.656V328.43h.638a1.952,1.952,0,0,0,1.444-.61,2.054,2.054,0,0,0,.6-1.5,1.845,1.845,0,0,0-.638-1.454,2.334,2.334,0,0,0-1.6-.565,2.573,2.573,0,0,0-1.057.2,1.494,1.494,0,0,0-.669.577,2.708,2.708,0,0,0-.339.841,4.978,4.978,0,0,0-.1,1.071l-1.653-.058a4.279,4.279,0,0,1,.991-3.033,3.673,3.673,0,0,1,2.819-1.061,3.917,3.917,0,0,1,2.709.968,3.084,3.084,0,0,1,1.084,2.4,2.891,2.891,0,0,1-.526,1.718,3.007,3.007,0,0,1-1.323,1.07,3.647,3.647,0,0,1,1.86,1.211,3.4,3.4,0,0,1,.724,2.225,3.636,3.636,0,0,1-1.264,2.882A4.732,4.732,0,0,1,1297.526,336.409Z" transform="translate(-1263.106 -45.769)"/>
        <path id="Trazado_48448" data-name="Trazado 48448" d="M1312.028,325.116a2.984,2.984,0,0,1,2.15.783,2.917,2.917,0,0,1,.816,2.2v6.422h-1.624v-6a2.089,2.089,0,0,0-.507-1.521,1.729,1.729,0,0,0-1.286-.517,1.824,1.824,0,0,0-1.409.582,2.518,2.518,0,0,0-.535,1.746v5.709h-1.652v-5.932a2.183,2.183,0,0,0-.512-1.573,1.737,1.737,0,0,0-1.309-.531,1.809,1.809,0,0,0-1.4.6,2.593,2.593,0,0,0-.54,1.79v5.651h-1.624v-9.229h1.624v1.192a2.823,2.823,0,0,1,1.056-1.014,3.015,3.015,0,0,1,1.47-.357,3.13,3.13,0,0,1,1.577.39,2.428,2.428,0,0,1,1.023,1.122,2.88,2.88,0,0,1,1.11-1.122A3.157,3.157,0,0,1,1312.028,325.116Z" transform="translate(-1256.025 -44.062)"/>
        <path id="Trazado_48449" data-name="Trazado 48449" d="M1320.924,325.116a2.977,2.977,0,0,1,2.148.783,2.912,2.912,0,0,1,.818,2.2v6.422h-1.626v-6a2.081,2.081,0,0,0-.507-1.521,1.723,1.723,0,0,0-1.285-.517,1.827,1.827,0,0,0-1.411.582,2.518,2.518,0,0,0-.533,1.746v5.709h-1.654v-5.932a2.174,2.174,0,0,0-.512-1.573,1.733,1.733,0,0,0-1.309-.531,1.806,1.806,0,0,0-1.4.6,2.6,2.6,0,0,0-.54,1.79v5.651h-1.625v-9.229h1.625v1.192a2.8,2.8,0,0,1,1.056-1.014,3.013,3.013,0,0,1,1.468-.357,3.137,3.137,0,0,1,1.578.39,2.434,2.434,0,0,1,1.022,1.122,2.887,2.887,0,0,1,1.108-1.122A3.163,3.163,0,0,1,1320.924,325.116Z" transform="translate(-1249.373 -44.062)"/>
        <path id="Trazado_48450" data-name="Trazado 48450" d="M1289.28,350.6h6.581v1.493h-8.92v-1.229l5.3-5.475a6.251,6.251,0,0,0,1.191-1.568,3.116,3.116,0,0,0,.33-1.362,2.283,2.283,0,0,0-.668-1.751,2.723,2.723,0,0,0-3.532.058,2.925,2.925,0,0,0-.673,2.125v.977l-1.624-.15V342.9a4.176,4.176,0,0,1,1.119-3.141,4.623,4.623,0,0,1,5.852-.079,3.49,3.49,0,0,1,1.122,2.741,4.161,4.161,0,0,1-.446,1.91,8.238,8.238,0,0,1-1.432,1.9Z" transform="translate(-1267.731 -33.922)"/>
        <path id="Trazado_48451" data-name="Trazado 48451" d="M1302.228,347.6a4.47,4.47,0,0,1-.6,2.375,4.247,4.247,0,0,1-1.661,1.615,4.738,4.738,0,0,1-2.291.563,4.612,4.612,0,0,1-3.286-1.245,4.2,4.2,0,0,1-1.325-3.206,5.2,5.2,0,0,1,1.148-3.172l4.421-5.745h1.916l-3.671,4.628a4.107,4.107,0,0,1,1.143-.161,4.211,4.211,0,0,1,2.029.507,4.063,4.063,0,0,1,1.549,1.517A4.522,4.522,0,0,1,1302.228,347.6Zm-4.59,3.041a2.871,2.871,0,0,0,3-3.069,2.906,2.906,0,0,0-3.033-3.052,2.838,2.838,0,0,0-2.157.905,3.041,3.041,0,0,0-.837,2.213,2.924,2.924,0,0,0,.851,2.206A3.025,3.025,0,0,0,1297.638,350.642Z" transform="translate(-1263.152 -33.837)"/>
        <path id="Trazado_48452" data-name="Trazado 48452" d="M1312.028,340.966a2.977,2.977,0,0,1,2.15.785,2.91,2.91,0,0,1,.816,2.2v6.422h-1.624v-6a2.088,2.088,0,0,0-.507-1.521,1.729,1.729,0,0,0-1.286-.517,1.824,1.824,0,0,0-1.409.582,2.52,2.52,0,0,0-.535,1.748v5.707h-1.652v-5.932a2.183,2.183,0,0,0-.512-1.573,1.743,1.743,0,0,0-1.309-.531,1.809,1.809,0,0,0-1.4.6,2.593,2.593,0,0,0-.54,1.79v5.651h-1.624v-9.229h1.624v1.192a2.822,2.822,0,0,1,1.056-1.014,3.014,3.014,0,0,1,1.47-.357,3.147,3.147,0,0,1,1.577.39,2.427,2.427,0,0,1,1.023,1.122,2.88,2.88,0,0,1,1.11-1.122A3.175,3.175,0,0,1,1312.028,340.966Z" transform="translate(-1256.025 -32.207)"/>
        <path id="Trazado_48453" data-name="Trazado 48453" d="M1320.924,340.966a2.971,2.971,0,0,1,2.148.785,2.9,2.9,0,0,1,.818,2.2v6.422h-1.626v-6a2.081,2.081,0,0,0-.507-1.521,1.723,1.723,0,0,0-1.285-.517,1.827,1.827,0,0,0-1.411.582,2.519,2.519,0,0,0-.533,1.748v5.707h-1.654v-5.932a2.174,2.174,0,0,0-.512-1.573,1.74,1.74,0,0,0-1.309-.531,1.806,1.806,0,0,0-1.4.6,2.6,2.6,0,0,0-.54,1.79v5.651h-1.625v-9.229h1.625v1.192a2.8,2.8,0,0,1,1.056-1.014,3.013,3.013,0,0,1,1.468-.357,3.155,3.155,0,0,1,1.578.39,2.434,2.434,0,0,1,1.022,1.122,2.887,2.887,0,0,1,1.108-1.122A3.181,3.181,0,0,1,1320.924,340.966Z" transform="translate(-1249.373 -32.207)"/>
        <path id="Trazado_48454" data-name="Trazado 48454" d="M1289.28,366.446h6.581v1.493h-8.92v-1.229l5.3-5.474a6.221,6.221,0,0,0,1.191-1.568,3.115,3.115,0,0,0,.33-1.36,2.278,2.278,0,0,0-.668-1.751,2.72,2.72,0,0,0-3.532.056,2.93,2.93,0,0,0-.673,2.127v.975l-1.624-.15v-.816a4.169,4.169,0,0,1,1.119-3.139,4.62,4.62,0,0,1,5.852-.08,3.49,3.49,0,0,1,1.122,2.741,4.161,4.161,0,0,1-.446,1.911,8.2,8.2,0,0,1-1.432,1.9Z" transform="translate(-1267.731 -22.067)"/>
        <path id="Trazado_48455" data-name="Trazado 48455" d="M1300.822,367.019a5.248,5.248,0,0,1-6.406,0,3.6,3.6,0,0,1-1.281-2.879,3.556,3.556,0,0,1,.666-2.159,3.831,3.831,0,0,1,1.813-1.334,3.248,3.248,0,0,1-1.3-1.131,2.873,2.873,0,0,1-.484-1.629,3.061,3.061,0,0,1,1.08-2.409,3.98,3.98,0,0,1,2.713-.942,3.9,3.9,0,0,1,2.679.947,3.061,3.061,0,0,1,1.077,2.4,2.945,2.945,0,0,1-.47,1.629,3.179,3.179,0,0,1-1.276,1.131,3.9,3.9,0,0,1,1.8,1.339,3.533,3.533,0,0,1,.666,2.153A3.6,3.6,0,0,1,1300.822,367.019Zm-3.2-.412a2.94,2.94,0,0,0,2.033-.724,2.439,2.439,0,0,0,.813-1.914,2.389,2.389,0,0,0-.813-1.888,2.966,2.966,0,0,0-2.033-.713,3,3,0,0,0-2.047.713,2.386,2.386,0,0,0-.816,1.888,2.435,2.435,0,0,0,.816,1.914A2.975,2.975,0,0,0,1297.622,366.607Zm0-6.5a2.242,2.242,0,0,0,1.6-.619,2.019,2.019,0,0,0,.652-1.521,1.952,1.952,0,0,0-.652-1.489,2.446,2.446,0,0,0-3.216,0,1.95,1.95,0,0,0-.647,1.493,2.018,2.018,0,0,0,.652,1.521A2.252,2.252,0,0,0,1297.622,360.11Z" transform="translate(-1263.099 -22.059)"/>
        <path id="Trazado_48456" data-name="Trazado 48456" d="M1312.028,356.816a2.977,2.977,0,0,1,2.15.785,2.91,2.91,0,0,1,.816,2.2v6.422h-1.624v-6a2.088,2.088,0,0,0-.507-1.521,1.728,1.728,0,0,0-1.286-.516,1.818,1.818,0,0,0-1.409.582,2.513,2.513,0,0,0-.535,1.746v5.707h-1.652v-5.932a2.183,2.183,0,0,0-.512-1.573,1.742,1.742,0,0,0-1.309-.53,1.807,1.807,0,0,0-1.4.594,2.593,2.593,0,0,0-.54,1.79v5.651h-1.624v-9.229h1.624v1.194a2.8,2.8,0,0,1,1.056-1.014,3,3,0,0,1,1.47-.358,3.148,3.148,0,0,1,1.577.39,2.427,2.427,0,0,1,1.023,1.122,2.879,2.879,0,0,1,1.11-1.122A3.175,3.175,0,0,1,1312.028,356.816Z" transform="translate(-1256.025 -20.352)"/>
        <path id="Trazado_48457" data-name="Trazado 48457" d="M1320.924,356.816a2.971,2.971,0,0,1,2.148.785,2.9,2.9,0,0,1,.818,2.2v6.422h-1.626v-6a2.081,2.081,0,0,0-.507-1.521,1.722,1.722,0,0,0-1.285-.516,1.821,1.821,0,0,0-1.411.582,2.512,2.512,0,0,0-.533,1.746v5.707h-1.654v-5.932a2.174,2.174,0,0,0-.512-1.573,1.738,1.738,0,0,0-1.309-.53,1.8,1.8,0,0,0-1.4.594,2.6,2.6,0,0,0-.54,1.79v5.651h-1.625v-9.229h1.625v1.194a2.771,2.771,0,0,1,1.056-1.014,3,3,0,0,1,1.468-.358,3.155,3.155,0,0,1,1.578.39,2.434,2.434,0,0,1,1.022,1.122,2.887,2.887,0,0,1,1.108-1.122A3.182,3.182,0,0,1,1320.924,356.816Z" transform="translate(-1249.373 -20.352)"/>
        <path id="Trazado_48458" data-name="Trazado 48458" d="M1291.332,383.959q-4.4,0-4.4-4.7l1.652-.084a4.133,4.133,0,0,0,.619,2.487,2.5,2.5,0,0,0,2.131.827,2.93,2.93,0,0,0,2.052-.715,2.64,2.64,0,0,0,.03-3.727,2.716,2.716,0,0,0-1.893-.685h-.656v-1.381h.638a1.947,1.947,0,0,0,1.444-.61,2.051,2.051,0,0,0,.6-1.5,1.851,1.851,0,0,0-.638-1.456,2.344,2.344,0,0,0-1.6-.563,2.566,2.566,0,0,0-1.057.2,1.5,1.5,0,0,0-.671.577,2.718,2.718,0,0,0-.337.841,4.959,4.959,0,0,0-.1,1.07l-1.652-.056a4.288,4.288,0,0,1,.989-3.033,3.67,3.67,0,0,1,2.821-1.061,3.922,3.922,0,0,1,2.709.968,3.085,3.085,0,0,1,1.084,2.4,2.883,2.883,0,0,1-.526,1.716,3,3,0,0,1-1.323,1.072,3.646,3.646,0,0,1,1.86,1.211,3.4,3.4,0,0,1,.724,2.225,3.635,3.635,0,0,1-1.264,2.881A4.741,4.741,0,0,1,1291.332,383.959Z" transform="translate(-1267.739 -10.205)"/>
        <path id="Trazado_48459" data-name="Trazado 48459" d="M1297.581,383.959a3.685,3.685,0,0,1-3.258-1.727,11.845,11.845,0,0,1-.014-10.131,3.958,3.958,0,0,1,6.53.005,11.771,11.771,0,0,1-.014,10.12A3.679,3.679,0,0,1,1297.581,383.959Zm0-1.5a2.236,2.236,0,0,0,2.056-1.325,8.613,8.613,0,0,0,.713-3.971,8.375,8.375,0,0,0-.727-3.966,2.26,2.26,0,0,0-4.09-.005,8.446,8.446,0,0,0-.722,3.971,8.661,8.661,0,0,0,.71,3.977A2.235,2.235,0,0,0,1297.581,382.458Z" transform="translate(-1263.067 -10.205)"/>
        <path id="Trazado_48460" data-name="Trazado 48460" d="M1312.028,372.666a2.976,2.976,0,0,1,2.15.783,2.914,2.914,0,0,1,.816,2.2v6.422h-1.624v-6a2.083,2.083,0,0,0-.507-1.521,1.729,1.729,0,0,0-1.286-.517,1.824,1.824,0,0,0-1.409.582,2.513,2.513,0,0,0-.535,1.746v5.709h-1.652v-5.934a2.181,2.181,0,0,0-.512-1.571,1.737,1.737,0,0,0-1.309-.531,1.809,1.809,0,0,0-1.4.6,2.591,2.591,0,0,0-.54,1.788v5.653h-1.624v-9.229h1.624v1.192a2.81,2.81,0,0,1,1.056-1.014,3.015,3.015,0,0,1,1.47-.357,3.13,3.13,0,0,1,1.577.39,2.419,2.419,0,0,1,1.023,1.122,2.867,2.867,0,0,1,1.11-1.122A3.157,3.157,0,0,1,1312.028,372.666Z" transform="translate(-1256.025 -8.498)"/>
        <path id="Trazado_48461" data-name="Trazado 48461" d="M1320.924,372.666a2.97,2.97,0,0,1,2.148.783,2.909,2.909,0,0,1,.818,2.2v6.422h-1.626v-6a2.075,2.075,0,0,0-.507-1.521,1.723,1.723,0,0,0-1.285-.517,1.827,1.827,0,0,0-1.411.582,2.512,2.512,0,0,0-.533,1.746v5.709h-1.654v-5.934a2.172,2.172,0,0,0-.512-1.571,1.733,1.733,0,0,0-1.309-.531,1.806,1.806,0,0,0-1.4.6,2.593,2.593,0,0,0-.54,1.788v5.653h-1.625v-9.229h1.625v1.192a2.785,2.785,0,0,1,1.056-1.014,3.013,3.013,0,0,1,1.468-.357,3.137,3.137,0,0,1,1.578.39,2.425,2.425,0,0,1,1.022,1.122,2.874,2.874,0,0,1,1.108-1.122A3.163,3.163,0,0,1,1320.924,372.666Z" transform="translate(-1249.373 -8.498)"/>
        <path id="Trazado_48462" data-name="Trazado 48462" d="M1291.332,399.809q-4.4,0-4.4-4.7l1.652-.084a4.129,4.129,0,0,0,.619,2.487,2.5,2.5,0,0,0,2.131.827,2.928,2.928,0,0,0,2.052-.713,2.41,2.41,0,0,0,.785-1.868,2.385,2.385,0,0,0-.755-1.86,2.716,2.716,0,0,0-1.893-.685h-.656V391.83h.638a1.948,1.948,0,0,0,1.444-.612,2.049,2.049,0,0,0,.6-1.5,1.845,1.845,0,0,0-.638-1.454,2.337,2.337,0,0,0-1.6-.565,2.566,2.566,0,0,0-1.057.2,1.5,1.5,0,0,0-.671.577,2.718,2.718,0,0,0-.337.841,4.971,4.971,0,0,0-.1,1.07l-1.652-.056a4.288,4.288,0,0,1,.989-3.033,3.676,3.676,0,0,1,2.821-1.061,3.922,3.922,0,0,1,2.709.968,3.085,3.085,0,0,1,1.084,2.4,2.892,2.892,0,0,1-.526,1.718,3.007,3.007,0,0,1-1.323,1.07,3.647,3.647,0,0,1,1.86,1.211,3.4,3.4,0,0,1,.724,2.225,3.641,3.641,0,0,1-1.264,2.882A4.74,4.74,0,0,1,1291.332,399.809Z" transform="translate(-1267.739 1.649)"/>
        <path id="Trazado_48463" data-name="Trazado 48463" d="M1302.834,395.4V396.9H1300.8v2.657h-1.626V396.9h-6.327v-1.5l5.5-9.061h2.452v9.07Zm-8.308,0h4.646v-7.876Z" transform="translate(-1263.316 1.726)"/>
        <path id="Trazado_48464" data-name="Trazado 48464" d="M1312.028,388.516a2.984,2.984,0,0,1,2.15.783,2.917,2.917,0,0,1,.816,2.2v6.422h-1.624v-6a2.085,2.085,0,0,0-.507-1.521,1.729,1.729,0,0,0-1.286-.517,1.824,1.824,0,0,0-1.409.582,2.512,2.512,0,0,0-.535,1.746v5.709h-1.652v-5.934a2.181,2.181,0,0,0-.512-1.571,1.737,1.737,0,0,0-1.309-.531,1.809,1.809,0,0,0-1.4.6,2.593,2.593,0,0,0-.54,1.79v5.651h-1.624v-9.229h1.624v1.192a2.809,2.809,0,0,1,1.056-1.014,3.015,3.015,0,0,1,1.47-.357,3.13,3.13,0,0,1,1.577.39,2.427,2.427,0,0,1,1.023,1.122,2.879,2.879,0,0,1,1.11-1.122A3.157,3.157,0,0,1,1312.028,388.516Z" transform="translate(-1256.025 3.357)"/>
        <path id="Trazado_48465" data-name="Trazado 48465" d="M1320.924,388.516a2.977,2.977,0,0,1,2.148.783,2.911,2.911,0,0,1,.818,2.2v6.422h-1.626v-6a2.078,2.078,0,0,0-.507-1.521,1.723,1.723,0,0,0-1.285-.517,1.827,1.827,0,0,0-1.411.582,2.512,2.512,0,0,0-.533,1.746v5.709h-1.654v-5.934a2.172,2.172,0,0,0-.512-1.571,1.733,1.733,0,0,0-1.309-.531,1.806,1.806,0,0,0-1.4.6,2.6,2.6,0,0,0-.54,1.79v5.651h-1.625v-9.229h1.625v1.192a2.784,2.784,0,0,1,1.056-1.014,3.013,3.013,0,0,1,1.468-.357,3.137,3.137,0,0,1,1.578.39,2.433,2.433,0,0,1,1.022,1.122,2.886,2.886,0,0,1,1.108-1.122A3.163,3.163,0,0,1,1320.924,388.516Z" transform="translate(-1249.373 3.357)"/>
        <path id="Trazado_48466" data-name="Trazado 48466" d="M1291.332,415.659q-4.4,0-4.4-4.7l1.652-.084a4.129,4.129,0,0,0,.619,2.487,2.5,2.5,0,0,0,2.131.827,2.928,2.928,0,0,0,2.052-.713,2.642,2.642,0,0,0,.03-3.728,2.716,2.716,0,0,0-1.893-.685h-.656V407.68h.638a1.953,1.953,0,0,0,1.444-.61,2.053,2.053,0,0,0,.6-1.5,1.845,1.845,0,0,0-.638-1.454,2.337,2.337,0,0,0-1.6-.565,2.566,2.566,0,0,0-1.057.2,1.5,1.5,0,0,0-.671.577,2.718,2.718,0,0,0-.337.841,4.988,4.988,0,0,0-.1,1.072l-1.652-.058a4.288,4.288,0,0,1,.989-3.033,3.676,3.676,0,0,1,2.821-1.061,3.922,3.922,0,0,1,2.709.968,3.085,3.085,0,0,1,1.084,2.4,2.892,2.892,0,0,1-.526,1.718,3.007,3.007,0,0,1-1.323,1.07,3.648,3.648,0,0,1,1.86,1.211,3.4,3.4,0,0,1,.724,2.225,3.641,3.641,0,0,1-1.264,2.882A4.74,4.74,0,0,1,1291.332,415.659Z" transform="translate(-1267.739 13.504)"/>
        <path id="Trazado_48467" data-name="Trazado 48467" d="M1300.822,414.57a5.248,5.248,0,0,1-6.406,0,3.6,3.6,0,0,1-1.281-2.879,3.555,3.555,0,0,1,.666-2.159,3.831,3.831,0,0,1,1.813-1.334,3.262,3.262,0,0,1-1.3-1.131,2.873,2.873,0,0,1-.484-1.629,3.056,3.056,0,0,1,1.08-2.409,3.981,3.981,0,0,1,2.713-.944,3.9,3.9,0,0,1,2.679.949,3.062,3.062,0,0,1,1.077,2.4,2.945,2.945,0,0,1-.47,1.629,3.193,3.193,0,0,1-1.276,1.131,3.9,3.9,0,0,1,1.8,1.339,3.533,3.533,0,0,1,.666,2.153A3.6,3.6,0,0,1,1300.822,414.57Zm-3.2-.413a2.94,2.94,0,0,0,2.033-.724,2.44,2.44,0,0,0,.813-1.916,2.388,2.388,0,0,0-.813-1.886,2.966,2.966,0,0,0-2.033-.713,3,3,0,0,0-2.047.713,2.384,2.384,0,0,0-.816,1.886,2.436,2.436,0,0,0,.816,1.916A2.975,2.975,0,0,0,1297.622,414.158Zm0-6.5a2.236,2.236,0,0,0,1.6-.62,2.013,2.013,0,0,0,.652-1.521,1.951,1.951,0,0,0-.652-1.487,2.448,2.448,0,0,0-3.216-.005,1.953,1.953,0,0,0-.647,1.493,2.013,2.013,0,0,0,.652,1.521A2.246,2.246,0,0,0,1297.622,407.661Z" transform="translate(-1263.099 13.504)"/>
        <path id="Trazado_48468" data-name="Trazado 48468" d="M1312.028,404.366a2.984,2.984,0,0,1,2.15.783,2.917,2.917,0,0,1,.816,2.2v6.422h-1.624v-6a2.088,2.088,0,0,0-.507-1.521,1.729,1.729,0,0,0-1.286-.517,1.824,1.824,0,0,0-1.409.582,2.518,2.518,0,0,0-.535,1.746v5.709h-1.652v-5.932a2.182,2.182,0,0,0-.512-1.573,1.737,1.737,0,0,0-1.309-.531,1.809,1.809,0,0,0-1.4.6,2.593,2.593,0,0,0-.54,1.79v5.651h-1.624v-9.229h1.624v1.192a2.822,2.822,0,0,1,1.056-1.014,3.014,3.014,0,0,1,1.47-.357,3.129,3.129,0,0,1,1.577.39,2.427,2.427,0,0,1,1.023,1.122,2.879,2.879,0,0,1,1.11-1.122A3.156,3.156,0,0,1,1312.028,404.366Z" transform="translate(-1256.025 15.212)"/>
        <path id="Trazado_48469" data-name="Trazado 48469" d="M1320.924,404.366a2.977,2.977,0,0,1,2.148.783,2.912,2.912,0,0,1,.818,2.2v6.422h-1.626v-6a2.08,2.08,0,0,0-.507-1.521,1.723,1.723,0,0,0-1.285-.517,1.827,1.827,0,0,0-1.411.582,2.518,2.518,0,0,0-.533,1.746v5.709h-1.654v-5.932a2.173,2.173,0,0,0-.512-1.573,1.733,1.733,0,0,0-1.309-.531,1.806,1.806,0,0,0-1.4.6,2.6,2.6,0,0,0-.54,1.79v5.651h-1.625v-9.229h1.625v1.192a2.8,2.8,0,0,1,1.056-1.014,3.013,3.013,0,0,1,1.468-.357,3.137,3.137,0,0,1,1.578.39,2.433,2.433,0,0,1,1.022,1.122,2.886,2.886,0,0,1,1.108-1.122A3.163,3.163,0,0,1,1320.924,404.366Z" transform="translate(-1249.373 15.212)"/>
        <path id="Trazado_48470" data-name="Trazado 48470" d="M1296.64,427.1V428.6H1294.6v2.657h-1.626V428.6h-6.327v-1.5l5.5-9.059h2.451V427.1Zm-8.308,0h4.646v-7.876Z" transform="translate(-1267.948 25.436)"/>
        <path id="Trazado_48471" data-name="Trazado 48471" d="M1297.244,422.741a5.119,5.119,0,0,1,3.6,1.113,4.028,4.028,0,0,1,1.192,3.1,4.386,4.386,0,0,1-1.225,3.214,4.3,4.3,0,0,1-3.206,1.245,5.1,5.1,0,0,1-1.657-.268,4.474,4.474,0,0,1-1.4-.771,3.516,3.516,0,0,1-.975-1.3,4.267,4.267,0,0,1-.362-1.783,6.455,6.455,0,0,1,.047-.676l1.662-.14a6.411,6.411,0,0,0-.075.741,2.971,2.971,0,0,0,.239,1.23,2.1,2.1,0,0,0,.642.839,2.938,2.938,0,0,0,.869.456,3.2,3.2,0,0,0,.982.15,2.715,2.715,0,0,0,2.052-.808,2.878,2.878,0,0,0,.774-2.075,2.731,2.731,0,0,0-.8-2.085,3.6,3.6,0,0,0-2.538-.76h-3.342l.816-6.121h6.929v1.512h-5.559l-.432,3.183Z" transform="translate(-1263.039 25.443)"/>
        <path id="Trazado_48472" data-name="Trazado 48472" d="M1312.028,420.216a2.977,2.977,0,0,1,2.15.785,2.91,2.91,0,0,1,.816,2.2v6.422h-1.624v-6a2.089,2.089,0,0,0-.507-1.521,1.73,1.73,0,0,0-1.286-.517,1.824,1.824,0,0,0-1.409.582,2.52,2.52,0,0,0-.535,1.748v5.707h-1.652v-5.932a2.183,2.183,0,0,0-.512-1.573,1.743,1.743,0,0,0-1.309-.531,1.809,1.809,0,0,0-1.4.6,2.593,2.593,0,0,0-.54,1.79v5.651h-1.624v-9.229h1.624v1.192a2.822,2.822,0,0,1,1.056-1.014,3.014,3.014,0,0,1,1.47-.357,3.147,3.147,0,0,1,1.577.39,2.427,2.427,0,0,1,1.023,1.122,2.879,2.879,0,0,1,1.11-1.122A3.175,3.175,0,0,1,1312.028,420.216Z" transform="translate(-1256.025 27.066)"/>
        <path id="Trazado_48473" data-name="Trazado 48473" d="M1320.924,420.216a2.971,2.971,0,0,1,2.148.785,2.9,2.9,0,0,1,.818,2.2v6.422h-1.626v-6a2.081,2.081,0,0,0-.507-1.521,1.723,1.723,0,0,0-1.285-.517,1.827,1.827,0,0,0-1.411.582,2.52,2.52,0,0,0-.533,1.748v5.707h-1.654v-5.932a2.174,2.174,0,0,0-.512-1.573,1.74,1.74,0,0,0-1.309-.531,1.806,1.806,0,0,0-1.4.6,2.6,2.6,0,0,0-.54,1.79v5.651h-1.625v-9.229h1.625v1.192a2.8,2.8,0,0,1,1.056-1.014,3.013,3.013,0,0,1,1.468-.357,3.155,3.155,0,0,1,1.578.39,2.433,2.433,0,0,1,1.022,1.122,2.886,2.886,0,0,1,1.108-1.122A3.181,3.181,0,0,1,1320.924,420.216Z" transform="translate(-1249.373 27.066)"/>
        <path id="Trazado_48474" data-name="Trazado 48474" d="M1291.05,438.591a5.121,5.121,0,0,1,3.606,1.113,4.029,4.029,0,0,1,1.19,3.1,4.385,4.385,0,0,1-1.223,3.214,4.3,4.3,0,0,1-3.208,1.245,5.093,5.093,0,0,1-1.655-.267,4.458,4.458,0,0,1-1.4-.771,3.506,3.506,0,0,1-.975-1.3,4.278,4.278,0,0,1-.364-1.785,6.079,6.079,0,0,1,.049-.676l1.662-.14a6.4,6.4,0,0,0-.075.741,2.968,2.968,0,0,0,.24,1.231,2.1,2.1,0,0,0,.642.839,2.9,2.9,0,0,0,.869.456,3.19,3.19,0,0,0,.982.15,2.711,2.711,0,0,0,2.05-.807,2.879,2.879,0,0,0,.776-2.075,2.74,2.74,0,0,0-.8-2.085,3.594,3.594,0,0,0-2.538-.76h-3.342l.815-6.121h6.929v1.512h-5.559l-.432,3.183Z" transform="translate(-1267.671 37.298)"/>
        <path id="Trazado_48475" data-name="Trazado 48475" d="M1297.143,433.886h1.522V447.1h-1.606V435.66l-3.173,2.751v-1.737Z" transform="translate(-1262.536 37.29)"/>
        <path id="Trazado_48476" data-name="Trazado 48476" d="M1312.028,436.066a2.978,2.978,0,0,1,2.15.785,2.91,2.91,0,0,1,.816,2.2v6.422h-1.624v-6a2.088,2.088,0,0,0-.507-1.521,1.728,1.728,0,0,0-1.286-.516,1.818,1.818,0,0,0-1.409.582,2.513,2.513,0,0,0-.535,1.746v5.707h-1.652v-5.932a2.183,2.183,0,0,0-.512-1.573,1.742,1.742,0,0,0-1.309-.53,1.807,1.807,0,0,0-1.4.594,2.593,2.593,0,0,0-.54,1.79v5.651h-1.624v-9.229h1.624v1.194a2.8,2.8,0,0,1,1.056-1.014,3,3,0,0,1,1.47-.358,3.149,3.149,0,0,1,1.577.39,2.427,2.427,0,0,1,1.023,1.122,2.879,2.879,0,0,1,1.11-1.122A3.176,3.176,0,0,1,1312.028,436.066Z" transform="translate(-1256.025 38.921)"/>
        <path id="Trazado_48477" data-name="Trazado 48477" d="M1320.924,436.066a2.971,2.971,0,0,1,2.148.785,2.9,2.9,0,0,1,.818,2.2v6.422h-1.626v-6a2.08,2.08,0,0,0-.507-1.521,1.722,1.722,0,0,0-1.285-.516,1.821,1.821,0,0,0-1.411.582,2.512,2.512,0,0,0-.533,1.746v5.707h-1.654v-5.932a2.174,2.174,0,0,0-.512-1.573,1.738,1.738,0,0,0-1.309-.53,1.8,1.8,0,0,0-1.4.594,2.6,2.6,0,0,0-.54,1.79v5.651h-1.625v-9.229h1.625v1.194a2.772,2.772,0,0,1,1.056-1.014,3,3,0,0,1,1.468-.358,3.156,3.156,0,0,1,1.578.39,2.433,2.433,0,0,1,1.022,1.122,2.886,2.886,0,0,1,1.108-1.122A3.182,3.182,0,0,1,1320.924,436.066Z" transform="translate(-1249.373 38.921)"/>
        <path id="Trazado_48478" data-name="Trazado 48478" d="M1291.05,454.44a5.121,5.121,0,0,1,3.606,1.113,4.029,4.029,0,0,1,1.19,3.1,4.385,4.385,0,0,1-1.223,3.215,4.3,4.3,0,0,1-3.208,1.244,5.1,5.1,0,0,1-1.655-.267,4.457,4.457,0,0,1-1.4-.771,3.507,3.507,0,0,1-.975-1.3,4.278,4.278,0,0,1-.364-1.785,6.079,6.079,0,0,1,.049-.676l1.662-.14a6.4,6.4,0,0,0-.075.741,2.968,2.968,0,0,0,.24,1.231,2.1,2.1,0,0,0,.642.839,2.9,2.9,0,0,0,.869.456,3.192,3.192,0,0,0,.982.15,2.71,2.71,0,0,0,2.05-.808,2.879,2.879,0,0,0,.776-2.075,2.733,2.733,0,0,0-.8-2.083,3.6,3.6,0,0,0-2.538-.76h-3.342l.815-6.121h6.929v1.51h-5.559l-.432,3.183Z" transform="translate(-1267.671 49.153)"/>
        <path id="Trazado_48479" data-name="Trazado 48479" d="M1300.822,462.119a5.248,5.248,0,0,1-6.406,0,3.6,3.6,0,0,1-1.281-2.879,3.555,3.555,0,0,1,.666-2.159,3.841,3.841,0,0,1,1.813-1.334,3.236,3.236,0,0,1-1.3-1.131,2.869,2.869,0,0,1-.484-1.629,3.061,3.061,0,0,1,1.08-2.409,3.98,3.98,0,0,1,2.713-.942,3.9,3.9,0,0,1,2.679.947,3.061,3.061,0,0,1,1.077,2.4,2.941,2.941,0,0,1-.47,1.629,3.167,3.167,0,0,1-1.276,1.131,3.9,3.9,0,0,1,1.8,1.339,3.533,3.533,0,0,1,.666,2.153A3.593,3.593,0,0,1,1300.822,462.119Zm-3.2-.413a2.94,2.94,0,0,0,2.033-.724,2.436,2.436,0,0,0,.813-1.914,2.389,2.389,0,0,0-.813-1.888,2.966,2.966,0,0,0-2.033-.713,3,3,0,0,0-2.047.713,2.386,2.386,0,0,0-.816,1.888,2.433,2.433,0,0,0,.816,1.914A2.975,2.975,0,0,0,1297.622,461.707Zm0-6.5a2.242,2.242,0,0,0,1.6-.619,2.019,2.019,0,0,0,.652-1.521,1.946,1.946,0,0,0-.652-1.488,2.262,2.262,0,0,0-1.6-.607,2.286,2.286,0,0,0-1.615.6,1.95,1.95,0,0,0-.647,1.493,2.018,2.018,0,0,0,.652,1.521A2.251,2.251,0,0,0,1297.622,455.21Z" transform="translate(-1263.099 49.069)"/>
        <path id="Trazado_48480" data-name="Trazado 48480" d="M1312.028,451.917a2.977,2.977,0,0,1,2.15.783,2.912,2.912,0,0,1,.816,2.2v6.42h-1.624v-6a2.088,2.088,0,0,0-.507-1.521,1.728,1.728,0,0,0-1.286-.516,1.824,1.824,0,0,0-1.409.582,2.512,2.512,0,0,0-.535,1.746v5.707h-1.652V455.39a2.186,2.186,0,0,0-.512-1.573,1.742,1.742,0,0,0-1.309-.53,1.8,1.8,0,0,0-1.4.6,2.585,2.585,0,0,0-.54,1.788v5.651h-1.624V452.1h1.624v1.192a2.8,2.8,0,0,1,1.056-1.014,3,3,0,0,1,1.47-.357,3.147,3.147,0,0,1,1.577.388,2.427,2.427,0,0,1,1.023,1.122,2.879,2.879,0,0,1,1.11-1.122A3.174,3.174,0,0,1,1312.028,451.917Z" transform="translate(-1256.025 50.776)"/>
        <path id="Trazado_48481" data-name="Trazado 48481" d="M1320.924,451.917a2.97,2.97,0,0,1,2.148.783,2.906,2.906,0,0,1,.818,2.2v6.42h-1.626v-6a2.08,2.08,0,0,0-.507-1.521,1.722,1.722,0,0,0-1.285-.516,1.827,1.827,0,0,0-1.411.582,2.512,2.512,0,0,0-.533,1.746v5.707h-1.654V455.39a2.176,2.176,0,0,0-.512-1.573,1.738,1.738,0,0,0-1.309-.53,1.8,1.8,0,0,0-1.4.6,2.587,2.587,0,0,0-.54,1.788v5.651h-1.625V452.1h1.625v1.192a2.771,2.771,0,0,1,1.056-1.014,3,3,0,0,1,1.468-.357,3.154,3.154,0,0,1,1.578.388,2.433,2.433,0,0,1,1.022,1.122,2.886,2.886,0,0,1,1.108-1.122A3.18,3.18,0,0,1,1320.924,451.917Z" transform="translate(-1249.373 50.776)"/>
      </g>
    </g>
    <g id="Grupo_21276" data-name="Grupo 21276" transform="translate(1229.262 148.085)">
      <path id="Trazado_48482" data-name="Trazado 48482" d="M1216.677,155.275h4.253v2.487h-7.07V144.2h2.818Z" transform="translate(-1213.86 -143.334)"/>
      <path id="Trazado_48483" data-name="Trazado 48483" d="M1218.932,158.132v-9.65h2.72v9.65Zm.533-10.975,2.461-3.454,1.332.939-2.131,2.515Z" transform="translate(-1210.066 -143.703)"/>
      <path id="Trazado_48484" data-name="Trazado 48484" d="M1227.788,146.329a3.762,3.762,0,0,1,2.666.869,3.222,3.222,0,0,1,.928,2.473v6.5h-2.713v-5.915a1.676,1.676,0,0,0-.482-1.332,1.815,1.815,0,0,0-1.245-.423,2.523,2.523,0,0,0-.807.122,2.076,2.076,0,0,0-.675.379,1.685,1.685,0,0,0-.484.727,3.375,3.375,0,0,0-.182,1.119v5.322h-2.7v-9.65h2.7v1.07A3.714,3.714,0,0,1,1227.788,146.329Z" transform="translate(-1207.704 -141.739)"/>
      <path id="Trazado_48485" data-name="Trazado 48485" d="M1238.313,151.21l-.028.647h-7.156a2.5,2.5,0,0,0,.773,1.765,2.453,2.453,0,0,0,1.7.61,2.358,2.358,0,0,0,1.273-.334,2.049,2.049,0,0,0,.813-.97l2.479.365a4.225,4.225,0,0,1-1.69,2.264,5.023,5.023,0,0,1-2.854.806,5.23,5.23,0,0,1-3.76-1.327,5.558,5.558,0,0,1,.005-7.371,5.064,5.064,0,0,1,3.669-1.348,4.419,4.419,0,0,1,4.781,4.892Zm-4.76-2.977a2.14,2.14,0,0,0-2.349,1.86h4.431a2.036,2.036,0,0,0-.664-1.381A2.112,2.112,0,0,0,1233.554,148.234Z" transform="translate(-1202.937 -141.747)"/>
      <path id="Trazado_48486" data-name="Trazado 48486" d="M1243.488,153.548a9.085,9.085,0,0,0,.234,2.358v.262H1241.2l-.215-1.052a3.131,3.131,0,0,1-1.351.93,5.011,5.011,0,0,1-1.748.309,4.648,4.648,0,0,1-.9-.084,3.138,3.138,0,0,1-.811-.285,2.521,2.521,0,0,1-.671-.5,2.2,2.2,0,0,1-.449-.766,3.026,3.026,0,0,1-.171-1.047,2.887,2.887,0,0,1,.178-1.045,2.476,2.476,0,0,1,.47-.785,2.834,2.834,0,0,1,.762-.573,5.931,5.931,0,0,1,.954-.413,11.66,11.66,0,0,1,1.148-.3l1.586-.357a1.721,1.721,0,0,0,.719-.306.607.607,0,0,0,.211-.482,1,1,0,0,0-.474-.93,2.228,2.228,0,0,0-1.152-.281,1.656,1.656,0,0,0-1.888,1.473l-2.393-.432a3.243,3.243,0,0,1,1.4-2.2,5.559,5.559,0,0,1,3.031-.708q4.056,0,4.057,3.484Zm-4.76.977a2.168,2.168,0,0,0,1.669-.7,2.939,2.939,0,0,0,.648-2.07l-2.29.647a2.687,2.687,0,0,0-.963.4.808.808,0,0,0-.334.694.9.9,0,0,0,.358.766A1.471,1.471,0,0,0,1238.728,154.525Z" transform="translate(-1198.14 -141.739)"/>
      <path id="Trazado_48487" data-name="Trazado 48487" d="M1245.046,156.355a5.382,5.382,0,0,1-2.816-.675,2.851,2.851,0,0,1-1.379-2.01l2.264-.638a1.815,1.815,0,0,0,1.932,1.437,1.972,1.972,0,0,0,.986-.222.767.767,0,0,0,.386-.745.791.791,0,0,0-.161-.5,1.243,1.243,0,0,0-.493-.357,6,6,0,0,0-.657-.253c-.215-.07-.5-.152-.858-.25s-.654-.189-.893-.276a5.86,5.86,0,0,1-.848-.362,3.578,3.578,0,0,1-.7-.5,2.018,2.018,0,0,1-.526-.757,2.72,2.72,0,0,1-.183-1.033,2.462,2.462,0,0,1,1.047-2.159,4.684,4.684,0,0,1,2.737-.732,4.788,4.788,0,0,1,2.526.621,2.8,2.8,0,0,1,1.3,1.933l-2.092.47a1.643,1.643,0,0,0-1.72-1.222,1.863,1.863,0,0,0-.947.217.694.694,0,0,0-.376.638.723.723,0,0,0,.056.292.573.573,0,0,0,.2.234,2.992,2.992,0,0,0,.273.178,2.052,2.052,0,0,0,.384.156c.17.052.309.094.422.121l.493.128.5.131c.344.094.645.189.905.281a5.335,5.335,0,0,1,.832.4,3.061,3.061,0,0,1,.727.568,2.518,2.518,0,0,1,.474.8,2.963,2.963,0,0,1,.187,1.073,2.893,2.893,0,0,1-.323,1.4,2.426,2.426,0,0,1-.886.944,4.37,4.37,0,0,1-1.255.507A6.553,6.553,0,0,1,1245.046,156.355Z" transform="translate(-1193.673 -141.739)"/>
    </g>
    <g id="Grupo_21277" data-name="Grupo 21277" transform="translate(1336.363 147.751)">
      <path id="Trazado_48488" data-name="Trazado 48488" d="M1291.243,157.573h-2.807l-.891-10.225-3.437,10.225h-1.819l-3.438-10.225-.9,10.225h-2.816l1.136-13.567h4.019l2.891,8.516,2.929-8.516h4.019Z" transform="translate(-1275.133 -143.143)"/>
      <path id="Trazado_48489" data-name="Trazado 48489" d="M1287.292,146.749a1.518,1.518,0,0,1-1.108-.456,1.494,1.494,0,0,1-.458-1.1,1.474,1.474,0,0,1,.463-1.094,1.527,1.527,0,0,1,1.1-.454,1.5,1.5,0,0,1,1.089.454,1.555,1.555,0,0,1-1.089,2.653Zm-1.379,11.1v-9.652h2.721v9.652Z" transform="translate(-1267.21 -143.415)"/>
      <path id="Trazado_48490" data-name="Trazado 48490" d="M1288.991,157.938v-14.42h2.732v14.42Z" transform="translate(-1264.768 -143.507)"/>
      <path id="Trazado_48491" data-name="Trazado 48491" d="M1292.154,157.943v-9.652h2.722v9.652Zm.535-10.975,2.459-3.456,1.334.939-2.133,2.517Z" transform="translate(-1262.402 -143.512)"/>
      <path id="Trazado_48492" data-name="Trazado 48492" d="M1306.746,146.139a3.686,3.686,0,0,1,2.487.783,2.8,2.8,0,0,1,.912,2.25v6.806h-2.7v-6.037a1.61,1.61,0,0,0-.433-1.22,1.508,1.508,0,0,0-1.089-.414,1.741,1.741,0,0,0-1.314.526,2.394,2.394,0,0,0-.505,1.7v5.447h-2.734v-6.009a1.657,1.657,0,0,0-.432-1.245,1.543,1.543,0,0,0-1.115-.418,1.69,1.69,0,0,0-1.306.554,2.642,2.642,0,0,0-.507,1.813v5.3h-2.694v-9.652h2.694v1.136a3.277,3.277,0,0,1,2.8-1.323,4.112,4.112,0,0,1,1.816.371,2.463,2.463,0,0,1,1.141,1.075A3.415,3.415,0,0,1,1306.746,146.139Z" transform="translate(-1260.04 -141.547)"/>
      <path id="Trazado_48493" data-name="Trazado 48493" d="M1314.71,151.019l-.028.648h-7.154a2.5,2.5,0,0,0,.771,1.765,2.457,2.457,0,0,0,1.7.61,2.37,2.37,0,0,0,1.271-.334,2.034,2.034,0,0,0,.813-.972l2.479.367a4.207,4.207,0,0,1-1.69,2.262,5.019,5.019,0,0,1-2.853.808,5.225,5.225,0,0,1-3.762-1.328,5.558,5.558,0,0,1,.005-7.371,5.073,5.073,0,0,1,3.67-1.346,4.419,4.419,0,0,1,4.779,4.891Zm-4.76-2.975a2.136,2.136,0,0,0-2.347,1.858h4.431a2.022,2.022,0,0,0-.666-1.379A2.108,2.108,0,0,0,1309.951,148.044Z" transform="translate(-1252.898 -141.555)"/>
      <path id="Trazado_48494" data-name="Trazado 48494" d="M1315.8,157.232a2.916,2.916,0,0,1-2.178-.785,3.045,3.045,0,0,1-.769-2.23v-4.562h-1.9V147.58h.612a1.593,1.593,0,0,0,1.2-.4,2.077,2.077,0,0,0,.385-1.437v-1.276h2.44v3.117h1.991v2.075H1315.6v4.272q0,1.248,1.119,1.248h.872v2.057Z" transform="translate(-1248.338 -142.801)"/>
      <path id="Trazado_48495" data-name="Trazado 48495" d="M1318.541,147.825a3.119,3.119,0,0,1,1.266-1.161,3.88,3.88,0,0,1,1.888-.482v2.412a3.663,3.663,0,0,0-2.311.582,2.548,2.548,0,0,0-.713,2.066v4.7h-2.722v-9.652h2.592Z" transform="translate(-1244.606 -141.515)"/>
      <path id="Trazado_48496" data-name="Trazado 48496" d="M1324.945,156.165a6.08,6.08,0,0,1-2.732-.591,4.428,4.428,0,0,1-1.874-1.737,5.172,5.172,0,0,1-.68-2.7,4.717,4.717,0,0,1,1.465-3.66,6.122,6.122,0,0,1,7.651,0,5.325,5.325,0,0,1,0,7.336A5.434,5.434,0,0,1,1324.945,156.165Zm-.028-2.15a2.477,2.477,0,0,0,1.91-.788,3.351,3.351,0,0,0,0-4.169,2.477,2.477,0,0,0-1.91-.788,2.389,2.389,0,0,0-1.856.794,3.367,3.367,0,0,0,0,4.158A2.389,2.389,0,0,0,1324.917,154.015Z" transform="translate(-1241.83 -141.547)"/>
      <path id="Trazado_48497" data-name="Trazado 48497" d="M1330.6,156.165a5.394,5.394,0,0,1-2.818-.676,2.862,2.862,0,0,1-1.379-2.008l2.264-.638a1.817,1.817,0,0,0,1.933,1.435,2,2,0,0,0,.986-.22.771.771,0,0,0,.387-.746.782.782,0,0,0-.161-.5,1.278,1.278,0,0,0-.493-.358,6.415,6.415,0,0,0-.657-.253c-.215-.068-.5-.152-.858-.248s-.653-.189-.893-.276a6.2,6.2,0,0,1-.849-.362,3.688,3.688,0,0,1-.7-.5,2.013,2.013,0,0,1-.526-.755,2.763,2.763,0,0,1-.182-1.033,2.461,2.461,0,0,1,1.047-2.159,4.667,4.667,0,0,1,2.737-.732,4.8,4.8,0,0,1,2.524.619,2.793,2.793,0,0,1,1.3,1.935l-2.092.468a1.64,1.64,0,0,0-1.718-1.22,1.876,1.876,0,0,0-.947.215.7.7,0,0,0-.376.64.739.739,0,0,0,.054.29.58.58,0,0,0,.2.234,2.505,2.505,0,0,0,.273.18,2.091,2.091,0,0,0,.383.154c.17.054.309.094.423.122s.278.07.493.126l.5.133q.514.139.905.281a5.476,5.476,0,0,1,.83.393,2.993,2.993,0,0,1,.727.568,2.537,2.537,0,0,1,.476.8,2.969,2.969,0,0,1,.187,1.075,2.894,2.894,0,0,1-.323,1.4,2.425,2.425,0,0,1-.886.944,4.315,4.315,0,0,1-1.255.507A6.462,6.462,0,0,1,1330.6,156.165Z" transform="translate(-1236.784 -141.547)"/>
    </g>
  </g>
</svg>
