<svg xmlns="http://www.w3.org/2000/svg" viewBox="0 0 645.43 937.74"><defs><style>.cls-1{fill:#1c75bb;}.cls-2{fill:#f0c30f;}.cls-3{fill:#9b3a98;}.cls-4{fill:#fff;}.cls-5{fill:#00a69c;}.cls-6,.cls-7,.cls-8{fill:none;stroke-miterlimit:10;stroke-width:3px;}.cls-6{stroke:#9b3a98;}.cls-7{stroke:#f0c30f;}.cls-8{stroke:#1c75bb;}</style></defs><g id="Capa_2" data-name="Capa 2"><g id="Capa_1-2" data-name="Capa 1"><rect class="cls-1" x="94.16" y="722.14" width="154.43" height="51.48"/><rect class="cls-2" x="292.58" y="558.02" width="154.43" height="51.48"/><rect class="cls-2" x="292.58" y="754.97" width="154.43" height="51.48"/><rect class="cls-2" x="292.58" y="820.62" width="154.43" height="51.48"/><rect class="cls-2" x="292.58" y="886.27" width="154.43" height="51.48"/><rect class="cls-3" x="491" y="558.02" width="154.43" height="51.48"/><rect class="cls-3" x="491" y="623.67" width="154.43" height="51.48"/><rect class="cls-3" x="491" y="689.32" width="154.43" height="51.48"/><rect class="cls-3" x="491" y="754.97" width="154.43" height="51.48"/><rect class="cls-3" x="491" y="820.62" width="154.43" height="51.48"/><rect class="cls-3" x="491" y="491.07" width="154.43" height="51.48"/><rect class="cls-3" x="491" width="154.43" height="51.48"/><rect class="cls-3" x="491" y="65.65" width="154.43" height="51.48"/><rect class="cls-3" x="491" y="131.3" width="154.43" height="51.48"/><rect class="cls-3" x="491" y="196.95" width="154.43" height="51.48"/><rect class="cls-2" x="292.58" y="32.82" width="154.43" height="51.48"/><rect class="cls-1" x="94.16" y="229.77" width="154.43" height="51.48"/><path class="cls-4" d="M118.5,251.09h4.15v1.77h-6.38V241.49h2.23Z"/><path class="cls-4" d="M125.15,241.27h2.33l0,0-1.94,2h-1.79Zm.86,11.59h-2.22v-8.45H126Z"/><path class="cls-4" d="M129.66,244.41l.09,1.16a2.84,2.84,0,0,1,.87-1,2.06,2.06,0,0,1,2.79.46,4.37,4.37,0,0,1,.6,2.56v5.24h-2.22v-5.25a2.31,2.31,0,0,0-.25-1.23.86.86,0,0,0-.76-.36,1.07,1.07,0,0,0-.55.16,1.33,1.33,0,0,0-.42.43v6.25h-2.22v-8.45Z"/><path class="cls-4" d="M138.69,253a3.22,3.22,0,0,1-2.53-1,3.84,3.84,0,0,1-.94-2.64v-1.19a4.39,4.39,0,0,1,.87-2.81,3,3,0,0,1,2.41-1.09,2.81,2.81,0,0,1,2.3,1,4.17,4.17,0,0,1,.81,2.71v1.36h-4.18v0a2.36,2.36,0,0,0,.38,1.37,1.32,1.32,0,0,0,1.15.54,3.15,3.15,0,0,0,1-.14,5.06,5.06,0,0,0,.93-.47l.57,1.42a3.49,3.49,0,0,1-1.17.69A4.61,4.61,0,0,1,138.69,253Zm-.19-7a.84.84,0,0,0-.78.49,3.27,3.27,0,0,0-.28,1.31h2v-.31a2.36,2.36,0,0,0-.21-1.1A.77.77,0,0,0,138.5,246Z"/><path class="cls-4" d="M146.85,252.86a4.05,4.05,0,0,1-.17-.46,3.1,3.1,0,0,1-.11-.51,2.65,2.65,0,0,1-.76.83,1.85,1.85,0,0,1-1.05.3,2.17,2.17,0,0,1-1.67-.68,2.62,2.62,0,0,1-.63-1.84,2.39,2.39,0,0,1,.8-1.93,3.56,3.56,0,0,1,2.38-.69h.83v-.68a1.69,1.69,0,0,0-.22-.95.75.75,0,0,0-.67-.33.63.63,0,0,0-.56.26,1.39,1.39,0,0,0-.19.77h-2.15l0,0a2.33,2.33,0,0,1,.82-1.88,3.25,3.25,0,0,1,2.25-.77,3,3,0,0,1,2.15.77,2.84,2.84,0,0,1,.82,2.19v3.42a7.13,7.13,0,0,0,.09,1.17,5.66,5.66,0,0,0,.26,1.06Zm-1.45-1.51a1.12,1.12,0,0,0,.62-.18,1.32,1.32,0,0,0,.45-.46v-1.55h-.83a.8.8,0,0,0-.74.35,1.61,1.61,0,0,0-.22.89,1.15,1.15,0,0,0,.19.69A.64.64,0,0,0,145.4,251.35Z"/><path class="cls-4" d="M153.32,248.68a6.15,6.15,0,0,1,.73-3.21,2.3,2.3,0,0,1,2.07-1.22,1.67,1.67,0,0,1,.89.24,2.15,2.15,0,0,1,.71.67v-4.49h2.22v12.19H158l-.15-.92a2.48,2.48,0,0,1-.76.81,1.84,1.84,0,0,1-1,.27,2.3,2.3,0,0,1-2.06-1.14,5.54,5.54,0,0,1-.73-3Zm2.22.17a4.72,4.72,0,0,0,.26,1.77.9.9,0,0,0,.88.63,1.13,1.13,0,0,0,.61-.16,1.31,1.31,0,0,0,.43-.47v-3.85a1.53,1.53,0,0,0-.43-.55,1,1,0,0,0-.59-.2,1,1,0,0,0-.89.73,5.7,5.7,0,0,0-.27,1.93Z"/><path class="cls-4" d="M164.68,253a3.2,3.2,0,0,1-2.53-1,3.79,3.79,0,0,1-.94-2.64v-1.19a4.39,4.39,0,0,1,.87-2.81,2.93,2.93,0,0,1,2.41-1.09,2.82,2.82,0,0,1,2.3,1,4.17,4.17,0,0,1,.81,2.71v1.36h-4.18v0a2.28,2.28,0,0,0,.38,1.37,1.29,1.29,0,0,0,1.14.54,3.17,3.17,0,0,0,1-.14,5.06,5.06,0,0,0,.93-.47l.56,1.42a3.3,3.3,0,0,1-1.17.69A4.59,4.59,0,0,1,164.68,253Zm-.19-7a.82.82,0,0,0-.78.49,3.11,3.11,0,0,0-.28,1.31h2v-.31a2.23,2.23,0,0,0-.22-1.1A.75.75,0,0,0,164.49,246Z"/><path class="cls-4" d="M178.85,249.28a4.59,4.59,0,0,1-.74,2.72,2.38,2.38,0,0,1-2.05,1,2,2,0,0,1-.92-.2,2.05,2.05,0,0,1-.7-.62v3.91h-2.22v-11.7h2.06l.08.83a2.28,2.28,0,0,1,.72-.73,1.82,1.82,0,0,1,1-.26,2.36,2.36,0,0,1,2.07,1.1,5.09,5.09,0,0,1,.74,2.89Zm-2.22-1a3.85,3.85,0,0,0-.28-1.61.94.94,0,0,0-.88-.61,1,1,0,0,0-.61.18,1.23,1.23,0,0,0-.42.5v4a1,1,0,0,0,.41.42,1.32,1.32,0,0,0,.62.14.93.93,0,0,0,.89-.52,3.23,3.23,0,0,0,.27-1.45Z"/><path class="cls-4" d="M184,246.43l-.84,0a.91.91,0,0,0-.58.17,1.09,1.09,0,0,0-.35.48v5.8H180v-8.45h2.07l.08,1.13,0,0a2.36,2.36,0,0,1,.57-1,1.19,1.19,0,0,1,.85-.35l.31,0,.3.06Z"/><path class="cls-4" d="M184.69,248.12a4.21,4.21,0,0,1,.9-2.79,3.5,3.5,0,0,1,5.06,0,4.16,4.16,0,0,1,.91,2.79v1a4.12,4.12,0,0,1-.91,2.78,3.09,3.09,0,0,1-2.52,1.07,3.13,3.13,0,0,1-2.54-1.07,4.17,4.17,0,0,1-.9-2.78Zm2.21,1a3.45,3.45,0,0,0,.28,1.54,1,1,0,0,0,.95.55,1,1,0,0,0,.93-.56,3.4,3.4,0,0,0,.28-1.53v-1a3.44,3.44,0,0,0-.28-1.52,1.06,1.06,0,0,0-1.88,0,3.54,3.54,0,0,0-.28,1.51Z"/><path class="cls-4" d="M192.43,248.68a6.15,6.15,0,0,1,.74-3.21,2.3,2.3,0,0,1,2.07-1.22,1.7,1.7,0,0,1,.89.24,2.24,2.24,0,0,1,.71.67v-4.49h2.22v12.19h-1.93l-.15-.92a2.59,2.59,0,0,1-.76.81,1.84,1.84,0,0,1-1,.27,2.33,2.33,0,0,1-2.07-1.14,5.63,5.63,0,0,1-.73-3Zm2.22.17a4.94,4.94,0,0,0,.26,1.77.91.91,0,0,0,.89.63,1.08,1.08,0,0,0,.6-.16,1.33,1.33,0,0,0,.44-.47v-3.85a1.55,1.55,0,0,0-.44-.55.93.93,0,0,0-.58-.2,1,1,0,0,0-.89.73,5.43,5.43,0,0,0-.28,1.93Z"/><path class="cls-4" d="M204.79,251.88a2.42,2.42,0,0,1-.83.85,2,2,0,0,1-1.1.29,2.07,2.07,0,0,1-1.77-.85,4.42,4.42,0,0,1-.64-2.65v-5.11h2.22v5.13a2.81,2.81,0,0,0,.22,1.3.68.68,0,0,0,.65.41,1.31,1.31,0,0,0,.64-.14,1.28,1.28,0,0,0,.47-.4v-6.3h2.23v8.45h-1.95Z"/><path class="cls-4" d="M211.36,251.25a.79.79,0,0,0,.69-.33,1.76,1.76,0,0,0,.23-1h2l0,0a2.9,2.9,0,0,1-.82,2.18,2.86,2.86,0,0,1-2.14.85,3.07,3.07,0,0,1-2.52-1.07,4.22,4.22,0,0,1-.87-2.76V248.1a4.29,4.29,0,0,1,.87-2.77,3,3,0,0,1,2.51-1.08,2.8,2.8,0,0,1,2.18.88,3.35,3.35,0,0,1,.79,2.39l0,0h-2a2.36,2.36,0,0,0-.23-1.12.78.78,0,0,0-.7-.42.93.93,0,0,0-.92.57,3.89,3.89,0,0,0-.25,1.51v1.09a3.82,3.82,0,0,0,.25,1.51A.93.93,0,0,0,211.36,251.25Z"/><path class="cls-4" d="M218,242.31v2.1h1.17V246H218v4.24a1.39,1.39,0,0,0,.15.74.45.45,0,0,0,.4.22l.35,0a1.48,1.48,0,0,0,.31-.07l.17,1.69a4.62,4.62,0,0,1-.67.16,5.35,5.35,0,0,1-.73,0,2,2,0,0,1-1.63-.66,3.16,3.16,0,0,1-.57-2.09V246h-1v-1.61h1v-2.1Z"/><path class="cls-4" d="M220,248.12a4.21,4.21,0,0,1,.9-2.79,3.5,3.5,0,0,1,5.06,0,4.22,4.22,0,0,1,.91,2.79v1A4.17,4.17,0,0,1,226,252a3.53,3.53,0,0,1-5.06,0,4.17,4.17,0,0,1-.9-2.78Zm2.21,1a3.6,3.6,0,0,0,.27,1.54,1.08,1.08,0,0,0,1.89,0,3.54,3.54,0,0,0,.28-1.53v-1a3.59,3.59,0,0,0-.28-1.52,1,1,0,0,0-.94-.57,1,1,0,0,0-.94.58,3.39,3.39,0,0,0-.28,1.51Z"/><path class="cls-4" d="M111.05,266.65a.84.84,0,0,0-.28-.62,4.79,4.79,0,0,0-1.08-.65,5.52,5.52,0,0,1-1.91-1.07,2.07,2.07,0,0,1-.64-1.57A2.28,2.28,0,0,1,108,261a3.09,3.09,0,0,1,2.16-.73,3.23,3.23,0,0,1,2.24.75,2.33,2.33,0,0,1,.8,1.92l0,0H111a1.42,1.42,0,0,0-.22-.84.75.75,0,0,0-.67-.31.85.85,0,0,0-.61.24.76.76,0,0,0-.25.58.78.78,0,0,0,.25.61,5.48,5.48,0,0,0,1.09.63,5.37,5.37,0,0,1,2,1.07,2.21,2.21,0,0,1,.64,1.63,2.18,2.18,0,0,1-.86,1.77,3.58,3.58,0,0,1-2.26.68,3.1,3.1,0,0,1-2.31-.85,2.53,2.53,0,0,1-.82-1.92l0-.05h2a1.37,1.37,0,0,0,.31,1,1.1,1.1,0,0,0,.82.3.93.93,0,0,0,.68-.22A.77.77,0,0,0,111.05,266.65Z"/><path class="cls-4" d="M117.59,269a3.22,3.22,0,0,1-2.53-1,3.84,3.84,0,0,1-.93-2.64v-1.19a4.39,4.39,0,0,1,.87-2.81,2.93,2.93,0,0,1,2.41-1.09,2.79,2.79,0,0,1,2.29,1,4.12,4.12,0,0,1,.82,2.71v1.36h-4.18v0a2.28,2.28,0,0,0,.38,1.37,1.29,1.29,0,0,0,1.14.54,3.21,3.21,0,0,0,1-.14,5.06,5.06,0,0,0,.93-.47l.56,1.42a3.3,3.3,0,0,1-1.17.69A4.61,4.61,0,0,1,117.59,269Zm-.18-7a.82.82,0,0,0-.78.49,3.1,3.1,0,0,0-.29,1.31h2v-.31a2.35,2.35,0,0,0-.22-1.1A.75.75,0,0,0,117.41,262Z"/><path class="cls-4" d="M121.34,264.24a5.14,5.14,0,0,1,.73-2.89,2.39,2.39,0,0,1,2.09-1.1,1.77,1.77,0,0,1,1,.29,2.45,2.45,0,0,1,.75.81l.14-.94H128v8.29a3.5,3.5,0,0,1-1,2.62,3.56,3.56,0,0,1-2.64.95,4.12,4.12,0,0,1-1.16-.17,5.65,5.65,0,0,1-1.15-.47l.39-1.71a4.28,4.28,0,0,0,.9.37,4,4,0,0,0,1,.13,1.27,1.27,0,0,0,1.06-.45,2,2,0,0,0,.35-1.28v-.49a2.18,2.18,0,0,1-.71.62,1.92,1.92,0,0,1-.9.2,2.4,2.4,0,0,1-2.07-1,4.58,4.58,0,0,1-.73-2.72Zm2.22,1.05a3.2,3.2,0,0,0,.26,1.44.92.92,0,0,0,.89.52,1.34,1.34,0,0,0,.61-.14,1.12,1.12,0,0,0,.43-.41v-4a1.37,1.37,0,0,0-.43-.49,1,1,0,0,0-.59-.17.92.92,0,0,0-.9.61,4,4,0,0,0-.27,1.61Z"/><path class="cls-4" d="M133.69,267.88a2.51,2.51,0,0,1-.83.85,2.27,2.27,0,0,1-2.88-.56,4.5,4.5,0,0,1-.64-2.65v-5.11h2.22v5.13a3,3,0,0,0,.22,1.3.69.69,0,0,0,.65.41,1.29,1.29,0,0,0,.64-.14,1.23,1.23,0,0,0,.48-.4v-6.3h2.22v8.45h-2Zm-.91-10.61h2.34l0,.05-1.94,2h-1.79Z"/><path class="cls-4" d="M139.2,260.41l.1,1.16a2.72,2.72,0,0,1,.86-1,2,2,0,0,1,1.13-.35,2,2,0,0,1,1.66.81,4.37,4.37,0,0,1,.61,2.56v5.24h-2.23v-5.25a2.22,2.22,0,0,0-.25-1.23.86.86,0,0,0-.76-.36,1.07,1.07,0,0,0-.55.16,1.57,1.57,0,0,0-.42.43v6.25h-2.22v-8.45Z"/><path class="cls-4" d="M151.74,269a3.22,3.22,0,0,1-2.53-1,3.84,3.84,0,0,1-.94-2.64v-1.19a4.33,4.33,0,0,1,.88-2.81,2.93,2.93,0,0,1,2.41-1.09,2.8,2.8,0,0,1,2.29,1,4.17,4.17,0,0,1,.81,2.71v1.36h-4.17v0a2.35,2.35,0,0,0,.37,1.37,1.32,1.32,0,0,0,1.15.54,3.1,3.1,0,0,0,1-.14,5.06,5.06,0,0,0,.93-.47l.57,1.42a3.39,3.39,0,0,1-1.17.69A4.61,4.61,0,0,1,151.74,269Zm-.18-7a.84.84,0,0,0-.79.49,3.27,3.27,0,0,0-.28,1.31h2v-.31a2.35,2.35,0,0,0-.22-1.1A.76.76,0,0,0,151.56,262Z"/><path class="cls-4" d="M158.1,268.86h-2.22V256.67h2.22Z"/><path class="cls-4" d="M166.24,267.25a.8.8,0,0,0,.69-.33,1.76,1.76,0,0,0,.23-1h2l0,0a2.9,2.9,0,0,1-.82,2.18,2.86,2.86,0,0,1-2.14.85,3.07,3.07,0,0,1-2.52-1.07,4.23,4.23,0,0,1-.88-2.76V264.1a4.29,4.29,0,0,1,.88-2.77,3,3,0,0,1,2.51-1.08,2.81,2.81,0,0,1,2.18.88,3.35,3.35,0,0,1,.79,2.39l0,0h-2a2.36,2.36,0,0,0-.23-1.12.78.78,0,0,0-.7-.42.92.92,0,0,0-.92.57,3.89,3.89,0,0,0-.25,1.51v1.09a3.82,3.82,0,0,0,.25,1.51A.93.93,0,0,0,166.24,267.25Z"/><path class="cls-4" d="M170,264.12a4.21,4.21,0,0,1,.9-2.79,3.5,3.5,0,0,1,5.06,0,4.16,4.16,0,0,1,.91,2.79v1.05A4.12,4.12,0,0,1,176,268a3.53,3.53,0,0,1-5.06,0,4.17,4.17,0,0,1-.9-2.78Zm2.21,1a3.45,3.45,0,0,0,.28,1.54,1,1,0,0,0,.95.55,1,1,0,0,0,.93-.56,3.4,3.4,0,0,0,.28-1.53v-1.05a3.44,3.44,0,0,0-.28-1.52,1.06,1.06,0,0,0-1.88,0,3.39,3.39,0,0,0-.28,1.51Z"/><path class="cls-4" d="M180.07,260.41l.09,1.16a2.84,2.84,0,0,1,.87-1,2.06,2.06,0,0,1,2.79.46,4.37,4.37,0,0,1,.6,2.56v5.24H182.2v-5.25a2.31,2.31,0,0,0-.25-1.23.86.86,0,0,0-.76-.36,1.07,1.07,0,0,0-.55.16,1.33,1.33,0,0,0-.42.43v6.25H178v-8.45Z"/><path class="cls-4" d="M189.49,266.65a.8.8,0,0,0-.28-.62,4.79,4.79,0,0,0-1.08-.65,5.62,5.62,0,0,1-1.91-1.07,2.09,2.09,0,0,1-.63-1.57,2.3,2.3,0,0,1,.81-1.76,3.12,3.12,0,0,1,2.16-.73,3.25,3.25,0,0,1,2.25.75,2.39,2.39,0,0,1,.8,1.92l0,0h-2.14a1.49,1.49,0,0,0-.22-.84.76.76,0,0,0-.67-.31.84.84,0,0,0-.61.24.76.76,0,0,0-.25.58.78.78,0,0,0,.25.61,5,5,0,0,0,1.08.63,5.29,5.29,0,0,1,2,1.07,2.32,2.32,0,0,1-.22,3.4,3.54,3.54,0,0,1-2.26.68,3.12,3.12,0,0,1-2.31-.85,2.48,2.48,0,0,1-.81-1.92v-.05h2a1.37,1.37,0,0,0,.31,1,1.1,1.1,0,0,0,.82.3.94.94,0,0,0,.68-.22A.8.8,0,0,0,189.49,266.65Z"/><path class="cls-4" d="M197,267.88a2.51,2.51,0,0,1-.83.85,2.27,2.27,0,0,1-2.88-.56,4.5,4.5,0,0,1-.63-2.65v-5.11h2.21v5.13a3,3,0,0,0,.22,1.3.7.7,0,0,0,.65.41,1.35,1.35,0,0,0,.65-.14,1.28,1.28,0,0,0,.47-.4v-6.3h2.23v8.45h-2Z"/><path class="cls-4" d="M202.6,260.41l.09,1.08a2.5,2.5,0,0,1,.84-.92,2.18,2.18,0,0,1,1.17-.32,1.83,1.83,0,0,1,1.11.34,2.11,2.11,0,0,1,.73,1,2.68,2.68,0,0,1,.84-1,2.08,2.08,0,0,1,1.21-.36,1.92,1.92,0,0,1,1.65.86,4.68,4.68,0,0,1,.6,2.64v5.11h-2.22v-5.11a3,3,0,0,0-.21-1.35.71.71,0,0,0-.66-.38,1,1,0,0,0-.57.19,1.44,1.44,0,0,0-.41.52c0,.1,0,.19,0,.29s0,.2,0,.3v5.54h-2.21v-5.11a2.86,2.86,0,0,0-.22-1.35.71.71,0,0,0-.66-.38,1,1,0,0,0-.55.16,1.37,1.37,0,0,0-.41.42v6.26h-2.21v-8.45Z"/><path class="cls-4" d="M214.62,258.37H212.4v-1.7h2.22Zm0,10.49H212.4v-8.45h2.22Z"/><path class="cls-4" d="M215.87,264.68a6.15,6.15,0,0,1,.73-3.21,2.3,2.3,0,0,1,2.07-1.22,1.67,1.67,0,0,1,.89.24,2.15,2.15,0,0,1,.71.67v-4.49h2.22v12.19h-1.93l-.15-.92a2.48,2.48,0,0,1-.76.81,1.84,1.84,0,0,1-1,.27,2.31,2.31,0,0,1-2.06-1.14,5.54,5.54,0,0,1-.73-3Zm2.22.17a4.72,4.72,0,0,0,.26,1.77.9.9,0,0,0,.89.63,1.12,1.12,0,0,0,.6-.16,1.31,1.31,0,0,0,.43-.47v-3.85a1.53,1.53,0,0,0-.43-.55,1,1,0,0,0-.59-.2,1,1,0,0,0-.89.73,5.7,5.7,0,0,0-.27,1.93Z"/><path class="cls-4" d="M223.67,264.12a4.21,4.21,0,0,1,.9-2.79,3.5,3.5,0,0,1,5.06,0,4.16,4.16,0,0,1,.91,2.79v1.05a4.12,4.12,0,0,1-.91,2.78,3.09,3.09,0,0,1-2.52,1.07,3.13,3.13,0,0,1-2.54-1.07,4.17,4.17,0,0,1-.9-2.78Zm2.21,1a3.45,3.45,0,0,0,.28,1.54,1,1,0,0,0,1,.55,1,1,0,0,0,.93-.56,3.4,3.4,0,0,0,.28-1.53v-1.05a3.44,3.44,0,0,0-.28-1.52,1.06,1.06,0,0,0-1.88,0,3.54,3.54,0,0,0-.28,1.51Z"/><path class="cls-4" d="M235.7,262.43l-.83,0a.89.89,0,0,0-.58.17,1,1,0,0,0-.36.48v5.8h-2.22v-8.45h2.07l.09,1.13,0,0a2.24,2.24,0,0,1,.56-1,1.22,1.22,0,0,1,.85-.35l.32,0,.29.06Z"/><path class="cls-4" d="M109.19,743.46h4.16v1.77H107V733.86h2.22Z"/><path class="cls-4" d="M115.84,733.64h2.34l0,.05-2,2h-1.78Zm.87,11.59h-2.23v-8.45h2.23Z"/><path class="cls-4" d="M120.36,736.78l.09,1.16a2.72,2.72,0,0,1,.86-1,2,2,0,0,1,1.13-.35,2,2,0,0,1,1.66.81,4.29,4.29,0,0,1,.61,2.56v5.24h-2.23V740a2.32,2.32,0,0,0-.24-1.23.87.87,0,0,0-.77-.36,1,1,0,0,0-.54.16,1.47,1.47,0,0,0-.43.43v6.25h-2.21v-8.45Z"/><path class="cls-4" d="M129.39,745.39a3.2,3.2,0,0,1-2.53-1,3.79,3.79,0,0,1-.94-2.64v-1.19a4.39,4.39,0,0,1,.87-2.81,2.93,2.93,0,0,1,2.41-1.09,2.82,2.82,0,0,1,2.3,1,4.17,4.17,0,0,1,.81,2.71v1.36h-4.18v0a2.36,2.36,0,0,0,.38,1.37,1.29,1.29,0,0,0,1.14.54,3.17,3.17,0,0,0,1-.14,5.06,5.06,0,0,0,.93-.47l.56,1.42a3.3,3.3,0,0,1-1.17.69A4.55,4.55,0,0,1,129.39,745.39Zm-.19-7a.84.84,0,0,0-.78.49,3.11,3.11,0,0,0-.28,1.31h2v-.31a2.23,2.23,0,0,0-.22-1.1A.74.74,0,0,0,129.2,738.39Z"/><path class="cls-4" d="M137.54,745.23a4.09,4.09,0,0,1-.16-.46,4.7,4.7,0,0,1-.12-.51,2.65,2.65,0,0,1-.76.83,1.84,1.84,0,0,1-1,.3,2.16,2.16,0,0,1-1.68-.68,2.62,2.62,0,0,1-.63-1.84,2.42,2.42,0,0,1,.8-1.93,3.58,3.58,0,0,1,2.38-.69h.84v-.68a1.78,1.78,0,0,0-.22-1,.77.77,0,0,0-.67-.33.62.62,0,0,0-.56.26,1.31,1.31,0,0,0-.19.77h-2.15l0-.05a2.32,2.32,0,0,1,.81-1.88,3.26,3.26,0,0,1,2.26-.77,3,3,0,0,1,2.14.77,2.84,2.84,0,0,1,.83,2.19V743a7.17,7.17,0,0,0,.08,1.17,6.59,6.59,0,0,0,.27,1.06Zm-1.44-1.51a1.15,1.15,0,0,0,.62-.18,1.32,1.32,0,0,0,.45-.46v-1.55h-.84a.79.79,0,0,0-.73.35,1.61,1.61,0,0,0-.23.89,1.15,1.15,0,0,0,.2.69A.63.63,0,0,0,136.1,743.72Z"/><path class="cls-4" d="M144,741.05a6.15,6.15,0,0,1,.74-3.21,2.3,2.3,0,0,1,2.07-1.22,1.7,1.7,0,0,1,.89.24,2.35,2.35,0,0,1,.71.67V733h2.22v12.19h-1.93l-.15-.92a2.59,2.59,0,0,1-.76.81,1.84,1.84,0,0,1-1,.27,2.33,2.33,0,0,1-2.07-1.14,5.63,5.63,0,0,1-.73-3Zm2.22.17a4.94,4.94,0,0,0,.26,1.77.91.91,0,0,0,.89.63,1.08,1.08,0,0,0,.6-.16,1.33,1.33,0,0,0,.44-.47v-3.85a1.55,1.55,0,0,0-.44-.55.93.93,0,0,0-1.48.53,5.7,5.7,0,0,0-.27,1.93Z"/><path class="cls-4" d="M155.37,745.39a3.22,3.22,0,0,1-2.53-1,3.84,3.84,0,0,1-.94-2.64v-1.19a4.39,4.39,0,0,1,.87-2.81,3,3,0,0,1,2.41-1.09,2.81,2.81,0,0,1,2.3,1,4.17,4.17,0,0,1,.81,2.71v1.36h-4.18v0a2.36,2.36,0,0,0,.38,1.37,1.32,1.32,0,0,0,1.15.54,3.15,3.15,0,0,0,1-.14,5.06,5.06,0,0,0,.93-.47l.57,1.42a3.49,3.49,0,0,1-1.17.69A4.65,4.65,0,0,1,155.37,745.39Zm-.19-7a.84.84,0,0,0-.78.49,3.27,3.27,0,0,0-.28,1.31h2v-.31a2.36,2.36,0,0,0-.21-1.1A.77.77,0,0,0,155.18,738.39Z"/><path class="cls-4" d="M169.54,741.65a4.58,4.58,0,0,1-.73,2.72,2.4,2.4,0,0,1-2.06,1,1.93,1.93,0,0,1-.91-.2,2.05,2.05,0,0,1-.7-.62v3.91h-2.22v-11.7H165l.08.83a2.39,2.39,0,0,1,.72-.73,1.83,1.83,0,0,1,1-.26,2.36,2.36,0,0,1,2.07,1.1,5.12,5.12,0,0,1,.73,2.89Zm-2.22-1A3.85,3.85,0,0,0,167,739a.93.93,0,0,0-.88-.61,1,1,0,0,0-.61.18,1.21,1.21,0,0,0-.41.5v4a1,1,0,0,0,.41.42,1.29,1.29,0,0,0,.62.14.93.93,0,0,0,.89-.52,3.24,3.24,0,0,0,.26-1.45Z"/><path class="cls-4" d="M174.68,738.8l-.83,0a1,1,0,0,0-.58.17,1,1,0,0,0-.36.48v5.8h-2.22v-8.45h2.07l.09,1.13,0,0a2.24,2.24,0,0,1,.56-1,1.22,1.22,0,0,1,.85-.35l.32,0,.29.06Z"/><path class="cls-4" d="M175.39,740.49a4.21,4.21,0,0,1,.9-2.79,3.5,3.5,0,0,1,5.06,0,4.21,4.21,0,0,1,.9,2.79v1a4.17,4.17,0,0,1-.9,2.78,3.53,3.53,0,0,1-5.06,0,4.17,4.17,0,0,1-.9-2.78Zm2.21,1a3.6,3.6,0,0,0,.27,1.54,1,1,0,0,0,.95.55,1,1,0,0,0,.94-.56,3.54,3.54,0,0,0,.28-1.53v-1a3.59,3.59,0,0,0-.28-1.52,1,1,0,0,0-.94-.57,1,1,0,0,0-.94.58,3.39,3.39,0,0,0-.28,1.51Z"/><path class="cls-4" d="M183.13,741.05a6.15,6.15,0,0,1,.73-3.21,2.3,2.3,0,0,1,2.07-1.22,1.67,1.67,0,0,1,.89.24,2.27,2.27,0,0,1,.72.67V733h2.21v12.19h-1.93l-.14-.92a2.61,2.61,0,0,1-.77.81,1.78,1.78,0,0,1-1,.27,2.33,2.33,0,0,1-2.07-1.14,5.54,5.54,0,0,1-.73-3Zm2.22.17a4.94,4.94,0,0,0,.26,1.77.9.9,0,0,0,.89.63,1.08,1.08,0,0,0,.6-.16,1.33,1.33,0,0,0,.44-.47v-3.85a1.55,1.55,0,0,0-.44-.55.93.93,0,0,0-1.48.53,5.7,5.7,0,0,0-.27,1.93Z"/><path class="cls-4" d="M195.49,744.25a2.51,2.51,0,0,1-.83.85,2.27,2.27,0,0,1-2.88-.56,4.48,4.48,0,0,1-.63-2.65v-5.11h2.21v5.13a3,3,0,0,0,.22,1.3.69.69,0,0,0,.65.41,1.35,1.35,0,0,0,.65-.14,1.28,1.28,0,0,0,.47-.4v-6.3h2.22v8.45h-1.95Z"/><path class="cls-4" d="M202.06,743.62a.77.77,0,0,0,.68-.33,1.68,1.68,0,0,0,.23-1h2l0,0a2.85,2.85,0,0,1-2.95,3,3.07,3.07,0,0,1-2.52-1.07,4.17,4.17,0,0,1-.88-2.76v-1.09a4.24,4.24,0,0,1,.88-2.77,3,3,0,0,1,2.5-1.08,2.85,2.85,0,0,1,2.19.88,3.31,3.31,0,0,1,.78,2.39v0h-2a2.25,2.25,0,0,0-.23-1.12.76.76,0,0,0-.7-.42.91.91,0,0,0-.91.57,3.71,3.71,0,0,0-.25,1.51v1.09a3.65,3.65,0,0,0,.25,1.51A.93.93,0,0,0,202.06,743.62Z"/><path class="cls-4" d="M208.72,734.68v2.1h1.18v1.61h-1.18v4.24a1.39,1.39,0,0,0,.15.74.47.47,0,0,0,.41.22l.34,0a1.25,1.25,0,0,0,.31-.07l.18,1.69a4.74,4.74,0,0,1-.68.16,5.2,5.2,0,0,1-.72,0,2,2,0,0,1-1.64-.66,3.16,3.16,0,0,1-.57-2.09v-4.25h-1v-1.61h1v-2.1Z"/><path class="cls-4" d="M210.72,740.49a4.16,4.16,0,0,1,.91-2.79,3.49,3.49,0,0,1,5.05,0,4.16,4.16,0,0,1,.91,2.79v1a4.12,4.12,0,0,1-.91,2.78,3.51,3.51,0,0,1-5.05,0,4.12,4.12,0,0,1-.91-2.78Zm2.21,1a3.59,3.59,0,0,0,.28,1.54,1,1,0,0,0,.95.55,1,1,0,0,0,.93-.56,3.4,3.4,0,0,0,.28-1.53v-1a3.44,3.44,0,0,0-.28-1.52,1,1,0,0,0-.94-.57,1,1,0,0,0-.94.58,3.54,3.54,0,0,0-.28,1.51Z"/><path class="cls-4" d="M222,741.05a6.15,6.15,0,0,1,.74-3.21,2.3,2.3,0,0,1,2.07-1.22,1.7,1.7,0,0,1,.89.24,2.35,2.35,0,0,1,.71.67V733h2.22v12.19h-1.93l-.15-.92a2.59,2.59,0,0,1-.76.81,1.84,1.84,0,0,1-1,.27,2.33,2.33,0,0,1-2.07-1.14,5.63,5.63,0,0,1-.73-3Zm2.22.17a4.94,4.94,0,0,0,.26,1.77.91.91,0,0,0,.89.63,1.08,1.08,0,0,0,.6-.16,1.33,1.33,0,0,0,.44-.47v-3.85a1.55,1.55,0,0,0-.44-.55,1,1,0,0,0-.58-.2.94.94,0,0,0-.89.73,5.43,5.43,0,0,0-.28,1.93Z"/><path class="cls-4" d="M233.33,745.39a3.22,3.22,0,0,1-2.53-1,3.84,3.84,0,0,1-.94-2.64v-1.19a4.33,4.33,0,0,1,.88-2.81,2.93,2.93,0,0,1,2.41-1.09,2.8,2.8,0,0,1,2.29,1,4.17,4.17,0,0,1,.81,2.71v1.36h-4.18v0a2.36,2.36,0,0,0,.38,1.37,1.32,1.32,0,0,0,1.15.54,3.1,3.1,0,0,0,1-.14,5.06,5.06,0,0,0,.93-.47l.57,1.42a3.39,3.39,0,0,1-1.17.69A4.61,4.61,0,0,1,233.33,745.39Zm-.18-7a.84.84,0,0,0-.79.49,3.27,3.27,0,0,0-.28,1.31h2v-.31a2.36,2.36,0,0,0-.21-1.1A.76.76,0,0,0,233.15,738.39Z"/><path class="cls-4" d="M130.79,761.23a4.09,4.09,0,0,1-.16-.46,4.7,4.7,0,0,1-.12-.51,2.65,2.65,0,0,1-.76.83,1.84,1.84,0,0,1-1,.3,2.16,2.16,0,0,1-1.68-.68,2.62,2.62,0,0,1-.63-1.84,2.42,2.42,0,0,1,.8-1.93,3.58,3.58,0,0,1,2.38-.69h.84v-.68a1.78,1.78,0,0,0-.22-1,.77.77,0,0,0-.67-.33.62.62,0,0,0-.56.26,1.31,1.31,0,0,0-.19.77h-2.15l0-.05a2.32,2.32,0,0,1,.81-1.88,3.26,3.26,0,0,1,2.26-.77,3,3,0,0,1,2.14.77,2.84,2.84,0,0,1,.83,2.19V759a7.17,7.17,0,0,0,.08,1.17,6.59,6.59,0,0,0,.27,1.06Zm-1.44-1.51a1.15,1.15,0,0,0,.62-.18,1.32,1.32,0,0,0,.45-.46v-1.55h-.84a.79.79,0,0,0-.73.35,1.61,1.61,0,0,0-.23.89,1.15,1.15,0,0,0,.2.69A.63.63,0,0,0,129.35,759.72Z"/><path class="cls-4" d="M137.14,759.62a.77.77,0,0,0,.68-.33,1.76,1.76,0,0,0,.23-1h2l0,0a2.86,2.86,0,0,1-3,3,3,3,0,0,1-2.52-1.07,4.17,4.17,0,0,1-.88-2.76v-1.09a4.29,4.29,0,0,1,.87-2.77,3.05,3.05,0,0,1,2.51-1.08,2.85,2.85,0,0,1,2.19.88,3.35,3.35,0,0,1,.78,2.39l0,0h-2a2.36,2.36,0,0,0-.23-1.12.77.77,0,0,0-.7-.42.9.9,0,0,0-.91.57,3.71,3.71,0,0,0-.25,1.51v1.09a3.65,3.65,0,0,0,.25,1.51A.91.91,0,0,0,137.14,759.62Z"/><path class="cls-4" d="M145.45,760.25a2.51,2.51,0,0,1-.83.85,2.27,2.27,0,0,1-2.88-.56,4.48,4.48,0,0,1-.63-2.65v-5.11h2.21v5.13a3,3,0,0,0,.22,1.3.7.7,0,0,0,.65.41,1.35,1.35,0,0,0,.65-.14,1.28,1.28,0,0,0,.47-.4v-6.3h2.23v8.45h-2Z"/><path class="cls-4" d="M152.22,761.39a3.22,3.22,0,0,1-2.53-1,3.84,3.84,0,0,1-.94-2.64v-1.19a4.33,4.33,0,0,1,.88-2.81,2.93,2.93,0,0,1,2.41-1.09,2.79,2.79,0,0,1,2.29,1,4.17,4.17,0,0,1,.82,2.71v1.36H151v0a2.35,2.35,0,0,0,.37,1.37,1.32,1.32,0,0,0,1.15.54,3.1,3.1,0,0,0,1-.14,4.76,4.76,0,0,0,.93-.47l.57,1.42a3.39,3.39,0,0,1-1.17.69A4.61,4.61,0,0,1,152.22,761.39Zm-.18-7a.84.84,0,0,0-.79.49,3.27,3.27,0,0,0-.28,1.31h2v-.31a2.35,2.35,0,0,0-.22-1.1A.76.76,0,0,0,152,754.39Z"/><path class="cls-4" d="M160.25,754.8l-.83,0a1,1,0,0,0-.58.17,1,1,0,0,0-.36.48v5.8h-2.22v-8.45h2.07l.09,1.13,0,0a2.24,2.24,0,0,1,.56-1,1.22,1.22,0,0,1,.85-.35l.32,0,.29.06Z"/><path class="cls-4" d="M160.93,757.05a6.15,6.15,0,0,1,.74-3.21,2.3,2.3,0,0,1,2.07-1.22,1.7,1.7,0,0,1,.89.24,2.24,2.24,0,0,1,.71.67V749h2.22v12.19h-1.93l-.15-.92a2.59,2.59,0,0,1-.76.81,1.84,1.84,0,0,1-1,.27,2.33,2.33,0,0,1-2.07-1.14,5.63,5.63,0,0,1-.73-3Zm2.22.17a4.94,4.94,0,0,0,.26,1.77.91.91,0,0,0,.89.63,1.08,1.08,0,0,0,.6-.16,1.33,1.33,0,0,0,.44-.47v-3.85a1.55,1.55,0,0,0-.44-.55.93.93,0,0,0-.58-.2,1,1,0,0,0-.89.73,5.43,5.43,0,0,0-.28,1.93Z"/><path class="cls-4" d="M168.74,756.49a4.21,4.21,0,0,1,.9-2.79,3.5,3.5,0,0,1,5.06,0,4.22,4.22,0,0,1,.91,2.79v1a4.17,4.17,0,0,1-.91,2.78,3.53,3.53,0,0,1-5.06,0,4.17,4.17,0,0,1-.9-2.78Zm2.21,1a3.6,3.6,0,0,0,.27,1.54,1,1,0,0,0,1,.55,1,1,0,0,0,.93-.56,3.54,3.54,0,0,0,.28-1.53v-1a3.59,3.59,0,0,0-.28-1.52,1.06,1.06,0,0,0-1.88,0,3.39,3.39,0,0,0-.28,1.51Z"/><path class="cls-4" d="M184.4,761.23a2.75,2.75,0,0,1-.16-.46,4.7,4.7,0,0,1-.12-.51,2.65,2.65,0,0,1-.76.83,1.84,1.84,0,0,1-1,.3,2.16,2.16,0,0,1-1.68-.68,2.62,2.62,0,0,1-.63-1.84,2.42,2.42,0,0,1,.8-1.93,3.58,3.58,0,0,1,2.38-.69H184v-.68a1.78,1.78,0,0,0-.22-1,.77.77,0,0,0-.67-.33.65.65,0,0,0-.57.26,1.39,1.39,0,0,0-.18.77h-2.15l0-.05a2.32,2.32,0,0,1,.81-1.88,3.26,3.26,0,0,1,2.26-.77,3,3,0,0,1,2.14.77,2.84,2.84,0,0,1,.82,2.19V759a7.13,7.13,0,0,0,.09,1.17,6.59,6.59,0,0,0,.27,1.06ZM183,759.72a1.15,1.15,0,0,0,.62-.18,1.32,1.32,0,0,0,.45-.46v-1.55h-.84a.79.79,0,0,0-.73.35,1.61,1.61,0,0,0-.23.89,1.15,1.15,0,0,0,.2.69A.63.63,0,0,0,183,759.72Z"/><path class="cls-4" d="M190,761.23h-2.22V749H190Z"/><path class="cls-4" d="M199.32,760.25a2.34,2.34,0,0,1-.83.85,2,2,0,0,1-1.1.29,2.07,2.07,0,0,1-1.77-.85,4.4,4.4,0,0,1-.64-2.65v-5.11h2.22v5.13a2.81,2.81,0,0,0,.22,1.3.68.68,0,0,0,.65.41,1.31,1.31,0,0,0,.64-.14,1.2,1.2,0,0,0,.47-.4v-6.3h2.23v8.45h-1.95Z"/><path class="cls-4" d="M206.49,759a.8.8,0,0,0-.28-.62,4.79,4.79,0,0,0-1.08-.65,5.52,5.52,0,0,1-1.91-1.07,2.07,2.07,0,0,1-.64-1.57,2.31,2.31,0,0,1,.82-1.76,3.09,3.09,0,0,1,2.16-.73,3.23,3.23,0,0,1,2.24.75,2.37,2.37,0,0,1,.81,1.92l0,0h-2.14a1.42,1.42,0,0,0-.22-.84.75.75,0,0,0-.67-.31.85.85,0,0,0-.61.24.79.79,0,0,0-.25.58.81.81,0,0,0,.25.61,5.48,5.48,0,0,0,1.09.63,5.37,5.37,0,0,1,2,1.07,2.21,2.21,0,0,1,.64,1.63,2.18,2.18,0,0,1-.86,1.77,3.52,3.52,0,0,1-2.26.68,3.12,3.12,0,0,1-2.31-.85,2.47,2.47,0,0,1-.81-1.92v0h2a1.42,1.42,0,0,0,.31,1,1.12,1.12,0,0,0,.82.3.93.93,0,0,0,.68-.22A.77.77,0,0,0,206.49,759Z"/><path class="cls-4" d="M209.48,756.49a4.21,4.21,0,0,1,.9-2.79,3.5,3.5,0,0,1,5.06,0,4.16,4.16,0,0,1,.91,2.79v1a4.12,4.12,0,0,1-.91,2.78,3.09,3.09,0,0,1-2.52,1.07,3.13,3.13,0,0,1-2.54-1.07,4.17,4.17,0,0,1-.9-2.78Zm2.21,1a3.45,3.45,0,0,0,.28,1.54,1,1,0,0,0,.95.55,1,1,0,0,0,.93-.56,3.4,3.4,0,0,0,.28-1.53v-1a3.44,3.44,0,0,0-.28-1.52,1.06,1.06,0,0,0-1.88,0,3.39,3.39,0,0,0-.28,1.51Z"/><path d="M337.24,904.36h-3.82v3.22h4.5v1.77H331.2V898h6.7v1.77h-4.48v2.84h3.82Z"/><path d="M342.61,907.14a.82.82,0,0,0-.28-.62,4.85,4.85,0,0,0-1.08-.64,5.79,5.79,0,0,1-1.91-1.08,2.06,2.06,0,0,1-.63-1.56,2.31,2.31,0,0,1,.81-1.77,3.17,3.17,0,0,1,2.16-.73,3.21,3.21,0,0,1,2.24.75,2.37,2.37,0,0,1,.81,1.92l0,.05h-2.14a1.5,1.5,0,0,0-.22-.85.77.77,0,0,0-.68-.31.83.83,0,0,0-.6.24.78.78,0,0,0-.25.59.76.76,0,0,0,.25.6,4.29,4.29,0,0,0,1.08.63,5.15,5.15,0,0,1,2,1.08,2.13,2.13,0,0,1,.64,1.62,2.18,2.18,0,0,1-.86,1.77,3.48,3.48,0,0,1-2.26.69,3.16,3.16,0,0,1-2.31-.85,2.5,2.5,0,0,1-.81-1.93v0h2a1.37,1.37,0,0,0,.31,1,1.14,1.14,0,0,0,.82.29,1,1,0,0,0,.68-.22A.78.78,0,0,0,342.61,907.14Z"/><path d="M352.49,905.78a4.55,4.55,0,0,1-.73,2.71,2.39,2.39,0,0,1-2.05,1,2,2,0,0,1-.92-.21,2,2,0,0,1-.7-.61v3.9h-2.22V900.9h2.05l.08.84a2.35,2.35,0,0,1,.73-.74,1.79,1.79,0,0,1,1-.26,2.36,2.36,0,0,1,2.07,1.1,5.13,5.13,0,0,1,.73,2.9Zm-2.21-1a3.83,3.83,0,0,0-.29-1.61.92.92,0,0,0-.88-.6,1.12,1.12,0,0,0-.61.17,1.27,1.27,0,0,0-.41.5v4a1,1,0,0,0,.41.42,1.19,1.19,0,0,0,.62.14.93.93,0,0,0,.89-.52,3.2,3.2,0,0,0,.27-1.45Z"/><path d="M356.93,909.52a3.23,3.23,0,0,1-2.53-1,3.84,3.84,0,0,1-.94-2.64v-1.19a4.36,4.36,0,0,1,.87-2.8,2.93,2.93,0,0,1,2.41-1.1,2.81,2.81,0,0,1,2.3,1,4.14,4.14,0,0,1,.81,2.7v1.36h-4.18v0a2.37,2.37,0,0,0,.38,1.38,1.34,1.34,0,0,0,1.15.53,2.89,2.89,0,0,0,1-.14,5.06,5.06,0,0,0,.93-.47l.57,1.42a3.39,3.39,0,0,1-1.17.69A4.39,4.39,0,0,1,356.93,909.52Zm-.19-7a.83.83,0,0,0-.78.48,3.31,3.31,0,0,0-.28,1.31h2V904a2.32,2.32,0,0,0-.21-1.09A.77.77,0,0,0,356.74,902.52Z"/><path d="M364.06,907.74a.77.77,0,0,0,.68-.33,1.76,1.76,0,0,0,.23-1h2l0,0a2.86,2.86,0,0,1-2.95,3,3.07,3.07,0,0,1-2.52-1.07,4.22,4.22,0,0,1-.88-2.77V904.6a4.27,4.27,0,0,1,.87-2.77,3,3,0,0,1,2.51-1.09,2.83,2.83,0,0,1,2.19.89A3.32,3.32,0,0,1,367,904l0,0h-2a2.35,2.35,0,0,0-.23-1.11.75.75,0,0,0-.7-.42.91.91,0,0,0-.91.56,3.74,3.74,0,0,0-.25,1.51v1.09a3.7,3.7,0,0,0,.25,1.52A.92.92,0,0,0,364.06,907.74Z"/><path d="M370.4,898.86h-2.22v-1.69h2.22Zm0,10.49h-2.22V900.9h2.22Z"/><path d="M376.07,909.35a2.75,2.75,0,0,1-.17-.46,3.81,3.81,0,0,1-.12-.51,2.54,2.54,0,0,1-.76.83,1.77,1.77,0,0,1-1,.31,2.16,2.16,0,0,1-1.68-.69,2.62,2.62,0,0,1-.63-1.84,2.41,2.41,0,0,1,.81-1.93,3.58,3.58,0,0,1,2.37-.68h.84v-.69a1.69,1.69,0,0,0-.22-1,.75.75,0,0,0-.67-.33.65.65,0,0,0-.56.26,1.32,1.32,0,0,0-.19.78H371.9l0-.05a2.29,2.29,0,0,1,.81-1.87,3.23,3.23,0,0,1,2.26-.78,3,3,0,0,1,2.14.77,2.88,2.88,0,0,1,.83,2.2v3.42a7.13,7.13,0,0,0,.08,1.16,6.59,6.59,0,0,0,.27,1.06Zm-1.45-1.5a1.15,1.15,0,0,0,.62-.18,1.41,1.41,0,0,0,.45-.46v-1.56h-.84a.82.82,0,0,0-.73.35,1.63,1.63,0,0,0-.23.89,1.15,1.15,0,0,0,.2.69A.62.62,0,0,0,374.62,907.85Z"/><path d="M381.64,909.35h-2.22V897.17h2.22Z"/><path d="M385.51,898.86h-2.22v-1.69h2.22Zm0,10.49h-2.22V900.9h2.22Z"/><path d="M386.76,905.17a6.3,6.3,0,0,1,.73-3.21,2.31,2.31,0,0,1,2.08-1.22,1.72,1.72,0,0,1,.89.24,2.35,2.35,0,0,1,.71.67v-4.48h2.22v12.18h-1.93l-.15-.92a2.49,2.49,0,0,1-.76.81,1.85,1.85,0,0,1-1,.28,2.32,2.32,0,0,1-2.07-1.15,5.53,5.53,0,0,1-.73-3Zm2.22.17a4.86,4.86,0,0,0,.26,1.77.91.91,0,0,0,.89.63,1.08,1.08,0,0,0,.6-.16,1.3,1.3,0,0,0,.44-.46v-3.86a1.64,1.64,0,0,0-.44-.55,1,1,0,0,0-.59-.19c-.41,0-.7.24-.89.73a5.63,5.63,0,0,0-.27,1.92Z"/><path d="M399,909.35a4.05,4.05,0,0,1-.17-.46,2.71,2.71,0,0,1-.11-.51,2.68,2.68,0,0,1-.77.83,1.73,1.73,0,0,1-1,.31,2.14,2.14,0,0,1-1.67-.69,2.62,2.62,0,0,1-.63-1.84,2.4,2.4,0,0,1,.8-1.93,3.61,3.61,0,0,1,2.38-.68h.83v-.69a1.69,1.69,0,0,0-.22-1,.75.75,0,0,0-.67-.33.65.65,0,0,0-.56.26,1.32,1.32,0,0,0-.19.78h-2.15l0-.05a2.3,2.3,0,0,1,.82-1.87,3.21,3.21,0,0,1,2.25-.78,3,3,0,0,1,2.15.77,2.87,2.87,0,0,1,.82,2.2v3.42a7.09,7.09,0,0,0,.09,1.16,5.66,5.66,0,0,0,.26,1.06Zm-1.45-1.5a1.12,1.12,0,0,0,.62-.18,1.41,1.41,0,0,0,.45-.46v-1.56h-.83a.82.82,0,0,0-.74.35,1.63,1.63,0,0,0-.22.89,1.15,1.15,0,0,0,.19.69A.62.62,0,0,0,397.5,907.85Z"/><path d="M401.91,905.17a6.2,6.2,0,0,1,.73-3.21,2.3,2.3,0,0,1,2.07-1.22,1.67,1.67,0,0,1,.89.24,2.27,2.27,0,0,1,.72.67v-4.48h2.21v12.18H406.6l-.14-.92a2.41,2.41,0,0,1-.77.81,1.81,1.81,0,0,1-1,.28,2.32,2.32,0,0,1-2.07-1.15,5.53,5.53,0,0,1-.73-3Zm2.22.17a4.65,4.65,0,0,0,.26,1.77.9.9,0,0,0,.89.63,1.08,1.08,0,0,0,.6-.16,1.39,1.39,0,0,0,.44-.46v-3.86a1.78,1.78,0,0,0-.44-.55,1,1,0,0,0-.59-.19.94.94,0,0,0-.89.73,5.63,5.63,0,0,0-.27,1.92Z"/><path d="M337.28,919.78a4.55,4.55,0,0,1-.73,2.71,2.41,2.41,0,0,1-2.06,1,1.94,1.94,0,0,1-.91-.21,2,2,0,0,1-.7-.61v3.9h-2.22V914.9h2l.08.84a2.32,2.32,0,0,1,.72-.74,1.83,1.83,0,0,1,1-.26,2.36,2.36,0,0,1,2.07,1.1,5.13,5.13,0,0,1,.73,2.9Zm-2.21-1a3.83,3.83,0,0,0-.29-1.61.92.92,0,0,0-.88-.6,1.12,1.12,0,0,0-.61.17,1.27,1.27,0,0,0-.41.5v4a1,1,0,0,0,.41.42,1.19,1.19,0,0,0,.62.14.93.93,0,0,0,.89-.52,3.2,3.2,0,0,0,.27-1.45Z"/><path d="M342.42,916.92l-.83,0a1,1,0,0,0-.58.17,1.07,1.07,0,0,0-.36.49v5.79h-2.22V914.9h2.07l.09,1.13,0,0a2.24,2.24,0,0,1,.56-1,1.22,1.22,0,0,1,.85-.35l.32,0a1.77,1.77,0,0,1,.29.07Z"/><path d="M346.69,923.52a3.22,3.22,0,0,1-2.53-1,3.79,3.79,0,0,1-.94-2.64v-1.19a4.36,4.36,0,0,1,.87-2.8,2.92,2.92,0,0,1,2.41-1.1,2.81,2.81,0,0,1,2.3,1,4.14,4.14,0,0,1,.81,2.7v1.36h-4.18v0a2.37,2.37,0,0,0,.38,1.38,1.32,1.32,0,0,0,1.15.53,2.89,2.89,0,0,0,1-.14,5.06,5.06,0,0,0,.93-.47l.56,1.42a3.34,3.34,0,0,1-1.16.69A4.43,4.43,0,0,1,346.69,923.52Zm-.19-7a.83.83,0,0,0-.78.48,3.15,3.15,0,0,0-.28,1.31h2V918a2.19,2.19,0,0,0-.22-1.09A.74.74,0,0,0,346.5,916.52Z"/><path d="M352.76,914.9l.09,1.16a2.94,2.94,0,0,1,.87-1,2,2,0,0,1,1.13-.35,2,2,0,0,1,1.66.82,4.32,4.32,0,0,1,.6,2.55v5.24h-2.22v-5.24a2.32,2.32,0,0,0-.25-1.24.87.87,0,0,0-.76-.35,1.06,1.06,0,0,0-.55.15,1.33,1.33,0,0,0-.42.43v6.25h-2.22V914.9Z"/><path d="M358.21,919.17a6.2,6.2,0,0,1,.73-3.21,2.3,2.3,0,0,1,2.07-1.22,1.67,1.67,0,0,1,.89.24,2.24,2.24,0,0,1,.71.67v-4.48h2.22v12.18H362.9l-.15-.92a2.39,2.39,0,0,1-.76.81,1.85,1.85,0,0,1-1,.28,2.29,2.29,0,0,1-2.06-1.15,5.53,5.53,0,0,1-.73-3Zm2.21.17a4.63,4.63,0,0,0,.27,1.77.9.9,0,0,0,.88.63,1.08,1.08,0,0,0,.6-.16,1.22,1.22,0,0,0,.44-.46v-3.86a1.53,1.53,0,0,0-.44-.55.92.92,0,0,0-.58-.19.94.94,0,0,0-.89.73,5.61,5.61,0,0,0-.28,1.92Z"/><path d="M370.39,923.35a4.09,4.09,0,0,1-.16-.46,3.81,3.81,0,0,1-.12-.51,2.65,2.65,0,0,1-.76.83,1.77,1.77,0,0,1-1,.31,2.16,2.16,0,0,1-1.68-.69A2.62,2.62,0,0,1,366,921a2.43,2.43,0,0,1,.8-1.93,3.63,3.63,0,0,1,2.38-.68H370v-.69a1.78,1.78,0,0,0-.22-1,.77.77,0,0,0-.67-.33.65.65,0,0,0-.56.26,1.32,1.32,0,0,0-.19.78h-2.15l0-.05a2.29,2.29,0,0,1,.81-1.87,3.22,3.22,0,0,1,2.26-.78,3,3,0,0,1,2.14.77,2.87,2.87,0,0,1,.82,2.2v3.42a7.09,7.09,0,0,0,.09,1.16,6.59,6.59,0,0,0,.27,1.06Zm-1.44-1.5a1.15,1.15,0,0,0,.62-.18,1.41,1.41,0,0,0,.45-.46v-1.56h-.84a.81.81,0,0,0-.73.35,1.63,1.63,0,0,0-.23.89,1.15,1.15,0,0,0,.2.69A.61.61,0,0,0,369,921.85Z"/><path d="M377.33,921.14a.82.82,0,0,0-.28-.62,4.85,4.85,0,0,0-1.08-.64,5.79,5.79,0,0,1-1.91-1.08,2.06,2.06,0,0,1-.64-1.56,2.32,2.32,0,0,1,.82-1.77,3.15,3.15,0,0,1,2.16-.73,3.21,3.21,0,0,1,2.24.75,2.37,2.37,0,0,1,.81,1.92l0,.05h-2.14a1.51,1.51,0,0,0-.21-.85.78.78,0,0,0-.68-.31.85.85,0,0,0-.61.24.82.82,0,0,0-.25.59.79.79,0,0,0,.25.6,4.63,4.63,0,0,0,1.09.63,5.15,5.15,0,0,1,2,1.08,2.13,2.13,0,0,1,.64,1.62,2.18,2.18,0,0,1-.86,1.77,3.5,3.5,0,0,1-2.26.69,3.16,3.16,0,0,1-2.31-.85,2.5,2.5,0,0,1-.81-1.93v0h2a1.37,1.37,0,0,0,.32,1,1.12,1.12,0,0,0,.82.29,1,1,0,0,0,.68-.22A.78.78,0,0,0,377.33,921.14Z"/><path d="M386.46,914.9v8.71a3.5,3.5,0,0,1-.7,2.34,2.46,2.46,0,0,1-1.95.82,2.53,2.53,0,0,1-.5,0l-.5-.1.09-1.73a2.6,2.6,0,0,0,.31.07,1.62,1.62,0,0,0,.32,0,.56.56,0,0,0,.52-.34,2.13,2.13,0,0,0,.19-1V914.9Zm0-2H384.2v-1.69h2.22Z"/><path d="M391.19,923.52a3.22,3.22,0,0,1-2.53-1,3.79,3.79,0,0,1-.94-2.64v-1.19a4.36,4.36,0,0,1,.87-2.8,2.92,2.92,0,0,1,2.41-1.1,2.81,2.81,0,0,1,2.3,1,4.14,4.14,0,0,1,.81,2.7v1.36h-4.18v0a2.37,2.37,0,0,0,.38,1.38,1.32,1.32,0,0,0,1.15.53,2.89,2.89,0,0,0,1-.14,5.06,5.06,0,0,0,.93-.47l.56,1.42a3.34,3.34,0,0,1-1.16.69A4.43,4.43,0,0,1,391.19,923.52Zm-.19-7a.83.83,0,0,0-.78.48,3.15,3.15,0,0,0-.28,1.31h2V918a2.19,2.19,0,0,0-.22-1.09A.74.74,0,0,0,391,916.52Z"/><path d="M399.35,923.35a2.75,2.75,0,0,1-.17-.46,2.71,2.71,0,0,1-.11-.51,2.68,2.68,0,0,1-.77.83,1.75,1.75,0,0,1-1,.31,2.16,2.16,0,0,1-1.68-.69A2.66,2.66,0,0,1,395,921a2.4,2.4,0,0,1,.8-1.93,3.59,3.59,0,0,1,2.38-.68H399v-.69a1.69,1.69,0,0,0-.22-1,.75.75,0,0,0-.67-.33.65.65,0,0,0-.56.26,1.32,1.32,0,0,0-.19.78h-2.15l0-.05a2.27,2.27,0,0,1,.82-1.87,3.21,3.21,0,0,1,2.25-.78,3,3,0,0,1,2.14.77,2.88,2.88,0,0,1,.83,2.2v3.42a8.45,8.45,0,0,0,.08,1.16,6.59,6.59,0,0,0,.27,1.06Zm-1.45-1.5a1.15,1.15,0,0,0,.62-.18,1.41,1.41,0,0,0,.45-.46v-1.56h-.83a.82.82,0,0,0-.74.35,1.63,1.63,0,0,0-.23.89,1.15,1.15,0,0,0,.2.69A.62.62,0,0,0,397.9,921.85Z"/><path d="M404.64,914.9l.09,1.16a2.81,2.81,0,0,1,.86-1,2,2,0,0,1,1.13-.35,1.94,1.94,0,0,1,1.66.82,4.31,4.31,0,0,1,.61,2.55v5.24h-2.23v-5.24a2.23,2.23,0,0,0-.25-1.24.86.86,0,0,0-.76-.35,1,1,0,0,0-.54.15,1.47,1.47,0,0,0-.43.43v6.25h-2.21V914.9Z"/><path d="M355,64.26V52.89h3.35a4.32,4.32,0,0,1,2.74.78,2.78,2.78,0,0,1,1,2.33,2.85,2.85,0,0,1-.36,1.44,2.22,2.22,0,0,1-1.08.94,2,2,0,0,1,1.33.91,3.08,3.08,0,0,1,.43,1.65,3.18,3.18,0,0,1-.93,2.48,3.88,3.88,0,0,1-2.68.84Zm2.22-6.57h1.23a1.43,1.43,0,0,0,1-.39,1.55,1.55,0,0,0,.37-1.1,1.6,1.6,0,0,0-.38-1.17,1.54,1.54,0,0,0-1.13-.37h-1.13Zm0,1.56v3.24h1.57a1.33,1.33,0,0,0,1.05-.39,1.67,1.67,0,0,0,.35-1.17,2.22,2.22,0,0,0-.3-1.25,1.05,1.05,0,0,0-.95-.43Z"/><path d="M367,64.43a3.22,3.22,0,0,1-2.53-1.05,3.79,3.79,0,0,1-.94-2.64V59.55a4.36,4.36,0,0,1,.87-2.8,2.92,2.92,0,0,1,2.41-1.1,2.81,2.81,0,0,1,2.3,1,4.19,4.19,0,0,1,.81,2.71v1.36h-4.18v0a2.33,2.33,0,0,0,.38,1.37,1.3,1.3,0,0,0,1.15.54,2.89,2.89,0,0,0,1-.14,5.06,5.06,0,0,0,.93-.47l.56,1.42a3.34,3.34,0,0,1-1.16.69A4.43,4.43,0,0,1,367,64.43Zm-.19-7a.83.83,0,0,0-.78.48,3.11,3.11,0,0,0-.28,1.31h2v-.31a2.23,2.23,0,0,0-.22-1.1A.75.75,0,0,0,366.84,57.43Z"/><path d="M377.69,60.68a4.72,4.72,0,0,1-.7,2.73,2.37,2.37,0,0,1-2.08,1,1.85,1.85,0,0,1-1-.28,2.31,2.31,0,0,1-.76-.79l-.13.9h-1.92V52.07h2.22v4.46a2.15,2.15,0,0,1,.7-.65,1.84,1.84,0,0,1,.91-.23A2.34,2.34,0,0,1,377,56.71a5,5,0,0,1,.71,2.83Zm-2.21-1.15a4,4,0,0,0-.24-1.55.91.91,0,0,0-.91-.55,1.05,1.05,0,0,0-.62.18,1.39,1.39,0,0,0-.42.5v4a1,1,0,0,0,.42.43,1.21,1.21,0,0,0,.62.14.9.9,0,0,0,.91-.49,3.5,3.5,0,0,0,.24-1.47Z"/><path d="M382.13,64.43a3.23,3.23,0,0,1-2.53-1.05,3.84,3.84,0,0,1-.94-2.64V59.55a4.36,4.36,0,0,1,.87-2.8,2.92,2.92,0,0,1,2.41-1.1,2.81,2.81,0,0,1,2.3,1,4.19,4.19,0,0,1,.81,2.71v1.36h-4.18v0a2.33,2.33,0,0,0,.38,1.37,1.32,1.32,0,0,0,1.15.54,2.89,2.89,0,0,0,1-.14,5.06,5.06,0,0,0,.93-.47l.56,1.42a3.34,3.34,0,0,1-1.16.69A4.43,4.43,0,0,1,382.13,64.43ZM382,52.5h2.33l0,0-1.95,2h-1.79Zm-.07,4.93a.83.83,0,0,0-.78.48,3.27,3.27,0,0,0-.28,1.31h2v-.31a2.23,2.23,0,0,0-.22-1.1A.75.75,0,0,0,381.94,57.43Z"/><path class="cls-4" d="M562.48,31.44h-2.21l-3.47-7.28,0,0v7.26h-2.23V20.06h2.23l3.48,7.27,0,0V20.06h2.21Z"/><path class="cls-4" d="M566.4,20.94h-2.22V19.25h2.22Zm0,10.5h-2.22V23h2.22Z"/><path class="cls-4" d="M570,23l.09,1.17a2.72,2.72,0,0,1,.86-1,1.91,1.91,0,0,1,1.13-.35,2,2,0,0,1,1.66.81,4.24,4.24,0,0,1,.61,2.55v5.25H572.1V26.19a2.3,2.3,0,0,0-.24-1.23.87.87,0,0,0-.77-.36,1,1,0,0,0-.54.16,1.24,1.24,0,0,0-.42.43v6.25h-2.22V23Zm3.68-3.51a2.06,2.06,0,0,1-.4,1.26,1.23,1.23,0,0,1-1,.52,2.17,2.17,0,0,1-1.06-.34,2.18,2.18,0,0,0-.95-.35.43.43,0,0,0-.36.26,1.21,1.21,0,0,0-.15.62l-1.17-.34a2,2,0,0,1,.41-1.26,1.23,1.23,0,0,1,1-.53,2.41,2.41,0,0,1,1,.35,2.41,2.41,0,0,0,1,.34.44.44,0,0,0,.37-.25,1.22,1.22,0,0,0,.15-.63Z"/><path class="cls-4" d="M575.45,26.69a4.16,4.16,0,0,1,.91-2.78,3.49,3.49,0,0,1,5,0,4.16,4.16,0,0,1,.91,2.78v1a4.13,4.13,0,0,1-.91,2.79,3.51,3.51,0,0,1-5,0,4.13,4.13,0,0,1-.91-2.79Zm2.21,1a3.54,3.54,0,0,0,.28,1.53,1,1,0,0,0,.95.56,1,1,0,0,0,.93-.56,3.4,3.4,0,0,0,.28-1.53v-1a3.41,3.41,0,0,0-.28-1.52,1,1,0,0,0-.94-.57,1,1,0,0,0-.94.57,3.59,3.59,0,0,0-.28,1.52Z"/><path class="cls-4" d="M562.68,97.09h-2.21L557,89.81l0,0v7.26h-2.23V85.71H557L560.43,93l0,0V85.71h2.21Z"/><path class="cls-4" d="M566.6,86.59h-2.22V84.9h2.22Zm0,10.5h-2.22V88.63h2.22Z"/><path class="cls-4" d="M570.18,88.63l.09,1.17a2.85,2.85,0,0,1,.86-1,2.08,2.08,0,0,1,2.79.47,4.24,4.24,0,0,1,.61,2.55v5.25H572.3V91.84a2.17,2.17,0,0,0-.25-1.23.84.84,0,0,0-.76-.36.93.93,0,0,0-.54.16,1.26,1.26,0,0,0-.43.43v6.25h-2.21V88.63Zm3.68-3.51a2.06,2.06,0,0,1-.4,1.26,1.23,1.23,0,0,1-1,.52,2.28,2.28,0,0,1-1.06-.34,2.18,2.18,0,0,0-1-.35.43.43,0,0,0-.36.26,1.21,1.21,0,0,0-.15.62l-1.17-.34a2,2,0,0,1,.41-1.26,1.21,1.21,0,0,1,1-.53,2.41,2.41,0,0,1,1,.35,2.52,2.52,0,0,0,1,.34.45.45,0,0,0,.37-.25,1.22,1.22,0,0,0,.15-.63Z"/><path class="cls-4" d="M580,97.09a3.12,3.12,0,0,1-.17-.46,4.7,4.7,0,0,1-.12-.51,2.5,2.5,0,0,1-.76.82,1.77,1.77,0,0,1-1,.31,2.16,2.16,0,0,1-1.68-.69,2.59,2.59,0,0,1-.63-1.83,2.39,2.39,0,0,1,.81-1.93,3.53,3.53,0,0,1,2.37-.69h.84v-.69a1.69,1.69,0,0,0-.22-1,.75.75,0,0,0-.67-.33.63.63,0,0,0-.56.27,1.27,1.27,0,0,0-.19.77h-2.15l0,0a2.31,2.31,0,0,1,.81-1.88,3.23,3.23,0,0,1,2.26-.77,3,3,0,0,1,2.14.77,2.84,2.84,0,0,1,.83,2.19v3.42A8.34,8.34,0,0,0,582,96a6.71,6.71,0,0,0,.27,1.07Zm-1.45-1.51a1.15,1.15,0,0,0,.62-.18,1.32,1.32,0,0,0,.45-.46V93.38h-.84a.82.82,0,0,0-.73.35,1.67,1.67,0,0,0-.23.9,1.1,1.1,0,0,0,.2.68A.62.62,0,0,0,578.59,95.58Z"/><path class="cls-4" d="M562.68,229.05h-2.21L557,221.78l0,0v7.25h-2.23V217.68H557l3.48,7.27,0,0v-7.25h2.21Z"/><path class="cls-4" d="M566.6,218.56h-2.22v-1.69h2.22Zm0,10.49h-2.22V220.6h2.22Z"/><path class="cls-4" d="M570.18,220.6l.09,1.17a2.76,2.76,0,0,1,.86-1,2.08,2.08,0,0,1,2.79.47,4.24,4.24,0,0,1,.61,2.55v5.24H572.3v-5.24a2.23,2.23,0,0,0-.25-1.24.86.86,0,0,0-.76-.35.93.93,0,0,0-.54.16,1.26,1.26,0,0,0-.43.43v6.24h-2.21V220.6Zm3.68-3.51a2.06,2.06,0,0,1-.4,1.26,1.26,1.26,0,0,1-1,.52,2.2,2.2,0,0,1-1.06-.35,2.13,2.13,0,0,0-1-.34.43.43,0,0,0-.36.26,1.2,1.2,0,0,0-.15.61l-1.17-.33a2,2,0,0,1,.41-1.26,1.21,1.21,0,0,1,1-.53,2.36,2.36,0,0,1,1,.34,2.42,2.42,0,0,0,1,.35.45.45,0,0,0,.37-.26,1.22,1.22,0,0,0,.15-.63Z"/><path class="cls-4" d="M580,229.05a2.75,2.75,0,0,1-.17-.46,4.05,4.05,0,0,1-.12-.5,2.61,2.61,0,0,1-.76.82,1.77,1.77,0,0,1-1,.31,2.16,2.16,0,0,1-1.68-.69,2.61,2.61,0,0,1-.63-1.83,2.38,2.38,0,0,1,.81-1.93,3.53,3.53,0,0,1,2.37-.69h.84v-.69a1.69,1.69,0,0,0-.22-.95.75.75,0,0,0-.67-.33.63.63,0,0,0-.56.27,1.27,1.27,0,0,0-.19.77h-2.15l0,0a2.29,2.29,0,0,1,.81-1.87,3.23,3.23,0,0,1,2.26-.77,3,3,0,0,1,2.14.76,2.88,2.88,0,0,1,.83,2.2v3.42A8.34,8.34,0,0,0,582,228a6.33,6.33,0,0,0,.27,1.06Zm-1.45-1.5a1.15,1.15,0,0,0,.62-.18,1.41,1.41,0,0,0,.45-.46v-1.56h-.84a.82.82,0,0,0-.73.35,1.63,1.63,0,0,0-.23.89,1.13,1.13,0,0,0,.2.69A.62.62,0,0,0,578.59,227.55Z"/><path class="cls-4" d="M562.48,162.74h-2.21l-3.47-7.28,0,0v7.26h-2.23V151.36h2.23l3.48,7.27,0,0v-7.25h2.21Z"/><path class="cls-4" d="M566.4,152.24h-2.22v-1.69h2.22Zm0,10.5h-2.22v-8.46h2.22Z"/><path class="cls-4" d="M570,154.28l.09,1.17a2.85,2.85,0,0,1,.86-1,2,2,0,0,1,1.13-.34,2,2,0,0,1,1.66.81,4.24,4.24,0,0,1,.61,2.55v5.25H572.1v-5.25a2.34,2.34,0,0,0-.24-1.24.89.89,0,0,0-.77-.35,1,1,0,0,0-.54.16,1.16,1.16,0,0,0-.42.43v6.25h-2.22v-8.46Zm3.68-3.51a2.06,2.06,0,0,1-.4,1.26,1.23,1.23,0,0,1-1,.52,2.2,2.2,0,0,1-1.06-.35,2.13,2.13,0,0,0-.95-.34.43.43,0,0,0-.36.26,1.21,1.21,0,0,0-.15.62l-1.17-.34a2,2,0,0,1,.41-1.26,1.23,1.23,0,0,1,1-.53,2.36,2.36,0,0,1,1,.34,2.47,2.47,0,0,0,1,.35.43.43,0,0,0,.37-.26,1.16,1.16,0,0,0,.15-.62Z"/><path class="cls-4" d="M575.45,158a4.16,4.16,0,0,1,.91-2.78,3.49,3.49,0,0,1,5,0,4.16,4.16,0,0,1,.91,2.78v1a4.13,4.13,0,0,1-.91,2.79,3.51,3.51,0,0,1-5,0,4.13,4.13,0,0,1-.91-2.79Zm2.21,1a3.54,3.54,0,0,0,.28,1.53,1,1,0,0,0,.95.56,1,1,0,0,0,.93-.56,3.46,3.46,0,0,0,.28-1.53v-1a3.38,3.38,0,0,0-.28-1.52,1,1,0,0,0-.94-.57,1,1,0,0,0-.94.57,3.59,3.59,0,0,0-.28,1.52Z"/><rect class="cls-2" x="292.58" y="164.12" width="154.43" height="51.48"/><path d="M350.51,195.56H348.3V184.19h2.21Z"/><path d="M354.25,187.11l.09,1.16a2.75,2.75,0,0,1,.87-1,2.05,2.05,0,0,1,2.78.46,4.29,4.29,0,0,1,.61,2.56v5.24h-2.23v-5.25a2.32,2.32,0,0,0-.24-1.23.87.87,0,0,0-.76-.36,1.07,1.07,0,0,0-.55.16,1.33,1.33,0,0,0-.42.43v6.25h-2.22v-8.45Z"/><path d="M360.49,195.56v-6.84h-1v-1.61h1v-.94a3,3,0,0,1,.74-2.19,2.7,2.7,0,0,1,2.06-.77,2.92,2.92,0,0,1,.51,0l.6.12-.19,1.69-.3-.05a1.72,1.72,0,0,0-.34,0,.74.74,0,0,0-.64.31,1.45,1.45,0,0,0-.22.87v1h1.36v1.61h-1.36v6.84Z"/><path d="M369.16,195.56a4.05,4.05,0,0,1-.17-.46,4.64,4.64,0,0,1-.11-.51,2.65,2.65,0,0,1-.76.83,1.84,1.84,0,0,1-1,.3,2.16,2.16,0,0,1-1.68-.68,2.62,2.62,0,0,1-.63-1.84,2.42,2.42,0,0,1,.8-1.93,3.58,3.58,0,0,1,2.38-.69h.84v-.68a1.78,1.78,0,0,0-.22-1,.77.77,0,0,0-.67-.33.65.65,0,0,0-.57.26,1.39,1.39,0,0,0-.18.77H365l0-.05a2.32,2.32,0,0,1,.81-1.88,3.26,3.26,0,0,1,2.26-.77,3,3,0,0,1,2.14.77,2.84,2.84,0,0,1,.82,2.19v3.42a7.13,7.13,0,0,0,.09,1.17,6.59,6.59,0,0,0,.27,1.06Zm-1.44-1.51a1.15,1.15,0,0,0,.62-.18,1.32,1.32,0,0,0,.45-.46v-1.55H368a.79.79,0,0,0-.73.35,1.61,1.61,0,0,0-.23.89,1.15,1.15,0,0,0,.2.69A.63.63,0,0,0,367.72,194.05Z"/><path d="M374.45,187.11l.1,1.16a2.72,2.72,0,0,1,.86-1,2.06,2.06,0,0,1,2.79.46,4.37,4.37,0,0,1,.6,2.56v5.24h-2.22v-5.25a2.31,2.31,0,0,0-.25-1.23.86.86,0,0,0-.76-.36,1.07,1.07,0,0,0-.55.16,1.44,1.44,0,0,0-.42.43v6.25h-2.22v-8.45Z"/><path d="M382.83,185v2.1H384v1.61h-1.18V193a1.39,1.39,0,0,0,.15.74.47.47,0,0,0,.41.22l.34,0a1.43,1.43,0,0,0,.32-.07l.17,1.69a5,5,0,0,1-.67.16,5.44,5.44,0,0,1-.73,0,2.05,2.05,0,0,1-1.64-.66,3.17,3.17,0,0,1-.56-2.09v-4.25h-1v-1.61h1V185Z"/><path d="M387.58,185.07h-2.22v-1.7h2.22Zm0,10.49h-2.22v-8.45h2.22Z"/><path d="M391.44,195.56h-2.21V183.37h2.21Z"/><rect class="cls-2" x="292.58" y="229.77" width="154.43" height="51.48"/><path d="M346.25,256.48h-3.86v4.73h-2.23V249.83h6.77v1.78h-4.54v3.1h3.86Z"/><path d="M351.08,261.37a3.26,3.26,0,0,1-2.53-1,3.84,3.84,0,0,1-.93-2.64V256.5a4.39,4.39,0,0,1,.87-2.81,2.9,2.9,0,0,1,2.41-1.09,2.79,2.79,0,0,1,2.29,1,4.1,4.1,0,0,1,.82,2.71v1.35h-4.18v0a2.28,2.28,0,0,0,.38,1.37,1.29,1.29,0,0,0,1.14.54,3.17,3.17,0,0,0,1-.14,5.06,5.06,0,0,0,.93-.47l.56,1.41a3.17,3.17,0,0,1-1.17.7A4.61,4.61,0,0,1,351.08,261.37Zm-.18-7a.82.82,0,0,0-.78.49,3.22,3.22,0,0,0-.29,1.31h2v-.31a2.35,2.35,0,0,0-.22-1.1A.75.75,0,0,0,350.9,254.37Z"/><path d="M357.2,252.76l.09,1.07a2.47,2.47,0,0,1,.84-.91,2.18,2.18,0,0,1,1.17-.32,1.83,1.83,0,0,1,1.11.34,2.11,2.11,0,0,1,.73,1,2.68,2.68,0,0,1,.84-1,2.08,2.08,0,0,1,1.21-.36,1.92,1.92,0,0,1,1.65.86,4.68,4.68,0,0,1,.6,2.64v5.11h-2.22v-5.12a3,3,0,0,0-.21-1.35.72.72,0,0,0-.66-.37,1,1,0,0,0-.57.19,1.44,1.44,0,0,0-.41.52c0,.1,0,.19,0,.29s0,.2,0,.3v5.54h-2.21v-5.12a2.84,2.84,0,0,0-.22-1.34.71.71,0,0,0-.66-.38.94.94,0,0,0-.55.16,1.37,1.37,0,0,0-.41.42v6.26h-2.21v-8.45Z"/><path d="M370.19,261.37a3.26,3.26,0,0,1-2.54-1,3.84,3.84,0,0,1-.93-2.64V256.5a4.39,4.39,0,0,1,.87-2.81A2.9,2.9,0,0,1,370,252.6a2.82,2.82,0,0,1,2.3,1,4.15,4.15,0,0,1,.81,2.71v1.35h-4.18v0a2.28,2.28,0,0,0,.38,1.37,1.29,1.29,0,0,0,1.14.54,3.17,3.17,0,0,0,1-.14,5.06,5.06,0,0,0,.93-.47l.56,1.41a3.17,3.17,0,0,1-1.17.7A4.59,4.59,0,0,1,370.19,261.37Zm-.19-7a.82.82,0,0,0-.78.49,3.07,3.07,0,0,0-.28,1.31h2v-.31a2.23,2.23,0,0,0-.22-1.1A.75.75,0,0,0,370,254.37Z"/><path d="M376.26,252.76l.09,1.16a2.72,2.72,0,0,1,.86-1,2,2,0,0,1,1.13-.35,2,2,0,0,1,1.66.81,4.27,4.27,0,0,1,.61,2.56v5.24h-2.23V256a2.32,2.32,0,0,0-.24-1.23.87.87,0,0,0-.77-.36,1,1,0,0,0-.54.16,1.36,1.36,0,0,0-.43.43v6.25h-2.21v-8.45Z"/><path d="M384.32,250.72H382.1V249h2.22Zm0,10.49H382.1v-8.45h2.22Z"/><path d="M387.9,252.76l.09,1.16a2.82,2.82,0,0,1,.86-1,2,2,0,0,1,1.13-.35,2,2,0,0,1,1.66.81,4.27,4.27,0,0,1,.61,2.56v5.24H390V256a2.32,2.32,0,0,0-.24-1.23.87.87,0,0,0-.77-.36,1,1,0,0,0-.54.16,1.24,1.24,0,0,0-.42.43v6.25h-2.22v-8.45Z"/><path d="M397.76,261.21a2.75,2.75,0,0,1-.17-.46,3.1,3.1,0,0,1-.11-.51,2.79,2.79,0,0,1-.77.83,1.82,1.82,0,0,1-1,.3,2.19,2.19,0,0,1-1.68-.68,2.66,2.66,0,0,1-.62-1.84,2.39,2.39,0,0,1,.8-1.93,3.54,3.54,0,0,1,2.38-.69h.83v-.68a1.67,1.67,0,0,0-.22-1,.74.74,0,0,0-.67-.34.63.63,0,0,0-.56.27,1.29,1.29,0,0,0-.19.77h-2.15l0-.05a2.32,2.32,0,0,1,.82-1.88,3.25,3.25,0,0,1,2.25-.77,3,3,0,0,1,2.14.77,2.84,2.84,0,0,1,.83,2.19V259a8.49,8.49,0,0,0,.08,1.17,6.59,6.59,0,0,0,.27,1.06Zm-1.45-1.51a1.15,1.15,0,0,0,.62-.18,1.32,1.32,0,0,0,.45-.46v-1.55h-.83a.8.8,0,0,0-.74.35,1.61,1.61,0,0,0-.23.89,1.15,1.15,0,0,0,.2.69A.64.64,0,0,0,396.31,259.7Z"/><rect class="cls-2" x="292.58" y="295.42" width="154.43" height="51.48"/><path d="M341.68,315.48l2,8.36h0l2.07-8.36h2.9v11.38h-2.22v-3.31l.19-4.42h-.05l-2.17,7.74H343l-2.15-7.67h-.05l.2,4.36v3.31H338.8V315.48Z"/><path d="M354.38,326.86a4.05,4.05,0,0,1-.17-.46,4.64,4.64,0,0,1-.11-.51,2.61,2.61,0,0,1-.76.82,1.77,1.77,0,0,1-1,.31,2.19,2.19,0,0,1-1.68-.68,2.62,2.62,0,0,1-.63-1.84,2.42,2.42,0,0,1,.8-1.93,3.58,3.58,0,0,1,2.38-.69H354v-.69a1.65,1.65,0,0,0-.23-.94.72.72,0,0,0-.66-.34.66.66,0,0,0-.57.27,1.37,1.37,0,0,0-.18.77h-2.15l0,0A2.35,2.35,0,0,1,351,319a3.25,3.25,0,0,1,2.25-.77,3,3,0,0,1,2.15.77,2.84,2.84,0,0,1,.82,2.19v3.42a7.13,7.13,0,0,0,.09,1.17,6.56,6.56,0,0,0,.26,1.06Zm-1.44-1.51a1.15,1.15,0,0,0,.62-.18,1.32,1.32,0,0,0,.45-.46v-1.55h-.84a.79.79,0,0,0-.73.35,1.53,1.53,0,0,0-.23.89,1.22,1.22,0,0,0,.19.69A.65.65,0,0,0,352.94,325.35Z"/><path d="M361.32,324.65A.8.8,0,0,0,361,324a4.79,4.79,0,0,0-1.08-.65,5.36,5.36,0,0,1-1.91-1.08,2,2,0,0,1-.64-1.56,2.3,2.3,0,0,1,.82-1.76,3.09,3.09,0,0,1,2.16-.73,3.23,3.23,0,0,1,2.24.75,2.36,2.36,0,0,1,.81,1.91l0,0h-2.14a1.4,1.4,0,0,0-.22-.84.76.76,0,0,0-.67-.32.86.86,0,0,0-.61.25.79.79,0,0,0-.25.58.83.83,0,0,0,.25.61,5.48,5.48,0,0,0,1.09.63,5.37,5.37,0,0,1,2,1.07,2.21,2.21,0,0,1,.64,1.63,2.18,2.18,0,0,1-.86,1.77,3.58,3.58,0,0,1-2.26.68,3.12,3.12,0,0,1-2.31-.85,2.49,2.49,0,0,1-.81-1.92v-.05h2a1.42,1.42,0,0,0,.31,1,1.12,1.12,0,0,0,.82.3.93.93,0,0,0,.68-.22A.78.78,0,0,0,361.32,324.65Z"/><path d="M367.66,325.25a.79.79,0,0,0,.69-.34,1.71,1.71,0,0,0,.23-1h2l0,.05a2.92,2.92,0,0,1-.82,2.18,2.86,2.86,0,0,1-2.14.85,3.07,3.07,0,0,1-2.52-1.07,4.23,4.23,0,0,1-.88-2.76V322.1a4.29,4.29,0,0,1,.88-2.77,3,3,0,0,1,2.51-1.08,2.81,2.81,0,0,1,2.18.88,3.35,3.35,0,0,1,.79,2.39l0,0h-2a2.35,2.35,0,0,0-.23-1.11.76.76,0,0,0-.7-.42.92.92,0,0,0-.92.57,3.89,3.89,0,0,0-.25,1.51v1.08a3.84,3.84,0,0,0,.25,1.52A.93.93,0,0,0,367.66,325.25Z"/><path d="M376,325.88a2.53,2.53,0,0,1-.84.85,2,2,0,0,1-1.1.29,2.07,2.07,0,0,1-1.77-.85,4.42,4.42,0,0,1-.64-2.65v-5.11h2.22v5.13a2.81,2.81,0,0,0,.22,1.3.7.7,0,0,0,.65.41,1.44,1.44,0,0,0,.64-.14,1.2,1.2,0,0,0,.47-.4v-6.3h2.23v8.45h-1.95Z"/><path d="M381.78,326.86h-2.22V314.67h2.22Z"/><path d="M385.65,316.37h-2.22v-1.7h2.22Zm0,10.49h-2.22v-8.45h2.22Z"/><path d="M389.23,318.41l.09,1.16a2.72,2.72,0,0,1,.86-1,2,2,0,0,1,1.13-.35,2,2,0,0,1,1.66.81,4.35,4.35,0,0,1,.61,2.56v5.24h-2.23v-5.25a2.22,2.22,0,0,0-.25-1.23.84.84,0,0,0-.76-.36,1,1,0,0,0-.54.16,1.36,1.36,0,0,0-.43.43v6.25h-2.22v-8.45Z"/><path d="M399.08,326.86a4.09,4.09,0,0,1-.16-.46,4.7,4.7,0,0,1-.12-.51,2.5,2.5,0,0,1-.76.82,1.77,1.77,0,0,1-1,.31,2.19,2.19,0,0,1-1.68-.68,2.62,2.62,0,0,1-.63-1.84,2.42,2.42,0,0,1,.8-1.93,3.58,3.58,0,0,1,2.38-.69h.84v-.69a1.65,1.65,0,0,0-.22-.94.74.74,0,0,0-.67-.34.63.63,0,0,0-.56.27,1.29,1.29,0,0,0-.19.77h-2.15l0,0a2.31,2.31,0,0,1,.81-1.88,3.26,3.26,0,0,1,2.26-.77,3,3,0,0,1,2.14.77,2.84,2.84,0,0,1,.83,2.19v3.42a7.17,7.17,0,0,0,.08,1.17,6.59,6.59,0,0,0,.27,1.06Zm-1.44-1.51a1.15,1.15,0,0,0,.62-.18,1.32,1.32,0,0,0,.45-.46v-1.55h-.84a.79.79,0,0,0-.73.35,1.61,1.61,0,0,0-.23.89,1.15,1.15,0,0,0,.2.69A.64.64,0,0,0,397.64,325.35Z"/><rect class="cls-2" x="292.58" y="361.07" width="154.43" height="51.48"/><rect class="cls-5" x="-91.8" y="478.78" width="235.08" height="51.48" transform="translate(-478.78 530.26) rotate(-90)"/><path d="M347.7,381.13l2,8.35h.05l2.06-8.35h2.9v11.38h-2.21V389.2l.19-4.42h-.05l-2.17,7.74H349l-2.15-7.67h-.05l.2,4.36v3.31h-2.21V381.13Z"/><path d="M360.4,392.51c-.06-.14-.11-.3-.16-.46a4.7,4.7,0,0,1-.12-.51,2.5,2.5,0,0,1-.76.82,1.77,1.77,0,0,1-1,.31,2.16,2.16,0,0,1-1.68-.69,2.59,2.59,0,0,1-.63-1.83,2.39,2.39,0,0,1,.81-1.93,3.53,3.53,0,0,1,2.37-.69H360v-.69a1.65,1.65,0,0,0-.22-.94.74.74,0,0,0-.67-.34.63.63,0,0,0-.56.27,1.29,1.29,0,0,0-.19.77h-2.15l0,0a2.31,2.31,0,0,1,.81-1.88,3.28,3.28,0,0,1,2.26-.77,3,3,0,0,1,2.14.77,2.84,2.84,0,0,1,.83,2.19v3.42a7.17,7.17,0,0,0,.08,1.17,6.59,6.59,0,0,0,.27,1.06ZM359,391a1.15,1.15,0,0,0,.62-.18,1.32,1.32,0,0,0,.45-.46v-1.55h-.84a.8.8,0,0,0-.73.35,1.61,1.61,0,0,0-.23.89,1.1,1.1,0,0,0,.2.68A.62.62,0,0,0,359,391Z"/><path d="M366.3,382v2.11h1.18v1.6H366.3v4.25a1.39,1.39,0,0,0,.15.74.49.49,0,0,0,.41.22l.34,0a2,2,0,0,0,.31-.07l.18,1.69a6.61,6.61,0,0,1-.68.16,5.2,5.2,0,0,1-.72,0,2,2,0,0,1-1.64-.66,3.18,3.18,0,0,1-.57-2.1v-4.25h-1v-1.6h1V382Z"/><path d="M372,392.67a3.26,3.26,0,0,1-2.53-1,3.84,3.84,0,0,1-.93-2.65V387.8a4.39,4.39,0,0,1,.87-2.81,2.9,2.9,0,0,1,2.41-1.09,2.79,2.79,0,0,1,2.29,1,4.09,4.09,0,0,1,.82,2.7V389h-4.18v0a2.3,2.3,0,0,0,.38,1.38,1.29,1.29,0,0,0,1.14.54,3.21,3.21,0,0,0,1-.14,5.79,5.79,0,0,0,.93-.47l.56,1.41a3.31,3.31,0,0,1-1.17.7A4.61,4.61,0,0,1,372,392.67Zm-.18-7a.81.81,0,0,0-.78.49,3.06,3.06,0,0,0-.29,1.31h2v-.31a2.35,2.35,0,0,0-.22-1.1A.76.76,0,0,0,371.83,385.67Z"/><path d="M380.05,386.08l-.84,0a.91.91,0,0,0-.58.17,1.05,1.05,0,0,0-.36.48v5.8h-2.22v-8.45h2.07l.09,1.13h0a2.18,2.18,0,0,1,.57-.95,1.18,1.18,0,0,1,.84-.35l.32,0a1.84,1.84,0,0,1,.29.06Z"/><path d="M383.2,384.06l.1,1.16a2.72,2.72,0,0,1,.86-1,2.06,2.06,0,0,1,2.79.46,4.35,4.35,0,0,1,.6,2.56v5.24h-2.22v-5.25a2.31,2.31,0,0,0-.25-1.23.86.86,0,0,0-.76-.36,1.07,1.07,0,0,0-.55.16,1.33,1.33,0,0,0-.42.43v6.25h-2.22v-8.45Z"/><path d="M393.06,392.51c-.06-.14-.12-.3-.17-.46a4.64,4.64,0,0,1-.11-.51,2.61,2.61,0,0,1-.76.82,1.77,1.77,0,0,1-1,.31,2.16,2.16,0,0,1-1.68-.69,2.59,2.59,0,0,1-.63-1.83,2.42,2.42,0,0,1,.8-1.93,3.58,3.58,0,0,1,2.38-.69h.84v-.69a1.65,1.65,0,0,0-.23-.94.72.72,0,0,0-.66-.34.66.66,0,0,0-.57.27,1.37,1.37,0,0,0-.18.77H388.9l0,0a2.35,2.35,0,0,1,.82-1.88,3.25,3.25,0,0,1,2.25-.77,3,3,0,0,1,2.15.77,2.84,2.84,0,0,1,.82,2.19v3.42a7.13,7.13,0,0,0,.09,1.17,6.56,6.56,0,0,0,.26,1.06ZM391.62,391a1.15,1.15,0,0,0,.62-.18,1.32,1.32,0,0,0,.45-.46v-1.55h-.84a.79.79,0,0,0-.73.35,1.53,1.53,0,0,0-.23.89,1.1,1.1,0,0,0,.19.68A.63.63,0,0,0,391.62,391Z"/><rect class="cls-2" x="292.58" y="426.72" width="154.43" height="51.48"/><path d="M332.41,448.56h-2.56v9.6h-2.22v-9.6h-2.55v-1.78h7.33Z"/><path d="M336.58,458.16a3.58,3.58,0,0,1-.28-1,2.64,2.64,0,0,1-.77.82,1.75,1.75,0,0,1-1,.31,2.13,2.13,0,0,1-1.67-.69,2.59,2.59,0,0,1-.63-1.83,2.39,2.39,0,0,1,.8-1.93,3.54,3.54,0,0,1,2.38-.69h.83v-.69a1.71,1.71,0,0,0-.22-.95.75.75,0,0,0-.67-.33.63.63,0,0,0-.56.27,1.27,1.27,0,0,0-.19.77h-2.15l0,0a2.32,2.32,0,0,1,.82-1.88,3.25,3.25,0,0,1,2.25-.77,3,3,0,0,1,2.14.77,2.84,2.84,0,0,1,.83,2.19v3.42a8.49,8.49,0,0,0,.08,1.17,6.87,6.87,0,0,0,.27,1.06Zm-1.45-1.51a1.12,1.12,0,0,0,.62-.18,1.32,1.32,0,0,0,.45-.46v-1.56h-.83a.81.81,0,0,0-.74.36,1.61,1.61,0,0,0-.23.89,1.1,1.1,0,0,0,.2.68A.62.62,0,0,0,335.13,456.65Z"/><path d="M342.15,458.16h-2.21V446h2.21Z"/><path d="M346,458.16H343.8V446H346Z"/><path d="M351.69,458.16a3.12,3.12,0,0,1-.17-.46,4.7,4.7,0,0,1-.12-.51,2.5,2.5,0,0,1-.76.82,1.75,1.75,0,0,1-1,.31,2.16,2.16,0,0,1-1.68-.69,2.63,2.63,0,0,1-.62-1.83,2.39,2.39,0,0,1,.8-1.93,3.54,3.54,0,0,1,2.38-.69h.83v-.69a1.71,1.71,0,0,0-.22-.95.75.75,0,0,0-.67-.33.63.63,0,0,0-.56.27,1.27,1.27,0,0,0-.19.77h-2.15l0,0a2.29,2.29,0,0,1,.82-1.88,3.25,3.25,0,0,1,2.25-.77,3,3,0,0,1,2.14.77,2.84,2.84,0,0,1,.83,2.19v3.42a8.49,8.49,0,0,0,.08,1.17,6.87,6.87,0,0,0,.27,1.06Zm-1.45-1.51a1.15,1.15,0,0,0,.62-.18,1.32,1.32,0,0,0,.45-.46v-1.56h-.83a.81.81,0,0,0-.74.36,1.61,1.61,0,0,0-.23.89,1.1,1.1,0,0,0,.2.68A.62.62,0,0,0,350.24,456.65Z"/><path d="M358.62,456a.8.8,0,0,0-.28-.62,4.56,4.56,0,0,0-1.08-.65,5.89,5.89,0,0,1-1.91-1.08,2.06,2.06,0,0,1-.63-1.56,2.29,2.29,0,0,1,.81-1.76,3.12,3.12,0,0,1,2.16-.73,3.25,3.25,0,0,1,2.25.75,2.39,2.39,0,0,1,.8,1.91l0,.05h-2.14a1.45,1.45,0,0,0-.22-.84.77.77,0,0,0-.67-.32.81.81,0,0,0-.61.25.76.76,0,0,0-.25.58.79.79,0,0,0,.25.61,5.31,5.31,0,0,0,1.08.63,5.29,5.29,0,0,1,2,1.07,2.15,2.15,0,0,1,.64,1.63,2.12,2.12,0,0,1-.86,1.76,3.48,3.48,0,0,1-2.26.69,3.12,3.12,0,0,1-2.31-.85,2.53,2.53,0,0,1-.81-1.92l0-.05h2a1.37,1.37,0,0,0,.31,1,1.1,1.1,0,0,0,.82.3,1,1,0,0,0,.68-.22A.78.78,0,0,0,358.62,456Z"/><path d="M365.09,453.54a5.12,5.12,0,0,1,.74-2.89,2.37,2.37,0,0,1,2.08-1.1,1.72,1.72,0,0,1,1,.28,2.49,2.49,0,0,1,.75.82l.15-.95h1.93V458a3.52,3.52,0,0,1-1,2.62,3.57,3.57,0,0,1-2.64,1,4.53,4.53,0,0,1-1.17-.17,5.58,5.58,0,0,1-1.15-.48l.39-1.71a4.19,4.19,0,0,0,.91.38,4,4,0,0,0,1,.12,1.23,1.23,0,0,0,1-.44,2,2,0,0,0,.36-1.28v-.49a2.13,2.13,0,0,1-.71.61,1.93,1.93,0,0,1-.9.21,2.39,2.39,0,0,1-2.07-1,4.55,4.55,0,0,1-.74-2.71Zm2.22,1a3.2,3.2,0,0,0,.27,1.45.92.92,0,0,0,.89.52,1.27,1.27,0,0,0,.6-.14,1.18,1.18,0,0,0,.44-.42v-4a1.48,1.48,0,0,0-.43-.49,1.08,1.08,0,0,0-.6-.17.94.94,0,0,0-.9.61,4,4,0,0,0-.27,1.6Z"/><path d="M377.15,451.73l-.84,0a.91.91,0,0,0-.58.18,1.13,1.13,0,0,0-.36.48v5.8h-2.22V449.7h2.08l.08,1.14h0a2.28,2.28,0,0,1,.57-1,1.14,1.14,0,0,1,.84-.35l.32,0a1.84,1.84,0,0,1,.29.06Z"/><path d="M382.39,458.16c-.06-.14-.12-.3-.17-.46a3.1,3.1,0,0,1-.11-.51,2.61,2.61,0,0,1-.76.82,1.78,1.78,0,0,1-1.05.31,2.16,2.16,0,0,1-1.67-.69,2.59,2.59,0,0,1-.63-1.83,2.42,2.42,0,0,1,.8-1.93,3.56,3.56,0,0,1,2.38-.69H382v-.69a1.71,1.71,0,0,0-.22-.95.75.75,0,0,0-.67-.33.64.64,0,0,0-.56.27,1.34,1.34,0,0,0-.19.77h-2.14l0,0a2.35,2.35,0,0,1,.82-1.88,3.25,3.25,0,0,1,2.25-.77,3,3,0,0,1,2.15.77,2.84,2.84,0,0,1,.82,2.19v3.42a7.13,7.13,0,0,0,.09,1.17,5.85,5.85,0,0,0,.26,1.06Zm-1.45-1.51a1.18,1.18,0,0,0,.63-.18A1.29,1.29,0,0,0,382,456v-1.56h-.83a.82.82,0,0,0-.74.36,1.61,1.61,0,0,0-.22.89,1.1,1.1,0,0,0,.19.68A.62.62,0,0,0,380.94,456.65Z"/><path d="M387.68,449.7l.09,1.17a2.75,2.75,0,0,1,.87-1,1.88,1.88,0,0,1,1.12-.35,2,2,0,0,1,1.66.81,4.25,4.25,0,0,1,.61,2.56v5.24H389.8v-5.25a2.32,2.32,0,0,0-.24-1.23.87.87,0,0,0-.76-.36,1,1,0,0,0-.55.16,1.24,1.24,0,0,0-.42.43v6.25h-2.22V449.7Z"/><path d="M393.12,454a6.15,6.15,0,0,1,.74-3.21,2.29,2.29,0,0,1,2.07-1.22,1.79,1.79,0,0,1,.89.23,2.49,2.49,0,0,1,.71.67V446h2.22v12.19h-1.93l-.15-.92a2.44,2.44,0,0,1-.76.8,1.76,1.76,0,0,1-1,.28,2.33,2.33,0,0,1-2.07-1.14,5.67,5.67,0,0,1-.73-3Zm2.22.16a4.86,4.86,0,0,0,.26,1.77.91.91,0,0,0,.89.64,1.17,1.17,0,0,0,.6-.16,1.33,1.33,0,0,0,.44-.47v-3.85a1.55,1.55,0,0,0-.44-.55.93.93,0,0,0-.58-.2,1,1,0,0,0-.89.73,5.43,5.43,0,0,0-.28,1.93Z"/><path d="M404.48,458.32a3.23,3.23,0,0,1-2.53-1.05,3.81,3.81,0,0,1-.94-2.64v-1.18a4.33,4.33,0,0,1,.88-2.81,2.9,2.9,0,0,1,2.41-1.09,2.8,2.8,0,0,1,2.29,1,4.14,4.14,0,0,1,.81,2.7v1.36h-4.17v0a2.37,2.37,0,0,0,.37,1.38,1.32,1.32,0,0,0,1.15.54,3.1,3.1,0,0,0,1-.14,5.4,5.4,0,0,0,.93-.47l.57,1.41a3.4,3.4,0,0,1-1.17.7A4.61,4.61,0,0,1,404.48,458.32Zm-.18-7a.83.83,0,0,0-.79.49,3.23,3.23,0,0,0-.28,1.31h2v-.31a2.32,2.32,0,0,0-.22-1.1A.76.76,0,0,0,404.3,451.32Z"/><path d="M412.2,456a.8.8,0,0,0-.28-.62,4.79,4.79,0,0,0-1.08-.65,5.79,5.79,0,0,1-1.91-1.08,2.06,2.06,0,0,1-.63-1.56,2.29,2.29,0,0,1,.81-1.76,3.12,3.12,0,0,1,2.16-.73,3.21,3.21,0,0,1,2.24.75,2.36,2.36,0,0,1,.81,1.91l0,.05h-2.15a1.45,1.45,0,0,0-.21-.84.78.78,0,0,0-.68-.32.84.84,0,0,0-.61.25.79.79,0,0,0-.25.58.83.83,0,0,0,.25.61,5.48,5.48,0,0,0,1.09.63,5.29,5.29,0,0,1,2,1.07,2.3,2.3,0,0,1-.22,3.39,3.48,3.48,0,0,1-2.26.69,3.12,3.12,0,0,1-2.31-.85,2.49,2.49,0,0,1-.81-1.92v-.05h2a1.42,1.42,0,0,0,.32,1,1.1,1.1,0,0,0,.82.3,1,1,0,0,0,.68-.22A.81.81,0,0,0,412.2,456Z"/><path d="M352.08,583.81h-3.82V587h4.5v1.77H346V577.43h6.7v1.77h-4.48V582h3.82Z"/><path d="M356.58,583h0l.89-2.66H360l-2.09,4.18,2.16,4.27h-2.5l-.93-2.74h0l-.93,2.74h-2.5l2.15-4.27-2.1-4.18h2.5Z"/><path d="M363.51,578.25v2.1h1.18V582h-1.18v4.24a1.36,1.36,0,0,0,.15.74.47.47,0,0,0,.41.22,1.72,1.72,0,0,0,.34,0l.32-.06.17,1.68a3.8,3.8,0,0,1-.67.16,5.35,5.35,0,0,1-.73.05,2,2,0,0,1-1.64-.66,3.18,3.18,0,0,1-.56-2.1V582h-1v-1.61h1v-2.1Z"/><path d="M369.23,589a3.24,3.24,0,0,1-2.54-1.05,3.84,3.84,0,0,1-.93-2.64v-1.19a4.36,4.36,0,0,1,.87-2.8,2.91,2.91,0,0,1,2.41-1.1,2.79,2.79,0,0,1,2.29,1,4.09,4.09,0,0,1,.82,2.7v1.36H368v0a2.3,2.3,0,0,0,.38,1.38,1.31,1.31,0,0,0,1.14.53,2.91,2.91,0,0,0,1-.14,5.63,5.63,0,0,0,.93-.46L372,588a3.3,3.3,0,0,1-1.17.69A4.37,4.37,0,0,1,369.23,589Zm-.19-7a.81.81,0,0,0-.78.48,3.15,3.15,0,0,0-.28,1.31h2v-.31a2.31,2.31,0,0,0-.22-1.09A.75.75,0,0,0,369,582Z"/><path d="M377.26,582.37l-.84,0a1,1,0,0,0-.58.17,1.23,1.23,0,0,0-.36.49v5.79h-2.22v-8.45h2.07l.09,1.13,0,0a2.25,2.25,0,0,1,.57-1,1.18,1.18,0,0,1,.84-.35l.32,0a1.77,1.77,0,0,1,.29.07Z"/><path d="M380.7,578.31h-2.22v-1.69h2.22Zm0,10.49h-2.22v-8.45h2.22Z"/><path d="M382,584.06a4.16,4.16,0,0,1,.91-2.78,3.47,3.47,0,0,1,5.05,0,4.16,4.16,0,0,1,.91,2.78v1.05a4.16,4.16,0,0,1-.91,2.79,3.51,3.51,0,0,1-5.05,0,4.16,4.16,0,0,1-.91-2.79Zm2.21,1.05a3.4,3.4,0,0,0,.28,1.53,1,1,0,0,0,.95.55.94.94,0,0,0,.93-.56,3.38,3.38,0,0,0,.28-1.52v-1.05a3.38,3.38,0,0,0-.28-1.52,1,1,0,0,0-.94-.57,1,1,0,0,0-.94.57,3.59,3.59,0,0,0-.28,1.52Z"/><path d="M394,582.37l-.83,0a1,1,0,0,0-.58.17,1.07,1.07,0,0,0-.36.49v5.79H390v-8.45h2.07l.09,1.13,0,0a2.24,2.24,0,0,1,.56-1,1.22,1.22,0,0,1,.85-.35l.32,0a1.77,1.77,0,0,1,.29.07Z"/><path class="cls-4" d="M555.3,518.84l0,0a3.93,3.93,0,0,1-.89,2.83,3.5,3.5,0,0,1-2.67,1,3.72,3.72,0,0,1-2.82-1.09,4.17,4.17,0,0,1-1.06-3.06v-3.4a4.33,4.33,0,0,1,1-3.07,3.58,3.58,0,0,1,2.73-1.09,3.64,3.64,0,0,1,2.74,1,4.09,4.09,0,0,1,1,2.87l0,.05h-2.14a2.64,2.64,0,0,0-.3-1.62,1.39,1.39,0,0,0-1.23-.49,1.31,1.31,0,0,0-1.15.58,3.26,3.26,0,0,0-.39,1.78v3.42a3.09,3.09,0,0,0,.42,1.79,1.45,1.45,0,0,0,1.25.58,1.26,1.26,0,0,0,1.12-.46,2.83,2.83,0,0,0,.28-1.59Z"/><path class="cls-4" d="M560.64,522.5a4.05,4.05,0,0,1-.17-.46,4.19,4.19,0,0,1-.11-.51,2.65,2.65,0,0,1-.76.83,1.86,1.86,0,0,1-1.05.31,2.16,2.16,0,0,1-1.67-.69,2.62,2.62,0,0,1-.63-1.84,2.42,2.42,0,0,1,.8-1.93,3.58,3.58,0,0,1,2.38-.68h.84v-.69a1.69,1.69,0,0,0-.23-1,.75.75,0,0,0-.66-.33.68.68,0,0,0-.57.26,1.41,1.41,0,0,0-.18.78h-2.15l0-.05a2.33,2.33,0,0,1,.82-1.87,3.21,3.21,0,0,1,2.25-.78,3,3,0,0,1,2.15.77,2.85,2.85,0,0,1,.82,2.19v3.43a7.09,7.09,0,0,0,.09,1.16,6.56,6.56,0,0,0,.26,1.06ZM559.2,521a1.15,1.15,0,0,0,.62-.18,1.32,1.32,0,0,0,.45-.46V518.8h-.84a.81.81,0,0,0-.73.35,1.53,1.53,0,0,0-.23.89,1.15,1.15,0,0,0,.19.69A.62.62,0,0,0,559.2,521Z"/><path class="cls-4" d="M567.58,520.29a.84.84,0,0,0-.28-.62,4.85,4.85,0,0,0-1.08-.64,5.68,5.68,0,0,1-1.91-1.08,2,2,0,0,1-.64-1.57,2.28,2.28,0,0,1,.82-1.76,3.14,3.14,0,0,1,2.16-.73,3.23,3.23,0,0,1,2.24.75,2.37,2.37,0,0,1,.81,1.92l0,0h-2.14a1.42,1.42,0,0,0-.22-.84.75.75,0,0,0-.67-.31.85.85,0,0,0-.61.24.78.78,0,0,0-.25.59.76.76,0,0,0,.25.6,5.48,5.48,0,0,0,1.09.63,5.37,5.37,0,0,1,2,1.07,2.21,2.21,0,0,1,.64,1.63,2.18,2.18,0,0,1-.86,1.77,3.52,3.52,0,0,1-2.26.69,3.11,3.11,0,0,1-2.31-.86,2.51,2.51,0,0,1-.82-1.92l0,0h2a1.39,1.39,0,0,0,.31,1,1.12,1.12,0,0,0,.82.3.93.93,0,0,0,.68-.22A.75.75,0,0,0,567.58,520.29Z"/><path class="cls-4" d="M575.13,521.53a2.41,2.41,0,0,1-.84.84,2,2,0,0,1-1.1.3,2.08,2.08,0,0,1-1.77-.86,4.4,4.4,0,0,1-.64-2.65v-5.11H573v5.13a2.89,2.89,0,0,0,.22,1.31.69.69,0,0,0,.65.4,1.44,1.44,0,0,0,.64-.13,1.32,1.32,0,0,0,.47-.41v-6.3h2.23v8.45h-2Z"/><path class="cls-4" d="M582.73,522.5a2.75,2.75,0,0,1-.17-.46,2.89,2.89,0,0,1-.11-.51,2.68,2.68,0,0,1-.77.83,1.82,1.82,0,0,1-1,.31A2.16,2.16,0,0,1,579,522a2.66,2.66,0,0,1-.62-1.84,2.39,2.39,0,0,1,.8-1.93,3.54,3.54,0,0,1,2.38-.68h.83v-.69a1.69,1.69,0,0,0-.22-1,.75.75,0,0,0-.67-.33.65.65,0,0,0-.56.26,1.32,1.32,0,0,0-.19.78h-2.15l0-.05a2.3,2.3,0,0,1,.82-1.87,3.21,3.21,0,0,1,2.25-.78,3,3,0,0,1,2.14.77,2.86,2.86,0,0,1,.83,2.19v3.43a8.45,8.45,0,0,0,.08,1.16,6.59,6.59,0,0,0,.27,1.06ZM581.28,521a1.12,1.12,0,0,0,.62-.18,1.32,1.32,0,0,0,.45-.46V518.8h-.83a.82.82,0,0,0-.74.35,1.61,1.61,0,0,0-.23.89,1.15,1.15,0,0,0,.2.69A.61.61,0,0,0,581.28,521Z"/><path class="cls-4" d="M588.3,522.5h-2.21V510.31h2.21Z"/><path class="cls-4" d="M553.32,584.73h-3.86v4.73h-2.22V578.08H554v1.77h-4.54V583h3.86Z"/><path class="cls-4" d="M554.61,584.71a4.2,4.2,0,0,1,.9-2.78,3.5,3.5,0,0,1,5.06,0,4.2,4.2,0,0,1,.9,2.78v1a4.18,4.18,0,0,1-.9,2.79,3.53,3.53,0,0,1-5.06,0,4.18,4.18,0,0,1-.9-2.79Zm2.21,1a3.56,3.56,0,0,0,.27,1.53,1.08,1.08,0,0,0,1.89,0,3.62,3.62,0,0,0,.27-1.53v-1a3.57,3.57,0,0,0-.27-1.52,1.07,1.07,0,0,0-1.89,0,3.6,3.6,0,0,0-.27,1.52Z"/><path class="cls-4" d="M566.64,583l-.84,0a1,1,0,0,0-.58.17,1.23,1.23,0,0,0-.36.49v5.8h-2.22V581h2.07l.09,1.14h0a2.38,2.38,0,0,1,.57-1,1.17,1.17,0,0,1,.84-.34l.32,0a1.77,1.77,0,0,1,.29.07Z"/><path class="cls-4" d="M569.84,581l.09,1.08a2.47,2.47,0,0,1,.84-.91,2.09,2.09,0,0,1,1.16-.32,1.86,1.86,0,0,1,1.12.34,2.08,2.08,0,0,1,.73,1,2.65,2.65,0,0,1,.84-1,2,2,0,0,1,1.2-.36,1.92,1.92,0,0,1,1.66.86,4.66,4.66,0,0,1,.6,2.64v5.11h-2.22v-5.12a2.86,2.86,0,0,0-.22-1.35.68.68,0,0,0-.65-.37.89.89,0,0,0-.57.19,1.42,1.42,0,0,0-.42.51c0,.1,0,.2,0,.3s0,.19,0,.3v5.54h-2.21v-5.12a2.81,2.81,0,0,0-.22-1.34.71.71,0,0,0-.67-.38,1,1,0,0,0-.54.15,1.3,1.3,0,0,0-.41.43v6.26h-2.21V581Z"/><path class="cls-4" d="M583.65,589.46c-.06-.14-.12-.3-.17-.46a4.64,4.64,0,0,1-.11-.51,2.61,2.61,0,0,1-.76.82,1.77,1.77,0,0,1-1,.31,2.16,2.16,0,0,1-1.68-.69,2.61,2.61,0,0,1-.63-1.83,2.42,2.42,0,0,1,.8-1.93,3.58,3.58,0,0,1,2.38-.69h.84v-.69a1.69,1.69,0,0,0-.23-.95.74.74,0,0,0-.66-.33.66.66,0,0,0-.57.27,1.35,1.35,0,0,0-.18.77h-2.15l0,0a2.35,2.35,0,0,1,.82-1.88,3.21,3.21,0,0,1,2.26-.77,3,3,0,0,1,2.14.77,2.84,2.84,0,0,1,.82,2.19v3.42a7,7,0,0,0,.09,1.16,6.71,6.71,0,0,0,.27,1.07ZM582.21,588a1.15,1.15,0,0,0,.62-.18,1.32,1.32,0,0,0,.45-.46v-1.56h-.84a.81.81,0,0,0-.73.35,1.67,1.67,0,0,0-.23.9,1.1,1.1,0,0,0,.2.68A.61.61,0,0,0,582.21,588Z"/><path class="cls-4" d="M589.23,589.46H587V577.27h2.22Z"/><path class="cls-4" d="M552.57,646.81H550v9.6h-2.22v-9.6h-2.54V645h7.32Z"/><path class="cls-4" d="M556.91,650l-.84,0a1,1,0,0,0-.58.17,1.09,1.09,0,0,0-.35.48v5.8h-2.22V648H555l.08,1.13,0,0a2.36,2.36,0,0,1,.57-1,1.19,1.19,0,0,1,.85-.35l.31,0,.3.07Z"/><path class="cls-4" d="M562.15,656.41A4.05,4.05,0,0,1,562,656a4.64,4.64,0,0,1-.11-.51,2.65,2.65,0,0,1-.76.83,1.85,1.85,0,0,1-1,.31,2.16,2.16,0,0,1-1.68-.69,2.62,2.62,0,0,1-.63-1.84,2.42,2.42,0,0,1,.8-1.93,3.58,3.58,0,0,1,2.38-.69h.84v-.68a1.69,1.69,0,0,0-.23-1,.74.74,0,0,0-.66-.33.65.65,0,0,0-.57.26,1.39,1.39,0,0,0-.18.77H558l0,0a2.33,2.33,0,0,1,.82-1.87,3.22,3.22,0,0,1,2.26-.78,3,3,0,0,1,2.14.77,2.84,2.84,0,0,1,.82,2.19v3.42a7.13,7.13,0,0,0,.09,1.17,6.59,6.59,0,0,0,.27,1.06Zm-1.44-1.51a1.15,1.15,0,0,0,.62-.18,1.32,1.32,0,0,0,.45-.46v-1.55h-.84a.81.81,0,0,0-.73.35,1.61,1.61,0,0,0-.23.89,1.15,1.15,0,0,0,.2.69A.63.63,0,0,0,560.71,654.9Z"/><path class="cls-4" d="M572,652.83a4.72,4.72,0,0,1-.71,2.73,2.36,2.36,0,0,1-2.08,1,1.93,1.93,0,0,1-1-.28,2.26,2.26,0,0,1-.76-.8l-.13.91h-1.92V644.22h2.22v4.46a2.15,2.15,0,0,1,.7-.65,1.84,1.84,0,0,1,.91-.23,2.33,2.33,0,0,1,2.08,1.06,5,5,0,0,1,.72,2.82Zm-2.22-1.15a4,4,0,0,0-.24-1.55.91.91,0,0,0-.91-.55,1.13,1.13,0,0,0-.62.17,1.42,1.42,0,0,0-.42.51v4a1,1,0,0,0,.42.44,1.22,1.22,0,0,0,.63.14.92.92,0,0,0,.91-.49,3.52,3.52,0,0,0,.23-1.47Z"/><path class="cls-4" d="M577.3,656.41a4.05,4.05,0,0,1-.17-.46,4.64,4.64,0,0,1-.11-.51,2.65,2.65,0,0,1-.76.83,1.86,1.86,0,0,1-1,.31,2.16,2.16,0,0,1-1.67-.69,2.62,2.62,0,0,1-.63-1.84,2.42,2.42,0,0,1,.8-1.93,3.58,3.58,0,0,1,2.38-.69h.84v-.68a1.69,1.69,0,0,0-.23-1,.75.75,0,0,0-.66-.33.65.65,0,0,0-.57.26,1.39,1.39,0,0,0-.18.77h-2.15l0,0a2.33,2.33,0,0,1,.82-1.87,3.21,3.21,0,0,1,2.25-.78,3,3,0,0,1,2.15.77,2.84,2.84,0,0,1,.82,2.19v3.42a7.13,7.13,0,0,0,.09,1.17,6.56,6.56,0,0,0,.26,1.06Zm-1.44-1.51a1.15,1.15,0,0,0,.62-.18,1.32,1.32,0,0,0,.45-.46v-1.55h-.84a.81.81,0,0,0-.73.35,1.53,1.53,0,0,0-.23.89,1.15,1.15,0,0,0,.19.69A.65.65,0,0,0,575.86,654.9Z"/><path class="cls-4" d="M582.93,648v8.71a3.45,3.45,0,0,1-.71,2.33,2.43,2.43,0,0,1-2,.83,3.75,3.75,0,0,1-.5,0l-.5-.1.09-1.73.32.07.31,0a.58.58,0,0,0,.53-.34,2.29,2.29,0,0,0,.18-1V648Zm0-2h-2.22v-1.7h2.22Z"/><path class="cls-4" d="M584.1,651.67a4.23,4.23,0,0,1,.9-2.79,3.5,3.5,0,0,1,5.06,0,4.23,4.23,0,0,1,.9,2.79v1.05a4.17,4.17,0,0,1-.9,2.78,3.5,3.5,0,0,1-5.06,0,4.17,4.17,0,0,1-.9-2.78Zm2.21,1a3.6,3.6,0,0,0,.27,1.54,1,1,0,0,0,1,.55,1,1,0,0,0,.93-.56,3.54,3.54,0,0,0,.28-1.53v-1.05a3.59,3.59,0,0,0-.28-1.52,1.06,1.06,0,0,0-1.88,0,3.39,3.39,0,0,0-.28,1.51Z"/><path class="cls-4" d="M551.39,723.37h-2.21V712h2.21Z"/><path class="cls-4" d="M555.13,714.91l.09,1.17a3,3,0,0,1,.87-1,1.94,1.94,0,0,1,1.12-.34,2,2,0,0,1,1.67.81,4.32,4.32,0,0,1,.6,2.55v5.25h-2.23v-5.25a2.34,2.34,0,0,0-.24-1.24.88.88,0,0,0-.76-.35,1,1,0,0,0-.55.16,1.16,1.16,0,0,0-.42.43v6.25h-2.22v-8.46Z"/><path class="cls-4" d="M563.51,712.81v2.1h1.17v1.61h-1.17v4.24a1.36,1.36,0,0,0,.15.74.46.46,0,0,0,.41.22h.34l.31-.07.17,1.69a4.27,4.27,0,0,1-.67.15,5.08,5.08,0,0,1-.72,0,2,2,0,0,1-1.64-.66,3.18,3.18,0,0,1-.57-2.1v-4.25h-1v-1.61h1v-2.1Z"/><path class="cls-4" d="M568.25,712.87H566v-1.69h2.21Zm0,10.5H566v-8.46h2.21Z"/><path class="cls-4" d="M571.88,714.91,572,716a2.5,2.5,0,0,1,.85-.91,2.09,2.09,0,0,1,1.16-.32,1.86,1.86,0,0,1,1.12.34,2.08,2.08,0,0,1,.73,1,2.58,2.58,0,0,1,.84-1,2,2,0,0,1,1.2-.36,1.92,1.92,0,0,1,1.66.86,4.64,4.64,0,0,1,.6,2.64v5.11h-2.23v-5.12a3,3,0,0,0-.21-1.35.69.69,0,0,0-.65-.37.87.87,0,0,0-.57.19,1.34,1.34,0,0,0-.42.51c0,.1,0,.2,0,.3s0,.19,0,.3v5.54h-2.21v-5.12a3,3,0,0,0-.22-1.35.71.71,0,0,0-.67-.37,1,1,0,0,0-.54.15,1.3,1.3,0,0,0-.41.43v6.26h-2.21v-8.46Z"/><path class="cls-4" d="M585.69,723.37c-.06-.15-.12-.3-.17-.47a4,4,0,0,1-.11-.5,2.73,2.73,0,0,1-.76.82,1.77,1.77,0,0,1-1,.31,2.16,2.16,0,0,1-1.68-.69,2.61,2.61,0,0,1-.63-1.83,2.4,2.4,0,0,1,.8-1.93,3.58,3.58,0,0,1,2.38-.69h.84v-.69a1.69,1.69,0,0,0-.23-1,.74.74,0,0,0-.66-.33.66.66,0,0,0-.57.27,1.35,1.35,0,0,0-.18.77h-2.15l0-.05a2.33,2.33,0,0,1,.82-1.87,3.2,3.2,0,0,1,2.25-.77,3,3,0,0,1,2.15.77,2.84,2.84,0,0,1,.82,2.19v3.42a7,7,0,0,0,.09,1.16,6.67,6.67,0,0,0,.26,1.07Zm-1.44-1.51a1.15,1.15,0,0,0,.62-.18,1.41,1.41,0,0,0,.45-.46v-1.56h-.84a.81.81,0,0,0-.73.35,1.55,1.55,0,0,0-.23.89,1.18,1.18,0,0,0,.19.69A.63.63,0,0,0,584.25,721.86Z"/><path class="cls-4" d="M554,786.23v4.09h-2.23V779h4a3.64,3.64,0,1,1,0,7.28Zm0-1.77h1.73a1.24,1.24,0,0,0,1.08-.52,2.25,2.25,0,0,0,.38-1.33,2.4,2.4,0,0,0-.37-1.36,1.26,1.26,0,0,0-1.09-.53H554Z"/><path class="cls-4" d="M563,790.32h-2.22V778.13H563Z"/><path class="cls-4" d="M568.7,790.32a4.09,4.09,0,0,1-.16-.46,4.7,4.7,0,0,1-.12-.51,2.65,2.65,0,0,1-.76.83,1.84,1.84,0,0,1-1,.3,2.19,2.19,0,0,1-1.68-.68,2.62,2.62,0,0,1-.63-1.84,2.42,2.42,0,0,1,.8-1.93,3.58,3.58,0,0,1,2.38-.69h.84v-.68a1.78,1.78,0,0,0-.22-.95.77.77,0,0,0-.67-.33.62.62,0,0,0-.56.26,1.31,1.31,0,0,0-.19.77h-2.15l0,0a2.32,2.32,0,0,1,.81-1.88,3.26,3.26,0,0,1,2.26-.77,3,3,0,0,1,2.14.77,2.84,2.84,0,0,1,.82,2.19v3.42a7.13,7.13,0,0,0,.09,1.17,6.59,6.59,0,0,0,.27,1.06Zm-1.44-1.51a1.15,1.15,0,0,0,.62-.18,1.32,1.32,0,0,0,.45-.46v-1.55h-.84a.79.79,0,0,0-.73.35,1.61,1.61,0,0,0-.23.89,1.15,1.15,0,0,0,.2.69A.63.63,0,0,0,567.26,788.81Z"/><path class="cls-4" d="M574.56,786.85l0,.09,1.23-5.07h2.38l-2.85,9.72a4.7,4.7,0,0,1-.86,1.53,2.06,2.06,0,0,1-1.64.61,2.33,2.33,0,0,1-.48,0l-.56-.14.25-1.66.2,0h.13a1,1,0,0,0,.73-.26,1.49,1.49,0,0,0,.35-.66l.2-.63-2.5-8.52h2.39Z"/><path class="cls-4" d="M583,790.32a2.75,2.75,0,0,1-.17-.46,4.7,4.7,0,0,1-.12-.51,2.54,2.54,0,0,1-.76.83,1.82,1.82,0,0,1-1,.3,2.19,2.19,0,0,1-1.68-.68,2.62,2.62,0,0,1-.63-1.84,2.39,2.39,0,0,1,.81-1.93,3.53,3.53,0,0,1,2.37-.69h.84v-.68a1.69,1.69,0,0,0-.22-.95.75.75,0,0,0-.67-.33.62.62,0,0,0-.56.26,1.31,1.31,0,0,0-.19.77h-2.15l0,0a2.32,2.32,0,0,1,.81-1.88,3.28,3.28,0,0,1,2.26-.77,3,3,0,0,1,2.14.77,2.84,2.84,0,0,1,.83,2.19v3.42a8.49,8.49,0,0,0,.08,1.17,6.59,6.59,0,0,0,.27,1.06Zm-1.45-1.51a1.15,1.15,0,0,0,.62-.18,1.32,1.32,0,0,0,.45-.46v-1.55h-.84a.8.8,0,0,0-.73.35,1.61,1.61,0,0,0-.23.89,1.15,1.15,0,0,0,.2.69A.64.64,0,0,0,581.5,788.81Z"/><path class="cls-4" d="M512.48,848v4.08h-2.22V840.68h4a3.56,3.56,0,0,1,2.69,1,3.63,3.63,0,0,1,1,2.63,3.44,3.44,0,0,1-3.67,3.65Zm0-1.78h1.73a1.26,1.26,0,0,0,1.09-.52,2.22,2.22,0,0,0,.37-1.33,2.31,2.31,0,0,0-.37-1.35,1.24,1.24,0,0,0-1.09-.54h-1.73Z"/><path class="cls-4" d="M523.16,845.62l-.84,0a1,1,0,0,0-.58.17,1.23,1.23,0,0,0-.36.49v5.79h-2.22V843.6h2.07l.09,1.13,0,0a2.25,2.25,0,0,1,.57-1,1.18,1.18,0,0,1,.84-.35l.32,0a1.77,1.77,0,0,1,.29.07Z"/><path class="cls-4" d="M527.42,852.22a3.23,3.23,0,0,1-2.53-1.05,3.84,3.84,0,0,1-.94-2.64v-1.19a4.36,4.36,0,0,1,.87-2.8,2.93,2.93,0,0,1,2.41-1.1,2.81,2.81,0,0,1,2.3,1,4.14,4.14,0,0,1,.81,2.7v1.36h-4.18v0a2.37,2.37,0,0,0,.38,1.38,1.34,1.34,0,0,0,1.15.53,2.89,2.89,0,0,0,1-.14,5.63,5.63,0,0,0,.93-.46l.57,1.41a3.49,3.49,0,0,1-1.17.69A4.39,4.39,0,0,1,527.42,852.22Zm-.19-7a.83.83,0,0,0-.78.48,3.31,3.31,0,0,0-.28,1.31h2v-.31a2.32,2.32,0,0,0-.21-1.09A.77.77,0,0,0,527.23,845.22Z"/><path class="cls-4" d="M533.49,843.6l.1,1.16a2.81,2.81,0,0,1,.86-1,2,2,0,0,1,1.13-.35,1.94,1.94,0,0,1,1.66.82,4.32,4.32,0,0,1,.6,2.55v5.24h-2.22v-5.24a2.23,2.23,0,0,0-.25-1.24.87.87,0,0,0-.76-.35,1.06,1.06,0,0,0-.55.15,1.57,1.57,0,0,0-.42.43v6.25h-2.22V843.6Z"/><path class="cls-4" d="M538.94,847.87a6.2,6.2,0,0,1,.73-3.21,2.3,2.3,0,0,1,2.07-1.22,1.67,1.67,0,0,1,.89.24,2.25,2.25,0,0,1,.71.67v-4.48h2.22v12.18h-1.93l-.15-.92a2.29,2.29,0,0,1-.76.81,1.76,1.76,0,0,1-1,.28,2.3,2.3,0,0,1-2.06-1.15,5.53,5.53,0,0,1-.73-3Zm2.22.17a4.65,4.65,0,0,0,.26,1.77.9.9,0,0,0,.88.63,1.13,1.13,0,0,0,.61-.16,1.28,1.28,0,0,0,.43-.46V846a1.62,1.62,0,0,0-.43-.55,1,1,0,0,0-.59-.19.94.94,0,0,0-.89.73,5.63,5.63,0,0,0-.27,1.92Z"/><path class="cls-4" d="M551.13,852.05a2.75,2.75,0,0,1-.17-.46,4.05,4.05,0,0,1-.12-.5,2.61,2.61,0,0,1-.76.82,1.77,1.77,0,0,1-1,.31,2.16,2.16,0,0,1-1.68-.69,2.62,2.62,0,0,1-.63-1.84,2.41,2.41,0,0,1,.81-1.93,3.58,3.58,0,0,1,2.37-.68h.84v-.69a1.69,1.69,0,0,0-.22-.95.75.75,0,0,0-.67-.33.65.65,0,0,0-.56.26,1.32,1.32,0,0,0-.19.78H547l0,0a2.29,2.29,0,0,1,.81-1.87,3.23,3.23,0,0,1,2.26-.78,3,3,0,0,1,2.14.77,2.88,2.88,0,0,1,.83,2.2v3.42a8.45,8.45,0,0,0,.08,1.16,6.33,6.33,0,0,0,.27,1.06Zm-1.45-1.5a1.15,1.15,0,0,0,.62-.18,1.41,1.41,0,0,0,.45-.46v-1.56h-.84a.82.82,0,0,0-.73.35,1.63,1.63,0,0,0-.23.89,1.15,1.15,0,0,0,.2.69A.62.62,0,0,0,549.68,850.55Z"/><path class="cls-4" d="M558.06,849.84a.82.82,0,0,0-.28-.62,4.85,4.85,0,0,0-1.08-.64,5.79,5.79,0,0,1-1.91-1.08,2.06,2.06,0,0,1-.63-1.56,2.31,2.31,0,0,1,.81-1.77,3.17,3.17,0,0,1,2.16-.73,3.25,3.25,0,0,1,2.25.75,2.39,2.39,0,0,1,.8,1.92l0,0H558a1.5,1.5,0,0,0-.22-.85.76.76,0,0,0-.67-.31.84.84,0,0,0-.61.24.78.78,0,0,0-.25.59.76.76,0,0,0,.25.6,4.29,4.29,0,0,0,1.08.63,5.15,5.15,0,0,1,2,1.08,2.13,2.13,0,0,1,.64,1.62,2.18,2.18,0,0,1-.86,1.77,3.48,3.48,0,0,1-2.26.69,3.16,3.16,0,0,1-2.31-.85,2.5,2.5,0,0,1-.81-1.93v0h2a1.37,1.37,0,0,0,.31,1,1.14,1.14,0,0,0,.82.29.94.94,0,0,0,.68-.22A.78.78,0,0,0,558.06,849.84Z"/><path class="cls-4" d="M564.53,847.87a6.2,6.2,0,0,1,.74-3.21,2.3,2.3,0,0,1,2.07-1.22,1.72,1.72,0,0,1,.89.24,2.49,2.49,0,0,1,.71.67v-4.48h2.22v12.18h-1.93l-.15-.92a2.39,2.39,0,0,1-.76.81,1.76,1.76,0,0,1-1,.28,2.32,2.32,0,0,1-2.07-1.15,5.53,5.53,0,0,1-.73-3Zm2.22.17a4.86,4.86,0,0,0,.26,1.77.91.91,0,0,0,.89.63,1.08,1.08,0,0,0,.6-.16,1.3,1.3,0,0,0,.44-.46V846a1.64,1.64,0,0,0-.44-.55,1,1,0,0,0-.59-.19c-.41,0-.7.24-.89.73a5.63,5.63,0,0,0-.27,1.92Z"/><path class="cls-4" d="M575.89,852.22a3.22,3.22,0,0,1-2.53-1.05,3.79,3.79,0,0,1-.94-2.64v-1.19a4.36,4.36,0,0,1,.87-2.8,2.92,2.92,0,0,1,2.41-1.1,2.81,2.81,0,0,1,2.3,1,4.14,4.14,0,0,1,.81,2.7v1.36h-4.18v0a2.37,2.37,0,0,0,.38,1.38,1.33,1.33,0,0,0,1.15.53,2.89,2.89,0,0,0,1-.14,5.63,5.63,0,0,0,.93-.46l.56,1.41a3.34,3.34,0,0,1-1.16.69A4.43,4.43,0,0,1,575.89,852.22Zm-.19-7a.83.83,0,0,0-.78.48,3.31,3.31,0,0,0-.28,1.31h2v-.31a2.19,2.19,0,0,0-.22-1.09A.74.74,0,0,0,575.7,845.22Z"/><path class="cls-4" d="M586.52,850.44a.79.79,0,0,0,.69-.33,1.76,1.76,0,0,0,.23-1h2l0,.05a2.93,2.93,0,0,1-.82,2.18,2.9,2.9,0,0,1-2.14.85,3.1,3.1,0,0,1-2.52-1.07,4.27,4.27,0,0,1-.87-2.77V847.3a4.27,4.27,0,0,1,.87-2.77,3,3,0,0,1,2.51-1.09,2.82,2.82,0,0,1,2.18.89,3.33,3.33,0,0,1,.79,2.38l0,0h-2a2.35,2.35,0,0,0-.23-1.11.76.76,0,0,0-.7-.42.93.93,0,0,0-.92.56,3.92,3.92,0,0,0-.25,1.51v1.09a3.87,3.87,0,0,0,.25,1.52A.94.94,0,0,0,586.52,850.44Z"/><path class="cls-4" d="M590.28,847.31a4.2,4.2,0,0,1,.9-2.78,3.48,3.48,0,0,1,5.06,0,4.16,4.16,0,0,1,.91,2.78v1.05a4.16,4.16,0,0,1-.91,2.79,3.12,3.12,0,0,1-2.52,1.07,3.16,3.16,0,0,1-2.54-1.07,4.21,4.21,0,0,1-.9-2.79Zm2.21,1.05a3.4,3.4,0,0,0,.28,1.53,1,1,0,0,0,1,.55.94.94,0,0,0,.93-.56,3.38,3.38,0,0,0,.28-1.52v-1.05a3.38,3.38,0,0,0-.28-1.52,1.06,1.06,0,0,0-1.88,0,3.59,3.59,0,0,0-.28,1.52Z"/><path class="cls-4" d="M600.35,843.6l.1,1.16a2.81,2.81,0,0,1,.86-1,2,2,0,0,1,1.13-.35,2,2,0,0,1,1.66.82,4.32,4.32,0,0,1,.6,2.55v5.24h-2.22v-5.24a2.32,2.32,0,0,0-.25-1.24.87.87,0,0,0-.76-.35,1.06,1.06,0,0,0-.55.15,1.44,1.44,0,0,0-.42.43v6.25h-2.22V843.6Z"/><path class="cls-4" d="M608.73,841.5v2.1h1.18v1.61h-1.18v4.24a1.36,1.36,0,0,0,.15.74.47.47,0,0,0,.41.22,1.72,1.72,0,0,0,.34,0l.32-.06.17,1.68a3.8,3.8,0,0,1-.67.16,5.35,5.35,0,0,1-.73.05,2.05,2.05,0,0,1-1.64-.66,3.18,3.18,0,0,1-.56-2.1v-4.25h-1V843.6h1v-2.1Z"/><path class="cls-4" d="M615.15,845.62l-.84,0a1,1,0,0,0-.58.17,1.12,1.12,0,0,0-.35.49v5.79h-2.22V843.6h2.07l.08,1.13,0,0a2.36,2.36,0,0,1,.57-1,1.19,1.19,0,0,1,.85-.35l.31,0,.3.07Z"/><path class="cls-4" d="M615.85,847.31a4.2,4.2,0,0,1,.9-2.78,3.48,3.48,0,0,1,5.06,0,4.16,4.16,0,0,1,.91,2.78v1.05a4.16,4.16,0,0,1-.91,2.79,3.12,3.12,0,0,1-2.52,1.07,3.16,3.16,0,0,1-2.54-1.07,4.21,4.21,0,0,1-.9-2.79Zm2.21,1.05a3.4,3.4,0,0,0,.28,1.53,1,1,0,0,0,.95.55.94.94,0,0,0,.93-.56,3.38,3.38,0,0,0,.28-1.52v-1.05a3.38,3.38,0,0,0-.28-1.52,1.06,1.06,0,0,0-1.88,0,3.59,3.59,0,0,0-.28,1.52Z"/><path class="cls-4" d="M626.21,852.05H624V839.87h2.22Z"/><path d="M349.88,786.4h-2.21V775h2.21Z"/><path d="M353.62,778l.09,1.17a2.76,2.76,0,0,1,.86-1,2.06,2.06,0,0,1,2.79.47,4.24,4.24,0,0,1,.61,2.55v5.24h-2.23v-5.24a2.23,2.23,0,0,0-.25-1.24.86.86,0,0,0-.76-.35,1,1,0,0,0-.54.15,1.39,1.39,0,0,0-.43.44v6.24h-2.21V778Z"/><path d="M362,775.85V778h1.17v1.61H362v4.24a1.36,1.36,0,0,0,.15.74.45.45,0,0,0,.4.22,1.83,1.83,0,0,0,.35,0l.31-.06.17,1.69a4.54,4.54,0,0,1-.67.15,5.23,5.23,0,0,1-.73.05,2,2,0,0,1-1.63-.66,3.18,3.18,0,0,1-.57-2.1v-4.25h-1V778h1v-2.1Z"/><path d="M367.71,786.57a3.22,3.22,0,0,1-2.53-1.05,3.79,3.79,0,0,1-.94-2.64v-1.19a4.36,4.36,0,0,1,.87-2.8,2.92,2.92,0,0,1,2.41-1.1,2.81,2.81,0,0,1,2.3,1,4.14,4.14,0,0,1,.81,2.7v1.36h-4.18v0a2.37,2.37,0,0,0,.38,1.38,1.29,1.29,0,0,0,1.15.53,2.89,2.89,0,0,0,1-.14,5.63,5.63,0,0,0,.93-.46l.56,1.41a3.34,3.34,0,0,1-1.16.69A4.43,4.43,0,0,1,367.71,786.57Zm-.19-7a.83.83,0,0,0-.78.48,3.16,3.16,0,0,0-.28,1.32h2v-.32a2.19,2.19,0,0,0-.22-1.09A.74.74,0,0,0,367.52,779.57Z"/><path d="M375.74,780l-.84,0a1,1,0,0,0-.58.17,1.12,1.12,0,0,0-.35.49v5.79h-2.22V778h2.07l.08,1.13,0,0a2.36,2.36,0,0,1,.57-1,1.19,1.19,0,0,1,.85-.35l.31,0,.3.07Z"/><path d="M379.19,775.91H377v-1.69h2.22Zm0,10.49H377V778h2.22Z"/><path d="M380.47,781.66a4.2,4.2,0,0,1,.9-2.78,3.48,3.48,0,0,1,5.06,0,4.2,4.2,0,0,1,.9,2.78v1.05a4.21,4.21,0,0,1-.9,2.79,3.53,3.53,0,0,1-5.06,0,4.21,4.21,0,0,1-.9-2.79Zm2.21,1.05a3.56,3.56,0,0,0,.27,1.53,1.09,1.09,0,0,0,1.89,0,3.6,3.6,0,0,0,.28-1.53v-1.05a3.52,3.52,0,0,0-.28-1.52,1,1,0,0,0-.94-.57,1,1,0,0,0-.94.57,3.44,3.44,0,0,0-.28,1.52Z"/><path d="M392.5,780l-.84,0a1,1,0,0,0-.58.17,1.12,1.12,0,0,0-.35.49v5.79h-2.22V778h2.07l.08,1.13,0,0a2.36,2.36,0,0,1,.57-1,1.19,1.19,0,0,1,.85-.35l.31,0,.3.07Z"/><path d="M340.4,852.05V840.68h3.43a3.68,3.68,0,0,1,2.9,1.32,5.05,5.05,0,0,1,1.14,3.41v1.92a5,5,0,0,1-1.14,3.4,3.68,3.68,0,0,1-2.9,1.32Zm2.22-9.6v7.83h1.09a1.58,1.58,0,0,0,1.43-.81,4,4,0,0,0,.51-2.15v-1.93a3.93,3.93,0,0,0-.51-2.13,1.58,1.58,0,0,0-1.43-.81Z"/><path d="M352.54,852.22a3.22,3.22,0,0,1-2.53-1.05,3.79,3.79,0,0,1-.94-2.64v-1.19a4.36,4.36,0,0,1,.87-2.8,2.91,2.91,0,0,1,2.41-1.1,2.81,2.81,0,0,1,2.3,1,4.14,4.14,0,0,1,.81,2.7v1.36h-4.18v0a2.37,2.37,0,0,0,.38,1.38,1.31,1.31,0,0,0,1.14.53,2.91,2.91,0,0,0,1-.14,5.63,5.63,0,0,0,.93-.46l.56,1.41a3.3,3.3,0,0,1-1.17.69A4.34,4.34,0,0,1,352.54,852.22Zm-.19-7a.83.83,0,0,0-.78.48,3.15,3.15,0,0,0-.28,1.31h2v-.31a2.19,2.19,0,0,0-.22-1.09A.74.74,0,0,0,352.35,845.22Z"/><path d="M363.2,848.48a4.55,4.55,0,0,1-.73,2.71,2.38,2.38,0,0,1-2.06,1,1.89,1.89,0,0,1-1.61-.82v3.9h-2.22V843.6h2.05l.08.84a2.22,2.22,0,0,1,.72-.74,1.83,1.83,0,0,1,1-.26,2.36,2.36,0,0,1,2.07,1.1,5.13,5.13,0,0,1,.73,2.9ZM361,847.43a3.85,3.85,0,0,0-.28-1.61.93.93,0,0,0-.88-.6,1.09,1.09,0,0,0-.61.17,1.27,1.27,0,0,0-.41.5v4a1,1,0,0,0,.41.42,1.16,1.16,0,0,0,.62.14.91.91,0,0,0,.88-.52,3.2,3.2,0,0,0,.27-1.45Z"/><path d="M364.08,847.31a4.21,4.21,0,0,1,.91-2.78,3.08,3.08,0,0,1,2.52-1.09,3.12,3.12,0,0,1,2.54,1.09,4.2,4.2,0,0,1,.9,2.78v1.05a4.21,4.21,0,0,1-.9,2.79,3.53,3.53,0,0,1-5.06,0,4.22,4.22,0,0,1-.91-2.79Zm2.22,1.05a3.56,3.56,0,0,0,.27,1.53,1.08,1.08,0,0,0,1.89,0,3.54,3.54,0,0,0,.27-1.52v-1.05a3.54,3.54,0,0,0-.27-1.52,1.07,1.07,0,0,0-1.89,0,3.6,3.6,0,0,0-.27,1.52Z"/><path d="M376.12,845.62l-.84,0a1,1,0,0,0-.58.17,1.14,1.14,0,0,0-.36.49v5.79h-2.22V843.6h2.07l.09,1.13,0,0a2.16,2.16,0,0,1,.57-1,1.18,1.18,0,0,1,.84-.35l.32,0a1.77,1.77,0,0,1,.29.07Z"/><path d="M380.13,841.5v2.1h1.17v1.61h-1.17v4.24a1.36,1.36,0,0,0,.15.74.46.46,0,0,0,.41.22,1.72,1.72,0,0,0,.34,0l.31-.06.17,1.68a3.42,3.42,0,0,1-.67.16,5.08,5.08,0,0,1-.72.05,2,2,0,0,1-1.64-.66,3.18,3.18,0,0,1-.57-2.1v-4.25h-1V843.6h1v-2.1Z"/><path d="M384.87,841.56h-2.22v-1.69h2.22Zm0,10.49h-2.22V843.6h2.22Z"/><path d="M389.13,848.87l.1.64h0l.11-.64,1-5.27h2.32l-2.35,8.45h-2.17l-2.35-8.45h2.32Z"/><path d="M397.52,852.05a3.65,3.65,0,0,1-.28-1,2.73,2.73,0,0,1-.76.82,1.77,1.77,0,0,1-1,.31,2.16,2.16,0,0,1-1.68-.69,2.62,2.62,0,0,1-.63-1.84,2.43,2.43,0,0,1,.8-1.93,3.63,3.63,0,0,1,2.38-.68h.84v-.69a1.69,1.69,0,0,0-.23-.95.74.74,0,0,0-.66-.33.68.68,0,0,0-.57.26,1.41,1.41,0,0,0-.18.78h-2.15l0,0a2.33,2.33,0,0,1,.82-1.87,3.21,3.21,0,0,1,2.25-.78,3,3,0,0,1,2.15.77,2.87,2.87,0,0,1,.82,2.2v3.42a7.09,7.09,0,0,0,.09,1.16,6.33,6.33,0,0,0,.27,1.06Zm-1.44-1.5a1.15,1.15,0,0,0,.62-.18,1.41,1.41,0,0,0,.45-.46v-1.56h-.84a.81.81,0,0,0-.73.35,1.63,1.63,0,0,0-.23.89,1.15,1.15,0,0,0,.2.69A.61.61,0,0,0,396.08,850.55Z"/><line class="cls-6" x1="447.01" y1="58.56" x2="469.01" y2="58.56"/><polyline class="cls-6" points="491 25.74 469.01 25.74 469.01 91.39 491 91.39"/><line class="cls-6" x1="447.01" y1="189.86" x2="469.01" y2="189.86"/><polyline class="cls-6" points="491 157.04 469.01 157.04 469.01 222.69 491 222.69"/><line class="cls-7" x1="248.59" y1="255.51" x2="270.59" y2="255.51"/><polyline class="cls-7" points="292.58 58.56 270.59 58.56 270.59 452.46 292.58 452.46"/><line class="cls-8" x1="50.59" y1="501.52" x2="72.59" y2="501.52"/><polyline class="cls-8" points="94.58 255.56 72.59 255.56 72.59 747.48 94.58 747.48"/><line class="cls-7" x1="248.59" y1="747.88" x2="270.59" y2="747.88"/><polyline class="cls-7" points="292.58 583.76 270.59 583.76 270.59 912 292.58 912"/><line class="cls-6" x1="447.01" y1="583.76" x2="469.01" y2="583.76"/><polyline class="cls-6" points="491 516.8 469.01 516.8 469.01 649.41 491 649.41"/><line class="cls-6" x1="447.01" y1="780.71" x2="469.01" y2="780.71"/><polyline class="cls-6" points="491 715.06 469.01 715.06 469.01 846.36 491 846.36"/><path class="cls-4" d="M30.09,594.23V588h2.66v9.57H15.69v-3.34Z"/><path class="cls-4" d="M15.37,584.26v-3.51l.07,0,3,2.92v2.68ZM32.75,583v3.34H20.07V583Z"/><path class="cls-4" d="M20.07,577.48l1.75-.14a4.2,4.2,0,0,1-1.46-1.29,3.11,3.11,0,0,1,.7-4.19,6.49,6.49,0,0,1,3.83-.9h7.86v3.34H24.88a3.37,3.37,0,0,0-1.85.37,1.29,1.29,0,0,0-.53,1.14,1.59,1.59,0,0,0,.23.82,2,2,0,0,0,.65.63h9.37v3.33H20.07Z"/><path class="cls-4" d="M33,563.94a4.84,4.84,0,0,1-1.57,3.79,5.72,5.72,0,0,1-4,1.41H25.69a6.54,6.54,0,0,1-4.21-1.31,4.34,4.34,0,0,1-1.64-3.61,4.19,4.19,0,0,1,1.49-3.45,6.21,6.21,0,0,1,4.05-1.22h2v6.27h0a3.5,3.5,0,0,0,2.06-.57,1.94,1.94,0,0,0,.81-1.71,4.66,4.66,0,0,0-.21-1.53,8,8,0,0,0-.71-1.39l2.12-.84a4.94,4.94,0,0,1,1.05,1.75A6.89,6.89,0,0,1,33,563.94Zm-10.5.28a1.23,1.23,0,0,0,.73,1.17,4.68,4.68,0,0,0,2,.42v-3h-.47a3.38,3.38,0,0,0-1.64.33A1.13,1.13,0,0,0,22.5,564.22Z"/><path class="cls-4" d="M32.75,551.7a4.3,4.3,0,0,1-.69.25,4,4,0,0,1-.76.17,4,4,0,0,1,1.23,1.15,2.69,2.69,0,0,1,.47,1.56,3.24,3.24,0,0,1-1,2.51,3.94,3.94,0,0,1-2.76.95,3.61,3.61,0,0,1-2.89-1.2,5.34,5.34,0,0,1-1-3.57v-1.26h-1a2.58,2.58,0,0,0-1.43.34,1.13,1.13,0,0,0-.5,1,1,1,0,0,0,.4.84,2,2,0,0,0,1.16.29V558l-.07,0A3.48,3.48,0,0,1,21,556.76a4.82,4.82,0,0,1-1.16-3.38A4.54,4.54,0,0,1,21,550.16a4.3,4.3,0,0,1,3.29-1.24h5.13a11.93,11.93,0,0,0,1.75-.12,9.74,9.74,0,0,0,1.59-.4Zm-2.26,2.17a1.68,1.68,0,0,0-.27-.93,2,2,0,0,0-.69-.68H27.2v1.26a1.21,1.21,0,0,0,.52,1.1,2.42,2.42,0,0,0,1.34.34,1.72,1.72,0,0,0,1-.29A.93.93,0,0,0,30.49,553.87Z"/><path class="cls-4" d="M26.48,542a9.26,9.26,0,0,1-4.81-1.1,3.45,3.45,0,0,1-1.83-3.11,2.5,2.5,0,0,1,.35-1.33,3.4,3.4,0,0,1,1-1.07H14.47v-3.33H32.75V535l-1.38.22a3.81,3.81,0,0,1,1.21,1.14A2.67,2.67,0,0,1,33,537.8a3.46,3.46,0,0,1-1.72,3.1,8.35,8.35,0,0,1-4.55,1.1Zm.25-3.33a7.25,7.25,0,0,0,2.66-.39,1.37,1.37,0,0,0,.95-1.33,1.63,1.63,0,0,0-.24-.9,2,2,0,0,0-.7-.66H23.61a2.39,2.39,0,0,0-.82.66,1.42,1.42,0,0,0-.29.87,1.4,1.4,0,0,0,1.09,1.34,8.48,8.48,0,0,0,2.89.41Z"/><path class="cls-4" d="M33,525a4.88,4.88,0,0,1-1.57,3.8,5.76,5.76,0,0,1-4,1.4H25.69a6.53,6.53,0,0,1-4.21-1.3,4.35,4.35,0,0,1-1.64-3.62,4.17,4.17,0,0,1,1.49-3.44,6.16,6.16,0,0,1,4.05-1.22h2v6.27h0a3.5,3.5,0,0,0,2.06-.57,2,2,0,0,0,.81-1.72,4.6,4.6,0,0,0-.21-1.52,8,8,0,0,0-.71-1.4l2.12-.84a5,5,0,0,1,1.05,1.75A6.93,6.93,0,0,1,33,525Zm-10.5.28a1.23,1.23,0,0,0,.73,1.17,4.83,4.83,0,0,0,2,.43v-3h-.47a3.51,3.51,0,0,0-1.64.32A1.13,1.13,0,0,0,22.5,525.24Z"/><path class="cls-4" d="M27.38,503.7a6.91,6.91,0,0,1,4.08,1.1A3.61,3.61,0,0,1,33,507.89a2.85,2.85,0,0,1-1.23,2.42h5.86v3.33H20.07v-3.08l1.26-.12a3.48,3.48,0,0,1-1.11-1.08,2.77,2.77,0,0,1-.38-1.45,3.55,3.55,0,0,1,1.64-3.11,7.75,7.75,0,0,1,4.35-1.1ZM25.82,507a5.79,5.79,0,0,0-2.41.42,1.38,1.38,0,0,0-.91,1.33,1.62,1.62,0,0,0,.26.91,1.85,1.85,0,0,0,.75.62h6a1.57,1.57,0,0,0,.64-.61,2,2,0,0,0,.21-.94,1.39,1.39,0,0,0-.79-1.33,4.94,4.94,0,0,0-2.17-.4Z"/><path class="cls-4" d="M23.11,496l0,1.26a1.43,1.43,0,0,0,.26.87,1.56,1.56,0,0,0,.73.53h8.69V502H20.07v-3.11l1.7-.12,0-.06a3.63,3.63,0,0,1-1.43-.85,1.79,1.79,0,0,1-.52-1.27,2.74,2.74,0,0,1,0-.48,3.64,3.64,0,0,1,.1-.44Z"/><path class="cls-4" d="M25.64,494.94a6.27,6.27,0,0,1-4.18-1.36,5.24,5.24,0,0,1,0-7.58,6.27,6.27,0,0,1,4.18-1.36h1.57A6.22,6.22,0,0,1,31.39,486a5.27,5.27,0,0,1,0,7.58,6.22,6.22,0,0,1-4.18,1.36Zm1.56-3.32a5.32,5.32,0,0,0,2.3-.41,1.46,1.46,0,0,0,.84-1.43,1.44,1.44,0,0,0-.84-1.4,5.22,5.22,0,0,0-2.3-.42H25.63a5.21,5.21,0,0,0-2.28.42,1.45,1.45,0,0,0-.85,1.41,1.43,1.43,0,0,0,.85,1.41,5.24,5.24,0,0,0,2.28.42Z"/><path class="cls-4" d="M26.48,483.32a9.16,9.16,0,0,1-4.81-1.1,3.44,3.44,0,0,1-1.83-3.1,2.53,2.53,0,0,1,.35-1.34,3.51,3.51,0,0,1,1-1.07H14.47v-3.32H32.75v2.89l-1.38.22a3.73,3.73,0,0,1,1.21,1.15,2.64,2.64,0,0,1,.42,1.48,3.47,3.47,0,0,1-1.72,3.1,8.35,8.35,0,0,1-4.55,1.09Zm.25-3.32a7.22,7.22,0,0,0,2.66-.4,1.36,1.36,0,0,0,.95-1.33,1.68,1.68,0,0,0-.24-.9,2,2,0,0,0-.7-.66H23.61a2.39,2.39,0,0,0-.82.66,1.45,1.45,0,0,0-.29.88,1.41,1.41,0,0,0,1.09,1.34,8.48,8.48,0,0,0,2.89.41Z"/><path class="cls-4" d="M31.29,464.78A3.8,3.8,0,0,1,32.56,466a3.19,3.19,0,0,1,.44,1.66,3.1,3.1,0,0,1-1.29,2.65,6.63,6.63,0,0,1-4,1H20.07V468h7.7a4.35,4.35,0,0,0,2-.33,1.06,1.06,0,0,0,.61-1,2.13,2.13,0,0,0-.21-1,1.91,1.91,0,0,0-.6-.7H20.07v-3.34H32.75v2.93Z"/><path class="cls-4" d="M30.34,454.93a1.17,1.17,0,0,0-.51-1,2.55,2.55,0,0,0-1.45-.34v-3l.07,0A4.29,4.29,0,0,1,33,454.93a4.62,4.62,0,0,1-1.61,3.78A6.31,6.31,0,0,1,27.24,460H25.61a6.37,6.37,0,0,1-4.15-1.32A4.54,4.54,0,0,1,19.84,455a4.23,4.23,0,0,1,1.32-3.27,5,5,0,0,1,3.58-1.18l.05,0v3a3.45,3.45,0,0,0-1.66.34A1.12,1.12,0,0,0,22.5,455a1.36,1.36,0,0,0,.84,1.37,5.7,5.7,0,0,0,2.27.38h1.63a5.62,5.62,0,0,0,2.28-.38A1.4,1.4,0,0,0,30.34,454.93Z"/><path class="cls-4" d="M30.34,444.26a1.15,1.15,0,0,0-.51-1,2.54,2.54,0,0,0-1.45-.35v-3l.07,0A4.29,4.29,0,0,1,33,444.26,4.59,4.59,0,0,1,31.39,448a6.31,6.31,0,0,1-4.15,1.32H25.61a6.42,6.42,0,0,1-4.15-1.31,4.57,4.57,0,0,1-1.62-3.76A4.24,4.24,0,0,1,21.16,441a4.94,4.94,0,0,1,3.58-1.17l.05,0v3a3.44,3.44,0,0,0-1.66.35,1.12,1.12,0,0,0-.63,1.05,1.37,1.37,0,0,0,.84,1.37,5.72,5.72,0,0,0,2.27.37h1.63a5.64,5.64,0,0,0,2.28-.37A1.41,1.41,0,0,0,30.34,444.26Z"/><path class="cls-4" d="M17,434.75v3.33H14.47v-3.33Zm15.74,0v3.33H20.07v-3.33Z"/><path class="cls-4" d="M15.13,427.33v-3.5l.07,0,3,2.92v2.68Zm10.51,5.5a6.27,6.27,0,0,1-4.18-1.36,5.24,5.24,0,0,1,0-7.58,6.27,6.27,0,0,1,4.18-1.36h1.57a6.22,6.22,0,0,1,4.18,1.36,5.27,5.27,0,0,1,0,7.58,6.22,6.22,0,0,1-4.18,1.36Zm1.56-3.32a5.32,5.32,0,0,0,2.3-.41,1.46,1.46,0,0,0,.84-1.43,1.44,1.44,0,0,0-.84-1.4,5.22,5.22,0,0,0-2.3-.42H25.63a5.21,5.21,0,0,0-2.28.42,1.45,1.45,0,0,0-.85,1.41,1.43,1.43,0,0,0,.85,1.41,5.24,5.24,0,0,0,2.28.42Z"/><path class="cls-4" d="M20.07,417.72l1.75-.14a4.2,4.2,0,0,1-1.46-1.29,3,3,0,0,1-.52-1.7,2.93,2.93,0,0,1,1.22-2.49,6.49,6.49,0,0,1,3.83-.91h7.86v3.34H24.88a3.47,3.47,0,0,0-1.85.37,1.32,1.32,0,0,0-.53,1.15,1.59,1.59,0,0,0,.23.82,2,2,0,0,0,.65.63h9.37v3.33H20.07Z"/></g></g></svg>